# MagicaVoxel @ Ephtracy

# group
o 

# material
mtllib Grass3.mtl
usemtl palette

# normals
vn -1 0 0
vn 1 0 0
vn 0 0 1
vn 0 0 -1
vn 0 -1 0
vn 0 1 0

# texcoords
vt 0.990234 0.5
vt 0.994141 0.5

# verts
v -0.5 0 0.4
v -0.5 0 0.3
v -0.5 0.1 0.4
v -0.5 0.1 0.3
v -0.4 0 0.3
v -0.4 0 0.2
v -0.4 0 -0.3
v -0.4 0 -0.4
v -0.4 0 -0.5
v -0.4 0.1 0.3
v -0.4 0.1 0.2
v -0.4 0.1 -0.3
v -0.4 0.1 -0.4
v -0.4 0.1 -0.5
v -0.3 0 -0.3
v -0.3 0 -0.4
v -0.3 0.1 -0.3
v -0.3 0.1 -0.4
v -0.2 0 0
v -0.2 0 -0.1
v -0.2 0.1 0
v -0.2 0.1 -0.1
v -0.1 0 0.3
v -0.1 0 0.1
v -0.1 0 0
v -0.1 0.1 0.3
v -0.1 0.1 0.1
v -0.1 0.1 0
v 0.1 0 0.3
v 0.1 0 0.1
v 0.1 0 0
v 0.1 0.1 0.3
v 0.1 0.1 0.1
v 0.1 0.1 0
v 0.2 0 0
v 0.2 0 -0.1
v 0.2 0.1 0
v 0.2 0.1 -0.1
v -0.3 0 0.2
v -0.3 0 -0.3
v -0.3 0 -0.4
v -0.3 0 -0.5
v -0.3 0.1 0.2
v -0.3 0.1 -0.3
v -0.3 0.1 -0.4
v -0.3 0.1 -0.5
v -0.2 0 0.3
v -0.2 0 0.2
v -0.2 0 -0.3
v -0.2 0 -0.4
v -0.2 0.1 0.3
v -0.2 0.1 0.2
v -0.2 0.1 -0.3
v -0.2 0.1 -0.4
v -0.1 0 0
v -0.1 0 -0.1
v -0.1 0.1 0
v -0.1 0.1 -0.1
v 0 0 0.3
v 0 0 0.1
v 0 0 0
v 0 0.1 0.3
v 0 0.1 0.1
v 0 0.1 0
v 0.2 0 0.3
v 0.2 0 0.1
v 0.2 0.1 0.3
v 0.2 0.1 0.1
v 0.3 0 0.1
v 0.3 0 -0.1
v 0.3 0.1 0.1
v 0.3 0.1 -0.1
v 0.4 0 0.4
v 0.4 0 0.3
v 0.4 0.1 0.4
v 0.4 0.1 0.3
v -0.5 0 0.4
v -0.5 0.1 0.4
v -0.2 0 0.4
v -0.2 0.1 0.4
v 0 0 0.4
v 0 0.1 0.4
v 0.4 0 0.4
v 0.4 0.1 0.4
v 0.2 0 0.1
v 0.2 0.1 0.1
v 0.3 0 0.1
v 0.3 0.1 0.1
v -0.2 0 0
v -0.2 0.1 0
v -0.1 0 0
v -0.1 0.1 0
v -0.3 0 -0.3
v -0.3 0.1 -0.3
v -0.2 0 -0.3
v -0.2 0.1 -0.3
v -0.4 0 -0.4
v -0.4 0.1 -0.4
v -0.3 0 -0.4
v -0.3 0.1 -0.4
v -0.5 0 0.3
v -0.5 0.1 0.3
v -0.4 0 0.3
v -0.4 0.1 0.3
v -0.2 0 0.3
v -0.2 0.1 0.3
v -0.1 0 0.3
v -0.1 0.1 0.3
v 0 0 0.3
v 0 0.1 0.3
v 0.1 0 0.3
v 0.1 0.1 0.3
v 0.2 0 0.3
v 0.2 0.1 0.3
v 0.4 0 0.3
v 0.4 0.1 0.3
v -0.3 0 0.2
v -0.3 0.1 0.2
v -0.2 0 0.2
v -0.2 0.1 0.2
v -0.1 0 0
v -0.1 0.1 0
v 0 0 0
v 0 0.1 0
v 0.1 0 0
v 0.1 0.1 0
v 0.2 0 0
v 0.2 0.1 0
v -0.2 0 -0.1
v -0.2 0.1 -0.1
v -0.1 0 -0.1
v -0.1 0.1 -0.1
v 0.2 0 -0.1
v 0.2 0.1 -0.1
v 0.3 0 -0.1
v 0.3 0.1 -0.1
v -0.4 0 -0.3
v -0.4 0.1 -0.3
v -0.3 0 -0.3
v -0.3 0.1 -0.3
v -0.3 0 -0.4
v -0.3 0.1 -0.4
v -0.2 0 -0.4
v -0.2 0.1 -0.4
v -0.4 0 -0.5
v -0.4 0.1 -0.5
v -0.3 0 -0.5
v -0.3 0.1 -0.5
v -0.5 0 0.4
v -0.2 0 0.4
v 0 0 0.4
v 0.4 0 0.4
v -0.5 0 0.3
v -0.4 0 0.3
v -0.3 0 0.3
v -0.2 0 0.3
v -0.1 0 0.3
v 0 0 0.3
v 0.1 0 0.3
v 0.2 0 0.3
v 0.4 0 0.3
v -0.4 0 0.2
v -0.3 0 0.2
v -0.2 0 0.2
v -0.1 0 0.1
v 0 0 0.1
v 0.1 0 0.1
v 0.2 0 0.1
v 0.3 0 0.1
v -0.2 0 0
v -0.1 0 0
v 0 0 0
v 0.1 0 0
v 0.2 0 0
v -0.2 0 -0.1
v -0.1 0 -0.1
v 0.2 0 -0.1
v 0.3 0 -0.1
v -0.4 0 -0.3
v -0.3 0 -0.3
v -0.2 0 -0.3
v -0.4 0 -0.4
v -0.3 0 -0.4
v -0.2 0 -0.4
v -0.4 0 -0.5
v -0.3 0 -0.5
v -0.5 0.1 0.4
v -0.2 0.1 0.4
v 0 0.1 0.4
v 0.4 0.1 0.4
v -0.5 0.1 0.3
v -0.4 0.1 0.3
v -0.3 0.1 0.3
v -0.2 0.1 0.3
v -0.1 0.1 0.3
v 0 0.1 0.3
v 0.1 0.1 0.3
v 0.2 0.1 0.3
v 0.4 0.1 0.3
v -0.4 0.1 0.2
v -0.3 0.1 0.2
v -0.2 0.1 0.2
v -0.1 0.1 0.1
v 0 0.1 0.1
v 0.1 0.1 0.1
v 0.2 0.1 0.1
v 0.3 0.1 0.1
v -0.2 0.1 0
v -0.1 0.1 0
v 0 0.1 0
v 0.1 0.1 0
v 0.2 0.1 0
v -0.2 0.1 -0.1
v -0.1 0.1 -0.1
v 0.2 0.1 -0.1
v 0.3 0.1 -0.1
v -0.4 0.1 -0.3
v -0.3 0.1 -0.3
v -0.2 0.1 -0.3
v -0.4 0.1 -0.4
v -0.3 0.1 -0.4
v -0.2 0.1 -0.4
v -0.4 0.1 -0.5
v -0.3 0.1 -0.5

# faces
f 3/2/1 2/2/1 1/2/1
f 4/2/1 2/2/1 3/2/1
f 10/1/1 6/1/1 5/1/1
f 11/2/1 7/2/1 6/2/1
f 11/1/1 6/1/1 10/1/1
f 12/2/1 7/2/1 11/2/1
f 13/2/1 9/2/1 8/2/1
f 14/2/1 9/2/1 13/2/1
f 17/1/1 16/1/1 15/1/1
f 18/1/1 16/1/1 17/1/1
f 21/1/1 20/1/1 19/1/1
f 22/1/1 20/1/1 21/1/1
f 26/2/1 24/2/1 23/2/1
f 27/1/1 25/1/1 24/1/1
f 27/2/1 24/2/1 26/2/1
f 28/1/1 25/1/1 27/1/1
f 32/1/1 30/1/1 29/1/1
f 33/2/1 31/2/1 30/2/1
f 33/1/1 30/1/1 32/1/1
f 34/2/1 31/2/1 33/2/1
f 37/1/1 36/1/1 35/1/1
f 38/1/1 36/1/1 37/1/1
f 39/2/2 40/2/2 43/2/2
f 43/2/2 40/2/2 44/2/2
f 41/2/2 42/2/2 45/2/2
f 45/2/2 42/2/2 46/2/2
f 47/2/2 48/2/2 51/2/2
f 51/2/2 48/2/2 52/2/2
f 49/1/2 50/1/2 53/1/2
f 53/1/2 50/1/2 54/1/2
f 55/1/2 56/1/2 57/1/2
f 57/1/2 56/1/2 58/1/2
f 59/2/2 60/2/2 62/2/2
f 60/1/2 61/1/2 63/1/2
f 62/2/2 60/2/2 63/2/2
f 63/1/2 61/1/2 64/1/2
f 65/1/2 66/1/2 67/1/2
f 67/1/2 66/1/2 68/1/2
f 69/1/2 70/1/2 71/1/2
f 71/1/2 70/1/2 72/1/2
f 73/2/2 74/2/2 75/2/2
f 75/2/2 74/2/2 76/2/2
f 79/2/3 78/2/3 77/2/3
f 80/2/3 78/2/3 79/2/3
f 81/1/3 80/1/3 79/1/3
f 82/1/3 80/1/3 81/1/3
f 83/2/3 82/2/3 81/2/3
f 84/2/3 82/2/3 83/2/3
f 87/1/3 86/1/3 85/1/3
f 88/1/3 86/1/3 87/1/3
f 91/1/3 90/1/3 89/1/3
f 92/1/3 90/1/3 91/1/3
f 95/1/3 94/1/3 93/1/3
f 96/1/3 94/1/3 95/1/3
f 99/2/3 98/2/3 97/2/3
f 100/2/3 98/2/3 99/2/3
f 101/2/4 102/2/4 103/2/4
f 103/2/4 102/2/4 104/2/4
f 105/1/4 106/1/4 107/1/4
f 107/1/4 106/1/4 108/1/4
f 109/2/4 110/2/4 111/2/4
f 111/2/4 110/2/4 112/2/4
f 113/2/4 114/2/4 115/2/4
f 115/2/4 114/2/4 116/2/4
f 117/2/4 118/2/4 119/2/4
f 119/2/4 118/2/4 120/2/4
f 121/1/4 122/1/4 123/1/4
f 123/1/4 122/1/4 124/1/4
f 125/2/4 126/2/4 127/2/4
f 127/2/4 126/2/4 128/2/4
f 129/1/4 130/1/4 131/1/4
f 131/1/4 130/1/4 132/1/4
f 133/1/4 134/1/4 135/1/4
f 135/1/4 134/1/4 136/1/4
f 137/2/4 138/2/4 139/2/4
f 139/2/4 138/2/4 140/2/4
f 141/1/4 142/1/4 143/1/4
f 143/1/4 142/1/4 144/1/4
f 145/2/4 146/2/4 147/2/4
f 147/2/4 146/2/4 148/2/4
f 153/2/5 150/2/5 149/2/5
f 154/2/5 150/2/5 153/2/5
f 155/2/5 150/2/5 154/2/5
f 156/1/5 151/1/5 150/1/5
f 156/2/5 150/2/5 155/2/5
f 157/1/5 151/1/5 156/1/5
f 158/2/5 152/2/5 151/2/5
f 158/1/5 151/1/5 157/1/5
f 159/2/5 152/2/5 158/2/5
f 160/2/5 152/2/5 159/2/5
f 161/2/5 152/2/5 160/2/5
f 162/1/5 155/1/5 154/1/5
f 163/2/5 156/2/5 155/2/5
f 163/1/5 155/1/5 162/1/5
f 164/2/5 156/2/5 163/2/5
f 165/2/5 158/2/5 157/2/5
f 166/2/5 158/2/5 165/2/5
f 167/1/5 160/1/5 159/1/5
f 168/1/5 160/1/5 167/1/5
f 171/1/5 166/1/5 165/1/5
f 172/1/5 166/1/5 171/1/5
f 173/2/5 168/2/5 167/2/5
f 174/1/5 169/1/5 168/1/5
f 174/2/5 168/2/5 173/2/5
f 175/1/5 171/1/5 170/1/5
f 176/1/5 171/1/5 175/1/5
f 177/1/5 169/1/5 174/1/5
f 178/1/5 169/1/5 177/1/5
f 179/2/5 163/2/5 162/2/5
f 180/2/5 163/2/5 179/2/5
f 183/1/5 181/1/5 180/1/5
f 184/1/5 181/1/5 183/1/5
f 185/2/5 183/2/5 182/2/5
f 186/2/5 183/2/5 185/2/5
f 187/2/6 188/2/6 191/2/6
f 191/2/6 188/2/6 192/2/6
f 192/2/6 188/2/6 193/2/6
f 188/1/6 189/1/6 194/1/6
f 193/2/6 188/2/6 194/2/6
f 194/1/6 189/1/6 195/1/6
f 189/2/6 190/2/6 196/2/6
f 195/1/6 189/1/6 196/1/6
f 196/2/6 190/2/6 197/2/6
f 197/2/6 190/2/6 198/2/6
f 198/2/6 190/2/6 199/2/6
f 192/1/6 193/1/6 200/1/6
f 193/2/6 194/2/6 201/2/6
f 200/1/6 193/1/6 201/1/6
f 201/2/6 194/2/6 202/2/6
f 195/2/6 196/2/6 203/2/6
f 203/2/6 196/2/6 204/2/6
f 197/1/6 198/1/6 205/1/6
f 205/1/6 198/1/6 206/1/6
f 203/1/6 204/1/6 209/1/6
f 209/1/6 204/1/6 210/1/6
f 205/2/6 206/2/6 211/2/6
f 206/1/6 207/1/6 212/1/6
f 211/2/6 206/2/6 212/2/6
f 208/1/6 209/1/6 213/1/6
f 213/1/6 209/1/6 214/1/6
f 212/1/6 207/1/6 215/1/6
f 215/1/6 207/1/6 216/1/6
f 200/2/6 201/2/6 217/2/6
f 217/2/6 201/2/6 218/2/6
f 218/1/6 219/1/6 221/1/6
f 221/1/6 219/1/6 222/1/6
f 220/2/6 221/2/6 223/2/6
f 223/2/6 221/2/6 224/2/6
