# MagicaVoxel @ Ephtracy

# group
o 

# material
mtllib Grass2.mtl
usemtl palette

# normals
vn -1 0 0
vn 1 0 0
vn 0 0 1
vn 0 0 -1
vn 0 -1 0
vn 0 1 0

# texcoords
vt 0.990234 0.5
vt 0.994141 0.5

# verts
v -0.6 0 0.8
v -0.6 0 0.7
v -0.6 0 0.6
v -0.6 0.1 0.8
v -0.6 0.1 0.7
v -0.6 0.1 0.6
v -0.5 0 0.6
v -0.5 0 0.5
v -0.5 0 -0.4
v -0.5 0 -0.5
v -0.5 0.1 0.6
v -0.5 0.1 0.5
v -0.5 0.1 -0.4
v -0.5 0.1 -0.5
v -0.4 0 0.5
v -0.4 0 -5.96046e-008
v -0.4 0 -0.1
v -0.4 0 -0.4
v -0.4 0.1 0.5
v -0.4 0.1 -5.96046e-008
v -0.4 0.1 -0.1
v -0.4 0.1 -0.4
v -0.2 0 0.5
v -0.2 0 0.2
v -0.2 0 0.1
v -0.2 0 -0.3
v -0.2 0.1 0.5
v -0.2 0.1 0.2
v -0.2 0.1 0.1
v -0.2 0.1 -0.3
v -0.0999999 0 0.7
v -0.0999999 0 0.5
v -0.0999999 0.1 0.7
v -0.0999999 0.1 0.5
v 0.1 0 0.6
v 0.1 0 -5.96046e-008
v 0.1 0.1 0.6
v 0.1 0.1 -5.96046e-008
v 0.2 0 -5.96046e-008
v 0.2 0 -0.1
v 0.2 0.1 -5.96046e-008
v 0.2 0.1 -0.1
v 0.3 0 0.4
v 0.3 0 0.2
v 0.3 0 0.1
v 0.3 0.1 0.4
v 0.3 0.1 0.2
v 0.3 0.1 0.1
v -0.4 0 -0.4
v -0.4 0 -0.5
v -0.4 0.1 -0.4
v -0.4 0.1 -0.5
v -0.3 0 0.7
v -0.3 0 0.6
v -0.3 0 -5.96046e-008
v -0.3 0 -0.1
v -0.3 0 -0.4
v -0.3 0.1 0.7
v -0.3 0.1 0.6
v -0.3 0.1 -5.96046e-008
v -0.3 0.1 -0.1
v -0.3 0.1 -0.4
v -0.0999999 0 0.4
v -0.0999999 0 0.2
v -0.0999999 0 0.1
v -0.0999999 0 -0.3
v -0.0999999 0.1 0.4
v -0.0999999 0.1 0.2
v -0.0999999 0.1 0.1
v -0.0999999 0.1 -0.3
v 5.96046e-008 0 0.6
v 5.96046e-008 0 0.5
v 5.96046e-008 0 0.4
v 5.96046e-008 0.1 0.6
v 5.96046e-008 0.1 0.5
v 5.96046e-008 0.1 0.4
v 0.2 0 0.4
v 0.2 0 -5.96046e-008
v 0.2 0.1 0.4
v 0.2 0.1 -5.96046e-008
v 0.3 0 0.6
v 0.3 0 0.4
v 0.3 0 -5.96046e-008
v 0.3 0 -0.1
v 0.3 0.1 0.6
v 0.3 0.1 0.4
v 0.3 0.1 -5.96046e-008
v 0.3 0.1 -0.1
v 0.4 0 0.7
v 0.4 0 0.6
v 0.4 0 0.4
v 0.4 0 0.2
v 0.4 0 0.1
v 0.4 0.1 0.7
v 0.4 0.1 0.6
v 0.4 0.1 0.4
v 0.4 0.1 0.2
v 0.4 0.1 0.1
v 0.5 0 0.8
v 0.5 0 0.7
v 0.5 0.1 0.8
v 0.5 0.1 0.7
v -0.6 0 0.8
v -0.6 0.1 0.8
v -0.2 0 0.8
v -0.2 0.1 0.8
v 0.1 0 0.8
v 0.1 0.1 0.8
v 0.4 0 0.8
v 0.4 0.1 0.8
v 0.5 0 0.8
v 0.5 0.1 0.8
v -0.2 0 0.5
v -0.2 0.1 0.5
v -0.0999999 0 0.5
v -0.0999999 0.1 0.5
v 0.3 0 0.4
v 0.3 0.1 0.4
v 0.4 0 0.4
v 0.4 0.1 0.4
v 0.2 0 -5.96046e-008
v 0.2 0.1 -5.96046e-008
v 0.3 0 -5.96046e-008
v 0.3 0.1 -5.96046e-008
v -0.5 0 -0.4
v -0.5 0.1 -0.4
v -0.4 0 -0.4
v -0.4 0.1 -0.4
v -0.3 0 0.7
v -0.3 0.1 0.7
v -0.2 0 0.7
v -0.2 0.1 0.7
v -0.0999999 0 0.7
v -0.0999999 0.1 0.7
v 0.4 0 0.7
v 0.4 0.1 0.7
v 0.5 0 0.7
v 0.5 0.1 0.7
v -0.6 0 0.6
v -0.6 0.1 0.6
v -0.5 0 0.6
v -0.5 0.1 0.6
v 5.96046e-008 0 0.6
v 5.96046e-008 0.1 0.6
v 0.1 0 0.6
v 0.1 0.1 0.6
v 0.3 0 0.6
v 0.3 0.1 0.6
v 0.4 0 0.6
v 0.4 0.1 0.6
v -0.5 0 0.5
v -0.5 0.1 0.5
v -0.4 0 0.5
v -0.4 0.1 0.5
v -0.0999999 0 0.4
v -0.0999999 0.1 0.4
v 5.96046e-008 0 0.4
v 5.96046e-008 0.1 0.4
v 0.2 0 0.4
v 0.2 0.1 0.4
v 0.3 0 0.4
v 0.3 0.1 0.4
v 0.3 0 0.1
v 0.3 0.1 0.1
v 0.4 0 0.1
v 0.4 0.1 0.1
v 0.1 0 -5.96046e-008
v 0.1 0.1 -5.96046e-008
v 0.2 0 -5.96046e-008
v 0.2 0.1 -5.96046e-008
v 0.2 0 -0.1
v 0.2 0.1 -0.1
v 0.3 0 -0.1
v 0.3 0.1 -0.1
v -0.2 0 -0.3
v -0.2 0.1 -0.3
v -0.0999999 0 -0.3
v -0.0999999 0.1 -0.3
v -0.4 0 -0.4
v -0.4 0.1 -0.4
v -0.3 0 -0.4
v -0.3 0.1 -0.4
v -0.5 0 -0.5
v -0.5 0.1 -0.5
v -0.4 0 -0.5
v -0.4 0.1 -0.5
v -0.6 0 0.8
v -0.2 0 0.8
v 0.1 0 0.8
v 0.4 0 0.8
v 0.5 0 0.8
v -0.6 0 0.7
v -0.3 0 0.7
v -0.2 0 0.7
v -0.0999999 0 0.7
v 5.96046e-008 0 0.7
v 0.1 0 0.7
v 0.2 0 0.7
v 0.3 0 0.7
v 0.4 0 0.7
v 0.5 0 0.7
v -0.6 0 0.6
v -0.5 0 0.6
v -0.4 0 0.6
v -0.3 0 0.6
v 5.96046e-008 0 0.6
v 0.1 0 0.6
v 0.2 0 0.6
v 0.3 0 0.6
v 0.4 0 0.6
v -0.5 0 0.5
v -0.4 0 0.5
v -0.2 0 0.5
v -0.0999999 0 0.5
v 5.96046e-008 0 0.5
v -0.0999999 0 0.4
v 5.96046e-008 0 0.4
v 0.2 0 0.4
v 0.3 0 0.4
v 0.4 0 0.4
v -0.2 0 0.2
v -0.0999999 0 0.2
v 0.3 0 0.2
v 0.4 0 0.2
v -0.2 0 0.1
v -0.0999999 0 0.1
v 0.3 0 0.1
v 0.4 0 0.1
v -0.4 0 -5.96046e-008
v -0.3 0 -5.96046e-008
v 0.1 0 -5.96046e-008
v 0.2 0 -5.96046e-008
v 0.3 0 -5.96046e-008
v -0.4 0 -0.1
v -0.3 0 -0.1
v 0.2 0 -0.1
v 0.3 0 -0.1
v -0.2 0 -0.3
v -0.0999999 0 -0.3
v -0.5 0 -0.4
v -0.4 0 -0.4
v -0.3 0 -0.4
v -0.5 0 -0.5
v -0.4 0 -0.5
v -0.6 0.1 0.8
v -0.2 0.1 0.8
v 0.1 0.1 0.8
v 0.4 0.1 0.8
v 0.5 0.1 0.8
v -0.6 0.1 0.7
v -0.3 0.1 0.7
v -0.2 0.1 0.7
v -0.0999999 0.1 0.7
v 5.96046e-008 0.1 0.7
v 0.1 0.1 0.7
v 0.2 0.1 0.7
v 0.3 0.1 0.7
v 0.4 0.1 0.7
v 0.5 0.1 0.7
v -0.6 0.1 0.6
v -0.5 0.1 0.6
v -0.4 0.1 0.6
v -0.3 0.1 0.6
v 5.96046e-008 0.1 0.6
v 0.1 0.1 0.6
v 0.2 0.1 0.6
v 0.3 0.1 0.6
v 0.4 0.1 0.6
v -0.5 0.1 0.5
v -0.4 0.1 0.5
v -0.2 0.1 0.5
v -0.0999999 0.1 0.5
v 5.96046e-008 0.1 0.5
v -0.0999999 0.1 0.4
v 5.96046e-008 0.1 0.4
v 0.2 0.1 0.4
v 0.3 0.1 0.4
v 0.4 0.1 0.4
v -0.2 0.1 0.2
v -0.0999999 0.1 0.2
v 0.3 0.1 0.2
v 0.4 0.1 0.2
v -0.2 0.1 0.1
v -0.0999999 0.1 0.1
v 0.3 0.1 0.1
v 0.4 0.1 0.1
v -0.4 0.1 -5.96046e-008
v -0.3 0.1 -5.96046e-008
v 0.1 0.1 -5.96046e-008
v 0.2 0.1 -5.96046e-008
v 0.3 0.1 -5.96046e-008
v -0.4 0.1 -0.1
v -0.3 0.1 -0.1
v 0.2 0.1 -0.1
v 0.3 0.1 -0.1
v -0.2 0.1 -0.3
v -0.0999999 0.1 -0.3
v -0.5 0.1 -0.4
v -0.4 0.1 -0.4
v -0.3 0.1 -0.4
v -0.5 0.1 -0.5
v -0.4 0.1 -0.5

# faces
f 4/2/1 2/2/1 1/2/1
f 5/1/1 3/1/1 2/1/1
f 5/2/1 2/2/1 4/2/1
f 6/1/1 3/1/1 5/1/1
f 11/1/1 8/1/1 7/1/1
f 12/1/1 8/1/1 11/1/1
f 13/2/1 10/2/1 9/2/1
f 14/2/1 10/2/1 13/2/1
f 19/2/1 16/2/1 15/2/1
f 20/1/1 17/1/1 16/1/1
f 20/2/1 16/2/1 19/2/1
f 21/2/1 18/2/1 17/2/1
f 21/1/1 17/1/1 20/1/1
f 22/2/1 18/2/1 21/2/1
f 27/2/1 24/2/1 23/2/1
f 28/1/1 25/1/1 24/1/1
f 28/2/1 24/2/1 27/2/1
f 29/2/1 26/2/1 25/2/1
f 29/1/1 25/1/1 28/1/1
f 30/2/1 26/2/1 29/2/1
f 33/2/1 32/2/1 31/2/1
f 34/2/1 32/2/1 33/2/1
f 37/2/1 36/2/1 35/2/1
f 38/2/1 36/2/1 37/2/1
f 41/2/1 40/2/1 39/2/1
f 42/2/1 40/2/1 41/2/1
f 46/1/1 44/1/1 43/1/1
f 47/2/1 45/2/1 44/2/1
f 47/1/1 44/1/1 46/1/1
f 48/2/1 45/2/1 47/2/1
f 49/2/2 50/2/2 51/2/2
f 51/2/2 50/2/2 52/2/2
f 53/1/2 54/1/2 58/1/2
f 54/2/2 55/2/2 59/2/2
f 58/1/2 54/1/2 59/1/2
f 55/1/2 56/1/2 60/1/2
f 59/2/2 55/2/2 60/2/2
f 56/2/2 57/2/2 61/2/2
f 60/1/2 56/1/2 61/1/2
f 61/2/2 57/2/2 62/2/2
f 63/2/2 64/2/2 67/2/2
f 64/1/2 65/1/2 68/1/2
f 67/2/2 64/2/2 68/2/2
f 65/2/2 66/2/2 69/2/2
f 68/1/2 65/1/2 69/1/2
f 69/2/2 66/2/2 70/2/2
f 71/2/2 72/2/2 74/2/2
f 72/1/2 73/1/2 75/1/2
f 74/2/2 72/2/2 75/2/2
f 75/1/2 73/1/2 76/1/2
f 77/2/2 78/2/2 79/2/2
f 79/2/2 78/2/2 80/2/2
f 81/2/2 82/2/2 85/2/2
f 85/2/2 82/2/2 86/2/2
f 83/2/2 84/2/2 87/2/2
f 87/2/2 84/2/2 88/2/2
f 89/1/2 90/1/2 94/1/2
f 94/1/2 90/1/2 95/1/2
f 91/1/2 92/1/2 96/1/2
f 92/2/2 93/2/2 97/2/2
f 96/1/2 92/1/2 97/1/2
f 97/2/2 93/2/2 98/2/2
f 99/1/2 100/1/2 101/1/2
f 101/1/2 100/1/2 102/1/2
f 105/2/3 104/2/3 103/2/3
f 106/2/3 104/2/3 105/2/3
f 107/1/3 106/1/3 105/1/3
f 108/1/3 106/1/3 107/1/3
f 109/2/3 108/2/3 107/2/3
f 110/2/3 108/2/3 109/2/3
f 111/1/3 110/1/3 109/1/3
f 112/1/3 110/1/3 111/1/3
f 115/2/3 114/2/3 113/2/3
f 116/2/3 114/2/3 115/2/3
f 119/1/3 118/1/3 117/1/3
f 120/1/3 118/1/3 119/1/3
f 123/2/3 122/2/3 121/2/3
f 124/2/3 122/2/3 123/2/3
f 127/2/3 126/2/3 125/2/3
f 128/2/3 126/2/3 127/2/3
f 129/2/4 130/2/4 131/2/4
f 131/2/4 130/2/4 132/2/4
f 131/1/4 132/1/4 133/1/4
f 133/1/4 132/1/4 134/1/4
f 135/1/4 136/1/4 137/1/4
f 137/1/4 136/1/4 138/1/4
f 139/1/4 140/1/4 141/1/4
f 141/1/4 140/1/4 142/1/4
f 143/1/4 144/1/4 145/1/4
f 145/1/4 144/1/4 146/1/4
f 147/1/4 148/1/4 149/1/4
f 149/1/4 148/1/4 150/1/4
f 151/1/4 152/1/4 153/1/4
f 153/1/4 152/1/4 154/1/4
f 155/1/4 156/1/4 157/1/4
f 157/1/4 156/1/4 158/1/4
f 159/2/4 160/2/4 161/2/4
f 161/2/4 160/2/4 162/2/4
f 163/2/4 164/2/4 165/2/4
f 165/2/4 164/2/4 166/2/4
f 167/2/4 168/2/4 169/2/4
f 169/2/4 168/2/4 170/2/4
f 171/2/4 172/2/4 173/2/4
f 173/2/4 172/2/4 174/2/4
f 175/2/4 176/2/4 177/2/4
f 177/2/4 176/2/4 178/2/4
f 179/2/4 180/2/4 181/2/4
f 181/2/4 180/2/4 182/2/4
f 183/2/4 184/2/4 185/2/4
f 185/2/4 184/2/4 186/2/4
f 192/2/5 188/2/5 187/2/5
f 193/2/5 188/2/5 192/2/5
f 194/1/5 189/1/5 188/1/5
f 194/2/5 188/2/5 193/2/5
f 195/1/5 189/1/5 194/1/5
f 196/1/5 189/1/5 195/1/5
f 197/2/5 190/2/5 189/2/5
f 197/1/5 189/1/5 196/1/5
f 198/2/5 190/2/5 197/2/5
f 199/2/5 190/2/5 198/2/5
f 200/1/5 191/1/5 190/1/5
f 200/2/5 190/2/5 199/2/5
f 201/1/5 191/1/5 200/1/5
f 202/1/5 193/1/5 192/1/5
f 203/1/5 193/1/5 202/1/5
f 204/1/5 193/1/5 203/1/5
f 205/1/5 193/1/5 204/1/5
f 206/2/5 196/2/5 195/2/5
f 206/1/5 198/1/5 197/1/5
f 206/1/5 197/1/5 196/1/5
f 207/1/5 198/1/5 206/1/5
f 208/2/5 199/2/5 198/2/5
f 208/1/5 198/1/5 207/1/5
f 209/1/5 200/1/5 199/1/5
f 209/2/5 199/2/5 208/2/5
f 210/1/5 200/1/5 209/1/5
f 211/1/5 204/1/5 203/1/5
f 212/2/5 205/2/5 204/2/5
f 212/1/5 204/1/5 211/1/5
f 214/2/5 206/2/5 195/2/5
f 215/2/5 206/2/5 214/2/5
f 216/2/5 214/2/5 213/2/5
f 216/1/5 215/1/5 214/1/5
f 217/1/5 215/1/5 216/1/5
f 218/2/5 208/2/5 207/2/5
f 218/2/5 209/2/5 208/2/5
f 219/2/5 209/2/5 218/2/5
f 221/2/5 216/2/5 213/2/5
f 222/2/5 216/2/5 221/2/5
f 223/1/5 220/1/5 219/1/5
f 224/1/5 220/1/5 223/1/5
f 225/1/5 222/1/5 221/1/5
f 226/1/5 222/1/5 225/1/5
f 227/2/5 224/2/5 223/2/5
f 228/2/5 224/2/5 227/2/5
f 229/2/5 205/2/5 212/2/5
f 230/2/5 205/2/5 229/2/5
f 231/2/5 218/2/5 207/2/5
f 232/2/5 218/2/5 231/2/5
f 234/1/5 230/1/5 229/1/5
f 235/1/5 230/1/5 234/1/5
f 236/2/5 233/2/5 232/2/5
f 237/2/5 233/2/5 236/2/5
f 238/2/5 226/2/5 225/2/5
f 239/2/5 226/2/5 238/2/5
f 241/2/5 235/2/5 234/2/5
f 242/2/5 235/2/5 241/2/5
f 243/2/5 241/2/5 240/2/5
f 244/2/5 241/2/5 243/2/5
f 245/2/6 246/2/6 250/2/6
f 250/2/6 246/2/6 251/2/6
f 246/1/6 247/1/6 252/1/6
f 251/2/6 246/2/6 252/2/6
f 252/1/6 247/1/6 253/1/6
f 253/1/6 247/1/6 254/1/6
f 247/2/6 248/2/6 255/2/6
f 254/1/6 247/1/6 255/1/6
f 255/2/6 248/2/6 256/2/6
f 256/2/6 248/2/6 257/2/6
f 248/1/6 249/1/6 258/1/6
f 257/2/6 248/2/6 258/2/6
f 258/1/6 249/1/6 259/1/6
f 250/1/6 251/1/6 260/1/6
f 260/1/6 251/1/6 261/1/6
f 261/1/6 251/1/6 262/1/6
f 262/1/6 251/1/6 263/1/6
f 253/2/6 254/2/6 264/2/6
f 255/1/6 256/1/6 264/1/6
f 254/1/6 255/1/6 264/1/6
f 264/1/6 256/1/6 265/1/6
f 256/2/6 257/2/6 266/2/6
f 265/1/6 256/1/6 266/1/6
f 257/1/6 258/1/6 267/1/6
f 266/2/6 257/2/6 267/2/6
f 267/1/6 258/1/6 268/1/6
f 261/1/6 262/1/6 269/1/6
f 262/2/6 263/2/6 270/2/6
f 269/1/6 262/1/6 270/1/6
f 253/2/6 264/2/6 272/2/6
f 272/2/6 264/2/6 273/2/6
f 271/2/6 272/2/6 274/2/6
f 272/1/6 273/1/6 274/1/6
f 274/1/6 273/1/6 275/1/6
f 265/2/6 266/2/6 276/2/6
f 266/2/6 267/2/6 276/2/6
f 276/2/6 267/2/6 277/2/6
f 271/2/6 274/2/6 279/2/6
f 279/2/6 274/2/6 280/2/6
f 277/1/6 278/1/6 281/1/6
f 281/1/6 278/1/6 282/1/6
f 279/1/6 280/1/6 283/1/6
f 283/1/6 280/1/6 284/1/6
f 281/2/6 282/2/6 285/2/6
f 285/2/6 282/2/6 286/2/6
f 270/2/6 263/2/6 287/2/6
f 287/2/6 263/2/6 288/2/6
f 265/2/6 276/2/6 289/2/6
f 289/2/6 276/2/6 290/2/6
f 287/1/6 288/1/6 292/1/6
f 292/1/6 288/1/6 293/1/6
f 290/2/6 291/2/6 294/2/6
f 294/2/6 291/2/6 295/2/6
f 283/2/6 284/2/6 296/2/6
f 296/2/6 284/2/6 297/2/6
f 292/2/6 293/2/6 299/2/6
f 299/2/6 293/2/6 300/2/6
f 298/2/6 299/2/6 301/2/6
f 301/2/6 299/2/6 302/2/6
