# MagicaVoxel @ Ephtracy

# group
o 

# material
mtllib Sunflower.mtl
usemtl palette

# normals
vn -1 0 0
vn 1 0 0
vn 0 0 1
vn 0 0 -1
vn 0 -1 0
vn 0 1 0

# texcoords
vt 0.978516 0.5
vt 0.982422 0.5
vt 0.986328 0.5
vt 0.990234 0.5
vt 0.994141 0.5

# verts
v -0.6 0 -0.2
v -0.6 0 -0.4
v -0.6 0.1 -0.2
v -0.6 0.1 -0.4
v -0.5 0 -0.1
v -0.5 0 -0.2
v -0.5 0 -0.4
v -0.5 0 -0.5
v -0.5 0.1 -0.1
v -0.5 0.1 -0.2
v -0.5 0.1 -0.4
v -0.5 0.1 -0.5
v -0.3 0 0.8
v -0.3 0 0.7
v -0.3 0 -0.7
v -0.3 0 -1.2
v -0.3 0.1 0.8
v -0.3 0.1 0.7
v -0.3 0.1 -0.7
v -0.3 0.1 -1.2
v -0.2 0 0.7
v -0.2 0 -0.1
v -0.2 0 -0.6
v -0.2 0 -0.7
v -0.2 0 -1.2
v -0.2 0 -1.3
v -0.2 0.1 0.7
v -0.2 0.1 -0.1
v -0.2 0.1 -0.6
v -0.2 0.1 -0.7
v -0.2 0.1 -1.2
v -0.2 0.1 -1.3
v -0.1 0 -0.3
v -0.1 0 -0.4
v -0.1 0 -0.5
v -0.1 0 -0.6
v -0.1 0 -1.3
v -0.1 0 -1.4
v -0.1 0.1 -0.3
v -0.1 0.1 -0.4
v -0.1 0.1 -0.5
v -0.1 0.1 -0.6
v -0.1 0.1 -1.3
v -0.1 0.1 -1.4
v -5.96046e-008 0 0
v -5.96046e-008 0 -0.1
v -5.96046e-008 0.1 0
v -5.96046e-008 0.1 -0.1
v 0.1 0 -0.1
v 0.1 0 -0.2
v 0.1 0.1 -0.1
v 0.1 0.1 -0.2
v -0.4 0 -0.4
v -0.4 0 -0.5
v -0.4 0.1 -0.4
v -0.4 0.1 -0.5
v -0.3 0 -0.3
v -0.3 0 -0.4
v -0.3 0.1 -0.3
v -0.3 0.1 -0.4
v -0.1 0 0.7
v -0.1 0 0.3
v -0.1 0 0
v -0.1 0 -0.3
v -0.1 0.1 0.7
v -0.1 0.1 0.3
v -0.1 0.1 0
v -0.1 0.1 -0.3
v -5.96046e-008 0 0.3
v -5.96046e-008 0 0.2
v -5.96046e-008 0 -0.3
v -5.96046e-008 0 -0.4
v -5.96046e-008 0 -0.5
v -5.96046e-008 0.1 0.3
v -5.96046e-008 0.1 0.2
v -5.96046e-008 0.1 -0.3
v -5.96046e-008 0.1 -0.4
v -5.96046e-008 0.1 -0.5
v 0.1 0 0.8
v 0.1 0 0.7
v 0.1 0.1 0.8
v 0.1 0.1 0.7
v 0.2 0 0.2
v 0.2 0 0.1
v 0.2 0.1 0.2
v 0.2 0.1 0.1
v 0.3 0 0.1
v 0.3 0 -0.2
v 0.3 0.1 0.1
v 0.3 0.1 -0.2
v 0.4 0 -0.5
v 0.4 0 -0.6
v 0.4 0 -1.3
v 0.4 0 -1.4
v 0.4 0.1 -0.5
v 0.4 0.1 -0.6
v 0.4 0.1 -1.3
v 0.4 0.1 -1.4
v 0.5 0 -0.6
v 0.5 0 -0.7
v 0.5 0 -1.2
v 0.5 0 -1.3
v 0.5 0.1 -0.6
v 0.5 0.1 -0.7
v 0.5 0.1 -1.2
v 0.5 0.1 -1.3
v 0.6 0 -0.7
v 0.6 0 -1.2
v 0.6 0.1 -0.7
v 0.6 0.1 -1.2
v -0.3 0 0.8
v -0.3 0.1 0.8
v 0.1 0 0.8
v 0.1 0.1 0.8
v -0.1 0 0.3
v -0.1 0.1 0.3
v -5.96046e-008 0 0.3
v -5.96046e-008 0.1 0.3
v -5.96046e-008 0 0.2
v -5.96046e-008 0.1 0.2
v 0.2 0 0.2
v 0.2 0.1 0.2
v 0.2 0 0.1
v 0.2 0.1 0.1
v 0.3 0 0.1
v 0.3 0.1 0.1
v -0.5 0 -0.1
v -0.5 0.1 -0.1
v -0.2 0 -0.1
v -0.2 0.1 -0.1
v -0.6 0 -0.2
v -0.6 0.1 -0.2
v -0.5 0 -0.2
v -0.5 0.1 -0.2
v -0.1 0 -0.3
v -0.1 0.1 -0.3
v -5.96046e-008 0 -0.3
v -5.96046e-008 0.1 -0.3
v -5.96046e-008 0 -0.5
v -5.96046e-008 0.1 -0.5
v 0.4 0 -0.5
v 0.4 0.1 -0.5
v -0.2 0 -0.6
v -0.2 0.1 -0.6
v -0.1 0 -0.6
v -0.1 0.1 -0.6
v 0.4 0 -0.6
v 0.4 0.1 -0.6
v 0.5 0 -0.6
v 0.5 0.1 -0.6
v -0.3 0 -0.7
v -0.3 0.1 -0.7
v -0.2 0 -0.7
v -0.2 0.1 -0.7
v 0.5 0 -0.7
v 0.5 0.1 -0.7
v 0.6 0 -0.7
v 0.6 0.1 -0.7
v -0.3 0 0.7
v -0.3 0.1 0.7
v -0.2 0 0.7
v -0.2 0.1 0.7
v -0.1 0 0.7
v -0.1 0.1 0.7
v 0.1 0 0.7
v 0.1 0.1 0.7
v -0.1 0 0
v -0.1 0.1 0
v -5.96046e-008 0 0
v -5.96046e-008 0.1 0
v -5.96046e-008 0 -0.1
v -5.96046e-008 0.1 -0.1
v 0.1 0 -0.1
v 0.1 0.1 -0.1
v 0.1 0 -0.2
v 0.1 0.1 -0.2
v 0.3 0 -0.2
v 0.3 0.1 -0.2
v -0.3 0 -0.3
v -0.3 0.1 -0.3
v -0.1 0 -0.3
v -0.1 0.1 -0.3
v -0.6 0 -0.4
v -0.6 0.1 -0.4
v -0.5 0 -0.4
v -0.5 0.1 -0.4
v -0.4 0 -0.4
v -0.4 0.1 -0.4
v -0.3 0 -0.4
v -0.3 0.1 -0.4
v -0.5 0 -0.5
v -0.5 0.1 -0.5
v -0.4 0 -0.5
v -0.4 0.1 -0.5
v -0.3 0 -1.2
v -0.3 0.1 -1.2
v -0.2 0 -1.2
v -0.2 0.1 -1.2
v 0.5 0 -1.2
v 0.5 0.1 -1.2
v 0.6 0 -1.2
v 0.6 0.1 -1.2
v -0.2 0 -1.3
v -0.2 0.1 -1.3
v -0.1 0 -1.3
v -0.1 0.1 -1.3
v 0.4 0 -1.3
v 0.4 0.1 -1.3
v 0.5 0 -1.3
v 0.5 0.1 -1.3
v -0.1 0 -1.4
v -0.1 0.1 -1.4
v 0.4 0 -1.4
v 0.4 0.1 -1.4
v -0.3 0 0.8
v 0.1 0 0.8
v -0.3 0 0.7
v -0.2 0 0.7
v -0.1 0 0.7
v 0.1 0 0.7
v -0.1 0 0.3
v -5.96046e-008 0 0.3
v -0.1 0 0.2
v -5.96046e-008 0 0.2
v 0.2 0 0.2
v -0.1 0 0.1
v -5.96046e-008 0 0.1
v 0.2 0 0.1
v 0.3 0 0.1
v -0.1 0 0
v -5.96046e-008 0 0
v 0.1 0 0
v -0.5 0 -0.1
v -0.2 0 -0.1
v -5.96046e-008 0 -0.1
v 0.1 0 -0.1
v 0.2 0 -0.1
v -0.6 0 -0.2
v -0.5 0 -0.2
v -0.2 0 -0.2
v 0.1 0 -0.2
v 0.3 0 -0.2
v -0.4 0 -0.3
v -0.3 0 -0.3
v -0.1 0 -0.3
v -5.96046e-008 0 -0.3
v -0.6 0 -0.4
v -0.5 0 -0.4
v -0.4 0 -0.4
v -0.3 0 -0.4
v -0.1 0 -0.4
v -5.96046e-008 0 -0.4
v -0.5 0 -0.5
v -0.4 0 -0.5
v -0.1 0 -0.5
v -5.96046e-008 0 -0.5
v 0.4 0 -0.5
v -0.2 0 -0.6
v -0.1 0 -0.6
v 0.4 0 -0.6
v 0.5 0 -0.6
v -0.3 0 -0.7
v -0.2 0 -0.7
v -0.1 0 -0.7
v 0.4 0 -0.7
v 0.5 0 -0.7
v 0.6 0 -0.7
v 0.1 0 -0.8
v 0.2 0 -0.8
v -5.96046e-008 0 -0.9
v 0.1 0 -0.9
v 0.2 0 -0.9
v 0.3 0 -0.9
v -5.96046e-008 0 -1
v 0.1 0 -1
v 0.2 0 -1
v 0.3 0 -1
v 0.1 0 -1.1
v 0.2 0 -1.1
v -0.3 0 -1.2
v -0.2 0 -1.2
v -0.1 0 -1.2
v 0.4 0 -1.2
v 0.5 0 -1.2
v 0.6 0 -1.2
v -0.2 0 -1.3
v -0.1 0 -1.3
v 0.4 0 -1.3
v 0.5 0 -1.3
v -0.1 0 -1.4
v 0.4 0 -1.4
v -0.3 0.1 0.8
v 0.1 0.1 0.8
v -0.3 0.1 0.7
v -0.2 0.1 0.7
v -0.1 0.1 0.7
v 0.1 0.1 0.7
v -0.1 0.1 0.3
v -5.96046e-008 0.1 0.3
v -0.1 0.1 0.2
v -5.96046e-008 0.1 0.2
v 0.2 0.1 0.2
v -0.1 0.1 0.1
v -5.96046e-008 0.1 0.1
v 0.2 0.1 0.1
v 0.3 0.1 0.1
v -0.1 0.1 0
v -5.96046e-008 0.1 0
v 0.1 0.1 0
v -0.5 0.1 -0.1
v -0.2 0.1 -0.1
v -5.96046e-008 0.1 -0.1
v 0.1 0.1 -0.1
v 0.2 0.1 -0.1
v -0.6 0.1 -0.2
v -0.5 0.1 -0.2
v -0.2 0.1 -0.2
v 0.1 0.1 -0.2
v 0.3 0.1 -0.2
v -0.4 0.1 -0.3
v -0.3 0.1 -0.3
v -0.1 0.1 -0.3
v -5.96046e-008 0.1 -0.3
v -0.6 0.1 -0.4
v -0.5 0.1 -0.4
v -0.4 0.1 -0.4
v -0.3 0.1 -0.4
v -0.1 0.1 -0.4
v -5.96046e-008 0.1 -0.4
v -0.5 0.1 -0.5
v -0.4 0.1 -0.5
v -0.1 0.1 -0.5
v -5.96046e-008 0.1 -0.5
v 0.4 0.1 -0.5
v -0.2 0.1 -0.6
v -0.1 0.1 -0.6
v 0.4 0.1 -0.6
v 0.5 0.1 -0.6
v -0.3 0.1 -0.7
v -0.2 0.1 -0.7
v -0.1 0.1 -0.7
v 0.4 0.1 -0.7
v 0.5 0.1 -0.7
v 0.6 0.1 -0.7
v 0.1 0.1 -0.8
v 0.2 0.1 -0.8
v -5.96046e-008 0.1 -0.9
v 0.1 0.1 -0.9
v 0.2 0.1 -0.9
v 0.3 0.1 -0.9
v -5.96046e-008 0.1 -1
v 0.1 0.1 -1
v 0.2 0.1 -1
v 0.3 0.1 -1
v 0.1 0.1 -1.1
v 0.2 0.1 -1.1
v -0.3 0.1 -1.2
v -0.2 0.1 -1.2
v -0.1 0.1 -1.2
v 0.4 0.1 -1.2
v 0.5 0.1 -1.2
v 0.6 0.1 -1.2
v -0.2 0.1 -1.3
v -0.1 0.1 -1.3
v 0.4 0.1 -1.3
v 0.5 0.1 -1.3
v -0.1 0.1 -1.4
v 0.4 0.1 -1.4

# faces
f 3/4/1 2/4/1 1/4/1
f 4/4/1 2/4/1 3/4/1
f 9/4/1 6/4/1 5/4/1
f 10/4/1 6/4/1 9/4/1
f 11/4/1 8/4/1 7/4/1
f 12/4/1 8/4/1 11/4/1
f 17/4/1 14/4/1 13/4/1
f 18/4/1 14/4/1 17/4/1
f 19/2/1 16/2/1 15/2/1
f 20/2/1 16/2/1 19/2/1
f 27/5/1 22/5/1 21/5/1
f 28/5/1 22/5/1 27/5/1
f 29/2/1 24/2/1 23/2/1
f 30/2/1 24/2/1 29/2/1
f 31/2/1 26/2/1 25/2/1
f 32/2/1 26/2/1 31/2/1
f 39/4/1 34/4/1 33/4/1
f 40/5/1 35/5/1 34/5/1
f 40/4/1 34/4/1 39/4/1
f 41/2/1 36/2/1 35/2/1
f 41/5/1 35/5/1 40/5/1
f 42/2/1 36/2/1 41/2/1
f 43/2/1 38/2/1 37/2/1
f 44/2/1 38/2/1 43/2/1
f 47/4/1 46/4/1 45/4/1
f 48/4/1 46/4/1 47/4/1
f 51/4/1 50/4/1 49/4/1
f 52/4/1 50/4/1 51/4/1
f 53/4/2 54/4/2 55/4/2
f 55/4/2 54/4/2 56/4/2
f 57/4/2 58/4/2 59/4/2
f 59/4/2 58/4/2 60/4/2
f 61/5/2 62/5/2 65/5/2
f 65/5/2 62/5/2 66/5/2
f 63/5/2 64/5/2 67/5/2
f 67/5/2 64/5/2 68/5/2
f 69/4/2 70/4/2 74/4/2
f 74/4/2 70/4/2 75/4/2
f 71/4/2 72/4/2 76/4/2
f 72/5/2 73/5/2 77/5/2
f 76/4/2 72/4/2 77/4/2
f 77/5/2 73/5/2 78/5/2
f 79/4/2 80/4/2 81/4/2
f 81/4/2 80/4/2 82/4/2
f 83/4/2 84/4/2 85/4/2
f 85/4/2 84/4/2 86/4/2
f 87/4/2 88/4/2 89/4/2
f 89/4/2 88/4/2 90/4/2
f 91/2/2 92/2/2 95/2/2
f 95/2/2 92/2/2 96/2/2
f 93/2/2 94/2/2 97/2/2
f 97/2/2 94/2/2 98/2/2
f 99/2/2 100/2/2 103/2/2
f 103/2/2 100/2/2 104/2/2
f 101/2/2 102/2/2 105/2/2
f 105/2/2 102/2/2 106/2/2
f 107/2/2 108/2/2 109/2/2
f 109/2/2 108/2/2 110/2/2
f 113/4/3 112/4/3 111/4/3
f 114/4/3 112/4/3 113/4/3
f 117/4/3 116/4/3 115/4/3
f 118/4/3 116/4/3 117/4/3
f 121/4/3 120/4/3 119/4/3
f 122/4/3 120/4/3 121/4/3
f 125/4/3 124/4/3 123/4/3
f 126/4/3 124/4/3 125/4/3
f 129/4/3 128/4/3 127/4/3
f 130/4/3 128/4/3 129/4/3
f 133/4/3 132/4/3 131/4/3
f 134/4/3 132/4/3 133/4/3
f 137/4/3 136/4/3 135/4/3
f 138/4/3 136/4/3 137/4/3
f 141/2/3 140/2/3 139/2/3
f 142/2/3 140/2/3 141/2/3
f 145/2/3 144/2/3 143/2/3
f 146/2/3 144/2/3 145/2/3
f 149/2/3 148/2/3 147/2/3
f 150/2/3 148/2/3 149/2/3
f 153/2/3 152/2/3 151/2/3
f 154/2/3 152/2/3 153/2/3
f 157/2/3 156/2/3 155/2/3
f 158/2/3 156/2/3 157/2/3
f 159/4/4 160/4/4 161/4/4
f 161/4/4 160/4/4 162/4/4
f 163/4/4 164/4/4 165/4/4
f 165/4/4 164/4/4 166/4/4
f 167/4/4 168/4/4 169/4/4
f 169/4/4 168/4/4 170/4/4
f 171/4/4 172/4/4 173/4/4
f 173/4/4 172/4/4 174/4/4
f 175/4/4 176/4/4 177/4/4
f 177/4/4 176/4/4 178/4/4
f 179/5/4 180/5/4 181/5/4
f 181/5/4 180/5/4 182/5/4
f 183/4/4 184/4/4 185/4/4
f 185/4/4 184/4/4 186/4/4
f 187/4/4 188/4/4 189/4/4
f 189/4/4 188/4/4 190/4/4
f 191/4/4 192/4/4 193/4/4
f 193/4/4 192/4/4 194/4/4
f 195/2/4 196/2/4 197/2/4
f 197/2/4 196/2/4 198/2/4
f 199/2/4 200/2/4 201/2/4
f 201/2/4 200/2/4 202/2/4
f 203/2/4 204/2/4 205/2/4
f 205/2/4 204/2/4 206/2/4
f 207/2/4 208/2/4 209/2/4
f 209/2/4 208/2/4 210/2/4
f 211/2/4 212/2/4 213/2/4
f 213/2/4 212/2/4 214/2/4
f 217/4/5 216/4/5 215/4/5
f 218/4/5 216/4/5 217/4/5
f 219/4/5 216/4/5 218/4/5
f 220/4/5 216/4/5 219/4/5
f 221/5/5 219/5/5 218/5/5
f 223/5/5 221/5/5 218/5/5
f 223/4/5 222/4/5 221/4/5
f 224/4/5 222/4/5 223/4/5
f 226/5/5 224/5/5 223/5/5
f 226/5/5 223/5/5 218/5/5
f 227/4/5 225/4/5 224/4/5
f 227/5/5 224/5/5 226/5/5
f 228/4/5 225/4/5 227/4/5
f 230/5/5 226/5/5 218/5/5
f 230/4/5 227/4/5 226/4/5
f 231/5/5 228/5/5 227/5/5
f 231/4/5 227/4/5 230/4/5
f 232/5/5 228/5/5 231/5/5
f 234/5/5 230/5/5 218/5/5
f 235/4/5 232/4/5 231/4/5
f 236/5/5 228/5/5 232/5/5
f 236/4/5 232/4/5 235/4/5
f 237/4/5 229/4/5 228/4/5
f 237/5/5 228/5/5 236/5/5
f 239/4/5 234/4/5 233/4/5
f 240/5/5 230/5/5 234/5/5
f 240/4/5 234/4/5 239/4/5
f 241/4/5 237/4/5 236/4/5
f 242/4/5 229/4/5 237/4/5
f 242/4/5 237/4/5 241/4/5
f 243/5/5 240/5/5 239/5/5
f 244/5/5 240/5/5 243/5/5
f 245/5/5 230/5/5 240/5/5
f 245/5/5 240/5/5 244/5/5
f 247/4/5 239/4/5 238/4/5
f 248/5/5 243/5/5 239/5/5
f 248/4/5 239/4/5 247/4/5
f 249/4/5 244/4/5 243/4/5
f 249/5/5 243/5/5 248/5/5
f 250/4/5 244/4/5 249/4/5
f 251/4/5 246/4/5 245/4/5
f 252/4/5 246/4/5 251/4/5
f 253/4/5 249/4/5 248/4/5
f 254/4/5 249/4/5 253/4/5
f 255/5/5 252/5/5 251/5/5
f 256/5/5 252/5/5 255/5/5
f 259/2/5 256/2/5 255/2/5
f 259/2/5 257/2/5 256/2/5
f 260/2/5 257/2/5 259/2/5
f 263/2/5 259/2/5 258/2/5
f 264/3/5 260/3/5 259/3/5
f 264/2/5 259/2/5 263/2/5
f 265/2/5 261/2/5 260/2/5
f 265/3/5 260/3/5 264/3/5
f 266/2/5 261/2/5 265/2/5
f 268/3/5 264/3/5 263/3/5
f 268/3/5 265/3/5 264/3/5
f 268/3/5 266/3/5 265/3/5
f 269/3/5 266/3/5 268/3/5
f 270/3/5 268/3/5 263/3/5
f 271/1/5 269/1/5 268/1/5
f 271/3/5 268/3/5 270/3/5
f 272/3/5 266/3/5 269/3/5
f 272/1/5 269/1/5 271/1/5
f 273/3/5 266/3/5 272/3/5
f 274/1/5 271/1/5 270/1/5
f 274/3/5 270/3/5 263/3/5
f 274/1/5 273/1/5 272/1/5
f 274/1/5 272/1/5 271/1/5
f 275/1/5 273/1/5 274/1/5
f 276/1/5 273/1/5 275/1/5
f 277/3/5 266/3/5 273/3/5
f 277/1/5 273/1/5 276/1/5
f 278/1/5 276/1/5 275/1/5
f 278/3/5 275/3/5 274/3/5
f 279/3/5 277/3/5 276/3/5
f 279/1/5 276/1/5 278/1/5
f 280/2/5 263/2/5 262/2/5
f 281/3/5 274/3/5 263/3/5
f 281/2/5 263/2/5 280/2/5
f 281/3/5 278/3/5 274/3/5
f 281/3/5 279/3/5 278/3/5
f 282/3/5 279/3/5 281/3/5
f 283/3/5 277/3/5 279/3/5
f 283/3/5 279/3/5 282/3/5
f 283/3/5 266/3/5 277/3/5
f 284/2/5 267/2/5 266/2/5
f 284/3/5 266/3/5 283/3/5
f 285/2/5 267/2/5 284/2/5
f 286/2/5 282/2/5 281/2/5
f 287/3/5 283/3/5 282/3/5
f 287/2/5 282/2/5 286/2/5
f 288/2/5 284/2/5 283/2/5
f 288/3/5 283/3/5 287/3/5
f 289/2/5 284/2/5 288/2/5
f 290/2/5 288/2/5 287/2/5
f 291/2/5 288/2/5 290/2/5
f 292/4/6 293/4/6 294/4/6
f 294/4/6 293/4/6 295/4/6
f 295/4/6 293/4/6 296/4/6
f 296/4/6 293/4/6 297/4/6
f 295/5/6 296/5/6 298/5/6
f 295/5/6 298/5/6 300/5/6
f 298/4/6 299/4/6 300/4/6
f 300/4/6 299/4/6 301/4/6
f 300/5/6 301/5/6 303/5/6
f 295/5/6 300/5/6 303/5/6
f 301/4/6 302/4/6 304/4/6
f 303/5/6 301/5/6 304/5/6
f 304/4/6 302/4/6 305/4/6
f 295/5/6 303/5/6 307/5/6
f 303/4/6 304/4/6 307/4/6
f 304/5/6 305/5/6 308/5/6
f 307/4/6 304/4/6 308/4/6
f 308/5/6 305/5/6 309/5/6
f 295/5/6 307/5/6 311/5/6
f 308/4/6 309/4/6 312/4/6
f 309/5/6 305/5/6 313/5/6
f 312/4/6 309/4/6 313/4/6
f 305/4/6 306/4/6 314/4/6
f 313/5/6 305/5/6 314/5/6
f 310/4/6 311/4/6 316/4/6
f 311/5/6 307/5/6 317/5/6
f 316/4/6 311/4/6 317/4/6
f 313/4/6 314/4/6 318/4/6
f 314/4/6 306/4/6 319/4/6
f 318/4/6 314/4/6 319/4/6
f 316/5/6 317/5/6 320/5/6
f 320/5/6 317/5/6 321/5/6
f 317/5/6 307/5/6 322/5/6
f 321/5/6 317/5/6 322/5/6
f 315/4/6 316/4/6 324/4/6
f 316/5/6 320/5/6 325/5/6
f 324/4/6 316/4/6 325/4/6
f 320/4/6 321/4/6 326/4/6
f 325/5/6 320/5/6 326/5/6
f 326/4/6 321/4/6 327/4/6
f 322/4/6 323/4/6 328/4/6
f 328/4/6 323/4/6 329/4/6
f 325/4/6 326/4/6 330/4/6
f 330/4/6 326/4/6 331/4/6
f 328/5/6 329/5/6 332/5/6
f 332/5/6 329/5/6 333/5/6
f 332/2/6 333/2/6 336/2/6
f 333/2/6 334/2/6 336/2/6
f 336/2/6 334/2/6 337/2/6
f 335/2/6 336/2/6 340/2/6
f 336/3/6 337/3/6 341/3/6
f 340/2/6 336/2/6 341/2/6
f 337/2/6 338/2/6 342/2/6
f 341/3/6 337/3/6 342/3/6
f 342/2/6 338/2/6 343/2/6
f 340/3/6 341/3/6 345/3/6
f 341/3/6 342/3/6 345/3/6
f 342/3/6 343/3/6 345/3/6
f 345/3/6 343/3/6 346/3/6
f 340/3/6 345/3/6 347/3/6
f 345/1/6 346/1/6 348/1/6
f 347/3/6 345/3/6 348/3/6
f 346/3/6 343/3/6 349/3/6
f 348/1/6 346/1/6 349/1/6
f 349/3/6 343/3/6 350/3/6
f 347/1/6 348/1/6 351/1/6
f 340/3/6 347/3/6 351/3/6
f 349/1/6 350/1/6 351/1/6
f 348/1/6 349/1/6 351/1/6
f 351/1/6 350/1/6 352/1/6
f 352/1/6 350/1/6 353/1/6
f 350/3/6 343/3/6 354/3/6
f 353/1/6 350/1/6 354/1/6
f 352/1/6 353/1/6 355/1/6
f 351/3/6 352/3/6 355/3/6
f 353/3/6 354/3/6 356/3/6
f 355/1/6 353/1/6 356/1/6
f 339/2/6 340/2/6 357/2/6
f 340/3/6 351/3/6 358/3/6
f 357/2/6 340/2/6 358/2/6
f 351/3/6 355/3/6 358/3/6
f 355/3/6 356/3/6 358/3/6
f 358/3/6 356/3/6 359/3/6
f 356/3/6 354/3/6 360/3/6
f 359/3/6 356/3/6 360/3/6
f 354/3/6 343/3/6 360/3/6
f 343/2/6 344/2/6 361/2/6
f 360/3/6 343/3/6 361/3/6
f 361/2/6 344/2/6 362/2/6
f 358/2/6 359/2/6 363/2/6
f 359/3/6 360/3/6 364/3/6
f 363/2/6 359/2/6 364/2/6
f 360/2/6 361/2/6 365/2/6
f 364/3/6 360/3/6 365/3/6
f 365/2/6 361/2/6 366/2/6
f 364/2/6 365/2/6 367/2/6
f 367/2/6 365/2/6 368/2/6
