# MagicaVoxel @ Ephtracy

# group
o 

# material
mtllib Barn.mtl
usemtl palette

# normals
vn -1 0 0
vn 1 0 0
vn 0 0 1
vn 0 0 -1
vn 0 -1 0
vn 0 1 0

# texcoords
vt 0.974609 0.5
vt 0.978516 0.5
vt 0.986328 0.5
vt 0.994141 0.5

# verts
v -1 0.4 -1.9
v -1 0.4 -2
v -1 2.9 -1.9
v -1 2.9 -2
v 0.6 0.3 -1.9
v 0.6 0.3 -2
v 0.6 0.4 -1.9
v 0.6 0.4 -2
v 0.6 2.9 -1.9
v 0.6 2.9 -2
v 0.6 3 -1.9
v 0.6 3 -2
v 0.7 0.5 -1.9
v 0.7 0.5 -2
v 0.7 0.7 -1.9
v 0.7 0.7 -2
v 0.7 0.8 -1.9
v 0.7 0.8 -2
v 0.7 1 -1.9
v 0.7 1 -2
v 0.7 2 -1.9
v 0.7 2 -2
v 0.7 2.2 -1.9
v 0.7 2.2 -2
v 0.7 2.3 -1.9
v 0.7 2.3 -2
v 0.7 2.5 -1.9
v 0.7 2.5 -2
v 0.7 2.6 -1.9
v 0.7 2.6 -2
v 0.7 2.8 -1.9
v 0.7 2.8 -2
v 0.8 0.3 -1.9
v 0.8 0.3 -2
v 0.8 0.5 -1.9
v 0.8 0.5 -2
v 0.8 0.7 -1.9
v 0.8 0.7 -2
v 0.8 0.8 -1.9
v 0.8 0.8 -2
v 0.8 1 -1.9
v 0.8 1 -2
v 0.8 1.1 -1.9
v 0.8 1.1 -2
v 0.8 1.9 -1.9
v 0.8 1.9 -2
v 0.8 2 -1.9
v 0.8 2 -2
v 0.8 2.2 -1.9
v 0.8 2.2 -2
v 0.8 2.3 -1.9
v 0.8 2.3 -2
v 0.8 2.5 -1.9
v 0.8 2.5 -2
v 0.8 2.6 -1.9
v 0.8 2.6 -2
v 0.8 2.8 -1.9
v 0.8 2.8 -2
v 0.8 3 -1.9
v 0.8 3 -2
v 1 1.1 -1.9
v 1 1.1 -2
v 1 1.2 -1.9
v 1 1.2 -2
v 1 1.8 -1.9
v 1 1.8 -2
v 1 1.9 -1.9
v 1 1.9 -2
v 1.2 1.2 -1.9
v 1.2 1.2 -2
v 1.2 1.8 -1.9
v 1.2 1.8 -2
v -1 0.4 -1.9
v -1 2.9 -1.9
v -0.9 0.5 -1.9
v -0.9 0.7 -1.9
v -0.9 0.8 -1.9
v -0.9 1 -1.9
v -0.9 1.1 -1.9
v -0.9 1.3 -1.9
v -0.9 1.4 -1.9
v -0.9 1.6 -1.9
v -0.9 1.7 -1.9
v -0.9 1.9 -1.9
v -0.9 2 -1.9
v -0.9 2.2 -1.9
v -0.9 2.3 -1.9
v -0.9 2.5 -1.9
v -0.9 2.6 -1.9
v -0.9 2.8 -1.9
v 0.6 0.3 -1.9
v 0.6 0.4 -1.9
v 0.6 0.5 -1.9
v 0.6 0.7 -1.9
v 0.6 0.8 -1.9
v 0.6 1 -1.9
v 0.6 1.1 -1.9
v 0.6 1.3 -1.9
v 0.6 1.4 -1.9
v 0.6 1.6 -1.9
v 0.6 1.7 -1.9
v 0.6 1.9 -1.9
v 0.6 2 -1.9
v 0.6 2.2 -1.9
v 0.6 2.3 -1.9
v 0.6 2.5 -1.9
v 0.6 2.6 -1.9
v 0.6 2.8 -1.9
v 0.6 2.9 -1.9
v 0.6 3 -1.9
v 0.7 0.5 -1.9
v 0.7 0.7 -1.9
v 0.7 0.8 -1.9
v 0.7 1 -1.9
v 0.7 1.1 -1.9
v 0.7 1.2 -1.9
v 0.7 1.3 -1.9
v 0.7 1.4 -1.9
v 0.7 1.6 -1.9
v 0.7 1.7 -1.9
v 0.7 1.8 -1.9
v 0.7 1.9 -1.9
v 0.7 2 -1.9
v 0.7 2.2 -1.9
v 0.7 2.3 -1.9
v 0.7 2.5 -1.9
v 0.7 2.6 -1.9
v 0.7 2.8 -1.9
v 0.8 0.3 -1.9
v 0.8 0.5 -1.9
v 0.8 0.7 -1.9
v 0.8 0.8 -1.9
v 0.8 1 -1.9
v 0.8 1.1 -1.9
v 0.8 1.3 -1.9
v 0.8 1.4 -1.9
v 0.8 1.6 -1.9
v 0.8 1.7 -1.9
v 0.8 1.9 -1.9
v 0.8 2 -1.9
v 0.8 2.2 -1.9
v 0.8 2.3 -1.9
v 0.8 2.5 -1.9
v 0.8 2.6 -1.9
v 0.8 2.8 -1.9
v 0.8 3 -1.9
v 0.9 1.2 -1.9
v 0.9 1.8 -1.9
v 1 1.1 -1.9
v 1 1.2 -1.9
v 1 1.3 -1.9
v 1 1.7 -1.9
v 1 1.8 -1.9
v 1 1.9 -1.9
v 1.1 1.3 -1.9
v 1.1 1.7 -1.9
v 1.2 1.2 -1.9
v 1.2 1.8 -1.9
v -1 0.4 -2
v -1 2.9 -2
v -0.9 0.5 -2
v -0.9 0.7 -2
v -0.9 0.8 -2
v -0.9 1 -2
v -0.9 1.1 -2
v -0.9 1.3 -2
v -0.9 1.4 -2
v -0.9 1.6 -2
v -0.9 1.7 -2
v -0.9 1.9 -2
v -0.9 2 -2
v -0.9 2.2 -2
v -0.9 2.3 -2
v -0.9 2.5 -2
v -0.9 2.6 -2
v -0.9 2.8 -2
v 0.6 0.3 -2
v 0.6 0.4 -2
v 0.6 0.5 -2
v 0.6 0.7 -2
v 0.6 0.8 -2
v 0.6 1 -2
v 0.6 1.1 -2
v 0.6 1.3 -2
v 0.6 1.4 -2
v 0.6 1.6 -2
v 0.6 1.7 -2
v 0.6 1.9 -2
v 0.6 2 -2
v 0.6 2.2 -2
v 0.6 2.3 -2
v 0.6 2.5 -2
v 0.6 2.6 -2
v 0.6 2.8 -2
v 0.6 2.9 -2
v 0.6 3 -2
v 0.7 0.5 -2
v 0.7 0.7 -2
v 0.7 0.8 -2
v 0.7 1 -2
v 0.7 1.1 -2
v 0.7 1.2 -2
v 0.7 1.3 -2
v 0.7 1.4 -2
v 0.7 1.6 -2
v 0.7 1.7 -2
v 0.7 1.8 -2
v 0.7 1.9 -2
v 0.7 2 -2
v 0.7 2.2 -2
v 0.7 2.3 -2
v 0.7 2.5 -2
v 0.7 2.6 -2
v 0.7 2.8 -2
v 0.8 0.3 -2
v 0.8 0.5 -2
v 0.8 0.7 -2
v 0.8 0.8 -2
v 0.8 1 -2
v 0.8 1.1 -2
v 0.8 1.3 -2
v 0.8 1.4 -2
v 0.8 1.6 -2
v 0.8 1.7 -2
v 0.8 1.9 -2
v 0.8 2 -2
v 0.8 2.2 -2
v 0.8 2.3 -2
v 0.8 2.5 -2
v 0.8 2.6 -2
v 0.8 2.8 -2
v 0.8 3 -2
v 0.9 1.2 -2
v 0.9 1.8 -2
v 1 1.1 -2
v 1 1.2 -2
v 1 1.3 -2
v 1 1.7 -2
v 1 1.8 -2
v 1 1.9 -2
v 1.1 1.3 -2
v 1.1 1.7 -2
v 1.2 1.2 -2
v 1.2 1.8 -2
v 0.6 0.3 -1.9
v 0.8 0.3 -1.9
v 0.6 0.3 -2
v 0.8 0.3 -2
v -1 0.4 -1.9
v 0.6 0.4 -1.9
v -1 0.4 -2
v 0.6 0.4 -2
v 0.7 0.7 -1.9
v 0.8 0.7 -1.9
v 0.7 0.7 -2
v 0.8 0.7 -2
v 0.7 1 -1.9
v 0.8 1 -1.9
v 0.7 1 -2
v 0.8 1 -2
v 0.8 1.1 -1.9
v 1 1.1 -1.9
v 0.8 1.1 -2
v 1 1.1 -2
v 1 1.2 -1.9
v 1.2 1.2 -1.9
v 1 1.2 -2
v 1.2 1.2 -2
v 0.7 2.2 -1.9
v 0.8 2.2 -1.9
v 0.7 2.2 -2
v 0.8 2.2 -2
v 0.7 2.5 -1.9
v 0.8 2.5 -1.9
v 0.7 2.5 -2
v 0.8 2.5 -2
v 0.7 2.8 -1.9
v 0.8 2.8 -1.9
v 0.7 2.8 -2
v 0.8 2.8 -2
v 0.7 0.5 -1.9
v 0.8 0.5 -1.9
v 0.7 0.5 -2
v 0.8 0.5 -2
v 0.7 0.8 -1.9
v 0.8 0.8 -1.9
v 0.7 0.8 -2
v 0.8 0.8 -2
v 1 1.8 -1.9
v 1.2 1.8 -1.9
v 1 1.8 -2
v 1.2 1.8 -2
v 0.8 1.9 -1.9
v 1 1.9 -1.9
v 0.8 1.9 -2
v 1 1.9 -2
v 0.7 2 -1.9
v 0.8 2 -1.9
v 0.7 2 -2
v 0.8 2 -2
v 0.7 2.3 -1.9
v 0.8 2.3 -1.9
v 0.7 2.3 -2
v 0.8 2.3 -2
v 0.7 2.6 -1.9
v 0.8 2.6 -1.9
v 0.7 2.6 -2
v 0.8 2.6 -2
v -1 2.9 -1.9
v 0.6 2.9 -1.9
v -1 2.9 -2
v 0.6 2.9 -2
v 0.6 3 -1.9
v 0.8 3 -1.9
v 0.6 3 -2
v 0.8 3 -2

# faces
f 3/3/1 2/3/1 1/3/1
f 4/3/1 2/3/1 3/3/1
f 7/3/1 6/3/1 5/3/1
f 8/3/1 6/3/1 7/3/1
f 11/3/1 10/3/1 9/3/1
f 12/3/1 10/3/1 11/3/1
f 13/3/2 14/3/2 15/3/2
f 15/3/2 14/3/2 16/3/2
f 17/3/2 18/3/2 19/3/2
f 19/3/2 18/3/2 20/3/2
f 21/3/2 22/3/2 23/3/2
f 23/3/2 22/3/2 24/3/2
f 25/3/2 26/3/2 27/3/2
f 27/3/2 26/3/2 28/3/2
f 29/3/2 30/3/2 31/3/2
f 31/3/2 30/3/2 32/3/2
f 33/3/2 34/3/2 35/3/2
f 35/3/2 34/3/2 36/3/2
f 37/3/2 38/3/2 39/3/2
f 39/3/2 38/3/2 40/3/2
f 41/3/2 42/3/2 43/3/2
f 43/3/2 42/3/2 44/3/2
f 45/3/2 46/3/2 47/3/2
f 47/3/2 46/3/2 48/3/2
f 49/3/2 50/3/2 51/3/2
f 51/3/2 50/3/2 52/3/2
f 53/3/2 54/3/2 55/3/2
f 55/3/2 54/3/2 56/3/2
f 57/3/2 58/3/2 59/3/2
f 59/3/2 58/3/2 60/3/2
f 61/2/2 62/2/2 63/2/2
f 63/2/2 62/2/2 64/2/2
f 65/2/2 66/2/2 67/2/2
f 67/2/2 66/2/2 68/2/2
f 69/2/2 70/2/2 71/2/2
f 71/2/2 70/2/2 72/2/2
f 75/3/3 74/3/3 73/3/3
f 76/3/3 74/3/3 75/3/3
f 77/3/3 74/3/3 76/3/3
f 78/3/3 74/3/3 77/3/3
f 79/3/3 74/3/3 78/3/3
f 80/3/3 74/3/3 79/3/3
f 81/3/3 74/3/3 80/3/3
f 82/3/3 74/3/3 81/3/3
f 83/3/3 74/3/3 82/3/3
f 84/3/3 74/3/3 83/3/3
f 85/3/3 74/3/3 84/3/3
f 86/3/3 74/3/3 85/3/3
f 87/3/3 74/3/3 86/3/3
f 88/3/3 74/3/3 87/3/3
f 89/3/3 74/3/3 88/3/3
f 90/3/3 74/3/3 89/3/3
f 92/3/3 75/3/3 73/3/3
f 93/4/3 76/4/3 75/4/3
f 93/3/3 75/3/3 92/3/3
f 94/3/3 77/3/3 76/3/3
f 94/4/3 76/4/3 93/4/3
f 95/4/3 78/4/3 77/4/3
f 95/3/3 77/3/3 94/3/3
f 96/3/3 79/3/3 78/3/3
f 96/4/3 78/4/3 95/4/3
f 97/4/3 80/4/3 79/4/3
f 97/3/3 79/3/3 96/3/3
f 98/3/3 81/3/3 80/3/3
f 98/4/3 80/4/3 97/4/3
f 99/4/3 82/4/3 81/4/3
f 99/3/3 81/3/3 98/3/3
f 100/3/3 83/3/3 82/3/3
f 100/4/3 82/4/3 99/4/3
f 101/4/3 84/4/3 83/4/3
f 101/3/3 83/3/3 100/3/3
f 102/3/3 85/3/3 84/3/3
f 102/4/3 84/4/3 101/4/3
f 103/4/3 86/4/3 85/4/3
f 103/3/3 85/3/3 102/3/3
f 104/3/3 87/3/3 86/3/3
f 104/4/3 86/4/3 103/4/3
f 105/4/3 88/4/3 87/4/3
f 105/3/3 87/3/3 104/3/3
f 106/3/3 89/3/3 88/3/3
f 106/4/3 88/4/3 105/4/3
f 107/4/3 90/4/3 89/4/3
f 107/3/3 89/3/3 106/3/3
f 108/3/3 74/3/3 90/3/3
f 108/4/3 90/4/3 107/4/3
f 109/3/3 74/3/3 108/3/3
f 111/3/3 107/3/3 106/3/3
f 111/3/3 110/3/3 109/3/3
f 111/3/3 109/3/3 108/3/3
f 111/3/3 108/3/3 107/3/3
f 111/3/3 92/3/3 91/3/3
f 111/3/3 106/3/3 105/3/3
f 111/3/3 105/3/3 104/3/3
f 111/3/3 104/3/3 103/3/3
f 111/3/3 103/3/3 102/3/3
f 111/3/3 102/3/3 101/3/3
f 111/3/3 101/3/3 100/3/3
f 111/3/3 100/3/3 99/3/3
f 111/3/3 99/3/3 98/3/3
f 111/3/3 98/3/3 97/3/3
f 111/3/3 97/3/3 96/3/3
f 111/3/3 96/3/3 95/3/3
f 111/3/3 95/3/3 94/3/3
f 111/3/3 94/3/3 93/3/3
f 111/3/3 93/3/3 92/3/3
f 112/3/3 110/3/3 111/3/3
f 113/3/3 110/3/3 112/3/3
f 114/3/3 110/3/3 113/3/3
f 115/3/3 110/3/3 114/3/3
f 116/3/3 110/3/3 115/3/3
f 117/3/3 110/3/3 116/3/3
f 118/3/3 110/3/3 117/3/3
f 119/3/3 110/3/3 118/3/3
f 120/3/3 110/3/3 119/3/3
f 121/3/3 110/3/3 120/3/3
f 122/3/3 110/3/3 121/3/3
f 123/3/3 110/3/3 122/3/3
f 124/3/3 110/3/3 123/3/3
f 125/3/3 110/3/3 124/3/3
f 126/3/3 110/3/3 125/3/3
f 127/3/3 110/3/3 126/3/3
f 128/3/3 110/3/3 127/3/3
f 129/3/3 111/3/3 91/3/3
f 130/3/3 111/3/3 129/3/3
f 131/3/3 113/3/3 112/3/3
f 132/3/3 113/3/3 131/3/3
f 133/3/3 115/3/3 114/3/3
f 134/2/3 116/2/3 115/2/3
f 134/3/3 115/3/3 133/3/3
f 135/1/3 117/1/3 116/1/3
f 135/3/3 118/3/3 117/3/3
f 136/1/3 119/1/3 118/1/3
f 136/3/3 118/3/3 135/3/3
f 137/3/3 120/3/3 119/3/3
f 137/1/3 119/1/3 136/1/3
f 138/1/3 121/1/3 120/1/3
f 138/3/3 120/3/3 137/3/3
f 139/2/3 122/2/3 121/2/3
f 139/3/3 123/3/3 122/3/3
f 140/3/3 123/3/3 139/3/3
f 141/3/3 125/3/3 124/3/3
f 142/3/3 125/3/3 141/3/3
f 143/3/3 127/3/3 126/3/3
f 144/3/3 127/3/3 143/3/3
f 145/3/3 110/3/3 128/3/3
f 146/3/3 110/3/3 145/3/3
f 147/2/3 116/2/3 134/2/3
f 147/1/3 135/1/3 116/1/3
f 147/1/3 138/1/3 137/1/3
f 147/1/3 136/1/3 135/1/3
f 147/1/3 137/1/3 136/1/3
f 148/2/3 139/2/3 121/2/3
f 148/1/3 138/1/3 147/1/3
f 148/1/3 121/1/3 138/1/3
f 149/2/3 147/2/3 134/2/3
f 149/2/3 148/2/3 147/2/3
f 150/2/3 148/2/3 149/2/3
f 151/2/3 148/2/3 150/2/3
f 152/2/3 148/2/3 151/2/3
f 153/2/3 139/2/3 148/2/3
f 153/2/3 148/2/3 152/2/3
f 154/2/3 139/2/3 153/2/3
f 155/1/3 152/1/3 151/1/3
f 155/2/3 151/2/3 150/2/3
f 156/2/3 153/2/3 152/2/3
f 156/1/3 152/1/3 155/1/3
f 157/2/3 155/2/3 150/2/3
f 157/2/3 156/2/3 155/2/3
f 158/2/3 153/2/3 156/2/3
f 158/2/3 156/2/3 157/2/3
f 159/3/4 160/3/4 161/3/4
f 161/3/4 160/3/4 162/3/4
f 162/3/4 160/3/4 163/3/4
f 163/3/4 160/3/4 164/3/4
f 164/3/4 160/3/4 165/3/4
f 165/3/4 160/3/4 166/3/4
f 166/3/4 160/3/4 167/3/4
f 167/3/4 160/3/4 168/3/4
f 168/3/4 160/3/4 169/3/4
f 169/3/4 160/3/4 170/3/4
f 170/3/4 160/3/4 171/3/4
f 171/3/4 160/3/4 172/3/4
f 172/3/4 160/3/4 173/3/4
f 173/3/4 160/3/4 174/3/4
f 174/3/4 160/3/4 175/3/4
f 175/3/4 160/3/4 176/3/4
f 159/3/4 161/3/4 178/3/4
f 161/4/4 162/4/4 179/4/4
f 178/3/4 161/3/4 179/3/4
f 162/3/4 163/3/4 180/3/4
f 179/4/4 162/4/4 180/4/4
f 163/4/4 164/4/4 181/4/4
f 180/3/4 163/3/4 181/3/4
f 164/3/4 165/3/4 182/3/4
f 181/4/4 164/4/4 182/4/4
f 165/4/4 166/4/4 183/4/4
f 182/3/4 165/3/4 183/3/4
f 166/3/4 167/3/4 184/3/4
f 183/4/4 166/4/4 184/4/4
f 167/4/4 168/4/4 185/4/4
f 184/3/4 167/3/4 185/3/4
f 168/3/4 169/3/4 186/3/4
f 185/4/4 168/4/4 186/4/4
f 169/4/4 170/4/4 187/4/4
f 186/3/4 169/3/4 187/3/4
f 170/3/4 171/3/4 188/3/4
f 187/4/4 170/4/4 188/4/4
f 171/4/4 172/4/4 189/4/4
f 188/3/4 171/3/4 189/3/4
f 172/3/4 173/3/4 190/3/4
f 189/4/4 172/4/4 190/4/4
f 173/4/4 174/4/4 191/4/4
f 190/3/4 173/3/4 191/3/4
f 174/3/4 175/3/4 192/3/4
f 191/4/4 174/4/4 192/4/4
f 175/4/4 176/4/4 193/4/4
f 192/3/4 175/3/4 193/3/4
f 176/3/4 160/3/4 194/3/4
f 193/4/4 176/4/4 194/4/4
f 194/3/4 160/3/4 195/3/4
f 192/3/4 193/3/4 197/3/4
f 195/3/4 196/3/4 197/3/4
f 194/3/4 195/3/4 197/3/4
f 193/3/4 194/3/4 197/3/4
f 177/3/4 178/3/4 197/3/4
f 191/3/4 192/3/4 197/3/4
f 190/3/4 191/3/4 197/3/4
f 189/3/4 190/3/4 197/3/4
f 188/3/4 189/3/4 197/3/4
f 187/3/4 188/3/4 197/3/4
f 186/3/4 187/3/4 197/3/4
f 185/3/4 186/3/4 197/3/4
f 184/3/4 185/3/4 197/3/4
f 183/3/4 184/3/4 197/3/4
f 182/3/4 183/3/4 197/3/4
f 181/3/4 182/3/4 197/3/4
f 180/3/4 181/3/4 197/3/4
f 179/3/4 180/3/4 197/3/4
f 178/3/4 179/3/4 197/3/4
f 197/3/4 196/3/4 198/3/4
f 198/3/4 196/3/4 199/3/4
f 199/3/4 196/3/4 200/3/4
f 200/3/4 196/3/4 201/3/4
f 201/3/4 196/3/4 202/3/4
f 202/3/4 196/3/4 203/3/4
f 203/3/4 196/3/4 204/3/4
f 204/3/4 196/3/4 205/3/4
f 205/3/4 196/3/4 206/3/4
f 206/3/4 196/3/4 207/3/4
f 207/3/4 196/3/4 208/3/4
f 208/3/4 196/3/4 209/3/4
f 209/3/4 196/3/4 210/3/4
f 210/3/4 196/3/4 211/3/4
f 211/3/4 196/3/4 212/3/4
f 212/3/4 196/3/4 213/3/4
f 213/3/4 196/3/4 214/3/4
f 177/3/4 197/3/4 215/3/4
f 215/3/4 197/3/4 216/3/4
f 198/3/4 199/3/4 217/3/4
f 217/3/4 199/3/4 218/3/4
f 200/3/4 201/3/4 219/3/4
f 201/2/4 202/2/4 220/2/4
f 219/3/4 201/3/4 220/3/4
f 202/1/4 203/1/4 221/1/4
f 203/3/4 204/3/4 221/3/4
f 204/1/4 205/1/4 222/1/4
f 221/3/4 204/3/4 222/3/4
f 205/3/4 206/3/4 223/3/4
f 222/1/4 205/1/4 223/1/4
f 206/1/4 207/1/4 224/1/4
f 223/3/4 206/3/4 224/3/4
f 207/2/4 208/2/4 225/2/4
f 208/3/4 209/3/4 225/3/4
f 225/3/4 209/3/4 226/3/4
f 210/3/4 211/3/4 227/3/4
f 227/3/4 211/3/4 228/3/4
f 212/3/4 213/3/4 229/3/4
f 229/3/4 213/3/4 230/3/4
f 214/3/4 196/3/4 231/3/4
f 231/3/4 196/3/4 232/3/4
f 220/2/4 202/2/4 233/2/4
f 202/1/4 221/1/4 233/1/4
f 223/1/4 224/1/4 233/1/4
f 221/1/4 222/1/4 233/1/4
f 222/1/4 223/1/4 233/1/4
f 207/2/4 225/2/4 234/2/4
f 233/1/4 224/1/4 234/1/4
f 224/1/4 207/1/4 234/1/4
f 220/2/4 233/2/4 235/2/4
f 233/2/4 234/2/4 235/2/4
f 235/2/4 234/2/4 236/2/4
f 236/2/4 234/2/4 237/2/4
f 237/2/4 234/2/4 238/2/4
f 234/2/4 225/2/4 239/2/4
f 238/2/4 234/2/4 239/2/4
f 239/2/4 225/2/4 240/2/4
f 237/1/4 238/1/4 241/1/4
f 236/2/4 237/2/4 241/2/4
f 238/2/4 239/2/4 242/2/4
f 241/1/4 238/1/4 242/1/4
f 236/2/4 241/2/4 243/2/4
f 241/2/4 242/2/4 243/2/4
f 242/2/4 239/2/4 244/2/4
f 243/2/4 242/2/4 244/2/4
f 247/3/5 246/3/5 245/3/5
f 248/3/5 246/3/5 247/3/5
f 251/3/5 250/3/5 249/3/5
f 252/3/5 250/3/5 251/3/5
f 255/3/5 254/3/5 253/3/5
f 256/3/5 254/3/5 255/3/5
f 259/3/5 258/3/5 257/3/5
f 260/3/5 258/3/5 259/3/5
f 263/2/5 262/2/5 261/2/5
f 264/2/5 262/2/5 263/2/5
f 267/2/5 266/2/5 265/2/5
f 268/2/5 266/2/5 267/2/5
f 271/3/5 270/3/5 269/3/5
f 272/3/5 270/3/5 271/3/5
f 275/3/5 274/3/5 273/3/5
f 276/3/5 274/3/5 275/3/5
f 279/3/5 278/3/5 277/3/5
f 280/3/5 278/3/5 279/3/5
f 281/3/6 282/3/6 283/3/6
f 283/3/6 282/3/6 284/3/6
f 285/3/6 286/3/6 287/3/6
f 287/3/6 286/3/6 288/3/6
f 289/2/6 290/2/6 291/2/6
f 291/2/6 290/2/6 292/2/6
f 293/2/6 294/2/6 295/2/6
f 295/2/6 294/2/6 296/2/6
f 297/3/6 298/3/6 299/3/6
f 299/3/6 298/3/6 300/3/6
f 301/3/6 302/3/6 303/3/6
f 303/3/6 302/3/6 304/3/6
f 305/3/6 306/3/6 307/3/6
f 307/3/6 306/3/6 308/3/6
f 309/3/6 310/3/6 311/3/6
f 311/3/6 310/3/6 312/3/6
f 313/3/6 314/3/6 315/3/6
f 315/3/6 314/3/6 316/3/6
