# MagicaVoxel @ Ephtracy

# group
o 

# material
mtllib Battery.mtl
usemtl palette

# normals
vn -1 0 0
vn 1 0 0
vn 0 0 1
vn 0 0 -1
vn 0 -1 0
vn 0 1 0

# texcoords
vt 0.982422 0.5
vt 0.986328 0.5
vt 0.990234 0.5
vt 0.994141 0.5

# verts
v -0.5 2.2 -1.9
v -0.5 2.2 -2
v -0.5 2.4 -1.9
v -0.5 2.4 -2
v -0.5 2.5 -1.9
v -0.5 2.5 -2
v -0.5 2.6 -1.9
v -0.5 2.6 -2
v 0.1 2.5 -1.8
v 0.1 2.5 -1.9
v 0.1 2.6 -1.8
v 0.1 2.6 -1.9
v 0.2 2.5 -1.8
v 0.2 2.5 -1.9
v 0.2 2.6 -1.8
v 0.2 2.6 -1.9
v 0.3 2.2 -1.9
v 0.3 2.2 -2
v 0.3 2.3 -1.9
v 0.3 2.3 -2
v 0.3 2.5 -1.9
v 0.3 2.5 -2
v 0.3 2.6 -1.9
v 0.3 2.6 -2
v 0.4 2.3 -1.9
v 0.4 2.3 -2
v 0.4 2.5 -1.9
v 0.4 2.5 -2
v 0.1 2.5 -1.8
v 0.1 2.6 -1.8
v 0.2 2.5 -1.8
v 0.2 2.6 -1.8
v -0.5 2.2 -1.9
v -0.5 2.4 -1.9
v -0.5 2.5 -1.9
v -0.5 2.6 -1.9
v -0.4 2.3 -1.9
v -0.4 2.4 -1.9
v -0.3 2.2 -1.9
v -0.3 2.3 -1.9
v -0.1 2.2 -1.9
v -0.1 2.3 -1.9
v 0.1 2.2 -1.9
v 0.1 2.3 -1.9
v 0.1 2.5 -1.9
v 0.1 2.6 -1.9
v 0.2 2.2 -1.9
v 0.2 2.5 -1.9
v 0.2 2.6 -1.9
v 0.3 2.2 -1.9
v 0.3 2.3 -1.9
v 0.3 2.5 -1.9
v 0.3 2.6 -1.9
v 0.4 2.3 -1.9
v 0.4 2.5 -1.9
v -0.5 2.2 -2
v -0.5 2.4 -2
v -0.5 2.5 -2
v -0.5 2.6 -2
v -0.4 2.3 -2
v -0.4 2.4 -2
v -0.3 2.2 -2
v -0.3 2.3 -2
v -0.1 2.2 -2
v -0.1 2.3 -2
v 0.1 2.2 -2
v 0.1 2.3 -2
v 0.1 2.5 -2
v 0.1 2.6 -2
v 0.2 2.2 -2
v 0.2 2.5 -2
v 0.2 2.6 -2
v 0.3 2.2 -2
v 0.3 2.3 -2
v 0.3 2.5 -2
v 0.3 2.6 -2
v 0.4 2.3 -2
v 0.4 2.5 -2
v -0.5 2.2 -1.9
v -0.3 2.2 -1.9
v -0.1 2.2 -1.9
v 0.1 2.2 -1.9
v 0.2 2.2 -1.9
v 0.3 2.2 -1.9
v -0.5 2.2 -2
v -0.3 2.2 -2
v -0.1 2.2 -2
v 0.1 2.2 -2
v 0.2 2.2 -2
v 0.3 2.2 -2
v 0.3 2.3 -1.9
v 0.4 2.3 -1.9
v 0.3 2.3 -2
v 0.4 2.3 -2
v 0.1 2.5 -1.8
v 0.2 2.5 -1.8
v 0.1 2.5 -1.9
v 0.2 2.5 -1.9
v 0.3 2.5 -1.9
v 0.4 2.5 -1.9
v 0.3 2.5 -2
v 0.4 2.5 -2
v 0.1 2.6 -1.8
v 0.2 2.6 -1.8
v -0.5 2.6 -1.9
v 0.1 2.6 -1.9
v 0.2 2.6 -1.9
v 0.3 2.6 -1.9
v -0.5 2.6 -2
v 0.1 2.6 -2
v 0.2 2.6 -2
v 0.3 2.6 -2

# faces
f 3/4/1 2/4/1 1/4/1
f 4/4/1 2/4/1 3/4/1
f 5/3/1 4/3/1 3/3/1
f 6/3/1 4/3/1 5/3/1
f 7/4/1 6/4/1 5/4/1
f 8/4/1 6/4/1 7/4/1
f 11/2/1 10/2/1 9/2/1
f 12/2/1 10/2/1 11/2/1
f 13/2/2 14/2/2 15/2/2
f 15/2/2 14/2/2 16/2/2
f 17/3/2 18/3/2 19/3/2
f 19/3/2 18/3/2 20/3/2
f 21/4/2 22/4/2 23/4/2
f 23/4/2 22/4/2 24/4/2
f 25/4/2 26/4/2 27/4/2
f 27/4/2 26/4/2 28/4/2
f 31/2/3 30/2/3 29/2/3
f 32/2/3 30/2/3 31/2/3
f 37/4/3 34/4/3 33/4/3
f 38/3/3 35/3/3 34/3/3
f 38/4/3 34/4/3 37/4/3
f 39/4/3 37/4/3 33/4/3
f 40/3/3 38/3/3 37/3/3
f 40/4/3 37/4/3 39/4/3
f 41/3/3 40/3/3 39/3/3
f 42/3/3 38/3/3 40/3/3
f 42/3/3 40/3/3 41/3/3
f 43/4/3 42/4/3 41/4/3
f 44/3/3 38/3/3 42/3/3
f 44/4/3 42/4/3 43/4/3
f 45/4/3 36/4/3 35/4/3
f 45/3/3 38/3/3 44/3/3
f 45/3/3 35/3/3 38/3/3
f 46/4/3 36/4/3 45/4/3
f 47/1/3 44/1/3 43/1/3
f 47/1/3 45/1/3 44/1/3
f 48/1/3 45/1/3 47/1/3
f 50/3/3 48/3/3 47/3/3
f 51/3/3 48/3/3 50/3/3
f 52/4/3 49/4/3 48/4/3
f 52/3/3 48/3/3 51/3/3
f 53/4/3 49/4/3 52/4/3
f 54/4/3 52/4/3 51/4/3
f 55/4/3 52/4/3 54/4/3
f 56/4/4 57/4/4 60/4/4
f 57/3/4 58/3/4 61/3/4
f 60/4/4 57/4/4 61/4/4
f 56/4/4 60/4/4 62/4/4
f 60/3/4 61/3/4 63/3/4
f 62/4/4 60/4/4 63/4/4
f 62/3/4 63/3/4 64/3/4
f 63/3/4 61/3/4 65/3/4
f 64/3/4 63/3/4 65/3/4
f 64/4/4 65/4/4 66/4/4
f 65/3/4 61/3/4 67/3/4
f 66/4/4 65/4/4 67/4/4
f 58/4/4 59/4/4 68/4/4
f 67/3/4 61/3/4 68/3/4
f 61/3/4 58/3/4 68/3/4
f 68/4/4 59/4/4 69/4/4
f 66/1/4 67/1/4 70/1/4
f 67/1/4 68/1/4 70/1/4
f 68/1/4 69/1/4 70/1/4
f 70/1/4 69/1/4 71/1/4
f 71/1/4 69/1/4 72/1/4
f 70/3/4 71/3/4 73/3/4
f 73/3/4 71/3/4 74/3/4
f 71/4/4 72/4/4 75/4/4
f 74/3/4 71/3/4 75/3/4
f 75/4/4 72/4/4 76/4/4
f 74/4/4 75/4/4 77/4/4
f 77/4/4 75/4/4 78/4/4
f 85/4/5 80/4/5 79/4/5
f 86/3/5 81/3/5 80/3/5
f 86/4/5 80/4/5 85/4/5
f 87/4/5 82/4/5 81/4/5
f 87/3/5 81/3/5 86/3/5
f 88/1/5 83/1/5 82/1/5
f 88/4/5 82/4/5 87/4/5
f 89/3/5 84/3/5 83/3/5
f 89/1/5 83/1/5 88/1/5
f 90/3/5 84/3/5 89/3/5
f 93/4/5 92/4/5 91/4/5
f 94/4/5 92/4/5 93/4/5
f 97/2/5 96/2/5 95/2/5
f 98/2/5 96/2/5 97/2/5
f 99/4/6 100/4/6 101/4/6
f 101/4/6 100/4/6 102/4/6
f 103/2/6 104/2/6 106/2/6
f 106/2/6 104/2/6 107/2/6
f 105/4/6 106/4/6 109/4/6
f 106/1/6 107/1/6 110/1/6
f 109/4/6 106/4/6 110/4/6
f 107/4/6 108/4/6 111/4/6
f 110/1/6 107/1/6 111/1/6
f 111/4/6 108/4/6 112/4/6
