# MagicaVoxel @ Ephtracy

# material
mtllib BickWall1.mtl
usemtl palette

# normals
vn -1 0 0
vn 1 0 0
vn 0 0 1
vn 0 0 -1
vn 0 -1 0
vn 0 1 0

# texcoords
vt 0.294922 0.5
vt 0.298828 0.5
vt 0.302734 0.5
vt 0.306641 0.5
vt 0.310547 0.5

# verts
v -3.5 0 5
v -3.5 0 -5
v -3.5 1 5
v -3.5 1 -5
v -3.5 3 5
v -3.5 3 4
v -3.5 4 5
v -3.5 4 4
v -3.5 4 -5
v -3.5 5 5
v -3.5 5 4
v -3.5 5 -5
v -3.5 6 5
v -3.5 6 4
v -3.5 8 5
v -3.5 8 4
v -3.5 8 -5
v -3.5 9 5
v -3.5 9 4
v -3.5 9 -5
v -3.5 10 5
v -3.5 10 4
v -3.5 11 5
v -3.5 11 4
v -3.5 12 5
v -3.5 12 4
v -3.5 12 -5
v -3.5 13 5
v -3.5 13 4
v -3.5 13 -5
v -3.5 15 5
v -3.5 15 4
v -3.5 16 5
v -3.5 16 4
v -3.5 16 -5
v -3.5 17 5
v -3.5 17 4
v -3.5 17 -5
v -3.5 20 5
v -3.5 20 4
v -3.5 20 -5
v -3.5 21 5
v -3.5 21 -5
v 3.5 0 5
v 3.5 0 -5
v 3.5 1 5
v 3.5 1 4
v 3.5 1 -5
v 3.5 3 5
v 3.5 3 4
v 3.5 4 5
v 3.5 4 4
v 3.5 4 -5
v 3.5 5 5
v 3.5 5 4
v 3.5 5 -5
v 3.5 6 5
v 3.5 6 4
v 3.5 8 5
v 3.5 8 4
v 3.5 8 -5
v 3.5 9 5
v 3.5 9 4
v 3.5 9 -5
v 3.5 10 5
v 3.5 10 4
v 3.5 11 5
v 3.5 11 4
v 3.5 12 5
v 3.5 12 4
v 3.5 12 -5
v 3.5 13 5
v 3.5 13 4
v 3.5 13 -5
v 3.5 15 5
v 3.5 15 4
v 3.5 16 5
v 3.5 16 -5
v 3.5 17 5
v 3.5 17 4
v 3.5 17 -5
v 3.5 18 5
v 3.5 18 4
v 3.5 20 5
v 3.5 20 4
v 3.5 20 -5
v 3.5 21 5
v 3.5 21 -5
v -3.5 0 5
v -3.5 1 5
v -3.5 3 5
v -3.5 4 5
v -3.5 5 5
v -3.5 6 5
v -3.5 8 5
v -3.5 9 5
v -3.5 10 5
v -3.5 11 5
v -3.5 12 5
v -3.5 13 5
v -3.5 15 5
v -3.5 16 5
v -3.5 17 5
v -3.5 20 5
v -3.5 21 5
v -2.5 1 5
v -2.5 3 5
v -2.5 6 5
v -2.5 7 5
v -2.5 8 5
v -2.5 10 5
v -2.5 11 5
v -2.5 12 5
v -2.5 14 5
v -2.5 15 5
v -2.5 16 5
v -2.5 17 5
v -2.5 19 5
v -1.5 1 5
v -1.5 3 5
v -1.5 4 5
v -1.5 5 5
v -1.5 6 5
v -1.5 9 5
v -1.5 10 5
v -1.5 11 5
v -1.5 13 5
v -1.5 14 5
v -1.5 15 5
v -1.5 16 5
v -1.5 17 5
v -1.5 18 5
v -1.5 19 5
v -1.5 20 5
v -0.5 1 5
v -0.5 4 5
v -0.5 5 5
v -0.5 6 5
v -0.5 7 5
v -0.5 8 5
v -0.5 9 5
v -0.5 10 5
v -0.5 12 5
v -0.5 13 5
v -0.5 14 5
v -0.5 15 5
v -0.5 16 5
v -0.5 17 5
v -0.5 18 5
v -0.5 19 5
v -0.5 20 5
v 0.5 1 5
v 0.5 3 5
v 0.5 4 5
v 0.5 5 5
v 0.5 6 5
v 0.5 8 5
v 0.5 9 5
v 0.5 12 5
v 0.5 13 5
v 0.5 16 5
v 0.5 17 5
v 0.5 19 5
v 0.5 20 5
v 1.5 1 5
v 1.5 2 5
v 1.5 3 5
v 1.5 4 5
v 1.5 6 5
v 1.5 7 5
v 1.5 9 5
v 1.5 11 5
v 1.5 12 5
v 1.5 13 5
v 1.5 14 5
v 1.5 15 5
v 1.5 16 5
v 1.5 17 5
v 1.5 18 5
v 1.5 19 5
v 2.5 2 5
v 2.5 3 5
v 2.5 4 5
v 2.5 5 5
v 2.5 6 5
v 2.5 7 5
v 2.5 8 5
v 2.5 9 5
v 2.5 10 5
v 2.5 11 5
v 2.5 13 5
v 2.5 14 5
v 2.5 15 5
v 2.5 16 5
v 2.5 18 5
v 2.5 19 5
v 3.5 0 5
v 3.5 1 5
v 3.5 3 5
v 3.5 4 5
v 3.5 5 5
v 3.5 6 5
v 3.5 8 5
v 3.5 9 5
v 3.5 10 5
v 3.5 11 5
v 3.5 12 5
v 3.5 13 5
v 3.5 15 5
v 3.5 16 5
v 3.5 17 5
v 3.5 18 5
v 3.5 20 5
v 3.5 21 5
v -3.5 0 -5
v -3.5 1 -5
v -3.5 4 -5
v -3.5 5 -5
v -3.5 8 -5
v -3.5 9 -5
v -3.5 12 -5
v -3.5 13 -5
v -3.5 16 -5
v -3.5 17 -5
v -3.5 20 -5
v -3.5 21 -5
v -2.5 4 -5
v -2.5 5 -5
v -2.5 8 -5
v -2.5 9 -5
v -2.5 12 -5
v -2.5 13 -5
v -2.5 16 -5
v -2.5 17 -5
v -1.5 15 -5
v -1.5 16 -5
v -0.5 15 -5
v -0.5 16 -5
v -0.5 17 -5
v 2.5 4 -5
v 2.5 5 -5
v 2.5 8 -5
v 2.5 9 -5
v 2.5 12 -5
v 2.5 13 -5
v 3.5 0 -5
v 3.5 1 -5
v 3.5 4 -5
v 3.5 5 -5
v 3.5 8 -5
v 3.5 9 -5
v 3.5 12 -5
v 3.5 13 -5
v 3.5 16 -5
v 3.5 17 -5
v 3.5 20 -5
v 3.5 21 -5
v -3.5 0 5
v 3.5 0 5
v -3.5 0 -5
v 3.5 0 -5
v -3.5 21 5
v 3.5 21 5
v -3.5 21 -5
v 3.5 21 -5

# faces
f 3/3/1 2/3/1 1/3/1
f 4/3/1 2/3/1 3/3/1
f 5/5/1 4/5/1 3/5/1
f 6/5/1 4/5/1 5/5/1
f 7/2/1 6/2/1 5/2/1
f 8/5/1 4/5/1 6/5/1
f 8/2/1 6/2/1 7/2/1
f 9/5/1 4/5/1 8/5/1
f 10/3/1 8/3/1 7/3/1
f 10/3/1 9/3/1 8/3/1
f 11/3/1 9/3/1 10/3/1
f 12/3/1 9/3/1 11/3/1
f 13/4/1 11/4/1 10/4/1
f 14/5/1 12/5/1 11/5/1
f 14/4/1 11/4/1 13/4/1
f 15/2/1 14/2/1 13/2/1
f 16/5/1 12/5/1 14/5/1
f 16/2/1 14/2/1 15/2/1
f 17/5/1 12/5/1 16/5/1
f 18/3/1 16/3/1 15/3/1
f 18/3/1 17/3/1 16/3/1
f 19/3/1 17/3/1 18/3/1
f 20/3/1 17/3/1 19/3/1
f 21/2/1 19/2/1 18/2/1
f 22/5/1 20/5/1 19/5/1
f 22/2/1 19/2/1 21/2/1
f 23/4/1 22/4/1 21/4/1
f 24/5/1 20/5/1 22/5/1
f 24/4/1 22/4/1 23/4/1
f 25/1/1 24/1/1 23/1/1
f 26/5/1 20/5/1 24/5/1
f 26/1/1 24/1/1 25/1/1
f 27/5/1 20/5/1 26/5/1
f 28/3/1 26/3/1 25/3/1
f 28/3/1 27/3/1 26/3/1
f 29/3/1 27/3/1 28/3/1
f 30/3/1 27/3/1 29/3/1
f 31/2/1 29/2/1 28/2/1
f 32/5/1 30/5/1 29/5/1
f 32/2/1 29/2/1 31/2/1
f 33/4/1 32/4/1 31/4/1
f 34/5/1 30/5/1 32/5/1
f 34/4/1 32/4/1 33/4/1
f 35/5/1 30/5/1 34/5/1
f 36/3/1 34/3/1 33/3/1
f 36/3/1 35/3/1 34/3/1
f 37/3/1 35/3/1 36/3/1
f 38/3/1 35/3/1 37/3/1
f 39/4/1 37/4/1 36/4/1
f 40/5/1 38/5/1 37/5/1
f 40/4/1 37/4/1 39/4/1
f 41/5/1 38/5/1 40/5/1
f 42/3/1 40/3/1 39/3/1
f 42/3/1 41/3/1 40/3/1
f 43/3/1 41/3/1 42/3/1
f 44/3/2 45/3/2 46/3/2
f 46/3/2 45/3/2 47/3/2
f 47/3/2 45/3/2 48/3/2
f 46/2/2 47/2/2 49/2/2
f 47/5/2 48/5/2 50/5/2
f 49/2/2 47/2/2 50/2/2
f 49/4/2 50/4/2 51/4/2
f 50/5/2 48/5/2 52/5/2
f 51/4/2 50/4/2 52/4/2
f 52/5/2 48/5/2 53/5/2
f 51/3/2 52/3/2 54/3/2
f 52/3/2 53/3/2 54/3/2
f 54/3/2 53/3/2 55/3/2
f 55/3/2 53/3/2 56/3/2
f 54/4/2 55/4/2 57/4/2
f 55/5/2 56/5/2 58/5/2
f 57/4/2 55/4/2 58/4/2
f 57/1/2 58/1/2 59/1/2
f 58/5/2 56/5/2 60/5/2
f 59/1/2 58/1/2 60/1/2
f 60/5/2 56/5/2 61/5/2
f 59/3/2 60/3/2 62/3/2
f 60/3/2 61/3/2 62/3/2
f 62/3/2 61/3/2 63/3/2
f 63/3/2 61/3/2 64/3/2
f 62/2/2 63/2/2 65/2/2
f 63/5/2 64/5/2 66/5/2
f 65/2/2 63/2/2 66/2/2
f 65/4/2 66/4/2 67/4/2
f 66/5/2 64/5/2 68/5/2
f 67/4/2 66/4/2 68/4/2
f 67/2/2 68/2/2 69/2/2
f 68/5/2 64/5/2 70/5/2
f 69/2/2 68/2/2 70/2/2
f 70/5/2 64/5/2 71/5/2
f 69/3/2 70/3/2 72/3/2
f 70/3/2 71/3/2 72/3/2
f 72/3/2 71/3/2 73/3/2
f 73/3/2 71/3/2 74/3/2
f 72/1/2 73/1/2 75/1/2
f 73/5/2 74/5/2 76/5/2
f 75/1/2 73/1/2 76/1/2
f 75/5/2 76/5/2 77/5/2
f 76/5/2 74/5/2 78/5/2
f 77/5/2 76/5/2 78/5/2
f 77/3/2 78/3/2 79/3/2
f 79/3/2 78/3/2 80/3/2
f 80/3/2 78/3/2 81/3/2
f 79/4/2 80/4/2 82/4/2
f 80/5/2 81/5/2 83/5/2
f 82/4/2 80/4/2 83/4/2
f 82/2/2 83/2/2 84/2/2
f 83/5/2 81/5/2 85/5/2
f 84/2/2 83/2/2 85/2/2
f 85/5/2 81/5/2 86/5/2
f 84/3/2 85/3/2 87/3/2
f 85/3/2 86/3/2 87/3/2
f 87/3/2 86/3/2 88/3/2
f 106/3/3 90/3/3 89/3/3
f 106/5/3 91/5/3 90/5/3
f 107/2/3 92/2/3 91/2/3
f 107/5/3 91/5/3 106/5/3
f 108/4/3 94/4/3 93/4/3
f 108/2/3 95/2/3 94/2/3
f 109/2/3 95/2/3 108/2/3
f 110/3/3 96/3/3 95/3/3
f 110/2/3 95/2/3 109/2/3
f 111/2/3 97/2/3 96/2/3
f 111/4/3 98/4/3 97/4/3
f 112/1/3 99/1/3 98/1/3
f 112/4/3 98/4/3 111/4/3
f 113/3/3 100/3/3 99/3/3
f 113/1/3 99/1/3 112/1/3
f 114/2/3 101/2/3 100/2/3
f 115/4/3 102/4/3 101/4/3
f 115/2/3 101/2/3 114/2/3
f 116/3/3 103/3/3 102/3/3
f 116/4/3 102/4/3 115/4/3
f 117/4/3 104/4/3 103/4/3
f 117/3/3 103/3/3 116/3/3
f 118/4/3 104/4/3 117/4/3
f 119/3/3 106/3/3 89/3/3
f 119/1/3 107/1/3 106/1/3
f 120/2/3 92/2/3 107/2/3
f 120/1/3 107/1/3 119/1/3
f 121/3/3 93/3/3 92/3/3
f 121/2/3 92/2/3 120/2/3
f 122/4/3 108/4/3 93/4/3
f 122/3/3 93/3/3 121/3/3
f 123/5/3 109/5/3 108/5/3
f 123/4/3 108/4/3 122/4/3
f 124/3/3 96/3/3 110/3/3
f 124/2/3 111/2/3 96/2/3
f 125/1/3 112/1/3 111/1/3
f 125/2/3 111/2/3 124/2/3
f 126/5/3 113/5/3 112/5/3
f 126/1/3 112/1/3 125/1/3
f 127/3/3 100/3/3 113/3/3
f 127/2/3 114/2/3 100/2/3
f 128/1/3 115/1/3 114/1/3
f 128/2/3 114/2/3 127/2/3
f 129/5/3 116/5/3 115/5/3
f 129/1/3 115/1/3 128/1/3
f 130/3/3 117/3/3 116/3/3
f 130/5/3 116/5/3 129/5/3
f 131/1/3 118/1/3 117/1/3
f 131/3/3 117/3/3 130/3/3
f 132/1/3 118/1/3 131/1/3
f 133/4/3 104/4/3 118/4/3
f 133/1/3 118/1/3 132/1/3
f 134/3/3 105/3/3 104/3/3
f 134/4/3 104/4/3 133/4/3
f 135/4/3 120/4/3 119/4/3
f 135/3/3 119/3/3 89/3/3
f 135/4/3 121/4/3 120/4/3
f 136/3/3 122/3/3 121/3/3
f 136/4/3 121/4/3 135/4/3
f 137/1/3 123/1/3 122/1/3
f 137/3/3 122/3/3 136/3/3
f 138/5/3 109/5/3 123/5/3
f 138/1/3 123/1/3 137/1/3
f 139/4/3 110/4/3 109/4/3
f 139/5/3 109/5/3 138/5/3
f 140/3/3 124/3/3 110/3/3
f 140/4/3 110/4/3 139/4/3
f 141/4/3 125/4/3 124/4/3
f 141/3/3 124/3/3 140/3/3
f 142/5/3 126/5/3 125/5/3
f 142/4/3 125/4/3 141/4/3
f 143/5/3 113/5/3 126/5/3
f 143/5/3 126/5/3 142/5/3
f 143/3/3 127/3/3 113/3/3
f 144/4/3 128/4/3 127/4/3
f 144/3/3 127/3/3 143/3/3
f 145/1/3 129/1/3 128/1/3
f 145/4/3 128/4/3 144/4/3
f 146/4/3 130/4/3 129/4/3
f 146/1/3 129/1/3 145/1/3
f 147/3/3 131/3/3 130/3/3
f 147/4/3 130/4/3 146/4/3
f 148/4/3 132/4/3 131/4/3
f 148/3/3 131/3/3 147/3/3
f 149/2/3 133/2/3 132/2/3
f 149/4/3 132/4/3 148/4/3
f 150/5/3 134/5/3 133/5/3
f 150/2/3 133/2/3 149/2/3
f 151/3/3 105/3/3 134/3/3
f 151/5/3 134/5/3 150/5/3
f 152/3/3 148/3/3 147/3/3
f 152/3/3 143/3/3 142/3/3
f 152/3/3 151/3/3 150/3/3
f 152/3/3 140/3/3 139/3/3
f 152/3/3 146/3/3 145/3/3
f 152/3/3 144/3/3 143/3/3
f 152/3/3 141/3/3 140/3/3
f 152/3/3 142/3/3 141/3/3
f 152/3/3 139/3/3 138/3/3
f 152/3/3 136/3/3 135/3/3
f 152/3/3 138/3/3 137/3/3
f 152/3/3 137/3/3 136/3/3
f 152/3/3 135/3/3 89/3/3
f 152/3/3 145/3/3 144/3/3
f 152/3/3 149/3/3 148/3/3
f 152/3/3 150/3/3 149/3/3
f 152/3/3 147/3/3 146/3/3
f 153/3/3 151/3/3 152/3/3
f 154/3/3 151/3/3 153/3/3
f 155/3/3 151/3/3 154/3/3
f 156/3/3 151/3/3 155/3/3
f 157/3/3 151/3/3 156/3/3
f 158/3/3 151/3/3 157/3/3
f 159/3/3 151/3/3 158/3/3
f 160/3/3 151/3/3 159/3/3
f 161/3/3 151/3/3 160/3/3
f 162/3/3 151/3/3 161/3/3
f 163/3/3 151/3/3 162/3/3
f 164/3/3 105/3/3 151/3/3
f 164/3/3 151/3/3 163/3/3
f 165/3/3 152/3/3 89/3/3
f 165/4/3 153/4/3 152/4/3
f 166/4/3 153/4/3 165/4/3
f 167/1/3 154/1/3 153/1/3
f 167/4/3 153/4/3 166/4/3
f 168/3/3 155/3/3 154/3/3
f 168/1/3 154/1/3 167/1/3
f 169/5/3 156/5/3 155/5/3
f 169/4/3 157/4/3 156/4/3
f 170/4/3 157/4/3 169/4/3
f 171/3/3 158/3/3 157/3/3
f 171/4/3 159/4/3 158/4/3
f 172/4/3 159/4/3 171/4/3
f 173/3/3 160/3/3 159/3/3
f 173/4/3 159/4/3 172/4/3
f 174/2/3 161/2/3 160/2/3
f 174/3/3 160/3/3 173/3/3
f 175/2/3 161/2/3 174/2/3
f 176/2/3 161/2/3 175/2/3
f 177/3/3 162/3/3 161/3/3
f 177/2/3 161/2/3 176/2/3
f 178/5/3 163/5/3 162/5/3
f 178/3/3 162/3/3 177/3/3
f 179/5/3 163/5/3 178/5/3
f 180/2/3 164/2/3 163/2/3
f 180/5/3 163/5/3 179/5/3
f 181/2/3 166/2/3 165/2/3
f 181/5/3 167/5/3 166/5/3
f 181/5/3 168/5/3 167/5/3
f 182/5/3 168/5/3 181/5/3
f 183/3/3 155/3/3 168/3/3
f 183/5/3 168/5/3 182/5/3
f 184/5/3 170/5/3 169/5/3
f 184/3/3 155/3/3 183/3/3
f 184/5/3 169/5/3 155/5/3
f 185/5/3 170/5/3 184/5/3
f 186/4/3 157/4/3 170/4/3
f 186/5/3 170/5/3 185/5/3
f 187/3/3 171/3/3 157/3/3
f 187/4/3 157/4/3 186/4/3
f 188/5/3 172/5/3 171/5/3
f 188/3/3 171/3/3 187/3/3
f 189/5/3 172/5/3 188/5/3
f 190/2/3 173/2/3 172/2/3
f 190/5/3 172/5/3 189/5/3
f 191/3/3 174/3/3 173/3/3
f 191/4/3 175/4/3 174/4/3
f 192/1/3 176/1/3 175/1/3
f 192/4/3 175/4/3 191/4/3
f 193/4/3 177/4/3 176/4/3
f 193/1/3 176/1/3 192/1/3
f 194/3/3 178/3/3 177/3/3
f 194/4/3 177/4/3 193/4/3
f 195/4/3 179/4/3 178/4/3
f 195/1/3 180/1/3 179/1/3
f 196/2/3 164/2/3 180/2/3
f 196/1/3 180/1/3 195/1/3
f 197/3/3 165/3/3 89/3/3
f 198/2/3 182/2/3 181/2/3
f 198/3/3 165/3/3 197/3/3
f 198/2/3 181/2/3 165/2/3
f 199/4/3 183/4/3 182/4/3
f 199/2/3 182/2/3 198/2/3
f 200/3/3 184/3/3 183/3/3
f 200/4/3 183/4/3 199/4/3
f 201/4/3 185/4/3 184/4/3
f 201/3/3 184/3/3 200/3/3
f 202/1/3 187/1/3 186/1/3
f 202/4/3 185/4/3 201/4/3
f 202/1/3 186/1/3 185/1/3
f 203/3/3 188/3/3 187/3/3
f 203/1/3 187/1/3 202/1/3
f 204/2/3 189/2/3 188/2/3
f 204/3/3 188/3/3 203/3/3
f 205/4/3 190/4/3 189/4/3
f 205/2/3 189/2/3 204/2/3
f 206/2/3 173/2/3 190/2/3
f 206/4/3 190/4/3 205/4/3
f 207/3/3 191/3/3 173/3/3
f 207/2/3 173/2/3 206/2/3
f 208/1/3 192/1/3 191/1/3
f 208/3/3 191/3/3 207/3/3
f 208/1/3 193/1/3 192/1/3
f 209/5/3 194/5/3 193/5/3
f 209/1/3 193/1/3 208/1/3
f 210/3/3 178/3/3 194/3/3
f 210/5/3 194/5/3 209/5/3
f 211/4/3 195/4/3 178/4/3
f 211/3/3 178/3/3 210/3/3
f 212/2/3 196/2/3 195/2/3
f 212/4/3 195/4/3 211/4/3
f 213/3/3 105/3/3 164/3/3
f 213/2/3 196/2/3 212/2/3
f 213/2/3 164/2/3 196/2/3
f 214/3/3 105/3/3 213/3/3
f 216/5/4 217/5/4 227/5/4
f 217/3/4 218/3/4 227/3/4
f 218/5/4 219/5/4 228/5/4
f 227/3/4 218/3/4 228/3/4
f 219/3/4 220/3/4 229/3/4
f 228/5/4 219/5/4 229/5/4
f 220/5/4 221/5/4 230/5/4
f 229/3/4 220/3/4 230/3/4
f 221/3/4 222/3/4 231/3/4
f 230/5/4 221/5/4 231/5/4
f 222/5/4 223/5/4 232/5/4
f 231/3/4 222/3/4 232/3/4
f 223/3/4 224/3/4 233/3/4
f 232/5/4 223/5/4 233/5/4
f 224/5/4 225/5/4 234/5/4
f 233/3/4 224/3/4 234/3/4
f 232/5/4 233/5/4 235/5/4
f 227/5/4 228/5/4 235/5/4
f 233/5/4 234/5/4 235/5/4
f 231/5/4 232/5/4 235/5/4
f 230/5/4 231/5/4 235/5/4
f 229/5/4 230/5/4 235/5/4
f 228/5/4 229/5/4 235/5/4
f 235/5/4 234/5/4 236/5/4
f 227/5/4 235/5/4 237/5/4
f 235/3/4 236/3/4 237/3/4
f 236/5/4 234/5/4 238/5/4
f 237/3/4 236/3/4 238/3/4
f 234/5/4 225/5/4 239/5/4
f 238/5/4 234/5/4 239/5/4
f 237/5/4 238/5/4 240/5/4
f 216/5/4 227/5/4 240/5/4
f 227/5/4 237/5/4 240/5/4
f 240/5/4 238/5/4 241/5/4
f 241/5/4 238/5/4 242/5/4
f 242/5/4 238/5/4 243/5/4
f 243/5/4 238/5/4 244/5/4
f 244/5/4 238/5/4 245/5/4
f 215/3/4 216/3/4 246/3/4
f 216/5/4 240/5/4 247/5/4
f 246/3/4 216/3/4 247/3/4
f 240/3/4 241/3/4 248/3/4
f 247/5/4 240/5/4 248/5/4
f 241/5/4 242/5/4 249/5/4
f 248/3/4 241/3/4 249/3/4
f 242/3/4 243/3/4 250/3/4
f 249/5/4 242/5/4 250/5/4
f 243/5/4 244/5/4 251/5/4
f 250/3/4 243/3/4 251/3/4
f 244/3/4 245/3/4 252/3/4
f 251/5/4 244/5/4 252/5/4
f 245/5/4 238/5/4 253/5/4
f 252/3/4 245/3/4 253/3/4
f 238/3/4 239/3/4 254/3/4
f 253/5/4 238/5/4 254/5/4
f 239/5/4 225/5/4 255/5/4
f 254/3/4 239/3/4 255/3/4
f 225/3/4 226/3/4 256/3/4
f 255/5/4 225/5/4 256/5/4
f 256/3/4 226/3/4 257/3/4
f 260/3/5 259/3/5 258/3/5
f 261/3/5 259/3/5 260/3/5
f 262/3/6 263/3/6 264/3/6
f 264/3/6 263/3/6 265/3/6
