# MagicaVoxel @ Ephtracy

# group
o 

# material
mtllib KillersNote.mtl
usemtl palette

# normals
vn -1 0 0
vn 1 0 0
vn 0 0 1
vn 0 0 -1
vn 0 -1 0
vn 0 1 0

# texcoords
vt 0.978516 0.5
vt 0.982422 0.5
vt 0.986328 0.5
vt 0.990234 0.5
vt 0.994141 0.5

# verts
v 1.9 1.6 0.5
v 1.9 1.6 -0.5
v 1.9 1.7 0.7
v 1.9 1.7 0.5
v 1.9 1.7 0.3
v 1.9 1.7 0.1
v 1.9 1.7 0
v 1.9 1.7 -0.4
v 1.9 1.7 -0.5
v 1.9 1.7 -0.6
v 1.9 1.8 0.7
v 1.9 1.8 0.6
v 1.9 1.8 0.5
v 1.9 1.8 0.4
v 1.9 1.8 0.3
v 1.9 1.8 0.1
v 1.9 1.8 0
v 1.9 1.8 -0.1
v 1.9 1.8 -0.3
v 1.9 1.8 -0.4
v 1.9 1.8 -0.5
v 1.9 1.9 0.6
v 1.9 1.9 0.5
v 1.9 1.9 0.4
v 1.9 1.9 -0.1
v 1.9 1.9 -0.3
v 1.9 1.9 -0.4
v 1.9 1.9 -0.5
v 1.9 2 0.2
v 1.9 2 -0.4
v 1.9 2 -0.5
v 1.9 2.1 0.3
v 1.9 2.1 0.2
v 1.9 2.1 -0.4
v 1.9 2.2 0.3
v 1.9 2.2 0.2
v 1.9 2.2 -0.4
v 1.9 2.2 -0.5
v 1.9 2.3 0.2
v 1.9 2.3 -0.4
v 1.9 2.3 -0.5
v 1.9 2.4 0.3
v 1.9 2.4 0.2
v 1.9 2.4 -0.4
v 1.9 2.4 -0.6
v 1.9 2.4 -0.7
v 1.9 2.5 0.3
v 1.9 2.5 0.2
v 1.9 2.5 0
v 1.9 2.5 -0.2
v 1.9 2.5 -0.6
v 1.9 2.5 -0.7
v 1.9 2.5 -0.8
v 1.9 2.7 0.5
v 1.9 2.7 0.4
v 1.9 2.7 0
v 1.9 2.7 -0.2
v 1.9 2.7 -0.6
v 1.9 2.7 -0.7
v 1.9 2.7 -0.8
v 1.9 2.8 0.5
v 1.9 2.8 0.4
v 1.9 2.8 -0.6
v 1.9 2.8 -0.7
v 1.9 2.9 0.4
v 1.9 2.9 -0.6
v 2 1.6 0.5
v 2 1.6 -0.5
v 2 1.7 0.7
v 2 1.7 0.5
v 2 1.7 0.3
v 2 1.7 0.1
v 2 1.7 0
v 2 1.7 -0.4
v 2 1.7 -0.5
v 2 1.7 -0.6
v 2 1.8 0.7
v 2 1.8 0.6
v 2 1.8 0.5
v 2 1.8 0.4
v 2 1.8 0.3
v 2 1.8 0.1
v 2 1.8 0
v 2 1.8 -0.1
v 2 1.8 -0.3
v 2 1.8 -0.4
v 2 1.8 -0.5
v 2 1.9 0.6
v 2 1.9 0.5
v 2 1.9 0.4
v 2 1.9 -0.1
v 2 1.9 -0.3
v 2 1.9 -0.4
v 2 1.9 -0.5
v 2 2 0.2
v 2 2 -0.4
v 2 2 -0.5
v 2 2.1 0.3
v 2 2.1 0.2
v 2 2.1 -0.4
v 2 2.2 0.3
v 2 2.2 0.2
v 2 2.2 -0.4
v 2 2.2 -0.5
v 2 2.3 0.2
v 2 2.3 -0.4
v 2 2.3 -0.5
v 2 2.4 0.3
v 2 2.4 0.2
v 2 2.4 -0.4
v 2 2.4 -0.6
v 2 2.4 -0.7
v 2 2.5 0.3
v 2 2.5 0.2
v 2 2.5 0
v 2 2.5 -0.2
v 2 2.5 -0.6
v 2 2.5 -0.7
v 2 2.5 -0.8
v 2 2.7 0.5
v 2 2.7 0.4
v 2 2.7 0
v 2 2.7 -0.2
v 2 2.7 -0.6
v 2 2.7 -0.7
v 2 2.7 -0.8
v 2 2.8 0.5
v 2 2.8 0.4
v 2 2.8 -0.6
v 2 2.8 -0.7
v 2 2.9 0.4
v 2 2.9 -0.6
v 1.9 1.7 0.7
v 1.9 1.8 0.7
v 2 1.7 0.7
v 2 1.8 0.7
v 1.9 1.8 0.6
v 1.9 1.9 0.6
v 2 1.8 0.6
v 2 1.9 0.6
v 1.9 1.6 0.5
v 1.9 1.7 0.5
v 1.9 1.9 0.5
v 1.9 2.7 0.5
v 1.9 2.8 0.5
v 2 1.6 0.5
v 2 1.7 0.5
v 2 1.9 0.5
v 2 2.7 0.5
v 2 2.8 0.5
v 1.9 2.8 0.4
v 1.9 2.9 0.4
v 2 2.8 0.4
v 2 2.9 0.4
v 1.9 1.6 -0.5
v 1.9 1.7 -0.5
v 2 1.6 -0.5
v 2 1.7 -0.5
v 1.9 1.7 -0.6
v 1.9 2.4 -0.6
v 1.9 2.8 -0.6
v 1.9 2.9 -0.6
v 2 1.7 -0.6
v 2 2.4 -0.6
v 2 2.8 -0.6
v 2 2.9 -0.6
v 1.9 2.4 -0.7
v 1.9 2.5 -0.7
v 1.9 2.7 -0.7
v 1.9 2.8 -0.7
v 2 2.4 -0.7
v 2 2.5 -0.7
v 2 2.7 -0.7
v 2 2.8 -0.7
v 1.9 2.5 -0.8
v 1.9 2.7 -0.8
v 2 2.5 -0.8
v 2 2.7 -0.8
v 1.9 1.6 0.5
v 2 1.6 0.5
v 1.9 1.6 -0.5
v 2 1.6 -0.5
v 1.9 1.7 0.7
v 2 1.7 0.7
v 1.9 1.7 0.5
v 2 1.7 0.5
v 1.9 1.7 -0.5
v 2 1.7 -0.5
v 1.9 1.7 -0.6
v 2 1.7 -0.6
v 1.9 2.4 -0.6
v 2 2.4 -0.6
v 1.9 2.4 -0.7
v 2 2.4 -0.7
v 1.9 2.5 -0.7
v 2 2.5 -0.7
v 1.9 2.5 -0.8
v 2 2.5 -0.8
v 1.9 1.8 0.7
v 2 1.8 0.7
v 1.9 1.8 0.6
v 2 1.8 0.6
v 1.9 1.9 0.6
v 2 1.9 0.6
v 1.9 1.9 0.5
v 2 1.9 0.5
v 1.9 2.7 -0.7
v 2 2.7 -0.7
v 1.9 2.7 -0.8
v 2 2.7 -0.8
v 1.9 2.8 0.5
v 2 2.8 0.5
v 1.9 2.8 0.4
v 2 2.8 0.4
v 1.9 2.8 -0.6
v 2 2.8 -0.6
v 1.9 2.8 -0.7
v 2 2.8 -0.7
v 1.9 2.9 0.4
v 2 2.9 0.4
v 1.9 2.9 -0.6
v 2 2.9 -0.6

# faces
f 4/5/1 2/5/1 1/5/1
f 5/5/1 2/5/1 4/5/1
f 6/5/1 2/5/1 5/5/1
f 7/5/1 2/5/1 6/5/1
f 8/5/1 2/5/1 7/5/1
f 9/5/1 2/5/1 8/5/1
f 11/4/1 4/4/1 3/4/1
f 11/4/1 5/4/1 4/4/1
f 12/4/1 5/4/1 11/4/1
f 13/4/1 5/4/1 12/4/1
f 14/4/1 5/4/1 13/4/1
f 15/1/1 6/1/1 5/1/1
f 15/4/1 5/4/1 14/4/1
f 16/4/1 7/4/1 6/4/1
f 16/1/1 6/1/1 15/1/1
f 17/1/1 8/1/1 7/1/1
f 17/4/1 7/4/1 16/4/1
f 18/1/1 8/1/1 17/1/1
f 19/1/1 8/1/1 18/1/1
f 20/4/1 9/4/1 8/4/1
f 20/1/1 8/1/1 19/1/1
f 21/5/1 10/5/1 9/5/1
f 21/4/1 9/4/1 20/4/1
f 22/4/1 13/4/1 12/4/1
f 23/1/1 14/1/1 13/1/1
f 23/4/1 13/4/1 22/4/1
f 24/4/1 15/4/1 14/4/1
f 24/1/1 14/1/1 23/1/1
f 24/4/1 16/4/1 15/4/1
f 24/4/1 18/4/1 17/4/1
f 24/4/1 17/4/1 16/4/1
f 25/1/1 19/1/1 18/1/1
f 25/4/1 18/4/1 24/4/1
f 26/4/1 20/4/1 19/4/1
f 26/1/1 19/1/1 25/1/1
f 27/5/1 21/5/1 20/5/1
f 27/4/1 20/4/1 26/4/1
f 28/5/1 10/5/1 21/5/1
f 28/5/1 21/5/1 27/5/1
f 29/5/1 25/5/1 24/5/1
f 29/5/1 24/5/1 23/5/1
f 29/5/1 27/5/1 26/5/1
f 29/5/1 26/5/1 25/5/1
f 30/2/1 28/2/1 27/2/1
f 30/5/1 27/5/1 29/5/1
f 31/5/1 10/5/1 28/5/1
f 31/2/1 28/2/1 30/2/1
f 32/5/1 29/5/1 23/5/1
f 33/2/1 30/2/1 29/2/1
f 33/5/1 29/5/1 32/5/1
f 34/5/1 31/5/1 30/5/1
f 34/2/1 30/2/1 33/2/1
f 35/5/1 32/5/1 23/5/1
f 35/2/1 33/2/1 32/2/1
f 36/5/1 34/5/1 33/5/1
f 36/2/1 33/2/1 35/2/1
f 37/5/1 31/5/1 34/5/1
f 37/5/1 34/5/1 36/5/1
f 38/5/1 10/5/1 31/5/1
f 38/5/1 31/5/1 37/5/1
f 39/5/1 36/5/1 35/5/1
f 39/5/1 37/5/1 36/5/1
f 40/2/1 38/2/1 37/2/1
f 40/5/1 37/5/1 39/5/1
f 41/5/1 10/5/1 38/5/1
f 41/2/1 38/2/1 40/2/1
f 42/5/1 39/5/1 35/5/1
f 42/5/1 35/5/1 23/5/1
f 43/2/1 40/2/1 39/2/1
f 43/5/1 39/5/1 42/5/1
f 44/5/1 41/5/1 40/5/1
f 44/2/1 40/2/1 43/2/1
f 45/5/1 10/5/1 41/5/1
f 45/5/1 41/5/1 44/5/1
f 47/5/1 42/5/1 23/5/1
f 47/2/1 43/2/1 42/2/1
f 48/5/1 44/5/1 43/5/1
f 48/2/1 43/2/1 47/2/1
f 48/5/1 45/5/1 44/5/1
f 49/5/1 45/5/1 48/5/1
f 50/5/1 45/5/1 49/5/1
f 51/4/1 46/4/1 45/4/1
f 51/5/1 45/5/1 50/5/1
f 52/4/1 46/4/1 51/4/1
f 54/5/1 47/5/1 23/5/1
f 54/5/1 48/5/1 47/5/1
f 54/5/1 49/5/1 48/5/1
f 55/5/1 49/5/1 54/5/1
f 56/3/1 50/3/1 49/3/1
f 56/5/1 49/5/1 55/5/1
f 57/5/1 52/5/1 51/5/1
f 57/3/1 50/3/1 56/3/1
f 57/5/1 51/5/1 50/5/1
f 58/5/1 52/5/1 57/5/1
f 59/4/1 53/4/1 52/4/1
f 59/5/1 52/5/1 58/5/1
f 60/4/1 53/4/1 59/4/1
f 61/4/1 55/4/1 54/4/1
f 62/5/1 58/5/1 57/5/1
f 62/4/1 55/4/1 61/4/1
f 62/5/1 56/5/1 55/5/1
f 62/5/1 57/5/1 56/5/1
f 63/4/1 59/4/1 58/4/1
f 63/5/1 58/5/1 62/5/1
f 64/4/1 59/4/1 63/4/1
f 65/4/1 63/4/1 62/4/1
f 66/4/1 63/4/1 65/4/1
f 67/5/2 68/5/2 70/5/2
f 70/5/2 68/5/2 71/5/2
f 71/5/2 68/5/2 72/5/2
f 72/5/2 68/5/2 73/5/2
f 73/5/2 68/5/2 74/5/2
f 74/5/2 68/5/2 75/5/2
f 69/4/2 70/4/2 77/4/2
f 70/4/2 71/4/2 77/4/2
f 77/4/2 71/4/2 78/4/2
f 78/4/2 71/4/2 79/4/2
f 79/4/2 71/4/2 80/4/2
f 71/1/2 72/1/2 81/1/2
f 80/4/2 71/4/2 81/4/2
f 72/4/2 73/4/2 82/4/2
f 81/1/2 72/1/2 82/1/2
f 73/1/2 74/1/2 83/1/2
f 82/4/2 73/4/2 83/4/2
f 83/1/2 74/1/2 84/1/2
f 84/1/2 74/1/2 85/1/2
f 74/4/2 75/4/2 86/4/2
f 85/1/2 74/1/2 86/1/2
f 75/5/2 76/5/2 87/5/2
f 86/4/2 75/4/2 87/4/2
f 78/4/2 79/4/2 88/4/2
f 79/1/2 80/1/2 89/1/2
f 88/4/2 79/4/2 89/4/2
f 80/4/2 81/4/2 90/4/2
f 89/1/2 80/1/2 90/1/2
f 81/4/2 82/4/2 90/4/2
f 83/4/2 84/4/2 90/4/2
f 82/4/2 83/4/2 90/4/2
f 84/1/2 85/1/2 91/1/2
f 90/4/2 84/4/2 91/4/2
f 85/4/2 86/4/2 92/4/2
f 91/1/2 85/1/2 92/1/2
f 86/5/2 87/5/2 93/5/2
f 92/4/2 86/4/2 93/4/2
f 87/5/2 76/5/2 94/5/2
f 93/5/2 87/5/2 94/5/2
f 90/5/2 91/5/2 95/5/2
f 89/5/2 90/5/2 95/5/2
f 92/5/2 93/5/2 95/5/2
f 91/5/2 92/5/2 95/5/2
f 93/2/2 94/2/2 96/2/2
f 95/5/2 93/5/2 96/5/2
f 94/5/2 76/5/2 97/5/2
f 96/2/2 94/2/2 97/2/2
f 89/5/2 95/5/2 98/5/2
f 95/2/2 96/2/2 99/2/2
f 98/5/2 95/5/2 99/5/2
f 96/5/2 97/5/2 100/5/2
f 99/2/2 96/2/2 100/2/2
f 89/5/2 98/5/2 101/5/2
f 98/2/2 99/2/2 101/2/2
f 99/5/2 100/5/2 102/5/2
f 101/2/2 99/2/2 102/2/2
f 100/5/2 97/5/2 103/5/2
f 102/5/2 100/5/2 103/5/2
f 97/5/2 76/5/2 104/5/2
f 103/5/2 97/5/2 104/5/2
f 101/5/2 102/5/2 105/5/2
f 102/5/2 103/5/2 105/5/2
f 103/2/2 104/2/2 106/2/2
f 105/5/2 103/5/2 106/5/2
f 104/5/2 76/5/2 107/5/2
f 106/2/2 104/2/2 107/2/2
f 101/5/2 105/5/2 108/5/2
f 89/5/2 101/5/2 108/5/2
f 105/2/2 106/2/2 109/2/2
f 108/5/2 105/5/2 109/5/2
f 106/5/2 107/5/2 110/5/2
f 109/2/2 106/2/2 110/2/2
f 107/5/2 76/5/2 111/5/2
f 110/5/2 107/5/2 111/5/2
f 89/5/2 108/5/2 113/5/2
f 108/2/2 109/2/2 113/2/2
f 109/5/2 110/5/2 114/5/2
f 113/2/2 109/2/2 114/2/2
f 110/5/2 111/5/2 114/5/2
f 114/5/2 111/5/2 115/5/2
f 115/5/2 111/5/2 116/5/2
f 111/4/2 112/4/2 117/4/2
f 116/5/2 111/5/2 117/5/2
f 117/4/2 112/4/2 118/4/2
f 89/5/2 113/5/2 120/5/2
f 113/5/2 114/5/2 120/5/2
f 114/5/2 115/5/2 120/5/2
f 120/5/2 115/5/2 121/5/2
f 115/3/2 116/3/2 122/3/2
f 121/5/2 115/5/2 122/5/2
f 117/5/2 118/5/2 123/5/2
f 122/3/2 116/3/2 123/3/2
f 116/5/2 117/5/2 123/5/2
f 123/5/2 118/5/2 124/5/2
f 118/4/2 119/4/2 125/4/2
f 124/5/2 118/5/2 125/5/2
f 125/4/2 119/4/2 126/4/2
f 120/4/2 121/4/2 127/4/2
f 123/5/2 124/5/2 128/5/2
f 127/4/2 121/4/2 128/4/2
f 121/5/2 122/5/2 128/5/2
f 122/5/2 123/5/2 128/5/2
f 124/4/2 125/4/2 129/4/2
f 128/5/2 124/5/2 129/5/2
f 129/4/2 125/4/2 130/4/2
f 128/4/2 129/4/2 131/4/2
f 131/4/2 129/4/2 132/4/2
f 135/4/3 134/4/3 133/4/3
f 136/4/3 134/4/3 135/4/3
f 139/4/3 138/4/3 137/4/3
f 140/4/3 138/4/3 139/4/3
f 146/5/3 142/5/3 141/5/3
f 147/5/3 142/5/3 146/5/3
f 148/5/3 144/5/3 143/5/3
f 149/4/3 145/4/3 144/4/3
f 149/5/3 144/5/3 148/5/3
f 150/4/3 145/4/3 149/4/3
f 153/4/3 152/4/3 151/4/3
f 154/4/3 152/4/3 153/4/3
f 155/5/4 156/5/4 157/5/4
f 157/5/4 156/5/4 158/5/4
f 159/5/4 160/5/4 163/5/4
f 163/5/4 160/5/4 164/5/4
f 161/4/4 162/4/4 165/4/4
f 165/4/4 162/4/4 166/4/4
f 167/4/4 168/4/4 171/4/4
f 171/4/4 168/4/4 172/4/4
f 169/4/4 170/4/4 173/4/4
f 173/4/4 170/4/4 174/4/4
f 175/4/4 176/4/4 177/4/4
f 177/4/4 176/4/4 178/4/4
f 181/5/5 180/5/5 179/5/5
f 182/5/5 180/5/5 181/5/5
f 185/4/5 184/4/5 183/4/5
f 186/4/5 184/4/5 185/4/5
f 189/5/5 188/5/5 187/5/5
f 190/5/5 188/5/5 189/5/5
f 193/4/5 192/4/5 191/4/5
f 194/4/5 192/4/5 193/4/5
f 197/4/5 196/4/5 195/4/5
f 198/4/5 196/4/5 197/4/5
f 199/4/6 200/4/6 201/4/6
f 201/4/6 200/4/6 202/4/6
f 203/4/6 204/4/6 205/4/6
f 205/4/6 204/4/6 206/4/6
f 207/4/6 208/4/6 209/4/6
f 209/4/6 208/4/6 210/4/6
f 211/4/6 212/4/6 213/4/6
f 213/4/6 212/4/6 214/4/6
f 215/4/6 216/4/6 217/4/6
f 217/4/6 216/4/6 218/4/6
f 219/4/6 220/4/6 221/4/6
f 221/4/6 220/4/6 222/4/6
