# MagicaVoxel @ Ephtracy

# group
o 

# material
mtllib lantern.mtl
usemtl palette

# normals
vn -1 0 0
vn 1 0 0
vn 0 0 1
vn 0 0 -1
vn 0 -1 0
vn 0 1 0

# texcoords
vt 0.947266 0.5
vt 0.951172 0.5
vt 0.970703 0.5
vt 0.978516 0.5
vt 0.986328 0.5

# verts
v -0.8 2.3 -1.9
v -0.8 2.3 -2
v -0.8 2.7 -1.9
v -0.8 2.7 -2
v -0.7 2.2 -1.9
v -0.7 2.2 -2
v -0.7 2.3 -1.9
v -0.7 2.3 -2
v -0.7 2.7 -1.9
v -0.7 2.7 -2
v -0.7 2.8 -1.9
v -0.7 2.8 -2
v 0.1 2.3 -1.9
v 0.1 2.3 -2
v 0.1 2.4 -1.9
v 0.1 2.4 -2
v 0.1 2.6 -1.9
v 0.1 2.6 -2
v 0.1 2.7 -1.9
v 0.1 2.7 -2
v -0.5 2.2 -1.9
v -0.5 2.2 -2
v -0.5 2.3 -1.9
v -0.5 2.3 -2
v -0.5 2.7 -1.9
v -0.5 2.7 -2
v -0.5 2.8 -1.9
v -0.5 2.8 -2
v -0.3 2.3 -1.9
v -0.3 2.3 -2
v -0.3 2.4 -1.9
v -0.3 2.4 -2
v -0.3 2.6 -1.9
v -0.3 2.6 -2
v -0.3 2.7 -1.9
v -0.3 2.7 -2
v 0.3 2.3 -1.9
v 0.3 2.3 -2
v 0.3 2.7 -1.9
v 0.3 2.7 -2
v -0.8 2.3 -1.9
v -0.8 2.7 -1.9
v -0.7 2.2 -1.9
v -0.7 2.3 -1.9
v -0.7 2.6 -1.9
v -0.7 2.7 -1.9
v -0.7 2.8 -1.9
v -0.6 2.3 -1.9
v -0.6 2.6 -1.9
v -0.5 2.2 -1.9
v -0.5 2.3 -1.9
v -0.5 2.7 -1.9
v -0.5 2.8 -1.9
v -0.4 2.4 -1.9
v -0.4 2.6 -1.9
v -0.3 2.3 -1.9
v -0.3 2.4 -1.9
v -0.3 2.5 -1.9
v -0.3 2.6 -1.9
v -0.3 2.7 -1.9
v -0.2 2.5 -1.9
v -0.2 2.6 -1.9
v -0.1 2.5 -1.9
v -0.1 2.6 -1.9
v 0 2.5 -1.9
v 0 2.6 -1.9
v 0.1 2.3 -1.9
v 0.1 2.4 -1.9
v 0.1 2.5 -1.9
v 0.1 2.6 -1.9
v 0.1 2.7 -1.9
v 0.2 2.4 -1.9
v 0.2 2.5 -1.9
v 0.2 2.6 -1.9
v 0.3 2.3 -1.9
v 0.3 2.7 -1.9
v -0.8 2.3 -2
v -0.8 2.7 -2
v -0.7 2.2 -2
v -0.7 2.3 -2
v -0.7 2.6 -2
v -0.7 2.7 -2
v -0.7 2.8 -2
v -0.6 2.3 -2
v -0.6 2.6 -2
v -0.5 2.2 -2
v -0.5 2.3 -2
v -0.5 2.7 -2
v -0.5 2.8 -2
v -0.4 2.4 -2
v -0.4 2.6 -2
v -0.3 2.3 -2
v -0.3 2.4 -2
v -0.3 2.5 -2
v -0.3 2.6 -2
v -0.3 2.7 -2
v -0.2 2.5 -2
v -0.2 2.6 -2
v -0.1 2.5 -2
v -0.1 2.6 -2
v 0 2.5 -2
v 0 2.6 -2
v 0.1 2.3 -2
v 0.1 2.4 -2
v 0.1 2.5 -2
v 0.1 2.6 -2
v 0.1 2.7 -2
v 0.2 2.4 -2
v 0.2 2.5 -2
v 0.2 2.6 -2
v 0.3 2.3 -2
v 0.3 2.7 -2
v -0.7 2.2 -1.9
v -0.5 2.2 -1.9
v -0.7 2.2 -2
v -0.5 2.2 -2
v -0.8 2.3 -1.9
v -0.7 2.3 -1.9
v -0.5 2.3 -1.9
v -0.3 2.3 -1.9
v 0.1 2.3 -1.9
v 0.3 2.3 -1.9
v -0.8 2.3 -2
v -0.7 2.3 -2
v -0.5 2.3 -2
v -0.3 2.3 -2
v 0.1 2.3 -2
v 0.3 2.3 -2
v -0.3 2.4 -1.9
v 0.1 2.4 -1.9
v -0.3 2.4 -2
v 0.1 2.4 -2
v -0.3 2.6 -1.9
v -0.2 2.6 -1.9
v -0.1 2.6 -1.9
v 0 2.6 -1.9
v 0.1 2.6 -1.9
v -0.3 2.6 -2
v -0.2 2.6 -2
v -0.1 2.6 -2
v 0 2.6 -2
v 0.1 2.6 -2
v -0.8 2.7 -1.9
v -0.7 2.7 -1.9
v -0.5 2.7 -1.9
v -0.3 2.7 -1.9
v 0.1 2.7 -1.9
v 0.3 2.7 -1.9
v -0.8 2.7 -2
v -0.7 2.7 -2
v -0.5 2.7 -2
v -0.3 2.7 -2
v 0.1 2.7 -2
v 0.3 2.7 -2
v -0.7 2.8 -1.9
v -0.5 2.8 -1.9
v -0.7 2.8 -2
v -0.5 2.8 -2

# faces
f 3/3/1 2/3/1 1/3/1
f 4/3/1 2/3/1 3/3/1
f 7/3/1 6/3/1 5/3/1
f 8/3/1 6/3/1 7/3/1
f 11/3/1 10/3/1 9/3/1
f 12/3/1 10/3/1 11/3/1
f 15/3/1 14/3/1 13/3/1
f 16/3/1 14/3/1 15/3/1
f 19/3/1 18/3/1 17/3/1
f 20/3/1 18/3/1 19/3/1
f 21/3/2 22/3/2 23/3/2
f 23/3/2 22/3/2 24/3/2
f 25/3/2 26/3/2 27/3/2
f 27/3/2 26/3/2 28/3/2
f 29/3/2 30/3/2 31/3/2
f 31/3/2 30/3/2 32/3/2
f 33/3/2 34/3/2 35/3/2
f 35/3/2 34/3/2 36/3/2
f 37/3/2 38/3/2 39/3/2
f 39/3/2 38/3/2 40/3/2
f 44/3/3 42/3/3 41/3/3
f 45/3/3 42/3/3 44/3/3
f 46/3/3 42/3/3 45/3/3
f 48/3/3 44/3/3 43/3/3
f 48/1/3 45/1/3 44/1/3
f 49/2/3 46/2/3 45/2/3
f 49/1/3 45/1/3 48/1/3
f 50/3/3 48/3/3 43/3/3
f 51/2/3 49/2/3 48/2/3
f 51/3/3 48/3/3 50/3/3
f 52/3/3 47/3/3 46/3/3
f 52/2/3 49/2/3 51/2/3
f 52/2/3 46/2/3 49/2/3
f 53/3/3 47/3/3 52/3/3
f 54/3/3 52/3/3 51/3/3
f 55/3/3 52/3/3 54/3/3
f 56/3/3 54/3/3 51/3/3
f 57/4/3 55/4/3 54/4/3
f 57/3/3 54/3/3 56/3/3
f 58/4/3 55/4/3 57/4/3
f 59/3/3 52/3/3 55/3/3
f 59/4/3 55/4/3 58/4/3
f 60/3/3 52/3/3 59/3/3
f 61/4/3 58/4/3 57/4/3
f 61/5/3 59/5/3 58/5/3
f 62/5/3 59/5/3 61/5/3
f 63/4/3 61/4/3 57/4/3
f 63/4/3 62/4/3 61/4/3
f 64/4/3 62/4/3 63/4/3
f 65/4/3 63/4/3 57/4/3
f 65/5/3 64/5/3 63/5/3
f 66/5/3 64/5/3 65/5/3
f 68/4/3 65/4/3 57/4/3
f 68/4/3 66/4/3 65/4/3
f 69/4/3 66/4/3 68/4/3
f 70/4/3 66/4/3 69/4/3
f 72/4/3 69/4/3 68/4/3
f 72/3/3 68/3/3 67/3/3
f 73/5/3 70/5/3 69/5/3
f 73/4/3 69/4/3 72/4/3
f 74/3/3 71/3/3 70/3/3
f 74/5/3 70/5/3 73/5/3
f 75/3/3 72/3/3 67/3/3
f 75/3/3 73/3/3 72/3/3
f 75/3/3 74/3/3 73/3/3
f 76/3/3 71/3/3 74/3/3
f 76/3/3 74/3/3 75/3/3
f 77/3/4 78/3/4 80/3/4
f 80/3/4 78/3/4 81/3/4
f 81/3/4 78/3/4 82/3/4
f 79/3/4 80/3/4 84/3/4
f 80/1/4 81/1/4 84/1/4
f 81/2/4 82/2/4 85/2/4
f 84/1/4 81/1/4 85/1/4
f 79/3/4 84/3/4 86/3/4
f 84/2/4 85/2/4 87/2/4
f 86/3/4 84/3/4 87/3/4
f 82/3/4 83/3/4 88/3/4
f 87/2/4 85/2/4 88/2/4
f 85/2/4 82/2/4 88/2/4
f 88/3/4 83/3/4 89/3/4
f 87/3/4 88/3/4 90/3/4
f 90/3/4 88/3/4 91/3/4
f 87/3/4 90/3/4 92/3/4
f 90/4/4 91/4/4 93/4/4
f 92/3/4 90/3/4 93/3/4
f 93/4/4 91/4/4 94/4/4
f 91/3/4 88/3/4 95/3/4
f 94/4/4 91/4/4 95/4/4
f 95/3/4 88/3/4 96/3/4
f 93/4/4 94/4/4 97/4/4
f 94/5/4 95/5/4 97/5/4
f 97/5/4 95/5/4 98/5/4
f 93/4/4 97/4/4 99/4/4
f 97/4/4 98/4/4 99/4/4
f 99/4/4 98/4/4 100/4/4
f 93/4/4 99/4/4 101/4/4
f 99/5/4 100/5/4 101/5/4
f 101/5/4 100/5/4 102/5/4
f 93/4/4 101/4/4 104/4/4
f 101/4/4 102/4/4 104/4/4
f 104/4/4 102/4/4 105/4/4
f 105/4/4 102/4/4 106/4/4
f 104/4/4 105/4/4 108/4/4
f 103/3/4 104/3/4 108/3/4
f 105/5/4 106/5/4 109/5/4
f 108/4/4 105/4/4 109/4/4
f 106/3/4 107/3/4 110/3/4
f 109/5/4 106/5/4 110/5/4
f 103/3/4 108/3/4 111/3/4
f 108/3/4 109/3/4 111/3/4
f 109/3/4 110/3/4 111/3/4
f 110/3/4 107/3/4 112/3/4
f 111/3/4 110/3/4 112/3/4
f 115/3/5 114/3/5 113/3/5
f 116/3/5 114/3/5 115/3/5
f 123/3/5 118/3/5 117/3/5
f 124/3/5 118/3/5 123/3/5
f 125/3/5 120/3/5 119/3/5
f 126/3/5 120/3/5 125/3/5
f 127/3/5 122/3/5 121/3/5
f 128/3/5 122/3/5 127/3/5
f 131/4/5 130/4/5 129/4/5
f 132/4/5 130/4/5 131/4/5
f 133/5/6 134/5/6 138/5/6
f 134/4/6 135/4/6 139/4/6
f 138/5/6 134/5/6 139/5/6
f 135/5/6 136/5/6 140/5/6
f 139/4/6 135/4/6 140/4/6
f 136/4/6 137/4/6 141/4/6
f 140/5/6 136/5/6 141/5/6
f 141/4/6 137/4/6 142/4/6
f 143/3/6 144/3/6 149/3/6
f 149/3/6 144/3/6 150/3/6
f 145/3/6 146/3/6 151/3/6
f 151/3/6 146/3/6 152/3/6
f 147/3/6 148/3/6 153/3/6
f 153/3/6 148/3/6 154/3/6
f 155/3/6 156/3/6 157/3/6
f 157/3/6 156/3/6 158/3/6
