# MagicaVoxel @ Ephtracy

# group
o 

# material
mtllib LightLamp2.mtl
usemtl palette

# normals
vn -1 0 0
vn 1 0 0
vn 0 0 1
vn 0 0 -1
vn 0 -1 0
vn 0 1 0

# texcoords
vt 0.982422 0.5
vt 0.986328 0.5
vt 0.990234 0.5
vt 0.994141 0.5

# verts
v -0.8 2.3 -1.9
v -0.8 2.3 -2
v -0.8 2.4 -1.9
v -0.8 2.4 -2
v -0.7 2.2 -1.9
v -0.7 2.2 -2
v -0.7 2.3 -1.9
v -0.7 2.3 -2
v -0.7 2.4 -1.9
v -0.7 2.4 -2
v -0.7 2.5 -1.9
v -0.7 2.5 -2
v -0.6 2.1 -1.9
v -0.6 2.1 -2
v -0.6 2.2 -1.9
v -0.6 2.2 -2
v -0.6 2.5 -1.9
v -0.6 2.5 -2
v -0.6 2.6 -1.9
v -0.6 2.6 -2
v -0.5 2.6 -1.9
v -0.5 2.6 -2
v -0.5 2.7 -1.9
v -0.5 2.7 -2
v -0.3 2.7 -1.9
v -0.3 2.7 -2
v -0.3 3.4 -1.9
v -0.3 3.4 -2
v -0.1 2.7 -1.9
v -0.1 2.7 -2
v -0.1 3.4 -1.9
v -0.1 3.4 -2
v 0.1 2.6 -1.9
v 0.1 2.6 -2
v 0.1 2.7 -1.9
v 0.1 2.7 -2
v 0.2 2.1 -1.9
v 0.2 2.1 -2
v 0.2 2.2 -1.9
v 0.2 2.2 -2
v 0.2 2.5 -1.9
v 0.2 2.5 -2
v 0.2 2.6 -1.9
v 0.2 2.6 -2
v 0.3 2.2 -1.9
v 0.3 2.2 -2
v 0.3 2.3 -1.9
v 0.3 2.3 -2
v 0.3 2.4 -1.9
v 0.3 2.4 -2
v 0.3 2.5 -1.9
v 0.3 2.5 -2
v 0.4 2.3 -1.9
v 0.4 2.3 -2
v 0.4 2.4 -1.9
v 0.4 2.4 -2
v -0.8 2.3 -1.9
v -0.8 2.4 -1.9
v -0.7 2.2 -1.9
v -0.7 2.3 -1.9
v -0.7 2.4 -1.9
v -0.7 2.5 -1.9
v -0.6 2.1 -1.9
v -0.6 2.2 -1.9
v -0.6 2.3 -1.9
v -0.6 2.4 -1.9
v -0.6 2.5 -1.9
v -0.6 2.6 -1.9
v -0.5 2.4 -1.9
v -0.5 2.5 -1.9
v -0.5 2.6 -1.9
v -0.5 2.7 -1.9
v -0.3 2.3 -1.9
v -0.3 2.4 -1.9
v -0.3 2.7 -1.9
v -0.3 3.4 -1.9
v -0.1 2.3 -1.9
v -0.1 2.4 -1.9
v -0.1 2.7 -1.9
v -0.1 3.4 -1.9
v 0.1 2.4 -1.9
v 0.1 2.5 -1.9
v 0.1 2.6 -1.9
v 0.1 2.7 -1.9
v 0.2 2.1 -1.9
v 0.2 2.2 -1.9
v 0.2 2.3 -1.9
v 0.2 2.4 -1.9
v 0.2 2.5 -1.9
v 0.2 2.6 -1.9
v 0.3 2.2 -1.9
v 0.3 2.3 -1.9
v 0.3 2.4 -1.9
v 0.3 2.5 -1.9
v 0.4 2.3 -1.9
v 0.4 2.4 -1.9
v -0.8 2.3 -2
v -0.8 2.4 -2
v -0.7 2.2 -2
v -0.7 2.3 -2
v -0.7 2.4 -2
v -0.7 2.5 -2
v -0.6 2.1 -2
v -0.6 2.2 -2
v -0.6 2.3 -2
v -0.6 2.4 -2
v -0.6 2.5 -2
v -0.6 2.6 -2
v -0.5 2.4 -2
v -0.5 2.5 -2
v -0.5 2.6 -2
v -0.5 2.7 -2
v -0.3 2.3 -2
v -0.3 2.4 -2
v -0.3 2.7 -2
v -0.3 3.4 -2
v -0.1 2.3 -2
v -0.1 2.4 -2
v -0.1 2.7 -2
v -0.1 3.4 -2
v 0.1 2.4 -2
v 0.1 2.5 -2
v 0.1 2.6 -2
v 0.1 2.7 -2
v 0.2 2.1 -2
v 0.2 2.2 -2
v 0.2 2.3 -2
v 0.2 2.4 -2
v 0.2 2.5 -2
v 0.2 2.6 -2
v 0.3 2.2 -2
v 0.3 2.3 -2
v 0.3 2.4 -2
v 0.3 2.5 -2
v 0.4 2.3 -2
v 0.4 2.4 -2
v -0.6 2.1 -1.9
v 0.2 2.1 -1.9
v -0.6 2.1 -2
v 0.2 2.1 -2
v -0.7 2.2 -1.9
v -0.6 2.2 -1.9
v 0.2 2.2 -1.9
v 0.3 2.2 -1.9
v -0.7 2.2 -2
v -0.6 2.2 -2
v 0.2 2.2 -2
v 0.3 2.2 -2
v -0.8 2.3 -1.9
v -0.7 2.3 -1.9
v 0.3 2.3 -1.9
v 0.4 2.3 -1.9
v -0.8 2.3 -2
v -0.7 2.3 -2
v 0.3 2.3 -2
v 0.4 2.3 -2
v -0.8 2.4 -1.9
v -0.7 2.4 -1.9
v 0.3 2.4 -1.9
v 0.4 2.4 -1.9
v -0.8 2.4 -2
v -0.7 2.4 -2
v 0.3 2.4 -2
v 0.4 2.4 -2
v -0.7 2.5 -1.9
v -0.6 2.5 -1.9
v 0.2 2.5 -1.9
v 0.3 2.5 -1.9
v -0.7 2.5 -2
v -0.6 2.5 -2
v 0.2 2.5 -2
v 0.3 2.5 -2
v -0.6 2.6 -1.9
v -0.5 2.6 -1.9
v 0.1 2.6 -1.9
v 0.2 2.6 -1.9
v -0.6 2.6 -2
v -0.5 2.6 -2
v 0.1 2.6 -2
v 0.2 2.6 -2
v -0.5 2.7 -1.9
v -0.3 2.7 -1.9
v -0.1 2.7 -1.9
v 0.1 2.7 -1.9
v -0.5 2.7 -2
v -0.3 2.7 -2
v -0.1 2.7 -2
v 0.1 2.7 -2
v -0.3 3.4 -1.9
v -0.1 3.4 -1.9
v -0.3 3.4 -2
v -0.1 3.4 -2

# faces
f 3/4/1 2/4/1 1/4/1
f 4/4/1 2/4/1 3/4/1
f 7/2/1 6/2/1 5/2/1
f 8/2/1 6/2/1 7/2/1
f 11/4/1 10/4/1 9/4/1
f 12/4/1 10/4/1 11/4/1
f 15/2/1 14/2/1 13/2/1
f 16/2/1 14/2/1 15/2/1
f 19/4/1 18/4/1 17/4/1
f 20/4/1 18/4/1 19/4/1
f 23/4/1 22/4/1 21/4/1
f 24/4/1 22/4/1 23/4/1
f 27/4/1 26/4/1 25/4/1
f 28/4/1 26/4/1 27/4/1
f 29/4/2 30/4/2 31/4/2
f 31/4/2 30/4/2 32/4/2
f 33/4/2 34/4/2 35/4/2
f 35/4/2 34/4/2 36/4/2
f 37/2/2 38/2/2 39/2/2
f 39/2/2 38/2/2 40/2/2
f 41/4/2 42/4/2 43/4/2
f 43/4/2 42/4/2 44/4/2
f 45/2/2 46/2/2 47/2/2
f 47/2/2 46/2/2 48/2/2
f 49/4/2 50/4/2 51/4/2
f 51/4/2 50/4/2 52/4/2
f 53/4/2 54/4/2 55/4/2
f 55/4/2 54/4/2 56/4/2
f 60/4/3 58/4/3 57/4/3
f 61/4/3 58/4/3 60/4/3
f 64/2/3 60/2/3 59/2/3
f 65/3/3 61/3/3 60/3/3
f 65/2/3 60/2/3 64/2/3
f 66/4/3 62/4/3 61/4/3
f 66/3/3 61/3/3 65/3/3
f 67/4/3 62/4/3 66/4/3
f 69/2/3 65/2/3 64/2/3
f 69/2/3 64/2/3 63/2/3
f 69/3/3 67/3/3 66/3/3
f 69/2/3 66/2/3 65/2/3
f 70/4/3 68/4/3 67/4/3
f 70/3/3 67/3/3 69/3/3
f 71/4/3 68/4/3 70/4/3
f 73/2/3 69/2/3 63/2/3
f 74/1/3 70/1/3 69/1/3
f 74/2/3 69/2/3 73/2/3
f 75/4/3 72/4/3 71/4/3
f 77/2/3 73/2/3 63/2/3
f 77/1/3 74/1/3 73/1/3
f 78/1/3 70/1/3 74/1/3
f 78/1/3 74/1/3 77/1/3
f 79/4/3 76/4/3 75/4/3
f 79/4/3 75/4/3 71/4/3
f 80/4/3 76/4/3 79/4/3
f 81/1/3 70/1/3 78/1/3
f 81/2/3 78/2/3 77/2/3
f 82/3/3 71/3/3 70/3/3
f 82/1/3 70/1/3 81/1/3
f 83/4/3 79/4/3 71/4/3
f 83/3/3 71/3/3 82/3/3
f 84/4/3 79/4/3 83/4/3
f 85/2/3 77/2/3 63/2/3
f 85/2/3 81/2/3 77/2/3
f 86/2/3 81/2/3 85/2/3
f 87/2/3 81/2/3 86/2/3
f 88/3/3 82/3/3 81/3/3
f 88/2/3 81/2/3 87/2/3
f 89/4/3 83/4/3 82/4/3
f 89/3/3 82/3/3 88/3/3
f 90/4/3 83/4/3 89/4/3
f 91/2/3 87/2/3 86/2/3
f 92/3/3 88/3/3 87/3/3
f 92/2/3 87/2/3 91/2/3
f 93/4/3 89/4/3 88/4/3
f 93/3/3 88/3/3 92/3/3
f 94/4/3 89/4/3 93/4/3
f 95/4/3 93/4/3 92/4/3
f 96/4/3 93/4/3 95/4/3
f 97/4/4 98/4/4 100/4/4
f 100/4/4 98/4/4 101/4/4
f 99/2/4 100/2/4 104/2/4
f 100/3/4 101/3/4 105/3/4
f 104/2/4 100/2/4 105/2/4
f 101/4/4 102/4/4 106/4/4
f 105/3/4 101/3/4 106/3/4
f 106/4/4 102/4/4 107/4/4
f 104/2/4 105/2/4 109/2/4
f 103/2/4 104/2/4 109/2/4
f 106/3/4 107/3/4 109/3/4
f 105/2/4 106/2/4 109/2/4
f 107/4/4 108/4/4 110/4/4
f 109/3/4 107/3/4 110/3/4
f 110/4/4 108/4/4 111/4/4
f 103/2/4 109/2/4 113/2/4
f 109/1/4 110/1/4 114/1/4
f 113/2/4 109/2/4 114/2/4
f 111/4/4 112/4/4 115/4/4
f 103/2/4 113/2/4 117/2/4
f 113/1/4 114/1/4 117/1/4
f 114/1/4 110/1/4 118/1/4
f 117/1/4 114/1/4 118/1/4
f 115/4/4 116/4/4 119/4/4
f 111/4/4 115/4/4 119/4/4
f 119/4/4 116/4/4 120/4/4
f 118/1/4 110/1/4 121/1/4
f 117/2/4 118/2/4 121/2/4
f 110/3/4 111/3/4 122/3/4
f 121/1/4 110/1/4 122/1/4
f 111/4/4 119/4/4 123/4/4
f 122/3/4 111/3/4 123/3/4
f 123/4/4 119/4/4 124/4/4
f 103/2/4 117/2/4 125/2/4
f 117/2/4 121/2/4 125/2/4
f 125/2/4 121/2/4 126/2/4
f 126/2/4 121/2/4 127/2/4
f 121/3/4 122/3/4 128/3/4
f 127/2/4 121/2/4 128/2/4
f 122/4/4 123/4/4 129/4/4
f 128/3/4 122/3/4 129/3/4
f 129/4/4 123/4/4 130/4/4
f 126/2/4 127/2/4 131/2/4
f 127/3/4 128/3/4 132/3/4
f 131/2/4 127/2/4 132/2/4
f 128/4/4 129/4/4 133/4/4
f 132/3/4 128/3/4 133/3/4
f 133/4/4 129/4/4 134/4/4
f 132/4/4 133/4/4 135/4/4
f 135/4/4 133/4/4 136/4/4
f 139/2/5 138/2/5 137/2/5
f 140/2/5 138/2/5 139/2/5
f 145/2/5 142/2/5 141/2/5
f 146/2/5 142/2/5 145/2/5
f 147/2/5 144/2/5 143/2/5
f 148/2/5 144/2/5 147/2/5
f 153/4/5 150/4/5 149/4/5
f 154/4/5 150/4/5 153/4/5
f 155/4/5 152/4/5 151/4/5
f 156/4/5 152/4/5 155/4/5
f 157/4/6 158/4/6 161/4/6
f 161/4/6 158/4/6 162/4/6
f 159/4/6 160/4/6 163/4/6
f 163/4/6 160/4/6 164/4/6
f 165/4/6 166/4/6 169/4/6
f 169/4/6 166/4/6 170/4/6
f 167/4/6 168/4/6 171/4/6
f 171/4/6 168/4/6 172/4/6
f 173/4/6 174/4/6 177/4/6
f 177/4/6 174/4/6 178/4/6
f 175/4/6 176/4/6 179/4/6
f 179/4/6 176/4/6 180/4/6
f 181/4/6 182/4/6 185/4/6
f 185/4/6 182/4/6 186/4/6
f 183/4/6 184/4/6 187/4/6
f 187/4/6 184/4/6 188/4/6
f 189/4/6 190/4/6 191/4/6
f 191/4/6 190/4/6 192/4/6
