# MagicaVoxel @ Ephtracy

# material
mtllib Present1.mtl
usemtl palette

# normals
vn -1 0 0
vn 1 0 0
vn 0 0 1
vn 0 0 -1
vn 0 -1 0
vn 0 1 0

# texcoords
vt 0.990234 0.5
vt 0.994141 0.5

# verts
v -5 6 4
v -5 6 1
v -5 6 -1
v -5 6 -4
v -5 7 5
v -5 7 4
v -5 7 -4
v -5 7 -5
v -5 8 5
v -5 8 4
v -5 8 -4
v -5 8 -5
v -5 9 4
v -5 9 1
v -5 9 -1
v -5 9 -4
v -4 0 3
v -4 0 2
v -4 0 1
v -4 0 -1
v -4 0 -2
v -4 0 -3
v -4 1 3
v -4 1 2
v -4 1 1
v -4 1 -1
v -4 1 -2
v -4 1 -3
v -4 2 3
v -4 2 2
v -4 2 1
v -4 2 -1
v -4 2 -2
v -4 2 -3
v -4 3 3
v -4 3 2
v -4 3 1
v -4 3 -1
v -4 3 -2
v -4 3 -3
v -4 4 3
v -4 4 2
v -4 4 1
v -4 4 -1
v -4 4 -2
v -4 4 -3
v -4 5 3
v -4 5 2
v -4 5 1
v -4 5 -1
v -4 5 -2
v -4 5 -3
v -4 6 5
v -4 6 4
v -4 6 3
v -4 6 1
v -4 6 -1
v -4 6 -3
v -4 6 -4
v -4 6 -5
v -4 7 5
v -4 7 4
v -4 7 -4
v -4 7 -5
v -4 8 5
v -4 8 4
v -4 8 -4
v -4 8 -5
v -4 9 5
v -4 9 4
v -4 9 -4
v -4 9 -5
v -3 0 4
v -3 0 3
v -3 0 -3
v -3 0 -4
v -3 1 4
v -3 1 3
v -3 1 -3
v -3 1 -4
v -3 2 4
v -3 2 3
v -3 2 -3
v -3 2 -4
v -3 3 4
v -3 3 3
v -3 3 -3
v -3 3 -4
v -3 4 4
v -3 4 3
v -3 4 -3
v -3 4 -4
v -3 5 4
v -3 5 3
v -3 5 -3
v -3 5 -4
v -3 6 4
v -3 6 3
v -3 6 -3
v -3 6 -4
v -2 9 1
v -2 9 -1
v -2 10 1
v -2 10 -1
v -1 9 2
v -1 9 1
v -1 9 -1
v -1 9 -2
v -1 10 2
v -1 10 1
v -1 10 -1
v -1 10 -2
v 1 9 2
v 1 9 1
v 1 9 -1
v 1 9 -2
v 1 10 2
v 1 10 1
v 1 10 -1
v 1 10 -2
v 2 9 1
v 2 9 -1
v 2 10 1
v 2 10 -1
v 3 0 4
v 3 0 3
v 3 0 -3
v 3 0 -4
v 3 1 4
v 3 1 3
v 3 1 -3
v 3 1 -4
v 3 2 4
v 3 2 3
v 3 2 -3
v 3 2 -4
v 3 3 4
v 3 3 3
v 3 3 -3
v 3 3 -4
v 3 4 4
v 3 4 3
v 3 4 -3
v 3 4 -4
v 3 5 4
v 3 5 3
v 3 5 -3
v 3 5 -4
v 3 6 4
v 3 6 3
v 3 6 -3
v 3 6 -4
v 4 0 3
v 4 0 2
v 4 0 1
v 4 0 -1
v 4 0 -2
v 4 0 -3
v 4 1 3
v 4 1 2
v 4 1 1
v 4 1 -1
v 4 1 -2
v 4 1 -3
v 4 2 3
v 4 2 2
v 4 2 1
v 4 2 -1
v 4 2 -2
v 4 2 -3
v 4 3 3
v 4 3 2
v 4 3 1
v 4 3 -1
v 4 3 -2
v 4 3 -3
v 4 4 3
v 4 4 2
v 4 4 1
v 4 4 -1
v 4 4 -2
v 4 4 -3
v 4 5 3
v 4 5 2
v 4 5 1
v 4 5 -1
v 4 5 -2
v 4 5 -3
v 4 6 5
v 4 6 4
v 4 6 3
v 4 6 1
v 4 6 -1
v 4 6 -3
v 4 6 -4
v 4 6 -5
v 4 7 5
v 4 7 4
v 4 7 -4
v 4 7 -5
v 4 8 5
v 4 8 4
v 4 8 -4
v 4 8 -5
v 4 9 5
v 4 9 4
v 4 9 -4
v 4 9 -5
v 5 6 4
v 5 6 1
v 5 6 -1
v 5 6 -4
v 5 7 5
v 5 7 4
v 5 7 -4
v 5 7 -5
v 5 8 5
v 5 8 4
v 5 8 -4
v 5 8 -5
v 5 9 4
v 5 9 1
v 5 9 -1
v 5 9 -4
v -5 7 5
v -5 8 5
v -4 6 5
v -4 7 5
v -4 8 5
v -4 9 5
v -1 6 5
v -1 9 5
v 1 6 5
v 1 9 5
v 4 6 5
v 4 7 5
v 4 8 5
v 4 9 5
v 5 7 5
v 5 8 5
v -5 6 4
v -5 7 4
v -5 8 4
v -5 9 4
v -4 6 4
v -4 7 4
v -4 8 4
v -4 9 4
v -3 0 4
v -3 1 4
v -3 2 4
v -3 3 4
v -3 4 4
v -3 5 4
v -3 6 4
v -2 0 4
v -2 1 4
v -2 2 4
v -2 3 4
v -2 4 4
v -2 5 4
v -1 0 4
v -1 1 4
v -1 2 4
v -1 3 4
v -1 4 4
v -1 5 4
v -1 6 4
v 1 0 4
v 1 1 4
v 1 2 4
v 1 3 4
v 1 4 4
v 1 5 4
v 1 6 4
v 2 0 4
v 2 1 4
v 2 2 4
v 2 3 4
v 2 4 4
v 2 5 4
v 3 0 4
v 3 1 4
v 3 2 4
v 3 3 4
v 3 4 4
v 3 5 4
v 3 6 4
v 4 6 4
v 4 7 4
v 4 8 4
v 4 9 4
v 5 6 4
v 5 7 4
v 5 8 4
v 5 9 4
v -4 0 3
v -4 1 3
v -4 2 3
v -4 3 3
v -4 4 3
v -4 5 3
v -4 6 3
v -3 0 3
v -3 1 3
v -3 2 3
v -3 3 3
v -3 4 3
v -3 5 3
v -3 6 3
v 3 0 3
v 3 1 3
v 3 2 3
v 3 3 3
v 3 4 3
v 3 5 3
v 3 6 3
v 4 0 3
v 4 1 3
v 4 2 3
v 4 3 3
v 4 4 3
v 4 5 3
v 4 6 3
v -1 9 2
v -1 10 2
v 1 9 2
v 1 10 2
v -2 9 1
v -2 10 1
v -1 9 1
v -1 10 1
v 1 9 1
v 1 10 1
v 2 9 1
v 2 10 1
v -2 9 -1
v -2 10 -1
v -1 9 -1
v -1 10 -1
v 1 9 -1
v 1 10 -1
v 2 9 -1
v 2 10 -1
v -1 9 -2
v -1 10 -2
v 1 9 -2
v 1 10 -2
v -4 0 -3
v -4 1 -3
v -4 2 -3
v -4 3 -3
v -4 4 -3
v -4 5 -3
v -4 6 -3
v -3 0 -3
v -3 1 -3
v -3 2 -3
v -3 3 -3
v -3 4 -3
v -3 5 -3
v -3 6 -3
v 3 0 -3
v 3 1 -3
v 3 2 -3
v 3 3 -3
v 3 4 -3
v 3 5 -3
v 3 6 -3
v 4 0 -3
v 4 1 -3
v 4 2 -3
v 4 3 -3
v 4 4 -3
v 4 5 -3
v 4 6 -3
v -5 6 -4
v -5 7 -4
v -5 8 -4
v -5 9 -4
v -4 6 -4
v -4 7 -4
v -4 8 -4
v -4 9 -4
v -3 0 -4
v -3 1 -4
v -3 2 -4
v -3 3 -4
v -3 4 -4
v -3 5 -4
v -3 6 -4
v -2 0 -4
v -2 1 -4
v -2 2 -4
v -2 3 -4
v -2 4 -4
v -2 5 -4
v -1 0 -4
v -1 1 -4
v -1 2 -4
v -1 3 -4
v -1 4 -4
v -1 5 -4
v -1 6 -4
v 1 0 -4
v 1 1 -4
v 1 2 -4
v 1 3 -4
v 1 4 -4
v 1 5 -4
v 1 6 -4
v 2 0 -4
v 2 1 -4
v 2 2 -4
v 2 3 -4
v 2 4 -4
v 2 5 -4
v 3 0 -4
v 3 1 -4
v 3 2 -4
v 3 3 -4
v 3 4 -4
v 3 5 -4
v 3 6 -4
v 4 6 -4
v 4 7 -4
v 4 8 -4
v 4 9 -4
v 5 6 -4
v 5 7 -4
v 5 8 -4
v 5 9 -4
v -5 7 -5
v -5 8 -5
v -4 6 -5
v -4 7 -5
v -4 8 -5
v -4 9 -5
v -1 6 -5
v -1 9 -5
v 1 6 -5
v 1 9 -5
v 4 6 -5
v 4 7 -5
v 4 8 -5
v 4 9 -5
v 5 7 -5
v 5 8 -5
v -3 0 4
v -2 0 4
v -1 0 4
v 1 0 4
v 2 0 4
v 3 0 4
v -4 0 3
v -3 0 3
v -2 0 3
v -1 0 3
v 1 0 3
v 2 0 3
v 3 0 3
v 4 0 3
v -4 0 2
v -3 0 2
v 3 0 2
v 4 0 2
v -4 0 1
v -3 0 1
v 3 0 1
v 4 0 1
v -4 0 -1
v -3 0 -1
v 3 0 -1
v 4 0 -1
v -4 0 -2
v -3 0 -2
v 3 0 -2
v 4 0 -2
v -4 0 -3
v -3 0 -3
v -2 0 -3
v -1 0 -3
v 1 0 -3
v 2 0 -3
v 3 0 -3
v 4 0 -3
v -3 0 -4
v -2 0 -4
v -1 0 -4
v 1 0 -4
v 2 0 -4
v 3 0 -4
v -4 6 5
v -1 6 5
v 1 6 5
v 4 6 5
v -5 6 4
v -4 6 4
v -3 6 4
v -1 6 4
v 1 6 4
v 3 6 4
v 4 6 4
v 5 6 4
v -4 6 3
v -3 6 3
v 3 6 3
v 4 6 3
v -5 6 1
v -4 6 1
v 4 6 1
v 5 6 1
v -5 6 -1
v -4 6 -1
v 4 6 -1
v 5 6 -1
v -4 6 -3
v -3 6 -3
v 3 6 -3
v 4 6 -3
v -5 6 -4
v -4 6 -4
v -3 6 -4
v -1 6 -4
v 1 6 -4
v 3 6 -4
v 4 6 -4
v 5 6 -4
v -4 6 -5
v -1 6 -5
v 1 6 -5
v 4 6 -5
v -5 7 5
v -4 7 5
v 4 7 5
v 5 7 5
v -5 7 4
v -4 7 4
v 4 7 4
v 5 7 4
v -5 7 -4
v -4 7 -4
v 4 7 -4
v 5 7 -4
v -5 7 -5
v -4 7 -5
v 4 7 -5
v 5 7 -5
v -5 8 5
v -4 8 5
v 4 8 5
v 5 8 5
v -5 8 4
v -4 8 4
v 4 8 4
v 5 8 4
v -5 8 -4
v -4 8 -4
v 4 8 -4
v 5 8 -4
v -5 8 -5
v -4 8 -5
v 4 8 -5
v 5 8 -5
v -4 9 5
v -1 9 5
v 1 9 5
v 4 9 5
v -5 9 4
v -4 9 4
v 4 9 4
v 5 9 4
v -1 9 2
v 1 9 2
v -5 9 1
v -2 9 1
v -1 9 1
v 1 9 1
v 2 9 1
v 5 9 1
v -5 9 -1
v -2 9 -1
v -1 9 -1
v 1 9 -1
v 2 9 -1
v 5 9 -1
v -1 9 -2
v 1 9 -2
v -5 9 -4
v -4 9 -4
v 4 9 -4
v 5 9 -4
v -4 9 -5
v -1 9 -5
v 1 9 -5
v 4 9 -5
v -1 10 2
v 1 10 2
v -2 10 1
v -1 10 1
v 1 10 1
v 2 10 1
v -2 10 -1
v -1 10 -1
v 1 10 -1
v 2 10 -1
v -1 10 -2
v 1 10 -2

# faces
f 6/2/1 2/2/1 1/2/1
f 7/2/1 4/2/1 3/2/1
f 9/2/1 6/2/1 5/2/1
f 10/2/1 2/2/1 6/2/1
f 10/2/1 6/2/1 9/2/1
f 11/2/1 8/2/1 7/2/1
f 11/2/1 7/2/1 3/2/1
f 12/2/1 8/2/1 11/2/1
f 13/2/1 2/2/1 10/2/1
f 14/1/1 3/1/1 2/1/1
f 14/2/1 2/2/1 13/2/1
f 15/2/1 11/2/1 3/2/1
f 15/1/1 3/1/1 14/1/1
f 16/2/1 11/2/1 15/2/1
f 23/1/1 18/1/1 17/1/1
f 24/2/1 19/2/1 18/2/1
f 24/1/1 18/1/1 23/1/1
f 25/1/1 20/1/1 19/1/1
f 25/2/1 19/2/1 24/2/1
f 26/2/1 21/2/1 20/2/1
f 26/1/1 20/1/1 25/1/1
f 27/1/1 22/1/1 21/1/1
f 27/2/1 21/2/1 26/2/1
f 28/1/1 22/1/1 27/1/1
f 29/2/1 26/2/1 25/2/1
f 29/2/1 24/2/1 23/2/1
f 29/2/1 28/2/1 27/2/1
f 29/2/1 27/2/1 26/2/1
f 29/2/1 25/2/1 24/2/1
f 30/2/1 28/2/1 29/2/1
f 31/2/1 28/2/1 30/2/1
f 32/2/1 28/2/1 31/2/1
f 33/2/1 28/2/1 32/2/1
f 34/2/1 28/2/1 33/2/1
f 35/1/1 30/1/1 29/1/1
f 36/2/1 31/2/1 30/2/1
f 36/1/1 30/1/1 35/1/1
f 37/1/1 32/1/1 31/1/1
f 37/2/1 31/2/1 36/2/1
f 38/2/1 33/2/1 32/2/1
f 38/1/1 32/1/1 37/1/1
f 39/1/1 34/1/1 33/1/1
f 39/2/1 33/2/1 38/2/1
f 40/1/1 34/1/1 39/1/1
f 41/2/1 36/2/1 35/2/1
f 41/2/1 37/2/1 36/2/1
f 41/2/1 40/2/1 39/2/1
f 41/2/1 39/2/1 38/2/1
f 41/2/1 38/2/1 37/2/1
f 42/2/1 40/2/1 41/2/1
f 43/2/1 40/2/1 42/2/1
f 44/2/1 40/2/1 43/2/1
f 45/2/1 40/2/1 44/2/1
f 46/2/1 40/2/1 45/2/1
f 47/1/1 42/1/1 41/1/1
f 48/2/1 43/2/1 42/2/1
f 48/1/1 42/1/1 47/1/1
f 49/1/1 44/1/1 43/1/1
f 49/2/1 43/2/1 48/2/1
f 50/2/1 45/2/1 44/2/1
f 50/1/1 44/1/1 49/1/1
f 51/1/1 46/1/1 45/1/1
f 51/2/1 45/2/1 50/2/1
f 52/1/1 46/1/1 51/1/1
f 55/2/1 48/2/1 47/2/1
f 55/2/1 49/2/1 48/2/1
f 55/2/1 50/2/1 49/2/1
f 55/2/1 52/2/1 51/2/1
f 55/2/1 51/2/1 50/2/1
f 56/2/1 52/2/1 55/2/1
f 57/2/1 52/2/1 56/2/1
f 58/2/1 52/2/1 57/2/1
f 61/2/1 54/2/1 53/2/1
f 62/2/1 54/2/1 61/2/1
f 63/2/1 60/2/1 59/2/1
f 64/2/1 60/2/1 63/2/1
f 69/2/1 66/2/1 65/2/1
f 70/2/1 66/2/1 69/2/1
f 71/2/1 68/2/1 67/2/1
f 72/2/1 68/2/1 71/2/1
f 77/1/1 74/1/1 73/1/1
f 78/1/1 74/1/1 77/1/1
f 79/1/1 76/1/1 75/1/1
f 80/1/1 76/1/1 79/1/1
f 81/2/1 78/2/1 77/2/1
f 82/2/1 78/2/1 81/2/1
f 83/2/1 80/2/1 79/2/1
f 84/2/1 80/2/1 83/2/1
f 85/1/1 82/1/1 81/1/1
f 86/1/1 82/1/1 85/1/1
f 87/1/1 84/1/1 83/1/1
f 88/1/1 84/1/1 87/1/1
f 89/2/1 86/2/1 85/2/1
f 90/2/1 86/2/1 89/2/1
f 91/2/1 88/2/1 87/2/1
f 92/2/1 88/2/1 91/2/1
f 93/1/1 90/1/1 89/1/1
f 94/1/1 90/1/1 93/1/1
f 95/1/1 92/1/1 91/1/1
f 96/1/1 92/1/1 95/1/1
f 97/2/1 94/2/1 93/2/1
f 98/2/1 94/2/1 97/2/1
f 99/2/1 96/2/1 95/2/1
f 100/2/1 96/2/1 99/2/1
f 103/1/1 102/1/1 101/1/1
f 104/1/1 102/1/1 103/1/1
f 109/1/1 106/1/1 105/1/1
f 110/1/1 106/1/1 109/1/1
f 111/1/1 108/1/1 107/1/1
f 112/1/1 108/1/1 111/1/1
f 113/1/2 114/1/2 117/1/2
f 117/1/2 114/1/2 118/1/2
f 115/1/2 116/1/2 119/1/2
f 119/1/2 116/1/2 120/1/2
f 121/1/2 122/1/2 123/1/2
f 123/1/2 122/1/2 124/1/2
f 125/1/2 126/1/2 129/1/2
f 129/1/2 126/1/2 130/1/2
f 127/1/2 128/1/2 131/1/2
f 131/1/2 128/1/2 132/1/2
f 129/2/2 130/2/2 133/2/2
f 133/2/2 130/2/2 134/2/2
f 131/2/2 132/2/2 135/2/2
f 135/2/2 132/2/2 136/2/2
f 133/1/2 134/1/2 137/1/2
f 137/1/2 134/1/2 138/1/2
f 135/1/2 136/1/2 139/1/2
f 139/1/2 136/1/2 140/1/2
f 137/2/2 138/2/2 141/2/2
f 141/2/2 138/2/2 142/2/2
f 139/2/2 140/2/2 143/2/2
f 143/2/2 140/2/2 144/2/2
f 141/1/2 142/1/2 145/1/2
f 145/1/2 142/1/2 146/1/2
f 143/1/2 144/1/2 147/1/2
f 147/1/2 144/1/2 148/1/2
f 145/2/2 146/2/2 149/2/2
f 149/2/2 146/2/2 150/2/2
f 147/2/2 148/2/2 151/2/2
f 151/2/2 148/2/2 152/2/2
f 153/1/2 154/1/2 159/1/2
f 154/2/2 155/2/2 160/2/2
f 159/1/2 154/1/2 160/1/2
f 155/1/2 156/1/2 161/1/2
f 160/2/2 155/2/2 161/2/2
f 156/2/2 157/2/2 162/2/2
f 161/1/2 156/1/2 162/1/2
f 157/1/2 158/1/2 163/1/2
f 162/2/2 157/2/2 163/2/2
f 163/1/2 158/1/2 164/1/2
f 161/2/2 162/2/2 165/2/2
f 159/2/2 160/2/2 165/2/2
f 163/2/2 164/2/2 165/2/2
f 162/2/2 163/2/2 165/2/2
f 160/2/2 161/2/2 165/2/2
f 165/2/2 164/2/2 166/2/2
f 166/2/2 164/2/2 167/2/2
f 167/2/2 164/2/2 168/2/2
f 168/2/2 164/2/2 169/2/2
f 169/2/2 164/2/2 170/2/2
f 165/1/2 166/1/2 171/1/2
f 166/2/2 167/2/2 172/2/2
f 171/1/2 166/1/2 172/1/2
f 167/1/2 168/1/2 173/1/2
f 172/2/2 167/2/2 173/2/2
f 168/2/2 169/2/2 174/2/2
f 173/1/2 168/1/2 174/1/2
f 169/1/2 170/1/2 175/1/2
f 174/2/2 169/2/2 175/2/2
f 175/1/2 170/1/2 176/1/2
f 171/2/2 172/2/2 177/2/2
f 172/2/2 173/2/2 177/2/2
f 175/2/2 176/2/2 177/2/2
f 174/2/2 175/2/2 177/2/2
f 173/2/2 174/2/2 177/2/2
f 177/2/2 176/2/2 178/2/2
f 178/2/2 176/2/2 179/2/2
f 179/2/2 176/2/2 180/2/2
f 180/2/2 176/2/2 181/2/2
f 181/2/2 176/2/2 182/2/2
f 177/1/2 178/1/2 183/1/2
f 178/2/2 179/2/2 184/2/2
f 183/1/2 178/1/2 184/1/2
f 179/1/2 180/1/2 185/1/2
f 184/2/2 179/2/2 185/2/2
f 180/2/2 181/2/2 186/2/2
f 185/1/2 180/1/2 186/1/2
f 181/1/2 182/1/2 187/1/2
f 186/2/2 181/2/2 187/2/2
f 187/1/2 182/1/2 188/1/2
f 183/2/2 184/2/2 191/2/2
f 184/2/2 185/2/2 191/2/2
f 185/2/2 186/2/2 191/2/2
f 187/2/2 188/2/2 191/2/2
f 186/2/2 187/2/2 191/2/2
f 191/2/2 188/2/2 192/2/2
f 192/2/2 188/2/2 193/2/2
f 193/2/2 188/2/2 194/2/2
f 189/2/2 190/2/2 197/2/2
f 197/2/2 190/2/2 198/2/2
f 195/2/2 196/2/2 199/2/2
f 199/2/2 196/2/2 200/2/2
f 201/2/2 202/2/2 205/2/2
f 205/2/2 202/2/2 206/2/2
f 203/2/2 204/2/2 207/2/2
f 207/2/2 204/2/2 208/2/2
f 209/2/2 210/2/2 214/2/2
f 211/2/2 212/2/2 215/2/2
f 213/2/2 214/2/2 217/2/2
f 214/2/2 210/2/2 218/2/2
f 217/2/2 214/2/2 218/2/2
f 215/2/2 216/2/2 219/2/2
f 211/2/2 215/2/2 219/2/2
f 219/2/2 216/2/2 220/2/2
f 218/2/2 210/2/2 221/2/2
f 210/1/2 211/1/2 222/1/2
f 221/2/2 210/2/2 222/2/2
f 211/2/2 219/2/2 223/2/2
f 222/1/2 211/1/2 223/1/2
f 223/2/2 219/2/2 224/2/2
f 228/2/3 226/2/3 225/2/3
f 229/2/3 226/2/3 228/2/3
f 231/2/3 228/2/3 227/2/3
f 231/2/3 230/2/3 229/2/3
f 231/2/3 229/2/3 228/2/3
f 232/2/3 230/2/3 231/2/3
f 233/1/3 232/1/3 231/1/3
f 234/1/3 232/1/3 233/1/3
f 235/2/3 234/2/3 233/2/3
f 236/2/3 234/2/3 235/2/3
f 237/2/3 234/2/3 236/2/3
f 238/2/3 234/2/3 237/2/3
f 239/2/3 237/2/3 236/2/3
f 240/2/3 237/2/3 239/2/3
f 245/2/3 242/2/3 241/2/3
f 246/2/3 242/2/3 245/2/3
f 247/2/3 244/2/3 243/2/3
f 248/2/3 244/2/3 247/2/3
f 256/1/3 250/1/3 249/1/3
f 257/2/3 251/2/3 250/2/3
f 257/1/3 250/1/3 256/1/3
f 258/1/3 252/1/3 251/1/3
f 258/2/3 251/2/3 257/2/3
f 259/2/3 253/2/3 252/2/3
f 259/1/3 252/1/3 258/1/3
f 260/1/3 254/1/3 253/1/3
f 260/2/3 253/2/3 259/2/3
f 261/2/3 255/2/3 254/2/3
f 261/1/3 254/1/3 260/1/3
f 262/2/3 260/2/3 259/2/3
f 262/2/3 257/2/3 256/2/3
f 262/2/3 261/2/3 260/2/3
f 262/2/3 259/2/3 258/2/3
f 262/2/3 258/2/3 257/2/3
f 263/2/3 261/2/3 262/2/3
f 264/2/3 261/2/3 263/2/3
f 265/2/3 261/2/3 264/2/3
f 266/2/3 261/2/3 265/2/3
f 267/2/3 255/2/3 261/2/3
f 267/2/3 261/2/3 266/2/3
f 268/2/3 255/2/3 267/2/3
f 269/1/3 263/1/3 262/1/3
f 270/2/3 264/2/3 263/2/3
f 270/1/3 263/1/3 269/1/3
f 271/1/3 265/1/3 264/1/3
f 271/2/3 264/2/3 270/2/3
f 272/2/3 266/2/3 265/2/3
f 272/1/3 265/1/3 271/1/3
f 273/1/3 267/1/3 266/1/3
f 273/2/3 266/2/3 272/2/3
f 274/2/3 268/2/3 267/2/3
f 274/1/3 267/1/3 273/1/3
f 275/2/3 268/2/3 274/2/3
f 276/2/3 271/2/3 270/2/3
f 276/2/3 270/2/3 269/2/3
f 276/2/3 275/2/3 274/2/3
f 276/2/3 274/2/3 273/2/3
f 276/2/3 273/2/3 272/2/3
f 276/2/3 272/2/3 271/2/3
f 277/2/3 275/2/3 276/2/3
f 278/2/3 275/2/3 277/2/3
f 279/2/3 275/2/3 278/2/3
f 280/2/3 275/2/3 279/2/3
f 281/2/3 275/2/3 280/2/3
f 282/1/3 277/1/3 276/1/3
f 283/2/3 278/2/3 277/2/3
f 283/1/3 277/1/3 282/1/3
f 284/1/3 279/1/3 278/1/3
f 284/2/3 278/2/3 283/2/3
f 285/2/3 280/2/3 279/2/3
f 285/1/3 279/1/3 284/1/3
f 286/1/3 281/1/3 280/1/3
f 286/2/3 280/2/3 285/2/3
f 287/2/3 275/2/3 281/2/3
f 287/1/3 281/1/3 286/1/3
f 288/2/3 275/2/3 287/2/3
f 293/2/3 290/2/3 289/2/3
f 294/2/3 290/2/3 293/2/3
f 295/2/3 292/2/3 291/2/3
f 296/2/3 292/2/3 295/2/3
f 304/1/3 298/1/3 297/1/3
f 305/2/3 299/2/3 298/2/3
f 305/1/3 298/1/3 304/1/3
f 306/1/3 300/1/3 299/1/3
f 306/2/3 299/2/3 305/2/3
f 307/2/3 301/2/3 300/2/3
f 307/1/3 300/1/3 306/1/3
f 308/1/3 302/1/3 301/1/3
f 308/2/3 301/2/3 307/2/3
f 309/2/3 303/2/3 302/2/3
f 309/1/3 302/1/3 308/1/3
f 310/2/3 303/2/3 309/2/3
f 318/1/3 312/1/3 311/1/3
f 319/2/3 313/2/3 312/2/3
f 319/1/3 312/1/3 318/1/3
f 320/1/3 314/1/3 313/1/3
f 320/2/3 313/2/3 319/2/3
f 321/2/3 315/2/3 314/2/3
f 321/1/3 314/1/3 320/1/3
f 322/1/3 316/1/3 315/1/3
f 322/2/3 315/2/3 321/2/3
f 323/2/3 317/2/3 316/2/3
f 323/1/3 316/1/3 322/1/3
f 324/2/3 317/2/3 323/2/3
f 327/1/3 326/1/3 325/1/3
f 328/1/3 326/1/3 327/1/3
f 331/1/3 330/1/3 329/1/3
f 332/1/3 330/1/3 331/1/3
f 335/1/3 334/1/3 333/1/3
f 336/1/3 334/1/3 335/1/3
f 337/1/4 338/1/4 339/1/4
f 339/1/4 338/1/4 340/1/4
f 341/1/4 342/1/4 343/1/4
f 343/1/4 342/1/4 344/1/4
f 345/1/4 346/1/4 347/1/4
f 347/1/4 346/1/4 348/1/4
f 349/1/4 350/1/4 356/1/4
f 350/2/4 351/2/4 357/2/4
f 356/1/4 350/1/4 357/1/4
f 351/1/4 352/1/4 358/1/4
f 357/2/4 351/2/4 358/2/4
f 352/2/4 353/2/4 359/2/4
f 358/1/4 352/1/4 359/1/4
f 353/1/4 354/1/4 360/1/4
f 359/2/4 353/2/4 360/2/4
f 354/2/4 355/2/4 361/2/4
f 360/1/4 354/1/4 361/1/4
f 361/2/4 355/2/4 362/2/4
f 363/1/4 364/1/4 370/1/4
f 364/2/4 365/2/4 371/2/4
f 370/1/4 364/1/4 371/1/4
f 365/1/4 366/1/4 372/1/4
f 371/2/4 365/2/4 372/2/4
f 366/2/4 367/2/4 373/2/4
f 372/1/4 366/1/4 373/1/4
f 367/1/4 368/1/4 374/1/4
f 373/2/4 367/2/4 374/2/4
f 368/2/4 369/2/4 375/2/4
f 374/1/4 368/1/4 375/1/4
f 375/2/4 369/2/4 376/2/4
f 377/2/4 378/2/4 381/2/4
f 381/2/4 378/2/4 382/2/4
f 379/2/4 380/2/4 383/2/4
f 383/2/4 380/2/4 384/2/4
f 385/1/4 386/1/4 392/1/4
f 386/2/4 387/2/4 393/2/4
f 392/1/4 386/1/4 393/1/4
f 387/1/4 388/1/4 394/1/4
f 393/2/4 387/2/4 394/2/4
f 388/2/4 389/2/4 395/2/4
f 394/1/4 388/1/4 395/1/4
f 389/1/4 390/1/4 396/1/4
f 395/2/4 389/2/4 396/2/4
f 390/2/4 391/2/4 397/2/4
f 396/1/4 390/1/4 397/1/4
f 395/2/4 396/2/4 398/2/4
f 392/2/4 393/2/4 398/2/4
f 396/2/4 397/2/4 398/2/4
f 394/2/4 395/2/4 398/2/4
f 393/2/4 394/2/4 398/2/4
f 398/2/4 397/2/4 399/2/4
f 399/2/4 397/2/4 400/2/4
f 400/2/4 397/2/4 401/2/4
f 401/2/4 397/2/4 402/2/4
f 397/2/4 391/2/4 403/2/4
f 402/2/4 397/2/4 403/2/4
f 403/2/4 391/2/4 404/2/4
f 398/1/4 399/1/4 405/1/4
f 399/2/4 400/2/4 406/2/4
f 405/1/4 399/1/4 406/1/4
f 400/1/4 401/1/4 407/1/4
f 406/2/4 400/2/4 407/2/4
f 401/2/4 402/2/4 408/2/4
f 407/1/4 401/1/4 408/1/4
f 402/1/4 403/1/4 409/1/4
f 408/2/4 402/2/4 409/2/4
f 403/2/4 404/2/4 410/2/4
f 409/1/4 403/1/4 410/1/4
f 410/2/4 404/2/4 411/2/4
f 406/2/4 407/2/4 412/2/4
f 405/2/4 406/2/4 412/2/4
f 410/2/4 411/2/4 412/2/4
f 409/2/4 410/2/4 412/2/4
f 408/2/4 409/2/4 412/2/4
f 407/2/4 408/2/4 412/2/4
f 412/2/4 411/2/4 413/2/4
f 413/2/4 411/2/4 414/2/4
f 414/2/4 411/2/4 415/2/4
f 415/2/4 411/2/4 416/2/4
f 416/2/4 411/2/4 417/2/4
f 412/1/4 413/1/4 418/1/4
f 413/2/4 414/2/4 419/2/4
f 418/1/4 413/1/4 419/1/4
f 414/1/4 415/1/4 420/1/4
f 419/2/4 414/2/4 420/2/4
f 415/2/4 416/2/4 421/2/4
f 420/1/4 415/1/4 421/1/4
f 416/1/4 417/1/4 422/1/4
f 421/2/4 416/2/4 422/2/4
f 417/2/4 411/2/4 423/2/4
f 422/1/4 417/1/4 423/1/4
f 423/2/4 411/2/4 424/2/4
f 425/2/4 426/2/4 429/2/4
f 429/2/4 426/2/4 430/2/4
f 427/2/4 428/2/4 431/2/4
f 431/2/4 428/2/4 432/2/4
f 433/2/4 434/2/4 436/2/4
f 436/2/4 434/2/4 437/2/4
f 435/2/4 436/2/4 439/2/4
f 437/2/4 438/2/4 439/2/4
f 436/2/4 437/2/4 439/2/4
f 439/2/4 438/2/4 440/2/4
f 439/1/4 440/1/4 441/1/4
f 441/1/4 440/1/4 442/1/4
f 441/2/4 442/2/4 443/2/4
f 443/2/4 442/2/4 444/2/4
f 444/2/4 442/2/4 445/2/4
f 445/2/4 442/2/4 446/2/4
f 444/2/4 445/2/4 447/2/4
f 447/2/4 445/2/4 448/2/4
f 456/1/5 450/1/5 449/1/5
f 457/2/5 451/2/5 450/2/5
f 457/1/5 450/1/5 456/1/5
f 458/1/5 452/1/5 451/1/5
f 458/2/5 451/2/5 457/2/5
f 459/2/5 453/2/5 452/2/5
f 459/1/5 452/1/5 458/1/5
f 460/1/5 454/1/5 453/1/5
f 460/2/5 453/2/5 459/2/5
f 461/1/5 454/1/5 460/1/5
f 463/1/5 456/1/5 455/1/5
f 464/2/5 459/2/5 458/2/5
f 464/1/5 456/1/5 463/1/5
f 464/2/5 457/2/5 456/2/5
f 464/2/5 461/2/5 460/2/5
f 464/2/5 460/2/5 459/2/5
f 464/2/5 458/2/5 457/2/5
f 465/1/5 462/1/5 461/1/5
f 465/2/5 461/2/5 464/2/5
f 466/1/5 462/1/5 465/1/5
f 467/2/5 464/2/5 463/2/5
f 467/2/5 465/2/5 464/2/5
f 467/2/5 466/2/5 465/2/5
f 468/2/5 466/2/5 467/2/5
f 469/2/5 466/2/5 468/2/5
f 470/2/5 466/2/5 469/2/5
f 471/1/5 468/1/5 467/1/5
f 472/2/5 469/2/5 468/2/5
f 472/1/5 468/1/5 471/1/5
f 473/1/5 470/1/5 469/1/5
f 473/2/5 469/2/5 472/2/5
f 474/1/5 470/1/5 473/1/5
f 475/2/5 472/2/5 471/2/5
f 475/2/5 473/2/5 472/2/5
f 475/2/5 474/2/5 473/2/5
f 476/2/5 474/2/5 475/2/5
f 477/2/5 474/2/5 476/2/5
f 478/2/5 474/2/5 477/2/5
f 479/1/5 476/1/5 475/1/5
f 480/2/5 477/2/5 476/2/5
f 480/1/5 476/1/5 479/1/5
f 481/2/5 477/2/5 480/2/5
f 482/2/5 477/2/5 481/2/5
f 483/2/5 477/2/5 482/2/5
f 484/2/5 477/2/5 483/2/5
f 485/1/5 478/1/5 477/1/5
f 485/2/5 477/2/5 484/2/5
f 486/1/5 478/1/5 485/1/5
f 487/1/5 481/1/5 480/1/5
f 488/2/5 482/2/5 481/2/5
f 488/1/5 481/1/5 487/1/5
f 489/1/5 483/1/5 482/1/5
f 489/2/5 482/2/5 488/2/5
f 490/2/5 484/2/5 483/2/5
f 490/1/5 483/1/5 489/1/5
f 491/1/5 485/1/5 484/1/5
f 491/2/5 484/2/5 490/2/5
f 492/1/5 485/1/5 491/1/5
f 498/2/5 494/2/5 493/2/5
f 499/2/5 494/2/5 498/2/5
f 500/1/5 495/1/5 494/1/5
f 500/2/5 494/2/5 499/2/5
f 501/2/5 496/2/5 495/2/5
f 501/1/5 495/1/5 500/1/5
f 502/2/5 496/2/5 501/2/5
f 503/2/5 496/2/5 502/2/5
f 505/2/5 499/2/5 498/2/5
f 505/2/5 498/2/5 497/2/5
f 506/2/5 499/2/5 505/2/5
f 507/2/5 504/2/5 503/2/5
f 507/2/5 503/2/5 502/2/5
f 508/2/5 504/2/5 507/2/5
f 509/2/5 505/2/5 497/2/5
f 510/2/5 505/2/5 509/2/5
f 511/2/5 504/2/5 508/2/5
f 512/2/5 504/2/5 511/2/5
f 513/1/5 510/1/5 509/1/5
f 514/1/5 510/1/5 513/1/5
f 515/1/5 512/1/5 511/1/5
f 516/1/5 512/1/5 515/1/5
f 517/2/5 514/2/5 513/2/5
f 520/2/5 516/2/5 515/2/5
f 521/2/5 518/2/5 517/2/5
f 521/2/5 517/2/5 513/2/5
f 522/2/5 518/2/5 521/2/5
f 523/2/5 518/2/5 522/2/5
f 526/2/5 520/2/5 519/2/5
f 527/2/5 516/2/5 520/2/5
f 527/2/5 520/2/5 526/2/5
f 528/2/5 516/2/5 527/2/5
f 529/2/5 523/2/5 522/2/5
f 529/2/5 524/2/5 523/2/5
f 530/1/5 525/1/5 524/1/5
f 530/2/5 524/2/5 529/2/5
f 531/2/5 526/2/5 525/2/5
f 531/1/5 525/1/5 530/1/5
f 531/2/5 527/2/5 526/2/5
f 532/2/5 527/2/5 531/2/5
f 537/2/5 534/2/5 533/2/5
f 538/2/5 534/2/5 537/2/5
f 539/2/5 536/2/5 535/2/5
f 540/2/5 536/2/5 539/2/5
f 545/2/5 542/2/5 541/2/5
f 546/2/5 542/2/5 545/2/5
f 547/2/5 544/2/5 543/2/5
f 548/2/5 544/2/5 547/2/5
f 549/2/6 550/2/6 553/2/6
f 553/2/6 550/2/6 554/2/6
f 551/2/6 552/2/6 555/2/6
f 555/2/6 552/2/6 556/2/6
f 557/2/6 558/2/6 561/2/6
f 561/2/6 558/2/6 562/2/6
f 559/2/6 560/2/6 563/2/6
f 563/2/6 560/2/6 564/2/6
f 565/2/6 566/2/6 570/2/6
f 567/2/6 568/2/6 571/2/6
f 569/2/6 570/2/6 573/2/6
f 566/1/6 567/1/6 573/1/6
f 570/2/6 566/2/6 573/2/6
f 571/2/6 572/2/6 574/2/6
f 573/1/6 567/1/6 574/1/6
f 567/2/6 571/2/6 574/2/6
f 569/2/6 573/2/6 575/2/6
f 575/2/6 573/2/6 576/2/6
f 576/2/6 573/2/6 577/2/6
f 574/2/6 572/2/6 578/2/6
f 578/2/6 572/2/6 579/2/6
f 579/2/6 572/2/6 580/2/6
f 575/1/6 576/1/6 581/1/6
f 581/1/6 576/1/6 582/1/6
f 579/1/6 580/1/6 585/1/6
f 585/1/6 580/1/6 586/1/6
f 582/2/6 583/2/6 587/2/6
f 581/2/6 582/2/6 587/2/6
f 585/2/6 586/2/6 588/2/6
f 584/2/6 585/2/6 588/2/6
f 581/2/6 587/2/6 589/2/6
f 589/2/6 587/2/6 590/2/6
f 588/2/6 586/2/6 591/2/6
f 591/2/6 586/2/6 592/2/6
f 590/2/6 587/2/6 593/2/6
f 587/1/6 588/1/6 594/1/6
f 593/2/6 587/2/6 594/2/6
f 588/2/6 591/2/6 595/2/6
f 594/1/6 588/1/6 595/1/6
f 595/2/6 591/2/6 596/2/6
f 597/1/6 598/1/6 600/1/6
f 600/1/6 598/1/6 601/1/6
f 599/1/6 600/1/6 603/1/6
f 601/1/6 602/1/6 603/1/6
f 600/1/6 601/1/6 603/1/6
f 603/1/6 602/1/6 604/1/6
f 604/1/6 602/1/6 605/1/6
f 605/1/6 602/1/6 606/1/6
f 604/1/6 605/1/6 607/1/6
f 607/1/6 605/1/6 608/1/6
