# MagicaVoxel @ Ephtracy

# group
o 

# material
mtllib Radio.mtl
usemtl palette

# normals
vn -1 0 0
vn 1 0 0
vn 0 0 1
vn 0 0 -1
vn 0 -1 0
vn 0 1 0

# texcoords
vt 0.974609 0.5
vt 0.978516 0.5
vt 0.982422 0.5
vt 0.986328 0.5
vt 0.990234 0.5
vt 0.994141 0.5

# verts
v -0.7 1.3 0.1
v -0.7 1.3 0
v -0.7 1.4 0.1
v -0.7 1.4 0
v -0.7 2.1 0.1
v -0.7 2.1 0
v -0.7 2.2 0.1
v -0.7 2.2 0
v -0.6 1.2 0.1
v -0.6 1.2 0
v -0.6 1.3 0.1
v -0.6 1.3 0
v -0.6 2.2 0.1
v -0.6 2.2 0
v -0.6 2.3 0.1
v -0.6 2.3 0
v 0.4 2.3 0.1
v 0.4 2.3 0
v 0.4 2.4 0.1
v 0.4 2.4 0
v 0.5 2.4 0.1
v 0.5 2.4 0
v 0.5 2.6 0.1
v 0.5 2.6 0
v 0.6 2.6 0.1
v 0.6 2.6 0
v 0.6 2.7 0.1
v 0.6 2.7 0
v 0.7 2.7 0.1
v 0.7 2.7 0
v 0.7 2.8 0.1
v 0.7 2.8 0
v 0.8 2.8 0.1
v 0.8 2.8 0
v 0.8 2.9 0.1
v 0.8 2.9 0
v 0.9 2.9 0.1
v 0.9 2.9 0
v 0.9 3 0.1
v 0.9 3 0
v 1 3 0.1
v 1 3 0
v 1 3.1 0.1
v 1 3.1 0
v 1 3.2 0.1
v 1 3.2 0
v 0.6 2.4 0.1
v 0.6 2.4 0
v 0.6 2.5 0.1
v 0.6 2.5 0
v 0.7 2.3 0.1
v 0.7 2.3 0
v 0.7 2.4 0.1
v 0.7 2.4 0
v 0.7 2.5 0.1
v 0.7 2.5 0
v 0.7 2.6 0.1
v 0.7 2.6 0
v 0.8 2.6 0.1
v 0.8 2.6 0
v 0.8 2.7 0.1
v 0.8 2.7 0
v 0.9 1.2 0.1
v 0.9 1.2 0
v 0.9 1.3 0.1
v 0.9 1.3 0
v 0.9 2.2 0.1
v 0.9 2.2 0
v 0.9 2.3 0.1
v 0.9 2.3 0
v 0.9 2.7 0.1
v 0.9 2.7 0
v 0.9 2.8 0.1
v 0.9 2.8 0
v 1 1.3 0.1
v 1 1.3 0
v 1 1.4 0.1
v 1 1.4 0
v 1 2.1 0.1
v 1 2.1 0
v 1 2.2 0.1
v 1 2.2 0
v 1 2.8 0.1
v 1 2.8 0
v 1 2.9 0.1
v 1 2.9 0
v 1.1 2.9 0.1
v 1.1 2.9 0
v 1.1 3 0.1
v 1.1 3 0
v 1.2 3 0.1
v 1.2 3 0
v 1.2 3.2 0.1
v 1.2 3.2 0
v -0.7 1.3 0.1
v -0.7 1.4 0.1
v -0.7 2.1 0.1
v -0.7 2.2 0.1
v -0.6 1.2 0.1
v -0.6 1.3 0.1
v -0.6 1.4 0.1
v -0.6 1.5 0.1
v -0.6 1.6 0.1
v -0.6 1.7 0.1
v -0.6 1.8 0.1
v -0.6 1.9 0.1
v -0.6 2 0.1
v -0.6 2.1 0.1
v -0.6 2.2 0.1
v -0.6 2.3 0.1
v -0.5 1.2 0.1
v -0.5 1.3 0.1
v -0.5 1.4 0.1
v -0.5 2.1 0.1
v -0.5 2.2 0.1
v -0.5 2.3 0.1
v 0.4 1.6 0.1
v 0.4 1.7 0.1
v 0.4 1.8 0.1
v 0.4 1.9 0.1
v 0.4 2 0.1
v 0.4 2.1 0.1
v 0.4 2.3 0.1
v 0.4 2.4 0.1
v 0.5 1.7 0.1
v 0.5 1.8 0.1
v 0.5 2 0.1
v 0.5 2.4 0.1
v 0.5 2.6 0.1
v 0.6 1.7 0.1
v 0.6 1.8 0.1
v 0.6 2 0.1
v 0.6 2.4 0.1
v 0.6 2.5 0.1
v 0.6 2.6 0.1
v 0.6 2.7 0.1
v 0.7 1.7 0.1
v 0.7 1.8 0.1
v 0.7 2 0.1
v 0.7 2.3 0.1
v 0.7 2.4 0.1
v 0.7 2.5 0.1
v 0.7 2.6 0.1
v 0.7 2.7 0.1
v 0.7 2.8 0.1
v 0.8 1.2 0.1
v 0.8 1.3 0.1
v 0.8 1.4 0.1
v 0.8 1.6 0.1
v 0.8 1.7 0.1
v 0.8 1.8 0.1
v 0.8 1.9 0.1
v 0.8 2 0.1
v 0.8 2.1 0.1
v 0.8 2.2 0.1
v 0.8 2.3 0.1
v 0.8 2.6 0.1
v 0.8 2.7 0.1
v 0.8 2.8 0.1
v 0.8 2.9 0.1
v 0.9 1.2 0.1
v 0.9 1.3 0.1
v 0.9 1.4 0.1
v 0.9 1.5 0.1
v 0.9 1.6 0.1
v 0.9 1.7 0.1
v 0.9 1.8 0.1
v 0.9 1.9 0.1
v 0.9 2 0.1
v 0.9 2.1 0.1
v 0.9 2.2 0.1
v 0.9 2.3 0.1
v 0.9 2.7 0.1
v 0.9 2.8 0.1
v 0.9 2.9 0.1
v 0.9 3 0.1
v 1 1.3 0.1
v 1 1.4 0.1
v 1 2.1 0.1
v 1 2.2 0.1
v 1 2.8 0.1
v 1 2.9 0.1
v 1 3 0.1
v 1 3.1 0.1
v 1 3.2 0.1
v 1.1 2.9 0.1
v 1.1 3 0.1
v 1.1 3.1 0.1
v 1.2 3 0.1
v 1.2 3.2 0.1
v -0.7 1.3 0
v -0.7 1.4 0
v -0.7 2.1 0
v -0.7 2.2 0
v -0.6 1.2 0
v -0.6 1.3 0
v -0.6 1.4 0
v -0.6 1.5 0
v -0.6 1.6 0
v -0.6 1.7 0
v -0.6 1.8 0
v -0.6 1.9 0
v -0.6 2 0
v -0.6 2.1 0
v -0.6 2.2 0
v -0.6 2.3 0
v -0.5 1.2 0
v -0.5 1.3 0
v -0.5 1.4 0
v -0.5 2.1 0
v -0.5 2.2 0
v -0.5 2.3 0
v 0.4 1.6 0
v 0.4 1.7 0
v 0.4 1.8 0
v 0.4 1.9 0
v 0.4 2 0
v 0.4 2.1 0
v 0.4 2.3 0
v 0.4 2.4 0
v 0.5 1.7 0
v 0.5 1.8 0
v 0.5 2 0
v 0.5 2.4 0
v 0.5 2.6 0
v 0.6 1.7 0
v 0.6 1.8 0
v 0.6 2 0
v 0.6 2.4 0
v 0.6 2.5 0
v 0.6 2.6 0
v 0.6 2.7 0
v 0.7 1.7 0
v 0.7 1.8 0
v 0.7 2 0
v 0.7 2.3 0
v 0.7 2.4 0
v 0.7 2.5 0
v 0.7 2.6 0
v 0.7 2.7 0
v 0.7 2.8 0
v 0.8 1.2 0
v 0.8 1.3 0
v 0.8 1.4 0
v 0.8 1.6 0
v 0.8 1.7 0
v 0.8 1.8 0
v 0.8 1.9 0
v 0.8 2 0
v 0.8 2.1 0
v 0.8 2.2 0
v 0.8 2.3 0
v 0.8 2.6 0
v 0.8 2.7 0
v 0.8 2.8 0
v 0.8 2.9 0
v 0.9 1.2 0
v 0.9 1.3 0
v 0.9 1.4 0
v 0.9 1.5 0
v 0.9 1.6 0
v 0.9 1.7 0
v 0.9 1.8 0
v 0.9 1.9 0
v 0.9 2 0
v 0.9 2.1 0
v 0.9 2.2 0
v 0.9 2.3 0
v 0.9 2.7 0
v 0.9 2.8 0
v 0.9 2.9 0
v 0.9 3 0
v 1 1.3 0
v 1 1.4 0
v 1 2.1 0
v 1 2.2 0
v 1 2.8 0
v 1 2.9 0
v 1 3 0
v 1 3.1 0
v 1 3.2 0
v 1.1 2.9 0
v 1.1 3 0
v 1.1 3.1 0
v 1.2 3 0
v 1.2 3.2 0
v -0.6 1.2 0.1
v -0.5 1.2 0.1
v 0.8 1.2 0.1
v 0.9 1.2 0.1
v -0.6 1.2 0
v -0.5 1.2 0
v 0.8 1.2 0
v 0.9 1.2 0
v -0.7 1.3 0.1
v -0.6 1.3 0.1
v 0.9 1.3 0.1
v 1 1.3 0.1
v -0.7 1.3 0
v -0.6 1.3 0
v 0.9 1.3 0
v 1 1.3 0
v 0.6 2.5 0.1
v 0.7 2.5 0.1
v 0.6 2.5 0
v 0.7 2.5 0
v 0.7 2.6 0.1
v 0.8 2.6 0.1
v 0.7 2.6 0
v 0.8 2.6 0
v 0.8 2.7 0.1
v 0.9 2.7 0.1
v 0.8 2.7 0
v 0.9 2.7 0
v 0.9 2.8 0.1
v 1 2.8 0.1
v 0.9 2.8 0
v 1 2.8 0
v 1 2.9 0.1
v 1.1 2.9 0.1
v 1 2.9 0
v 1.1 2.9 0
v 1.1 3 0.1
v 1.2 3 0.1
v 1.1 3 0
v 1.2 3 0
v -0.7 2.2 0.1
v -0.6 2.2 0.1
v 0.9 2.2 0.1
v 1 2.2 0.1
v -0.7 2.2 0
v -0.6 2.2 0
v 0.9 2.2 0
v 1 2.2 0
v -0.6 2.3 0.1
v -0.5 2.3 0.1
v 0.4 2.3 0.1
v 0.7 2.3 0.1
v 0.8 2.3 0.1
v 0.9 2.3 0.1
v -0.6 2.3 0
v -0.5 2.3 0
v 0.4 2.3 0
v 0.7 2.3 0
v 0.8 2.3 0
v 0.9 2.3 0
v 0.4 2.4 0.1
v 0.5 2.4 0.1
v 0.6 2.4 0.1
v 0.7 2.4 0.1
v 0.4 2.4 0
v 0.5 2.4 0
v 0.6 2.4 0
v 0.7 2.4 0
v 0.5 2.6 0.1
v 0.6 2.6 0.1
v 0.5 2.6 0
v 0.6 2.6 0
v 0.6 2.7 0.1
v 0.7 2.7 0.1
v 0.6 2.7 0
v 0.7 2.7 0
v 0.7 2.8 0.1
v 0.8 2.8 0.1
v 0.7 2.8 0
v 0.8 2.8 0
v 0.8 2.9 0.1
v 0.9 2.9 0.1
v 0.8 2.9 0
v 0.9 2.9 0
v 0.9 3 0.1
v 1 3 0.1
v 0.9 3 0
v 1 3 0
v 1 3.2 0.1
v 1.2 3.2 0.1
v 1 3.2 0
v 1.2 3.2 0

# faces
f 3/1/1 2/1/1 1/1/1
f 4/1/1 2/1/1 3/1/1
f 5/5/1 4/5/1 3/5/1
f 6/5/1 4/5/1 5/5/1
f 7/1/1 6/1/1 5/1/1
f 8/1/1 6/1/1 7/1/1
f 11/1/1 10/1/1 9/1/1
f 12/1/1 10/1/1 11/1/1
f 15/1/1 14/1/1 13/1/1
f 16/1/1 14/1/1 15/1/1
f 19/4/1 18/4/1 17/4/1
f 20/4/1 18/4/1 19/4/1
f 23/6/1 22/6/1 21/6/1
f 24/6/1 22/6/1 23/6/1
f 27/4/1 26/4/1 25/4/1
f 28/4/1 26/4/1 27/4/1
f 31/4/1 30/4/1 29/4/1
f 32/4/1 30/4/1 31/4/1
f 35/4/1 34/4/1 33/4/1
f 36/4/1 34/4/1 35/4/1
f 39/4/1 38/4/1 37/4/1
f 40/4/1 38/4/1 39/4/1
f 43/4/1 42/4/1 41/4/1
f 44/4/1 42/4/1 43/4/1
f 45/6/1 44/6/1 43/6/1
f 46/6/1 44/6/1 45/6/1
f 47/6/2 48/6/2 49/6/2
f 49/6/2 48/6/2 50/6/2
f 51/4/2 52/4/2 53/4/2
f 53/4/2 52/4/2 54/4/2
f 55/4/2 56/4/2 57/4/2
f 57/4/2 56/4/2 58/4/2
f 59/4/2 60/4/2 61/4/2
f 61/4/2 60/4/2 62/4/2
f 63/1/2 64/1/2 65/1/2
f 65/1/2 64/1/2 66/1/2
f 67/1/2 68/1/2 69/1/2
f 69/1/2 68/1/2 70/1/2
f 71/4/2 72/4/2 73/4/2
f 73/4/2 72/4/2 74/4/2
f 75/1/2 76/1/2 77/1/2
f 77/1/2 76/1/2 78/1/2
f 77/5/2 78/5/2 79/5/2
f 79/5/2 78/5/2 80/5/2
f 79/1/2 80/1/2 81/1/2
f 81/1/2 80/1/2 82/1/2
f 83/4/2 84/4/2 85/4/2
f 85/4/2 84/4/2 86/4/2
f 87/4/2 88/4/2 89/4/2
f 89/4/2 88/4/2 90/4/2
f 91/6/2 92/6/2 93/6/2
f 93/6/2 92/6/2 94/6/2
f 100/1/3 96/1/3 95/1/3
f 101/5/3 97/5/3 96/5/3
f 101/1/3 96/1/3 100/1/3
f 102/5/3 97/5/3 101/5/3
f 103/5/3 97/5/3 102/5/3
f 104/5/3 97/5/3 103/5/3
f 105/5/3 97/5/3 104/5/3
f 106/5/3 97/5/3 105/5/3
f 107/5/3 97/5/3 106/5/3
f 108/1/3 98/1/3 97/1/3
f 108/5/3 97/5/3 107/5/3
f 109/1/3 98/1/3 108/1/3
f 111/1/3 100/1/3 99/1/3
f 112/5/3 101/5/3 100/5/3
f 112/1/3 100/1/3 111/1/3
f 112/5/3 102/5/3 101/5/3
f 113/5/3 102/5/3 112/5/3
f 114/5/3 109/5/3 108/5/3
f 114/5/3 108/5/3 107/5/3
f 115/1/3 110/1/3 109/1/3
f 115/5/3 109/5/3 114/5/3
f 116/1/3 110/1/3 115/1/3
f 117/6/3 103/6/3 102/6/3
f 117/5/3 104/5/3 103/5/3
f 118/6/3 105/6/3 104/6/3
f 118/5/3 104/5/3 117/5/3
f 119/5/3 106/5/3 105/5/3
f 119/6/3 105/6/3 118/6/3
f 120/6/3 107/6/3 106/6/3
f 120/5/3 106/5/3 119/5/3
f 121/5/3 114/5/3 107/5/3
f 121/6/3 107/6/3 120/6/3
f 122/6/3 115/6/3 114/6/3
f 122/5/3 114/5/3 121/5/3
f 123/5/3 116/5/3 115/5/3
f 125/4/3 119/4/3 118/4/3
f 125/4/3 120/4/3 119/4/3
f 125/4/3 122/4/3 121/4/3
f 125/4/3 121/4/3 120/4/3
f 125/4/3 118/4/3 117/4/3
f 126/4/3 122/4/3 125/4/3
f 127/4/3 122/4/3 126/4/3
f 128/4/3 124/4/3 123/4/3
f 130/4/3 125/4/3 117/4/3
f 130/2/3 126/2/3 125/2/3
f 131/3/3 127/3/3 126/3/3
f 131/2/3 126/2/3 130/2/3
f 132/4/3 122/4/3 127/4/3
f 132/3/3 127/3/3 131/3/3
f 133/6/3 129/6/3 128/6/3
f 133/4/3 128/4/3 123/4/3
f 134/6/3 129/6/3 133/6/3
f 135/6/3 129/6/3 134/6/3
f 137/3/3 131/3/3 130/3/3
f 137/4/3 130/4/3 117/4/3
f 138/2/3 132/2/3 131/2/3
f 138/3/3 131/3/3 137/3/3
f 139/4/3 122/4/3 132/4/3
f 139/2/3 132/2/3 138/2/3
f 140/5/3 123/5/3 115/5/3
f 140/4/3 133/4/3 123/4/3
f 141/4/3 133/4/3 140/4/3
f 142/4/3 136/4/3 135/4/3
f 142/4/3 135/4/3 134/4/3
f 143/4/3 136/4/3 142/4/3
f 144/4/3 136/4/3 143/4/3
f 146/5/3 112/5/3 111/5/3
f 147/6/3 113/6/3 112/6/3
f 147/5/3 112/5/3 146/5/3
f 148/5/3 102/5/3 113/5/3
f 148/6/3 113/6/3 147/6/3
f 149/6/3 117/6/3 102/6/3
f 149/4/3 138/4/3 137/4/3
f 149/4/3 137/4/3 117/4/3
f 149/4/3 139/4/3 138/4/3
f 150/4/3 139/4/3 149/4/3
f 151/4/3 139/4/3 150/4/3
f 152/4/3 139/4/3 151/4/3
f 153/4/3 122/4/3 139/4/3
f 153/4/3 139/4/3 152/4/3
f 154/6/3 115/6/3 122/6/3
f 154/4/3 122/4/3 153/4/3
f 155/5/3 140/5/3 115/5/3
f 155/6/3 115/6/3 154/6/3
f 156/5/3 140/5/3 155/5/3
f 157/4/3 145/4/3 144/4/3
f 157/4/3 144/4/3 143/4/3
f 158/4/3 145/4/3 157/4/3
f 159/4/3 145/4/3 158/4/3
f 161/1/3 147/1/3 146/1/3
f 162/5/3 148/5/3 147/5/3
f 162/1/3 147/1/3 161/1/3
f 163/5/3 102/5/3 148/5/3
f 163/5/3 148/5/3 162/5/3
f 164/6/3 149/6/3 102/6/3
f 164/5/3 102/5/3 163/5/3
f 165/5/3 150/5/3 149/5/3
f 165/6/3 149/6/3 164/6/3
f 166/6/3 151/6/3 150/6/3
f 166/5/3 150/5/3 165/5/3
f 167/5/3 152/5/3 151/5/3
f 167/6/3 151/6/3 166/6/3
f 168/6/3 153/6/3 152/6/3
f 168/5/3 152/5/3 167/5/3
f 169/5/3 155/5/3 154/5/3
f 169/6/3 153/6/3 168/6/3
f 169/5/3 154/5/3 153/5/3
f 170/5/3 155/5/3 169/5/3
f 171/1/3 156/1/3 155/1/3
f 171/5/3 155/5/3 170/5/3
f 172/1/3 156/1/3 171/1/3
f 173/4/3 160/4/3 159/4/3
f 173/4/3 159/4/3 158/4/3
f 174/4/3 160/4/3 173/4/3
f 175/4/3 160/4/3 174/4/3
f 177/1/3 163/1/3 162/1/3
f 178/5/3 170/5/3 169/5/3
f 178/1/3 163/1/3 177/1/3
f 178/5/3 168/5/3 167/5/3
f 178/5/3 169/5/3 168/5/3
f 178/5/3 166/5/3 165/5/3
f 178/5/3 165/5/3 164/5/3
f 178/5/3 164/5/3 163/5/3
f 178/5/3 167/5/3 166/5/3
f 179/1/3 171/1/3 170/1/3
f 179/5/3 170/5/3 178/5/3
f 180/1/3 171/1/3 179/1/3
f 181/4/3 176/4/3 175/4/3
f 181/4/3 175/4/3 174/4/3
f 182/4/3 176/4/3 181/4/3
f 183/4/3 176/4/3 182/4/3
f 186/4/3 184/4/3 183/4/3
f 186/4/3 183/4/3 182/4/3
f 187/4/3 184/4/3 186/4/3
f 188/6/3 185/6/3 184/6/3
f 188/4/3 184/4/3 187/4/3
f 189/6/3 188/6/3 187/6/3
f 190/6/3 185/6/3 188/6/3
f 190/6/3 188/6/3 189/6/3
f 191/1/4 192/1/4 196/1/4
f 192/5/4 193/5/4 197/5/4
f 196/1/4 192/1/4 197/1/4
f 197/5/4 193/5/4 198/5/4
f 198/5/4 193/5/4 199/5/4
f 199/5/4 193/5/4 200/5/4
f 200/5/4 193/5/4 201/5/4
f 201/5/4 193/5/4 202/5/4
f 202/5/4 193/5/4 203/5/4
f 193/1/4 194/1/4 204/1/4
f 203/5/4 193/5/4 204/5/4
f 204/1/4 194/1/4 205/1/4
f 195/1/4 196/1/4 207/1/4
f 196/5/4 197/5/4 208/5/4
f 207/1/4 196/1/4 208/1/4
f 197/5/4 198/5/4 208/5/4
f 208/5/4 198/5/4 209/5/4
f 204/5/4 205/5/4 210/5/4
f 203/5/4 204/5/4 210/5/4
f 205/1/4 206/1/4 211/1/4
f 210/5/4 205/5/4 211/5/4
f 211/1/4 206/1/4 212/1/4
f 198/6/4 199/6/4 213/6/4
f 199/5/4 200/5/4 213/5/4
f 200/6/4 201/6/4 214/6/4
f 213/5/4 200/5/4 214/5/4
f 201/5/4 202/5/4 215/5/4
f 214/6/4 201/6/4 215/6/4
f 202/6/4 203/6/4 216/6/4
f 215/5/4 202/5/4 216/5/4
f 203/5/4 210/5/4 217/5/4
f 216/6/4 203/6/4 217/6/4
f 210/6/4 211/6/4 218/6/4
f 217/5/4 210/5/4 218/5/4
f 211/5/4 212/5/4 219/5/4
f 214/4/4 215/4/4 221/4/4
f 215/4/4 216/4/4 221/4/4
f 217/4/4 218/4/4 221/4/4
f 216/4/4 217/4/4 221/4/4
f 213/4/4 214/4/4 221/4/4
f 221/4/4 218/4/4 222/4/4
f 222/4/4 218/4/4 223/4/4
f 219/4/4 220/4/4 224/4/4
f 213/4/4 221/4/4 226/4/4
f 221/2/4 222/2/4 226/2/4
f 222/3/4 223/3/4 227/3/4
f 226/2/4 222/2/4 227/2/4
f 223/4/4 218/4/4 228/4/4
f 227/3/4 223/3/4 228/3/4
f 224/6/4 225/6/4 229/6/4
f 219/4/4 224/4/4 229/4/4
f 229/6/4 225/6/4 230/6/4
f 230/6/4 225/6/4 231/6/4
f 226/3/4 227/3/4 233/3/4
f 213/4/4 226/4/4 233/4/4
f 227/2/4 228/2/4 234/2/4
f 233/3/4 227/3/4 234/3/4
f 228/4/4 218/4/4 235/4/4
f 234/2/4 228/2/4 235/2/4
f 211/5/4 219/5/4 236/5/4
f 219/4/4 229/4/4 236/4/4
f 236/4/4 229/4/4 237/4/4
f 231/4/4 232/4/4 238/4/4
f 230/4/4 231/4/4 238/4/4
f 238/4/4 232/4/4 239/4/4
f 239/4/4 232/4/4 240/4/4
f 207/5/4 208/5/4 242/5/4
f 208/6/4 209/6/4 243/6/4
f 242/5/4 208/5/4 243/5/4
f 209/5/4 198/5/4 244/5/4
f 243/6/4 209/6/4 244/6/4
f 198/6/4 213/6/4 245/6/4
f 233/4/4 234/4/4 245/4/4
f 213/4/4 233/4/4 245/4/4
f 234/4/4 235/4/4 245/4/4
f 245/4/4 235/4/4 246/4/4
f 246/4/4 235/4/4 247/4/4
f 247/4/4 235/4/4 248/4/4
f 235/4/4 218/4/4 249/4/4
f 248/4/4 235/4/4 249/4/4
f 218/6/4 211/6/4 250/6/4
f 249/4/4 218/4/4 250/4/4
f 211/5/4 236/5/4 251/5/4
f 250/6/4 211/6/4 251/6/4
f 251/5/4 236/5/4 252/5/4
f 240/4/4 241/4/4 253/4/4
f 239/4/4 240/4/4 253/4/4
f 253/4/4 241/4/4 254/4/4
f 254/4/4 241/4/4 255/4/4
f 242/1/4 243/1/4 257/1/4
f 243/5/4 244/5/4 258/5/4
f 257/1/4 243/1/4 258/1/4
f 244/5/4 198/5/4 259/5/4
f 258/5/4 244/5/4 259/5/4
f 198/6/4 245/6/4 260/6/4
f 259/5/4 198/5/4 260/5/4
f 245/5/4 246/5/4 261/5/4
f 260/6/4 245/6/4 261/6/4
f 246/6/4 247/6/4 262/6/4
f 261/5/4 246/5/4 262/5/4
f 247/5/4 248/5/4 263/5/4
f 262/6/4 247/6/4 263/6/4
f 248/6/4 249/6/4 264/6/4
f 263/5/4 248/5/4 264/5/4
f 250/5/4 251/5/4 265/5/4
f 264/6/4 249/6/4 265/6/4
f 249/5/4 250/5/4 265/5/4
f 265/5/4 251/5/4 266/5/4
f 251/1/4 252/1/4 267/1/4
f 266/5/4 251/5/4 267/5/4
f 267/1/4 252/1/4 268/1/4
f 255/4/4 256/4/4 269/4/4
f 254/4/4 255/4/4 269/4/4
f 269/4/4 256/4/4 270/4/4
f 270/4/4 256/4/4 271/4/4
f 258/1/4 259/1/4 273/1/4
f 265/5/4 266/5/4 274/5/4
f 273/1/4 259/1/4 274/1/4
f 263/5/4 264/5/4 274/5/4
f 264/5/4 265/5/4 274/5/4
f 261/5/4 262/5/4 274/5/4
f 260/5/4 261/5/4 274/5/4
f 259/5/4 260/5/4 274/5/4
f 262/5/4 263/5/4 274/5/4
f 266/1/4 267/1/4 275/1/4
f 274/5/4 266/5/4 275/5/4
f 275/1/4 267/1/4 276/1/4
f 271/4/4 272/4/4 277/4/4
f 270/4/4 271/4/4 277/4/4
f 277/4/4 272/4/4 278/4/4
f 278/4/4 272/4/4 279/4/4
f 279/4/4 280/4/4 282/4/4
f 278/4/4 279/4/4 282/4/4
f 282/4/4 280/4/4 283/4/4
f 280/6/4 281/6/4 284/6/4
f 283/4/4 280/4/4 284/4/4
f 283/6/4 284/6/4 285/6/4
f 284/6/4 281/6/4 286/6/4
f 285/6/4 284/6/4 286/6/4
f 291/1/5 288/1/5 287/1/5
f 292/5/5 289/5/5 288/5/5
f 292/1/5 288/1/5 291/1/5
f 293/1/5 290/1/5 289/1/5
f 293/5/5 289/5/5 292/5/5
f 294/1/5 290/1/5 293/1/5
f 299/1/5 296/1/5 295/1/5
f 300/1/5 296/1/5 299/1/5
f 301/1/5 298/1/5 297/1/5
f 302/1/5 298/1/5 301/1/5
f 305/4/5 304/4/5 303/4/5
f 306/4/5 304/4/5 305/4/5
f 309/4/5 308/4/5 307/4/5
f 310/4/5 308/4/5 309/4/5
f 313/4/5 312/4/5 311/4/5
f 314/4/5 312/4/5 313/4/5
f 317/4/5 316/4/5 315/4/5
f 318/4/5 316/4/5 317/4/5
f 321/4/5 320/4/5 319/4/5
f 322/4/5 320/4/5 321/4/5
f 325/6/5 324/6/5 323/6/5
f 326/6/5 324/6/5 325/6/5
f 327/1/6 328/1/6 331/1/6
f 331/1/6 328/1/6 332/1/6
f 329/1/6 330/1/6 333/1/6
f 333/1/6 330/1/6 334/1/6
f 335/1/6 336/1/6 341/1/6
f 336/5/6 337/5/6 342/5/6
f 341/1/6 336/1/6 342/1/6
f 342/5/6 337/5/6 343/5/6
f 338/5/6 339/5/6 344/5/6
f 339/1/6 340/1/6 345/1/6
f 344/5/6 339/5/6 345/5/6
f 345/1/6 340/1/6 346/1/6
f 347/4/6 348/4/6 351/4/6
f 351/4/6 348/4/6 352/4/6
f 349/4/6 350/4/6 353/4/6
f 353/4/6 350/4/6 354/4/6
f 355/6/6 356/6/6 357/6/6
f 357/6/6 356/6/6 358/6/6
f 359/4/6 360/4/6 361/4/6
f 361/4/6 360/4/6 362/4/6
f 363/4/6 364/4/6 365/4/6
f 365/4/6 364/4/6 366/4/6
f 367/4/6 368/4/6 369/4/6
f 369/4/6 368/4/6 370/4/6
f 371/4/6 372/4/6 373/4/6
f 373/4/6 372/4/6 374/4/6
f 375/6/6 376/6/6 377/6/6
f 377/6/6 376/6/6 378/6/6
