# MagicaVoxel @ Ephtracy

# group
o 

# material
mtllib Rope3.mtl
usemtl palette

# normals
vn -1 0 0
vn 1 0 0
vn 0 0 1
vn 0 0 -1
vn 0 -1 0
vn 0 1 0

# texcoords
vt 0.982422 0.5
vt 0.986328 0.5
vt 0.990234 0.5
vt 0.994141 0.5

# verts
v -1 2.3 -1.9
v -1 2.3 -2
v -1 2.5 -1.9
v -1 2.5 -2
v -0.9 2.2 -1.9
v -0.9 2.2 -2
v -0.9 2.3 -1.8
v -0.9 2.3 -1.9
v -0.9 2.3 -2
v -0.9 2.5 -1.8
v -0.9 2.5 -1.9
v -0.9 2.5 -2
v -0.9 2.6 -1.9
v -0.9 2.6 -2
v -0.8 2.4 -1.7
v -0.8 2.4 -1.8
v -0.8 2.5 -1.7
v -0.8 2.5 -1.8
v -0.7 2.3 -1.8
v -0.7 2.3 -1.9
v -0.7 2.4 -1.8
v -0.7 2.4 -1.9
v -0.5 2.3 -1.8
v -0.5 2.3 -1.9
v -0.5 2.5 -1.8
v -0.5 2.5 -1.9
v -0.2 2.4 -1.8
v -0.2 2.4 -1.9
v -0.2 2.5 -1.8
v -0.2 2.5 -1.9
v 0.1 2.3 -1.8
v 0.1 2.3 -1.9
v 0.1 2.4 -1.8
v 0.1 2.4 -1.9
v 0.1 2.5 -1.8
v 0.1 2.5 -1.9
v 0.5 2.3 -1.8
v 0.5 2.3 -1.9
v 0.5 2.4 -1.8
v 0.5 2.4 -1.9
v -0.8 2.3 -1.8
v -0.8 2.3 -1.9
v -0.8 2.4 -1.8
v -0.8 2.4 -1.9
v -0.7 2.4 -1.7
v -0.7 2.4 -1.8
v -0.7 2.5 -1.7
v -0.7 2.5 -1.8
v -0.6 2.3 -1.8
v -0.6 2.3 -1.9
v -0.6 2.5 -1.8
v -0.6 2.5 -1.9
v -0.3 2.4 -1.8
v -0.3 2.4 -1.9
v -0.3 2.5 -1.8
v -0.3 2.5 -1.9
v -0.1 2.3 -1.8
v -0.1 2.3 -1.9
v -0.1 2.5 -1.8
v -0.1 2.5 -1.9
v 0.4 2.3 -1.8
v 0.4 2.3 -1.9
v 0.4 2.4 -1.8
v 0.4 2.4 -1.9
v 0.6 2.3 -1.8
v 0.6 2.3 -1.9
v 0.6 2.4 -1.8
v 0.6 2.4 -1.9
v 0.7 2.2 -1.9
v 0.7 2.2 -2
v 0.7 2.3 -1.9
v 0.7 2.3 -2
v 0.7 2.4 -1.8
v 0.7 2.4 -1.9
v 0.7 2.5 -1.8
v 0.7 2.5 -1.9
v 0.7 2.5 -2
v 0.7 2.6 -1.9
v 0.7 2.6 -2
v 0.8 2.3 -1.9
v 0.8 2.3 -2
v 0.8 2.5 -1.9
v 0.8 2.5 -2
v -0.8 2.4 -1.7
v -0.8 2.5 -1.7
v -0.7 2.4 -1.7
v -0.7 2.5 -1.7
v -0.9 2.3 -1.8
v -0.9 2.5 -1.8
v -0.8 2.3 -1.8
v -0.8 2.4 -1.8
v -0.8 2.5 -1.8
v -0.7 2.3 -1.8
v -0.7 2.4 -1.8
v -0.7 2.5 -1.8
v -0.6 2.3 -1.8
v -0.6 2.5 -1.8
v -0.5 2.3 -1.8
v -0.5 2.5 -1.8
v -0.4 2.3 -1.8
v -0.4 2.4 -1.8
v -0.3 2.4 -1.8
v -0.3 2.5 -1.8
v -0.2 2.4 -1.8
v -0.2 2.5 -1.8
v -0.1 2.3 -1.8
v -0.1 2.5 -1.8
v 0.1 2.3 -1.8
v 0.1 2.4 -1.8
v 0.1 2.5 -1.8
v 0.2 2.3 -1.8
v 0.2 2.4 -1.8
v 0.3 2.4 -1.8
v 0.3 2.5 -1.8
v 0.4 2.3 -1.8
v 0.4 2.4 -1.8
v 0.5 2.3 -1.8
v 0.5 2.4 -1.8
v 0.5 2.5 -1.8
v 0.6 2.3 -1.8
v 0.6 2.4 -1.8
v 0.6 2.5 -1.8
v 0.7 2.4 -1.8
v 0.7 2.5 -1.8
v -1 2.3 -1.9
v -1 2.5 -1.9
v -0.9 2.2 -1.9
v -0.9 2.3 -1.9
v -0.9 2.5 -1.9
v -0.9 2.6 -1.9
v -0.8 2.3 -1.9
v -0.8 2.4 -1.9
v -0.8 2.5 -1.9
v -0.7 2.3 -1.9
v -0.7 2.4 -1.9
v -0.6 2.3 -1.9
v -0.6 2.5 -1.9
v -0.5 2.3 -1.9
v -0.5 2.5 -1.9
v -0.4 2.3 -1.9
v -0.3 2.4 -1.9
v -0.3 2.5 -1.9
v -0.2 2.4 -1.9
v -0.2 2.5 -1.9
v -0.1 2.3 -1.9
v -0.1 2.5 -1.9
v 0.1 2.3 -1.9
v 0.1 2.4 -1.9
v 0.1 2.5 -1.9
v 0.2 2.3 -1.9
v 0.3 2.5 -1.9
v 0.4 2.3 -1.9
v 0.4 2.4 -1.9
v 0.5 2.3 -1.9
v 0.5 2.4 -1.9
v 0.5 2.5 -1.9
v 0.6 2.3 -1.9
v 0.6 2.4 -1.9
v 0.6 2.5 -1.9
v 0.7 2.2 -1.9
v 0.7 2.3 -1.9
v 0.7 2.4 -1.9
v 0.7 2.5 -1.9
v 0.7 2.6 -1.9
v 0.8 2.3 -1.9
v 0.8 2.5 -1.9
v -1 2.3 -2
v -1 2.5 -2
v -0.9 2.2 -2
v -0.9 2.3 -2
v -0.9 2.5 -2
v -0.9 2.6 -2
v 0.7 2.2 -2
v 0.7 2.3 -2
v 0.7 2.5 -2
v 0.7 2.6 -2
v 0.8 2.3 -2
v 0.8 2.5 -2
v -0.9 2.2 -1.9
v 0.7 2.2 -1.9
v -0.9 2.2 -2
v 0.7 2.2 -2
v -0.9 2.3 -1.8
v -0.8 2.3 -1.8
v -0.7 2.3 -1.8
v -0.6 2.3 -1.8
v -0.5 2.3 -1.8
v -0.4 2.3 -1.8
v -0.1 2.3 -1.8
v 0.1 2.3 -1.8
v 0.2 2.3 -1.8
v 0.4 2.3 -1.8
v 0.5 2.3 -1.8
v 0.6 2.3 -1.8
v -1 2.3 -1.9
v -0.9 2.3 -1.9
v -0.8 2.3 -1.9
v -0.7 2.3 -1.9
v -0.6 2.3 -1.9
v -0.5 2.3 -1.9
v -0.4 2.3 -1.9
v -0.1 2.3 -1.9
v 0.1 2.3 -1.9
v 0.2 2.3 -1.9
v 0.4 2.3 -1.9
v 0.5 2.3 -1.9
v 0.6 2.3 -1.9
v 0.7 2.3 -1.9
v 0.8 2.3 -1.9
v -1 2.3 -2
v -0.9 2.3 -2
v 0.7 2.3 -2
v 0.8 2.3 -2
v -0.8 2.4 -1.7
v -0.7 2.4 -1.7
v -0.8 2.4 -1.8
v -0.7 2.4 -1.8
v 0.4 2.4 -1.8
v 0.5 2.4 -1.8
v 0.6 2.4 -1.8
v 0.7 2.4 -1.8
v -0.8 2.4 -1.9
v -0.7 2.4 -1.9
v 0.4 2.4 -1.9
v 0.5 2.4 -1.9
v 0.6 2.4 -1.9
v 0.7 2.4 -1.9
v -0.3 2.4 -1.8
v -0.2 2.4 -1.8
v -0.3 2.4 -1.9
v -0.2 2.4 -1.9
v -0.8 2.5 -1.7
v -0.7 2.5 -1.7
v -0.9 2.5 -1.8
v -0.8 2.5 -1.8
v -0.7 2.5 -1.8
v -0.6 2.5 -1.8
v -0.5 2.5 -1.8
v -0.3 2.5 -1.8
v -0.2 2.5 -1.8
v -0.1 2.5 -1.8
v 0.1 2.5 -1.8
v 0.3 2.5 -1.8
v 0.5 2.5 -1.8
v 0.6 2.5 -1.8
v 0.7 2.5 -1.8
v -1 2.5 -1.9
v -0.9 2.5 -1.9
v -0.8 2.5 -1.9
v -0.6 2.5 -1.9
v -0.5 2.5 -1.9
v -0.3 2.5 -1.9
v -0.2 2.5 -1.9
v -0.1 2.5 -1.9
v 0.1 2.5 -1.9
v 0.3 2.5 -1.9
v 0.5 2.5 -1.9
v 0.6 2.5 -1.9
v 0.7 2.5 -1.9
v 0.8 2.5 -1.9
v -1 2.5 -2
v -0.9 2.5 -2
v 0.7 2.5 -2
v 0.8 2.5 -2
v -0.9 2.6 -1.9
v 0.7 2.6 -1.9
v -0.9 2.6 -2
v 0.7 2.6 -2

# faces
f 3/4/1 2/4/1 1/4/1
f 4/4/1 2/4/1 3/4/1
f 8/4/1 6/4/1 5/4/1
f 9/4/1 6/4/1 8/4/1
f 10/1/1 8/1/1 7/1/1
f 11/1/1 8/1/1 10/1/1
f 13/4/1 12/4/1 11/4/1
f 14/4/1 12/4/1 13/4/1
f 17/3/1 16/3/1 15/3/1
f 18/3/1 16/3/1 17/3/1
f 21/3/1 20/3/1 19/3/1
f 22/3/1 20/3/1 21/3/1
f 25/1/1 24/1/1 23/1/1
f 26/1/1 24/1/1 25/1/1
f 29/3/1 28/3/1 27/3/1
f 30/3/1 28/3/1 29/3/1
f 33/3/1 32/3/1 31/3/1
f 34/3/1 32/3/1 33/3/1
f 35/1/1 34/1/1 33/1/1
f 36/1/1 34/1/1 35/1/1
f 39/3/1 38/3/1 37/3/1
f 40/3/1 38/3/1 39/3/1
f 41/1/2 42/1/2 43/1/2
f 43/1/2 42/1/2 44/1/2
f 45/3/2 46/3/2 47/3/2
f 47/3/2 46/3/2 48/3/2
f 49/3/2 50/3/2 51/3/2
f 51/3/2 50/3/2 52/3/2
f 53/1/2 54/1/2 55/1/2
f 55/1/2 54/1/2 56/1/2
f 57/3/2 58/3/2 59/3/2
f 59/3/2 58/3/2 60/3/2
f 61/1/2 62/1/2 63/1/2
f 63/1/2 62/1/2 64/1/2
f 65/3/2 66/3/2 67/3/2
f 67/3/2 66/3/2 68/3/2
f 69/4/2 70/4/2 71/4/2
f 71/4/2 70/4/2 72/4/2
f 73/3/2 74/3/2 75/3/2
f 75/3/2 74/3/2 76/3/2
f 76/4/2 77/4/2 78/4/2
f 78/4/2 77/4/2 79/4/2
f 80/4/2 81/4/2 82/4/2
f 82/4/2 81/4/2 83/4/2
f 86/3/3 85/3/3 84/3/3
f 87/3/3 85/3/3 86/3/3
f 90/1/3 89/1/3 88/1/3
f 91/1/3 89/1/3 90/1/3
f 92/1/3 89/1/3 91/1/3
f 96/3/3 94/3/3 93/3/3
f 96/3/3 95/3/3 94/3/3
f 97/3/3 95/3/3 96/3/3
f 100/1/3 99/1/3 98/1/3
f 101/1/3 99/1/3 100/1/3
f 102/3/3 101/3/3 100/3/3
f 102/1/3 99/1/3 101/1/3
f 103/1/3 99/1/3 102/1/3
f 104/3/3 102/3/3 100/3/3
f 106/3/3 104/3/3 100/3/3
f 106/3/3 105/3/3 104/3/3
f 107/3/3 105/3/3 106/3/3
f 111/3/3 109/3/3 108/3/3
f 112/1/3 110/1/3 109/1/3
f 112/3/3 109/3/3 111/3/3
f 113/1/3 112/1/3 111/1/3
f 113/1/3 110/1/3 112/1/3
f 114/1/3 110/1/3 113/1/3
f 115/1/3 113/1/3 111/1/3
f 116/3/3 114/3/3 113/3/3
f 116/1/3 113/1/3 115/1/3
f 118/3/3 114/3/3 116/3/3
f 119/3/3 114/3/3 118/3/3
f 120/3/3 118/3/3 117/3/3
f 121/1/3 119/1/3 118/1/3
f 121/3/3 118/3/3 120/3/3
f 122/1/3 119/1/3 121/1/3
f 123/3/3 122/3/3 121/3/3
f 124/3/3 122/3/3 123/3/3
f 128/4/3 126/4/3 125/4/3
f 129/4/3 126/4/3 128/4/3
f 131/4/3 128/4/3 127/4/3
f 133/4/3 130/4/3 129/4/3
f 134/2/3 132/2/3 131/2/3
f 134/4/3 131/4/3 127/4/3
f 135/2/3 132/2/3 134/2/3
f 136/4/3 134/4/3 127/4/3
f 137/4/3 130/4/3 133/4/3
f 138/4/3 136/4/3 127/4/3
f 138/2/3 137/2/3 136/2/3
f 139/4/3 130/4/3 137/4/3
f 139/2/3 137/2/3 138/2/3
f 140/4/3 138/4/3 127/4/3
f 142/4/3 130/4/3 139/4/3
f 143/2/3 142/2/3 141/2/3
f 144/4/3 130/4/3 142/4/3
f 144/2/3 142/2/3 143/2/3
f 145/4/3 140/4/3 127/4/3
f 146/4/3 130/4/3 144/4/3
f 147/4/3 145/4/3 127/4/3
f 147/2/3 146/2/3 145/2/3
f 148/2/3 146/2/3 147/2/3
f 149/4/3 130/4/3 146/4/3
f 149/2/3 146/2/3 148/2/3
f 150/4/3 147/4/3 127/4/3
f 151/4/3 130/4/3 149/4/3
f 152/4/3 150/4/3 127/4/3
f 154/4/3 152/4/3 127/4/3
f 154/2/3 153/2/3 152/2/3
f 155/2/3 153/2/3 154/2/3
f 156/4/3 130/4/3 151/4/3
f 157/4/3 154/4/3 127/4/3
f 159/4/3 130/4/3 156/4/3
f 160/4/3 157/4/3 127/4/3
f 161/2/3 158/2/3 157/2/3
f 161/4/3 157/4/3 160/4/3
f 162/2/3 158/2/3 161/2/3
f 163/4/3 130/4/3 159/4/3
f 164/4/3 130/4/3 163/4/3
f 165/4/3 162/4/3 161/4/3
f 165/4/3 163/4/3 162/4/3
f 166/4/3 163/4/3 165/4/3
f 167/4/4 168/4/4 170/4/4
f 170/4/4 168/4/4 171/4/4
f 169/4/4 170/4/4 173/4/4
f 170/2/4 171/2/4 174/2/4
f 173/4/4 170/4/4 174/4/4
f 171/4/4 172/4/4 175/4/4
f 174/2/4 171/2/4 175/2/4
f 175/4/4 172/4/4 176/4/4
f 174/4/4 175/4/4 177/4/4
f 177/4/4 175/4/4 178/4/4
f 181/4/5 180/4/5 179/4/5
f 182/4/5 180/4/5 181/4/5
f 196/1/5 184/1/5 183/1/5
f 197/1/5 184/1/5 196/1/5
f 198/3/5 186/3/5 185/3/5
f 199/3/5 186/3/5 198/3/5
f 200/1/5 188/1/5 187/1/5
f 201/3/5 189/3/5 188/3/5
f 201/1/5 188/1/5 200/1/5
f 202/3/5 189/3/5 201/3/5
f 203/3/5 191/3/5 190/3/5
f 204/1/5 192/1/5 191/1/5
f 204/3/5 191/3/5 203/3/5
f 205/1/5 192/1/5 204/1/5
f 206/3/5 194/3/5 193/3/5
f 207/3/5 194/3/5 206/3/5
f 210/4/5 196/4/5 195/4/5
f 211/4/5 196/4/5 210/4/5
f 212/4/5 209/4/5 208/4/5
f 213/4/5 209/4/5 212/4/5
f 216/3/5 215/3/5 214/3/5
f 217/3/5 215/3/5 216/3/5
f 222/3/5 217/3/5 216/3/5
f 223/3/5 217/3/5 222/3/5
f 224/3/5 219/3/5 218/3/5
f 225/3/5 219/3/5 224/3/5
f 226/3/5 221/3/5 220/3/5
f 227/3/5 221/3/5 226/3/5
f 228/3/6 229/3/6 230/3/6
f 230/3/6 229/3/6 231/3/6
f 232/3/6 233/3/6 235/3/6
f 235/3/6 233/3/6 236/3/6
f 234/1/6 235/1/6 248/1/6
f 235/3/6 236/3/6 249/3/6
f 236/3/6 237/3/6 249/3/6
f 248/1/6 235/1/6 249/1/6
f 249/3/6 237/3/6 250/3/6
f 238/1/6 239/1/6 251/1/6
f 251/1/6 239/1/6 252/1/6
f 240/3/6 241/3/6 253/3/6
f 253/3/6 241/3/6 254/3/6
f 242/1/6 243/1/6 255/1/6
f 243/3/6 244/3/6 256/3/6
f 255/1/6 243/1/6 256/1/6
f 244/1/6 245/1/6 257/1/6
f 256/3/6 244/3/6 257/3/6
f 245/3/6 246/3/6 258/3/6
f 257/1/6 245/1/6 258/1/6
f 258/3/6 246/3/6 259/3/6
f 247/4/6 248/4/6 261/4/6
f 261/4/6 248/4/6 262/4/6
f 259/4/6 260/4/6 263/4/6
f 263/4/6 260/4/6 264/4/6
f 265/4/6 266/4/6 267/4/6
f 267/4/6 266/4/6 268/4/6
