# MagicaVoxel @ Ephtracy

# group
o 

# material
mtllib Vacume_Machine.mtl
usemtl palette

# normals
vn -1 0 0
vn 1 0 0
vn 0 0 1
vn 0 0 -1
vn 0 -1 0
vn 0 1 0

# texcoords
vt 0.986328 0.5
vt 0.990234 0.5
vt 0.994141 0.5

# verts
v -0.3 1.3 0.1
v -0.3 1.3 0
v -0.3 1.7 0.1
v -0.3 1.7 0
v -0.3 2.5 0.1
v -0.3 2.5 0
v -0.3 2.6 0.1
v -0.3 2.6 0
v -0.3 2.7 0.1
v -0.3 2.7 0
v -0.3 2.8 0.1
v -0.3 2.8 0
v -0.2 1.2 0.1
v -0.2 1.2 0
v -0.2 1.3 0.1
v -0.2 1.3 0
v -0.2 1.7 0.1
v -0.2 1.7 0
v -0.2 1.9 0.1
v -0.2 1.9 0
v -0.2 2.3 0.1
v -0.2 2.3 0
v -0.2 2.4 0.1
v -0.2 2.4 0
v -0.2 2.5 0.1
v -0.2 2.5 0
v -0.2 2.8 0.1
v -0.2 2.8 0
v -0.2 2.9 0.1
v -0.2 2.9 0
v -0.1 1.1 0.1
v -0.1 1.1 0
v -0.1 1.2 0.1
v -0.1 1.2 0
v -0.1 1.9 0.1
v -0.1 1.9 0
v -0.1 2.1 0.1
v -0.1 2.1 0
v -0.1 2.2 0.1
v -0.1 2.2 0
v -0.1 2.3 0.1
v -0.1 2.3 0
v -0.1 2.9 0.1
v -0.1 2.9 0
v -0.1 3 0.1
v -0.1 3 0
v 0 3 0.1
v 0 3 0
v 0 3.1 0.1
v 0 3.1 0
v 0.1 3.1 0.1
v 0.1 3.1 0
v 0.1 3.2 0.1
v 0.1 3.2 0
v 0.2 2.3 0.1
v 0.2 2.3 0
v 0.2 2.4 0.1
v 0.2 2.4 0
v 0.3 3.2 0.1
v 0.3 3.2 0
v 0.3 3.3 0.1
v 0.3 3.3 0
v 0.5 1.1 0.1
v 0.5 1.1 0
v 0.5 1.2 0.1
v 0.5 1.2 0
v 0.6 1.2 0.1
v 0.6 1.2 0
v 0.6 1.3 0.1
v 0.6 1.3 0
v 0.6 2.2 0.1
v 0.6 2.2 0
v 0.6 2.4 0.1
v 0.6 2.4 0
v 0.7 1.3 0.1
v 0.7 1.3 0
v 0.7 2.1 0.1
v 0.7 2.1 0
v 0.7 2.2 0.1
v 0.7 2.2 0
v 0.7 2.4 0.1
v 0.7 2.4 0
v 0.7 2.5 0.1
v 0.7 2.5 0
v 0.7 3.1 0.1
v 0.7 3.1 0
v -0.1 2.5 0.1
v -0.1 2.5 0
v -0.1 2.6 0.1
v -0.1 2.6 0
v -0.1 2.7 0.1
v -0.1 2.7 0
v -0.1 2.8 0.1
v -0.1 2.8 0
v 0 2.3 0.1
v 0 2.3 0
v 0 2.4 0.1
v 0 2.4 0
v 0 2.5 0.1
v 0 2.5 0
v 0 2.8 0.1
v 0 2.8 0
v 0 2.9 0.1
v 0 2.9 0
v 0.1 2.9 0.1
v 0.1 2.9 0
v 0.1 3 0.1
v 0.1 3 0
v 0.2 3 0.1
v 0.2 3 0
v 0.2 3.1 0.1
v 0.2 3.1 0
v 0.4 1.1 0.1
v 0.4 1.1 0
v 0.4 2.4 0.1
v 0.4 2.4 0
v 0.8 1.3 0.1
v 0.8 1.3 0
v 0.8 2.1 0.1
v 0.8 2.1 0
v 0.8 2.2 0.1
v 0.8 2.2 0
v 0.8 2.4 0.1
v 0.8 2.4 0
v 0.8 2.5 0.1
v 0.8 2.5 0
v 0.8 3 0.1
v 0.8 3 0
v 0.8 3.2 0.1
v 0.8 3.2 0
v 0.8 3.3 0.1
v 0.8 3.3 0
v 0.9 1.2 0.1
v 0.9 1.2 0
v 0.9 1.3 0.1
v 0.9 1.3 0
v 0.9 2.2 0.1
v 0.9 2.2 0
v 0.9 2.4 0.1
v 0.9 2.4 0
v 0.9 3 0.1
v 0.9 3 0
v 0.9 3.2 0.1
v 0.9 3.2 0
v 1 1.1 0.1
v 1 1.1 0
v 1 1.2 0.1
v 1 1.2 0
v -0.3 1.3 0.1
v -0.3 1.7 0.1
v -0.3 2.5 0.1
v -0.3 2.6 0.1
v -0.3 2.7 0.1
v -0.3 2.8 0.1
v -0.2 1.2 0.1
v -0.2 1.3 0.1
v -0.2 1.7 0.1
v -0.2 1.9 0.1
v -0.2 2.3 0.1
v -0.2 2.4 0.1
v -0.2 2.5 0.1
v -0.2 2.8 0.1
v -0.2 2.9 0.1
v -0.1 1.1 0.1
v -0.1 1.2 0.1
v -0.1 1.6 0.1
v -0.1 1.8 0.1
v -0.1 1.9 0.1
v -0.1 2.1 0.1
v -0.1 2.2 0.1
v -0.1 2.3 0.1
v -0.1 2.5 0.1
v -0.1 2.6 0.1
v -0.1 2.7 0.1
v -0.1 2.8 0.1
v -0.1 2.9 0.1
v -0.1 3 0.1
v 0 2.1 0.1
v 0 2.2 0.1
v 0 2.3 0.1
v 0 2.4 0.1
v 0 2.5 0.1
v 0 2.8 0.1
v 0 2.9 0.1
v 0 3 0.1
v 0 3.1 0.1
v 0.1 1.6 0.1
v 0.1 1.8 0.1
v 0.1 2.2 0.1
v 0.1 2.3 0.1
v 0.1 2.9 0.1
v 0.1 3 0.1
v 0.1 3.1 0.1
v 0.1 3.2 0.1
v 0.2 1.1 0.1
v 0.2 1.2 0.1
v 0.2 2.3 0.1
v 0.2 2.4 0.1
v 0.2 3 0.1
v 0.2 3.1 0.1
v 0.3 1.2 0.1
v 0.3 2.3 0.1
v 0.3 3.1 0.1
v 0.3 3.2 0.1
v 0.3 3.3 0.1
v 0.4 1.1 0.1
v 0.4 2.4 0.1
v 0.5 1.1 0.1
v 0.5 1.2 0.1
v 0.5 3.1 0.1
v 0.5 3.3 0.1
v 0.6 1.2 0.1
v 0.6 1.3 0.1
v 0.6 2.2 0.1
v 0.6 2.4 0.1
v 0.7 1.3 0.1
v 0.7 2.1 0.1
v 0.7 2.2 0.1
v 0.7 2.4 0.1
v 0.7 2.5 0.1
v 0.7 3.1 0.1
v 0.8 1.3 0.1
v 0.8 2.1 0.1
v 0.8 2.2 0.1
v 0.8 2.4 0.1
v 0.8 2.5 0.1
v 0.8 3 0.1
v 0.8 3.2 0.1
v 0.8 3.3 0.1
v 0.9 1.2 0.1
v 0.9 1.3 0.1
v 0.9 2.2 0.1
v 0.9 2.4 0.1
v 0.9 3 0.1
v 0.9 3.2 0.1
v 1 1.1 0.1
v 1 1.2 0.1
v -0.3 1.3 0
v -0.3 1.7 0
v -0.3 2.5 0
v -0.3 2.6 0
v -0.3 2.7 0
v -0.3 2.8 0
v -0.2 1.2 0
v -0.2 1.3 0
v -0.2 1.7 0
v -0.2 1.9 0
v -0.2 2.3 0
v -0.2 2.4 0
v -0.2 2.5 0
v -0.2 2.8 0
v -0.2 2.9 0
v -0.1 1.1 0
v -0.1 1.2 0
v -0.1 1.6 0
v -0.1 1.8 0
v -0.1 1.9 0
v -0.1 2.1 0
v -0.1 2.2 0
v -0.1 2.3 0
v -0.1 2.5 0
v -0.1 2.6 0
v -0.1 2.7 0
v -0.1 2.8 0
v -0.1 2.9 0
v -0.1 3 0
v 0 2.1 0
v 0 2.2 0
v 0 2.3 0
v 0 2.4 0
v 0 2.5 0
v 0 2.8 0
v 0 2.9 0
v 0 3 0
v 0 3.1 0
v 0.1 1.6 0
v 0.1 1.8 0
v 0.1 2.2 0
v 0.1 2.3 0
v 0.1 2.9 0
v 0.1 3 0
v 0.1 3.1 0
v 0.1 3.2 0
v 0.2 1.1 0
v 0.2 1.2 0
v 0.2 2.3 0
v 0.2 2.4 0
v 0.2 3 0
v 0.2 3.1 0
v 0.3 1.2 0
v 0.3 2.3 0
v 0.3 3.1 0
v 0.3 3.2 0
v 0.3 3.3 0
v 0.4 1.1 0
v 0.4 2.4 0
v 0.5 1.1 0
v 0.5 1.2 0
v 0.5 3.1 0
v 0.5 3.3 0
v 0.6 1.2 0
v 0.6 1.3 0
v 0.6 2.2 0
v 0.6 2.4 0
v 0.7 1.3 0
v 0.7 2.1 0
v 0.7 2.2 0
v 0.7 2.4 0
v 0.7 2.5 0
v 0.7 3.1 0
v 0.8 1.3 0
v 0.8 2.1 0
v 0.8 2.2 0
v 0.8 2.4 0
v 0.8 2.5 0
v 0.8 3 0
v 0.8 3.2 0
v 0.8 3.3 0
v 0.9 1.2 0
v 0.9 1.3 0
v 0.9 2.2 0
v 0.9 2.4 0
v 0.9 3 0
v 0.9 3.2 0
v 1 1.1 0
v 1 1.2 0
v -0.1 1.1 0.1
v 0.2 1.1 0.1
v 0.4 1.1 0.1
v 0.5 1.1 0.1
v 1 1.1 0.1
v -0.1 1.1 0
v 0.2 1.1 0
v 0.4 1.1 0
v 0.5 1.1 0
v 1 1.1 0
v -0.2 1.2 0.1
v -0.1 1.2 0.1
v -0.2 1.2 0
v -0.1 1.2 0
v -0.3 1.3 0.1
v -0.2 1.3 0.1
v -0.3 1.3 0
v -0.2 1.3 0
v 0.6 2.2 0.1
v 0.7 2.2 0.1
v 0.8 2.2 0.1
v 0.9 2.2 0.1
v 0.6 2.2 0
v 0.7 2.2 0
v 0.8 2.2 0
v 0.9 2.2 0
v -0.2 2.3 0.1
v -0.1 2.3 0.1
v -0.2 2.3 0
v -0.1 2.3 0
v -0.3 2.5 0.1
v -0.2 2.5 0.1
v -0.3 2.5 0
v -0.2 2.5 0
v -0.1 2.8 0.1
v 0 2.8 0.1
v -0.1 2.8 0
v 0 2.8 0
v 0 2.9 0.1
v 0.1 2.9 0.1
v 0 2.9 0
v 0.1 2.9 0
v 0.1 3 0.1
v 0.2 3 0.1
v 0.8 3 0.1
v 0.9 3 0.1
v 0.1 3 0
v 0.2 3 0
v 0.8 3 0
v 0.9 3 0
v 0.2 3.1 0.1
v 0.3 3.1 0.1
v 0.5 3.1 0.1
v 0.7 3.1 0.1
v 0.2 3.1 0
v 0.3 3.1 0
v 0.5 3.1 0
v 0.7 3.1 0
v 0.5 1.2 0.1
v 0.6 1.2 0.1
v 0.9 1.2 0.1
v 1 1.2 0.1
v 0.5 1.2 0
v 0.6 1.2 0
v 0.9 1.2 0
v 1 1.2 0
v 0.6 1.3 0.1
v 0.7 1.3 0.1
v 0.8 1.3 0.1
v 0.9 1.3 0.1
v 0.6 1.3 0
v 0.7 1.3 0
v 0.8 1.3 0
v 0.9 1.3 0
v -0.3 1.7 0.1
v -0.2 1.7 0.1
v -0.3 1.7 0
v -0.2 1.7 0
v -0.2 1.9 0.1
v -0.1 1.9 0.1
v -0.2 1.9 0
v -0.1 1.9 0
v 0 2.3 0.1
v 0.1 2.3 0.1
v 0.2 2.3 0.1
v 0 2.3 0
v 0.1 2.3 0
v 0.2 2.3 0
v 0.2 2.4 0.1
v 0.4 2.4 0.1
v 0.6 2.4 0.1
v 0.7 2.4 0.1
v 0.8 2.4 0.1
v 0.9 2.4 0.1
v 0.2 2.4 0
v 0.4 2.4 0
v 0.6 2.4 0
v 0.7 2.4 0
v 0.8 2.4 0
v 0.9 2.4 0
v -0.1 2.5 0.1
v 0 2.5 0.1
v -0.1 2.5 0
v 0 2.5 0
v -0.3 2.8 0.1
v -0.2 2.8 0.1
v -0.3 2.8 0
v -0.2 2.8 0
v -0.2 2.9 0.1
v -0.1 2.9 0.1
v -0.2 2.9 0
v -0.1 2.9 0
v -0.1 3 0.1
v 0 3 0.1
v -0.1 3 0
v 0 3 0
v 0 3.1 0.1
v 0.1 3.1 0.1
v 0 3.1 0
v 0.1 3.1 0
v 0.1 3.2 0.1
v 0.3 3.2 0.1
v 0.8 3.2 0.1
v 0.9 3.2 0.1
v 0.1 3.2 0
v 0.3 3.2 0
v 0.8 3.2 0
v 0.9 3.2 0
v 0.3 3.3 0.1
v 0.5 3.3 0.1
v 0.8 3.3 0.1
v 0.3 3.3 0
v 0.5 3.3 0
v 0.8 3.3 0

# faces
f 3/3/1 2/3/1 1/3/1
f 4/3/1 2/3/1 3/3/1
f 7/2/1 6/2/1 5/2/1
f 8/2/1 6/2/1 7/2/1
f 9/1/1 8/1/1 7/1/1
f 10/1/1 8/1/1 9/1/1
f 11/2/1 10/2/1 9/2/1
f 12/2/1 10/2/1 11/2/1
f 15/3/1 14/3/1 13/3/1
f 16/3/1 14/3/1 15/3/1
f 19/3/1 18/3/1 17/3/1
f 20/3/1 18/3/1 19/3/1
f 23/2/1 22/2/1 21/2/1
f 24/2/1 22/2/1 23/2/1
f 25/1/1 24/1/1 23/1/1
f 26/1/1 24/1/1 25/1/1
f 29/1/1 28/1/1 27/1/1
f 30/1/1 28/1/1 29/1/1
f 33/3/1 32/3/1 31/3/1
f 34/3/1 32/3/1 33/3/1
f 37/3/1 36/3/1 35/3/1
f 38/3/1 36/3/1 37/3/1
f 39/2/1 38/2/1 37/2/1
f 40/2/1 38/2/1 39/2/1
f 41/1/1 40/1/1 39/1/1
f 42/1/1 40/1/1 41/1/1
f 45/2/1 44/2/1 43/2/1
f 46/2/1 44/2/1 45/2/1
f 49/1/1 48/1/1 47/1/1
f 50/1/1 48/1/1 49/1/1
f 53/2/1 52/2/1 51/2/1
f 54/2/1 52/2/1 53/2/1
f 57/1/1 56/1/1 55/1/1
f 58/1/1 56/1/1 57/1/1
f 61/1/1 60/1/1 59/1/1
f 62/1/1 60/1/1 61/1/1
f 65/1/1 64/1/1 63/1/1
f 66/1/1 64/1/1 65/1/1
f 69/1/1 68/1/1 67/1/1
f 70/1/1 68/1/1 69/1/1
f 73/1/1 72/1/1 71/1/1
f 74/1/1 72/1/1 73/1/1
f 77/2/1 76/2/1 75/2/1
f 78/2/1 76/2/1 77/2/1
f 79/1/1 78/1/1 77/1/1
f 80/1/1 78/1/1 79/1/1
f 83/1/1 82/1/1 81/1/1
f 84/1/1 82/1/1 83/1/1
f 85/2/1 84/2/1 83/2/1
f 86/2/1 84/2/1 85/2/1
f 87/2/2 88/2/2 89/2/2
f 89/2/2 88/2/2 90/2/2
f 89/1/2 90/1/2 91/1/2
f 91/1/2 90/1/2 92/1/2
f 91/2/2 92/2/2 93/2/2
f 93/2/2 92/2/2 94/2/2
f 95/2/2 96/2/2 97/2/2
f 97/2/2 96/2/2 98/2/2
f 97/1/2 98/1/2 99/1/2
f 99/1/2 98/1/2 100/1/2
f 101/1/2 102/1/2 103/1/2
f 103/1/2 102/1/2 104/1/2
f 105/2/2 106/2/2 107/2/2
f 107/2/2 106/2/2 108/2/2
f 109/1/2 110/1/2 111/1/2
f 111/1/2 110/1/2 112/1/2
f 113/1/2 114/1/2 115/1/2
f 115/1/2 114/1/2 116/1/2
f 117/2/2 118/2/2 119/2/2
f 119/2/2 118/2/2 120/2/2
f 119/1/2 120/1/2 121/1/2
f 121/1/2 120/1/2 122/1/2
f 123/1/2 124/1/2 125/1/2
f 125/1/2 124/1/2 126/1/2
f 125/2/2 126/2/2 127/2/2
f 127/2/2 126/2/2 128/2/2
f 129/2/2 130/2/2 131/2/2
f 131/2/2 130/2/2 132/2/2
f 133/1/2 134/1/2 135/1/2
f 135/1/2 134/1/2 136/1/2
f 137/1/2 138/1/2 139/1/2
f 139/1/2 138/1/2 140/1/2
f 141/2/2 142/2/2 143/2/2
f 143/2/2 142/2/2 144/2/2
f 145/1/2 146/1/2 147/1/2
f 147/1/2 146/1/2 148/1/2
f 156/3/3 150/3/3 149/3/3
f 157/3/3 150/3/3 156/3/3
f 161/2/3 152/2/3 151/2/3
f 162/2/3 154/2/3 153/2/3
f 165/3/3 156/3/3 155/3/3
f 165/3/3 157/3/3 156/3/3
f 165/3/3 158/3/3 157/3/3
f 166/3/3 158/3/3 165/3/3
f 167/3/3 158/3/3 166/3/3
f 168/3/3 158/3/3 167/3/3
f 171/2/3 160/2/3 159/2/3
f 172/1/3 161/1/3 160/1/3
f 172/2/3 152/2/3 161/2/3
f 173/1/3 153/1/3 152/1/3
f 173/2/3 152/2/3 172/2/3
f 174/2/3 162/2/3 153/2/3
f 174/1/3 153/1/3 173/1/3
f 175/1/3 163/1/3 162/1/3
f 175/2/3 162/2/3 174/2/3
f 176/1/3 163/1/3 175/1/3
f 178/2/3 170/2/3 169/2/3
f 178/3/3 168/3/3 167/3/3
f 178/3/3 169/3/3 168/3/3
f 179/1/3 171/1/3 170/1/3
f 179/2/3 170/2/3 178/2/3
f 180/2/3 160/2/3 171/2/3
f 180/1/3 171/1/3 179/1/3
f 181/1/3 172/1/3 160/1/3
f 181/2/3 160/2/3 180/2/3
f 182/1/3 172/1/3 181/1/3
f 183/1/3 176/1/3 175/1/3
f 184/2/3 177/2/3 176/2/3
f 184/1/3 176/1/3 183/1/3
f 185/2/3 177/2/3 184/2/3
f 187/3/3 165/3/3 164/3/3
f 187/3/3 166/3/3 165/3/3
f 187/2/3 167/2/3 166/2/3
f 188/3/3 178/3/3 167/3/3
f 188/2/3 167/2/3 187/2/3
f 188/3/3 179/3/3 178/3/3
f 189/1/3 180/1/3 179/1/3
f 189/3/3 179/3/3 188/3/3
f 190/1/3 180/1/3 189/1/3
f 191/2/3 185/2/3 184/2/3
f 192/1/3 186/1/3 185/1/3
f 192/2/3 185/2/3 191/2/3
f 193/1/3 186/1/3 192/1/3
f 195/3/3 187/3/3 164/3/3
f 195/3/3 188/3/3 187/3/3
f 195/3/3 190/3/3 189/3/3
f 195/3/3 189/3/3 188/3/3
f 196/3/3 190/3/3 195/3/3
f 197/3/3 190/3/3 196/3/3
f 199/1/3 193/1/3 192/1/3
f 200/2/3 194/2/3 193/2/3
f 200/1/3 193/1/3 199/1/3
f 201/1/3 196/1/3 195/1/3
f 201/2/3 197/2/3 196/2/3
f 202/1/3 198/1/3 197/1/3
f 202/2/3 197/2/3 201/2/3
f 203/2/3 194/2/3 200/2/3
f 204/2/3 194/2/3 203/2/3
f 206/1/3 201/1/3 195/1/3
f 206/1/3 202/1/3 201/1/3
f 207/1/3 198/1/3 202/1/3
f 207/1/3 202/1/3 206/1/3
f 210/1/3 205/1/3 204/1/3
f 210/1/3 204/1/3 203/1/3
f 211/1/3 205/1/3 210/1/3
f 212/1/3 209/1/3 208/1/3
f 216/1/3 213/1/3 212/1/3
f 218/1/3 215/1/3 214/1/3
f 219/1/3 215/1/3 218/1/3
f 221/2/3 211/2/3 210/2/3
f 222/2/3 217/2/3 216/2/3
f 222/1/3 216/1/3 212/1/3
f 223/1/3 220/1/3 219/1/3
f 223/2/3 217/2/3 222/2/3
f 223/1/3 218/1/3 217/1/3
f 223/1/3 219/1/3 218/1/3
f 224/1/3 220/1/3 223/1/3
f 225/1/3 220/1/3 224/1/3
f 226/2/3 221/2/3 220/2/3
f 226/1/3 220/1/3 225/1/3
f 227/2/3 221/2/3 226/2/3
f 228/2/3 211/2/3 221/2/3
f 228/2/3 221/2/3 227/2/3
f 229/2/3 211/2/3 228/2/3
f 230/1/3 222/1/3 212/1/3
f 230/1/3 212/1/3 208/1/3
f 231/1/3 222/1/3 230/1/3
f 232/1/3 225/1/3 224/1/3
f 233/1/3 225/1/3 232/1/3
f 234/2/3 228/2/3 227/2/3
f 235/2/3 228/2/3 234/2/3
f 236/1/3 230/1/3 208/1/3
f 237/1/3 230/1/3 236/1/3
f 238/3/4 239/3/4 245/3/4
f 245/3/4 239/3/4 246/3/4
f 240/2/4 241/2/4 250/2/4
f 242/2/4 243/2/4 251/2/4
f 244/3/4 245/3/4 254/3/4
f 245/3/4 246/3/4 254/3/4
f 246/3/4 247/3/4 254/3/4
f 254/3/4 247/3/4 255/3/4
f 255/3/4 247/3/4 256/3/4
f 256/3/4 247/3/4 257/3/4
f 248/2/4 249/2/4 260/2/4
f 249/1/4 250/1/4 261/1/4
f 250/2/4 241/2/4 261/2/4
f 241/1/4 242/1/4 262/1/4
f 261/2/4 241/2/4 262/2/4
f 242/2/4 251/2/4 263/2/4
f 262/1/4 242/1/4 263/1/4
f 251/1/4 252/1/4 264/1/4
f 263/2/4 251/2/4 264/2/4
f 264/1/4 252/1/4 265/1/4
f 258/2/4 259/2/4 267/2/4
f 256/3/4 257/3/4 267/3/4
f 257/3/4 258/3/4 267/3/4
f 259/1/4 260/1/4 268/1/4
f 267/2/4 259/2/4 268/2/4
f 260/2/4 249/2/4 269/2/4
f 268/1/4 260/1/4 269/1/4
f 249/1/4 261/1/4 270/1/4
f 269/2/4 249/2/4 270/2/4
f 270/1/4 261/1/4 271/1/4
f 264/1/4 265/1/4 272/1/4
f 265/2/4 266/2/4 273/2/4
f 272/1/4 265/1/4 273/1/4
f 273/2/4 266/2/4 274/2/4
f 253/3/4 254/3/4 276/3/4
f 254/3/4 255/3/4 276/3/4
f 255/2/4 256/2/4 276/2/4
f 256/3/4 267/3/4 277/3/4
f 276/2/4 256/2/4 277/2/4
f 267/3/4 268/3/4 277/3/4
f 268/1/4 269/1/4 278/1/4
f 277/3/4 268/3/4 278/3/4
f 278/1/4 269/1/4 279/1/4
f 273/2/4 274/2/4 280/2/4
f 274/1/4 275/1/4 281/1/4
f 280/2/4 274/2/4 281/2/4
f 281/1/4 275/1/4 282/1/4
f 253/3/4 276/3/4 284/3/4
f 276/3/4 277/3/4 284/3/4
f 278/3/4 279/3/4 284/3/4
f 277/3/4 278/3/4 284/3/4
f 284/3/4 279/3/4 285/3/4
f 285/3/4 279/3/4 286/3/4
f 281/1/4 282/1/4 288/1/4
f 282/2/4 283/2/4 289/2/4
f 288/1/4 282/1/4 289/1/4
f 284/1/4 285/1/4 290/1/4
f 285/2/4 286/2/4 290/2/4
f 286/1/4 287/1/4 291/1/4
f 290/2/4 286/2/4 291/2/4
f 289/2/4 283/2/4 292/2/4
f 292/2/4 283/2/4 293/2/4
f 284/1/4 290/1/4 295/1/4
f 290/1/4 291/1/4 295/1/4
f 291/1/4 287/1/4 296/1/4
f 295/1/4 291/1/4 296/1/4
f 293/1/4 294/1/4 299/1/4
f 292/1/4 293/1/4 299/1/4
f 299/1/4 294/1/4 300/1/4
f 297/1/4 298/1/4 301/1/4
f 301/1/4 302/1/4 305/1/4
f 303/1/4 304/1/4 307/1/4
f 307/1/4 304/1/4 308/1/4
f 299/2/4 300/2/4 310/2/4
f 305/2/4 306/2/4 311/2/4
f 301/1/4 305/1/4 311/1/4
f 308/1/4 309/1/4 312/1/4
f 311/2/4 306/2/4 312/2/4
f 306/1/4 307/1/4 312/1/4
f 307/1/4 308/1/4 312/1/4
f 312/1/4 309/1/4 313/1/4
f 313/1/4 309/1/4 314/1/4
f 309/2/4 310/2/4 315/2/4
f 314/1/4 309/1/4 315/1/4
f 315/2/4 310/2/4 316/2/4
f 310/2/4 300/2/4 317/2/4
f 316/2/4 310/2/4 317/2/4
f 317/2/4 300/2/4 318/2/4
f 301/1/4 311/1/4 319/1/4
f 297/1/4 301/1/4 319/1/4
f 319/1/4 311/1/4 320/1/4
f 313/1/4 314/1/4 321/1/4
f 321/1/4 314/1/4 322/1/4
f 316/2/4 317/2/4 323/2/4
f 323/2/4 317/2/4 324/2/4
f 297/1/4 319/1/4 325/1/4
f 325/1/4 319/1/4 326/1/4
f 332/3/5 328/3/5 327/3/5
f 333/1/5 329/1/5 328/1/5
f 333/3/5 328/3/5 332/3/5
f 334/1/5 329/1/5 333/1/5
f 335/1/5 331/1/5 330/1/5
f 336/1/5 331/1/5 335/1/5
f 339/3/5 338/3/5 337/3/5
f 340/3/5 338/3/5 339/3/5
f 343/3/5 342/3/5 341/3/5
f 344/3/5 342/3/5 343/3/5
f 349/1/5 346/1/5 345/1/5
f 350/1/5 346/1/5 349/1/5
f 351/1/5 348/1/5 347/1/5
f 352/1/5 348/1/5 351/1/5
f 355/2/5 354/2/5 353/2/5
f 356/2/5 354/2/5 355/2/5
f 359/2/5 358/2/5 357/2/5
f 360/2/5 358/2/5 359/2/5
f 363/1/5 362/1/5 361/1/5
f 364/1/5 362/1/5 363/1/5
f 367/2/5 366/2/5 365/2/5
f 368/2/5 366/2/5 367/2/5
f 373/1/5 370/1/5 369/1/5
f 374/1/5 370/1/5 373/1/5
f 375/2/5 372/2/5 371/2/5
f 376/2/5 372/2/5 375/2/5
f 381/2/5 378/2/5 377/2/5
f 382/1/5 379/1/5 378/1/5
f 382/2/5 378/2/5 381/2/5
f 383/2/5 380/2/5 379/2/5
f 383/1/5 379/1/5 382/1/5
f 384/2/5 380/2/5 383/2/5
f 385/1/6 386/1/6 389/1/6
f 389/1/6 386/1/6 390/1/6
f 387/1/6 388/1/6 391/1/6
f 391/1/6 388/1/6 392/1/6
f 393/1/6 394/1/6 397/1/6
f 397/1/6 394/1/6 398/1/6
f 395/1/6 396/1/6 399/1/6
f 399/1/6 396/1/6 400/1/6
f 401/3/6 402/3/6 403/3/6
f 403/3/6 402/3/6 404/3/6
f 405/3/6 406/3/6 407/3/6
f 407/3/6 406/3/6 408/3/6
f 409/1/6 410/1/6 412/1/6
f 410/3/6 411/3/6 413/3/6
f 412/1/6 410/1/6 413/1/6
f 413/3/6 411/3/6 414/3/6
f 415/1/6 416/1/6 421/1/6
f 421/1/6 416/1/6 422/1/6
f 417/1/6 418/1/6 423/1/6
f 423/1/6 418/1/6 424/1/6
f 419/1/6 420/1/6 425/1/6
f 425/1/6 420/1/6 426/1/6
f 427/1/6 428/1/6 429/1/6
f 429/1/6 428/1/6 430/1/6
f 431/2/6 432/2/6 433/2/6
f 433/2/6 432/2/6 434/2/6
f 435/1/6 436/1/6 437/1/6
f 437/1/6 436/1/6 438/1/6
f 439/2/6 440/2/6 441/2/6
f 441/2/6 440/2/6 442/2/6
f 443/1/6 444/1/6 445/1/6
f 445/1/6 444/1/6 446/1/6
f 447/2/6 448/2/6 451/2/6
f 451/2/6 448/2/6 452/2/6
f 449/2/6 450/2/6 453/2/6
f 453/2/6 450/2/6 454/2/6
f 455/1/6 456/1/6 458/1/6
f 456/2/6 457/2/6 459/2/6
f 458/1/6 456/1/6 459/1/6
f 459/2/6 457/2/6 460/2/6
