# MagicaVoxel @ Ephtracy

# group
o 

# material
mtllib Capboard.mtl
usemtl palette

# normals
vn -1 0 0
vn 1 0 0
vn 0 0 1
vn 0 0 -1
vn 0 -1 0
vn 0 1 0

# texcoords
vt 0.970703 0.5
vt 0.974609 0.5
vt 0.978516 0.5
vt 0.990234 0.5

# verts
v -0.9 1.9 0.1
v -0.9 1.9 0
v -0.9 2 0.1
v -0.9 2 0
v -0.8 0.9 0.1
v -0.8 0.9 0
v -0.8 1 0.1
v -0.8 1 0
v -0.8 1.1 0.1
v -0.8 1.1 0
v -0.8 1.4 0.1
v -0.8 1.4 0
v -0.8 1.5 0.1
v -0.8 1.5 0
v -0.8 1.8 0.1
v -0.8 1.8 0
v -0.8 1.9 0.1
v -0.8 1.9 0
v 1.1 0.9 0.1
v 1.1 0.9 0
v 1.1 1 0.1
v 1.1 1 0
v -0.6 0.9 0.1
v -0.6 0.9 0
v -0.6 1 0.1
v -0.6 1 0
v 1.3 0.9 0.1
v 1.3 0.9 0
v 1.3 1 0.1
v 1.3 1 0
v 1.3 1.1 0.1
v 1.3 1.1 0
v 1.3 1.4 0.1
v 1.3 1.4 0
v 1.3 1.5 0.1
v 1.3 1.5 0
v 1.3 1.8 0.1
v 1.3 1.8 0
v 1.3 1.9 0.1
v 1.3 1.9 0
v 1.4 1.9 0.1
v 1.4 1.9 0
v 1.4 2 0.1
v 1.4 2 0
v -0.9 1.9 0.1
v -0.9 2 0.1
v -0.8 0.9 0.1
v -0.8 1 0.1
v -0.8 1.1 0.1
v -0.8 1.4 0.1
v -0.8 1.5 0.1
v -0.8 1.8 0.1
v -0.8 1.9 0.1
v -0.7 1 0.1
v -0.7 1.1 0.1
v -0.7 1.4 0.1
v -0.7 1.5 0.1
v -0.7 1.8 0.1
v -0.7 1.9 0.1
v -0.6 0.9 0.1
v -0.6 1 0.1
v -0.6 1.2 0.1
v -0.6 1.3 0.1
v -0.6 1.6 0.1
v -0.6 1.7 0.1
v -0.4 1.2 0.1
v -0.4 1.3 0.1
v -0.4 1.6 0.1
v -0.4 1.7 0.1
v -0.1 1.2 0.1
v -0.1 1.3 0.1
v -0.1 1.6 0.1
v -0.1 1.7 0.1
v 0.1 1.2 0.1
v 0.1 1.3 0.1
v 0.1 1.6 0.1
v 0.1 1.7 0.1
v 0.2 1 0.1
v 0.2 1.1 0.1
v 0.2 1.4 0.1
v 0.2 1.5 0.1
v 0.2 1.8 0.1
v 0.2 1.9 0.1
v 0.3 1 0.1
v 0.3 1.1 0.1
v 0.3 1.4 0.1
v 0.3 1.5 0.1
v 0.3 1.8 0.1
v 0.3 1.9 0.1
v 0.4 1.2 0.1
v 0.4 1.3 0.1
v 0.4 1.6 0.1
v 0.4 1.7 0.1
v 0.6 1.2 0.1
v 0.6 1.3 0.1
v 0.6 1.6 0.1
v 0.6 1.7 0.1
v 0.9 1.2 0.1
v 0.9 1.3 0.1
v 0.9 1.6 0.1
v 0.9 1.7 0.1
v 1.1 0.9 0.1
v 1.1 1 0.1
v 1.1 1.2 0.1
v 1.1 1.3 0.1
v 1.1 1.6 0.1
v 1.1 1.7 0.1
v 1.2 1 0.1
v 1.2 1.1 0.1
v 1.2 1.4 0.1
v 1.2 1.5 0.1
v 1.2 1.8 0.1
v 1.2 1.9 0.1
v 1.3 0.9 0.1
v 1.3 1 0.1
v 1.3 1.1 0.1
v 1.3 1.4 0.1
v 1.3 1.5 0.1
v 1.3 1.8 0.1
v 1.3 1.9 0.1
v 1.4 1.9 0.1
v 1.4 2 0.1
v -0.9 1.9 0
v -0.9 2 0
v -0.8 0.9 0
v -0.8 1 0
v -0.8 1.1 0
v -0.8 1.4 0
v -0.8 1.5 0
v -0.8 1.8 0
v -0.8 1.9 0
v -0.7 1 0
v -0.7 1.1 0
v -0.7 1.4 0
v -0.7 1.5 0
v -0.7 1.8 0
v -0.7 1.9 0
v -0.6 0.9 0
v -0.6 1 0
v -0.6 1.2 0
v -0.6 1.3 0
v -0.6 1.6 0
v -0.6 1.7 0
v -0.4 1.2 0
v -0.4 1.3 0
v -0.4 1.6 0
v -0.4 1.7 0
v -0.1 1.2 0
v -0.1 1.3 0
v -0.1 1.6 0
v -0.1 1.7 0
v 0.1 1.2 0
v 0.1 1.3 0
v 0.1 1.6 0
v 0.1 1.7 0
v 0.2 1 0
v 0.2 1.1 0
v 0.2 1.4 0
v 0.2 1.5 0
v 0.2 1.8 0
v 0.2 1.9 0
v 0.3 1 0
v 0.3 1.1 0
v 0.3 1.4 0
v 0.3 1.5 0
v 0.3 1.8 0
v 0.3 1.9 0
v 0.4 1.2 0
v 0.4 1.3 0
v 0.4 1.6 0
v 0.4 1.7 0
v 0.6 1.2 0
v 0.6 1.3 0
v 0.6 1.6 0
v 0.6 1.7 0
v 0.9 1.2 0
v 0.9 1.3 0
v 0.9 1.6 0
v 0.9 1.7 0
v 1.1 0.9 0
v 1.1 1 0
v 1.1 1.2 0
v 1.1 1.3 0
v 1.1 1.6 0
v 1.1 1.7 0
v 1.2 1 0
v 1.2 1.1 0
v 1.2 1.4 0
v 1.2 1.5 0
v 1.2 1.8 0
v 1.2 1.9 0
v 1.3 0.9 0
v 1.3 1 0
v 1.3 1.1 0
v 1.3 1.4 0
v 1.3 1.5 0
v 1.3 1.8 0
v 1.3 1.9 0
v 1.4 1.9 0
v 1.4 2 0
v -0.8 0.9 0.1
v -0.6 0.9 0.1
v 1.1 0.9 0.1
v 1.3 0.9 0.1
v -0.8 0.9 0
v -0.6 0.9 0
v 1.1 0.9 0
v 1.3 0.9 0
v -0.6 1 0.1
v 0.2 1 0.1
v 0.3 1 0.1
v 1.1 1 0.1
v -0.6 1 0
v 0.2 1 0
v 0.3 1 0
v 1.1 1 0
v -0.9 1.9 0.1
v -0.8 1.9 0.1
v 1.3 1.9 0.1
v 1.4 1.9 0.1
v -0.9 1.9 0
v -0.8 1.9 0
v 1.3 1.9 0
v 1.4 1.9 0
v -0.9 2 0.1
v 1.4 2 0.1
v -0.9 2 0
v 1.4 2 0

# faces
f 3/3/1 2/3/1 1/3/1
f 4/3/1 2/3/1 3/3/1
f 7/3/1 6/3/1 5/3/1
f 8/3/1 6/3/1 7/3/1
f 9/1/1 8/1/1 7/1/1
f 10/1/1 8/1/1 9/1/1
f 11/2/1 10/2/1 9/2/1
f 12/2/1 10/2/1 11/2/1
f 13/1/1 12/1/1 11/1/1
f 14/1/1 12/1/1 13/1/1
f 15/2/1 14/2/1 13/2/1
f 16/2/1 14/2/1 15/2/1
f 17/1/1 16/1/1 15/1/1
f 18/1/1 16/1/1 17/1/1
f 21/3/1 20/3/1 19/3/1
f 22/3/1 20/3/1 21/3/1
f 23/3/2 24/3/2 25/3/2
f 25/3/2 24/3/2 26/3/2
f 27/3/2 28/3/2 29/3/2
f 29/3/2 28/3/2 30/3/2
f 29/1/2 30/1/2 31/1/2
f 31/1/2 30/1/2 32/1/2
f 31/2/2 32/2/2 33/2/2
f 33/2/2 32/2/2 34/2/2
f 33/1/2 34/1/2 35/1/2
f 35/1/2 34/1/2 36/1/2
f 35/2/2 36/2/2 37/2/2
f 37/2/2 36/2/2 38/2/2
f 37/1/2 38/1/2 39/1/2
f 39/1/2 38/1/2 40/1/2
f 41/3/2 42/3/2 43/3/2
f 43/3/2 42/3/2 44/3/2
f 53/3/3 46/3/3 45/3/3
f 54/3/3 48/3/3 47/3/3
f 54/1/3 49/1/3 48/1/3
f 55/2/3 50/2/3 49/2/3
f 55/1/3 49/1/3 54/1/3
f 56/1/3 51/1/3 50/1/3
f 56/2/3 50/2/3 55/2/3
f 57/2/3 52/2/3 51/2/3
f 57/1/3 51/1/3 56/1/3
f 58/1/3 53/1/3 52/1/3
f 58/2/3 52/2/3 57/2/3
f 59/3/3 46/3/3 53/3/3
f 59/1/3 53/1/3 58/1/3
f 60/3/3 54/3/3 47/3/3
f 61/2/3 55/2/3 54/2/3
f 61/3/3 54/3/3 60/3/3
f 62/3/3 56/3/3 55/3/3
f 63/3/3 56/3/3 62/3/3
f 64/3/3 58/3/3 57/3/3
f 65/3/3 58/3/3 64/3/3
f 66/3/3 62/3/3 55/3/3
f 66/2/3 63/2/3 62/2/3
f 67/3/3 56/3/3 63/3/3
f 67/2/3 63/2/3 66/2/3
f 68/2/3 65/2/3 64/2/3
f 68/3/3 64/3/3 57/3/3
f 69/3/3 58/3/3 65/3/3
f 69/2/3 65/2/3 68/2/3
f 70/3/3 66/3/3 55/3/3
f 70/4/3 67/4/3 66/4/3
f 71/3/3 56/3/3 67/3/3
f 71/4/3 67/4/3 70/4/3
f 72/3/3 68/3/3 57/3/3
f 72/4/3 69/4/3 68/4/3
f 73/3/3 58/3/3 69/3/3
f 73/4/3 69/4/3 72/4/3
f 74/3/3 70/3/3 55/3/3
f 74/2/3 71/2/3 70/2/3
f 75/3/3 56/3/3 71/3/3
f 75/2/3 71/2/3 74/2/3
f 76/3/3 72/3/3 57/3/3
f 76/2/3 73/2/3 72/2/3
f 77/3/3 58/3/3 73/3/3
f 77/2/3 73/2/3 76/2/3
f 78/2/3 55/2/3 61/2/3
f 79/3/3 74/3/3 55/3/3
f 79/2/3 55/2/3 78/2/3
f 79/3/3 75/3/3 74/3/3
f 80/2/3 57/2/3 56/2/3
f 80/3/3 75/3/3 79/3/3
f 80/3/3 56/3/3 75/3/3
f 81/3/3 77/3/3 76/3/3
f 81/2/3 57/2/3 80/2/3
f 81/3/3 76/3/3 57/3/3
f 82/3/3 58/3/3 77/3/3
f 82/3/3 77/3/3 81/3/3
f 82/2/3 59/2/3 58/2/3
f 83/3/3 46/3/3 59/3/3
f 83/2/3 59/2/3 82/2/3
f 84/1/3 79/1/3 78/1/3
f 85/2/3 80/2/3 79/2/3
f 85/1/3 79/1/3 84/1/3
f 86/1/3 81/1/3 80/1/3
f 86/2/3 80/2/3 85/2/3
f 87/2/3 82/2/3 81/2/3
f 87/1/3 81/1/3 86/1/3
f 88/1/3 83/1/3 82/1/3
f 88/2/3 82/2/3 87/2/3
f 89/3/3 46/3/3 83/3/3
f 89/1/3 83/1/3 88/1/3
f 90/3/3 86/3/3 85/3/3
f 91/3/3 86/3/3 90/3/3
f 92/3/3 88/3/3 87/3/3
f 93/3/3 88/3/3 92/3/3
f 94/3/3 90/3/3 85/3/3
f 94/2/3 91/2/3 90/2/3
f 95/3/3 86/3/3 91/3/3
f 95/2/3 91/2/3 94/2/3
f 96/2/3 93/2/3 92/2/3
f 96/3/3 92/3/3 87/3/3
f 97/3/3 88/3/3 93/3/3
f 97/2/3 93/2/3 96/2/3
f 98/3/3 94/3/3 85/3/3
f 98/4/3 95/4/3 94/4/3
f 99/3/3 86/3/3 95/3/3
f 99/4/3 95/4/3 98/4/3
f 100/3/3 96/3/3 87/3/3
f 100/4/3 97/4/3 96/4/3
f 101/3/3 88/3/3 97/3/3
f 101/4/3 97/4/3 100/4/3
f 103/2/3 85/2/3 84/2/3
f 104/3/3 98/3/3 85/3/3
f 104/2/3 99/2/3 98/2/3
f 105/3/3 86/3/3 99/3/3
f 105/2/3 99/2/3 104/2/3
f 106/3/3 100/3/3 87/3/3
f 106/2/3 101/2/3 100/2/3
f 107/3/3 88/3/3 101/3/3
f 107/2/3 101/2/3 106/2/3
f 108/3/3 103/3/3 102/3/3
f 108/2/3 85/2/3 103/2/3
f 109/3/3 104/3/3 85/3/3
f 109/2/3 85/2/3 108/2/3
f 109/3/3 105/3/3 104/3/3
f 110/3/3 86/3/3 105/3/3
f 110/3/3 105/3/3 109/3/3
f 110/2/3 87/2/3 86/2/3
f 111/3/3 106/3/3 87/3/3
f 111/2/3 87/2/3 110/2/3
f 111/3/3 107/3/3 106/3/3
f 112/2/3 89/2/3 88/2/3
f 112/3/3 107/3/3 111/3/3
f 112/3/3 88/3/3 107/3/3
f 113/3/3 46/3/3 89/3/3
f 113/2/3 89/2/3 112/2/3
f 114/3/3 108/3/3 102/3/3
f 115/1/3 109/1/3 108/1/3
f 115/3/3 108/3/3 114/3/3
f 116/2/3 110/2/3 109/2/3
f 116/1/3 109/1/3 115/1/3
f 117/1/3 111/1/3 110/1/3
f 117/2/3 110/2/3 116/2/3
f 118/2/3 112/2/3 111/2/3
f 118/1/3 111/1/3 117/1/3
f 119/1/3 113/1/3 112/1/3
f 119/2/3 112/2/3 118/2/3
f 120/3/3 46/3/3 113/3/3
f 120/1/3 113/1/3 119/1/3
f 121/3/3 46/3/3 120/3/3
f 122/3/3 46/3/3 121/3/3
f 123/3/4 124/3/4 131/3/4
f 125/3/4 126/3/4 132/3/4
f 126/1/4 127/1/4 132/1/4
f 127/2/4 128/2/4 133/2/4
f 132/1/4 127/1/4 133/1/4
f 128/1/4 129/1/4 134/1/4
f 133/2/4 128/2/4 134/2/4
f 129/2/4 130/2/4 135/2/4
f 134/1/4 129/1/4 135/1/4
f 130/1/4 131/1/4 136/1/4
f 135/2/4 130/2/4 136/2/4
f 131/3/4 124/3/4 137/3/4
f 136/1/4 131/1/4 137/1/4
f 125/3/4 132/3/4 138/3/4
f 132/2/4 133/2/4 139/2/4
f 138/3/4 132/3/4 139/3/4
f 133/3/4 134/3/4 140/3/4
f 140/3/4 134/3/4 141/3/4
f 135/3/4 136/3/4 142/3/4
f 142/3/4 136/3/4 143/3/4
f 133/3/4 140/3/4 144/3/4
f 140/2/4 141/2/4 144/2/4
f 141/3/4 134/3/4 145/3/4
f 144/2/4 141/2/4 145/2/4
f 142/2/4 143/2/4 146/2/4
f 135/3/4 142/3/4 146/3/4
f 143/3/4 136/3/4 147/3/4
f 146/2/4 143/2/4 147/2/4
f 133/3/4 144/3/4 148/3/4
f 144/4/4 145/4/4 148/4/4
f 145/3/4 134/3/4 149/3/4
f 148/4/4 145/4/4 149/4/4
f 135/3/4 146/3/4 150/3/4
f 146/4/4 147/4/4 150/4/4
f 147/3/4 136/3/4 151/3/4
f 150/4/4 147/4/4 151/4/4
f 133/3/4 148/3/4 152/3/4
f 148/2/4 149/2/4 152/2/4
f 149/3/4 134/3/4 153/3/4
f 152/2/4 149/2/4 153/2/4
f 135/3/4 150/3/4 154/3/4
f 150/2/4 151/2/4 154/2/4
f 151/3/4 136/3/4 155/3/4
f 154/2/4 151/2/4 155/2/4
f 139/2/4 133/2/4 156/2/4
f 133/3/4 152/3/4 157/3/4
f 156/2/4 133/2/4 157/2/4
f 152/3/4 153/3/4 157/3/4
f 134/2/4 135/2/4 158/2/4
f 157/3/4 153/3/4 158/3/4
f 153/3/4 134/3/4 158/3/4
f 154/3/4 155/3/4 159/3/4
f 158/2/4 135/2/4 159/2/4
f 135/3/4 154/3/4 159/3/4
f 155/3/4 136/3/4 160/3/4
f 159/3/4 155/3/4 160/3/4
f 136/2/4 137/2/4 160/2/4
f 137/3/4 124/3/4 161/3/4
f 160/2/4 137/2/4 161/2/4
f 156/1/4 157/1/4 162/1/4
f 157/2/4 158/2/4 163/2/4
f 162/1/4 157/1/4 163/1/4
f 158/1/4 159/1/4 164/1/4
f 163/2/4 158/2/4 164/2/4
f 159/2/4 160/2/4 165/2/4
f 164/1/4 159/1/4 165/1/4
f 160/1/4 161/1/4 166/1/4
f 165/2/4 160/2/4 166/2/4
f 161/3/4 124/3/4 167/3/4
f 166/1/4 161/1/4 167/1/4
f 163/3/4 164/3/4 168/3/4
f 168/3/4 164/3/4 169/3/4
f 165/3/4 166/3/4 170/3/4
f 170/3/4 166/3/4 171/3/4
f 163/3/4 168/3/4 172/3/4
f 168/2/4 169/2/4 172/2/4
f 169/3/4 164/3/4 173/3/4
f 172/2/4 169/2/4 173/2/4
f 170/2/4 171/2/4 174/2/4
f 165/3/4 170/3/4 174/3/4
f 171/3/4 166/3/4 175/3/4
f 174/2/4 171/2/4 175/2/4
f 163/3/4 172/3/4 176/3/4
f 172/4/4 173/4/4 176/4/4
f 173/3/4 164/3/4 177/3/4
f 176/4/4 173/4/4 177/4/4
f 165/3/4 174/3/4 178/3/4
f 174/4/4 175/4/4 178/4/4
f 175/3/4 166/3/4 179/3/4
f 178/4/4 175/4/4 179/4/4
f 162/2/4 163/2/4 181/2/4
f 163/3/4 176/3/4 182/3/4
f 176/2/4 177/2/4 182/2/4
f 177/3/4 164/3/4 183/3/4
f 182/2/4 177/2/4 183/2/4
f 165/3/4 178/3/4 184/3/4
f 178/2/4 179/2/4 184/2/4
f 179/3/4 166/3/4 185/3/4
f 184/2/4 179/2/4 185/2/4
f 180/3/4 181/3/4 186/3/4
f 181/2/4 163/2/4 186/2/4
f 163/3/4 182/3/4 187/3/4
f 186/2/4 163/2/4 187/2/4
f 182/3/4 183/3/4 187/3/4
f 183/3/4 164/3/4 188/3/4
f 187/3/4 183/3/4 188/3/4
f 164/2/4 165/2/4 188/2/4
f 165/3/4 184/3/4 189/3/4
f 188/2/4 165/2/4 189/2/4
f 184/3/4 185/3/4 189/3/4
f 166/2/4 167/2/4 190/2/4
f 189/3/4 185/3/4 190/3/4
f 185/3/4 166/3/4 190/3/4
f 167/3/4 124/3/4 191/3/4
f 190/2/4 167/2/4 191/2/4
f 180/3/4 186/3/4 192/3/4
f 186/1/4 187/1/4 193/1/4
f 192/3/4 186/3/4 193/3/4
f 187/2/4 188/2/4 194/2/4
f 193/1/4 187/1/4 194/1/4
f 188/1/4 189/1/4 195/1/4
f 194/2/4 188/2/4 195/2/4
f 189/2/4 190/2/4 196/2/4
f 195/1/4 189/1/4 196/1/4
f 190/1/4 191/1/4 197/1/4
f 196/2/4 190/2/4 197/2/4
f 191/3/4 124/3/4 198/3/4
f 197/1/4 191/1/4 198/1/4
f 198/3/4 124/3/4 199/3/4
f 199/3/4 124/3/4 200/3/4
f 205/3/5 202/3/5 201/3/5
f 206/3/5 202/3/5 205/3/5
f 207/3/5 204/3/5 203/3/5
f 208/3/5 204/3/5 207/3/5
f 213/2/5 210/2/5 209/2/5
f 214/1/5 211/1/5 210/1/5
f 214/2/5 210/2/5 213/2/5
f 215/2/5 212/2/5 211/2/5
f 215/1/5 211/1/5 214/1/5
f 216/2/5 212/2/5 215/2/5
f 221/3/5 218/3/5 217/3/5
f 222/3/5 218/3/5 221/3/5
f 223/3/5 220/3/5 219/3/5
f 224/3/5 220/3/5 223/3/5
f 225/3/6 226/3/6 227/3/6
f 227/3/6 226/3/6 228/3/6
