# MagicaVoxel @ Ephtracy

# group
o 

# material
mtllib Lamp.mtl
usemtl palette

# normals
vn -1 0 0
vn 1 0 0
vn 0 0 1
vn 0 0 -1
vn 0 -1 0
vn 0 1 0

# texcoords
vt 0.982422 0.5
vt 0.986328 0.5
vt 0.990234 0.5
vt 0.994141 0.5

# verts
v -0.5 1.9 0.1
v -0.5 1.9 0
v -0.5 2.3 0.1
v -0.5 2.3 0
v -0.4 0.3 0.1
v -0.4 0.3 0
v -0.4 0.4 0.1
v -0.4 0.4 0
v -0.4 2.3 0.1
v -0.4 2.3 0
v -0.4 2.8 0.1
v -0.4 2.8 0
v -0.3 0.4 0.1
v -0.3 0.4 0
v -0.3 0.5 0.1
v -0.3 0.5 0
v -0.3 2.8 0.1
v -0.3 2.8 0
v -0.3 3.1 0.1
v -0.3 3.1 0
v -0.2 0.5 0.1
v -0.2 0.5 0
v -0.2 0.6 0.1
v -0.2 0.6 0
v -0.1 0.6 0.1
v -0.1 0.6 0
v -0.1 1.9 0.1
v -0.1 1.9 0
v 0.1 1.5 0.1
v 0.1 1.5 0
v 0.1 1.6 0.1
v 0.1 1.6 0
v 0.1 1.9 0.1
v 0.1 1.9 0
v 0 0.6 0.1
v 0 0.6 0
v 0 1.9 0.1
v 0 1.9 0
v 0.1 0.5 0.1
v 0.1 0.5 0
v 0.1 0.6 0.1
v 0.1 0.6 0
v 0.2 0.4 0.1
v 0.2 0.4 0
v 0.2 0.5 0.1
v 0.2 0.5 0
v 0.2 1.5 0.1
v 0.2 1.5 0
v 0.2 1.6 0.1
v 0.2 1.6 0
v 0.2 1.9 0.1
v 0.2 1.9 0
v 0.2 2.8 0.1
v 0.2 2.8 0
v 0.2 3.1 0.1
v 0.2 3.1 0
v 0.3 0.3 0.1
v 0.3 0.3 0
v 0.3 0.4 0.1
v 0.3 0.4 0
v 0.3 2.3 0.1
v 0.3 2.3 0
v 0.3 2.8 0.1
v 0.3 2.8 0
v 0.4 1.9 0.1
v 0.4 1.9 0
v 0.4 2.3 0.1
v 0.4 2.3 0
v -0.5 1.9 0.1
v -0.5 2.3 0.1
v -0.4 0.3 0.1
v -0.4 0.4 0.1
v -0.4 2 0.1
v -0.4 2.3 0.1
v -0.4 2.8 0.1
v -0.3 0.4 0.1
v -0.3 0.5 0.1
v -0.3 2.1 0.1
v -0.3 2.3 0.1
v -0.3 2.6 0.1
v -0.3 2.8 0.1
v -0.3 3.1 0.1
v -0.2 0.5 0.1
v -0.2 0.6 0.1
v -0.2 2.6 0.1
v -0.2 2.8 0.1
v -0.2 3 0.1
v -0.1 0.6 0.1
v -0.1 1.9 0.1
v -0.1 2 0.1
v -0.1 2.1 0.1
v -0.1 2.8 0.1
v -0.1 3 0.1
v 0 0.6 0.1
v 0 1.9 0.1
v 0 2 0.1
v 0 2.3 0.1
v 0 2.5 0.1
v 0 3 0.1
v 0.1 0.5 0.1
v 0.1 0.6 0.1
v 0.1 1.5 0.1
v 0.1 1.6 0.1
v 0.1 1.9 0.1
v 0.1 2.1 0.1
v 0.1 2.3 0.1
v 0.1 2.5 0.1
v 0.1 2.8 0.1
v 0.1 3 0.1
v 0.2 0.4 0.1
v 0.2 0.5 0.1
v 0.2 1.5 0.1
v 0.2 1.6 0.1
v 0.2 1.9 0.1
v 0.2 2.1 0.1
v 0.2 2.3 0.1
v 0.2 2.8 0.1
v 0.2 3.1 0.1
v 0.3 0.3 0.1
v 0.3 0.4 0.1
v 0.3 2 0.1
v 0.3 2.3 0.1
v 0.3 2.8 0.1
v 0.4 1.9 0.1
v 0.4 2.3 0.1
v -0.5 1.9 0
v -0.5 2.3 0
v -0.4 0.3 0
v -0.4 0.4 0
v -0.4 2 0
v -0.4 2.3 0
v -0.4 2.8 0
v -0.3 0.4 0
v -0.3 0.5 0
v -0.3 2.1 0
v -0.3 2.3 0
v -0.3 2.6 0
v -0.3 2.8 0
v -0.3 3.1 0
v -0.2 0.5 0
v -0.2 0.6 0
v -0.2 2.6 0
v -0.2 2.8 0
v -0.2 3 0
v -0.1 0.6 0
v -0.1 1.9 0
v -0.1 2 0
v -0.1 2.1 0
v -0.1 2.8 0
v -0.1 3 0
v 0 0.6 0
v 0 1.9 0
v 0 2 0
v 0 2.3 0
v 0 2.5 0
v 0 3 0
v 0.1 0.5 0
v 0.1 0.6 0
v 0.1 1.5 0
v 0.1 1.6 0
v 0.1 1.9 0
v 0.1 2.1 0
v 0.1 2.3 0
v 0.1 2.5 0
v 0.1 2.8 0
v 0.1 3 0
v 0.2 0.4 0
v 0.2 0.5 0
v 0.2 1.5 0
v 0.2 1.6 0
v 0.2 1.9 0
v 0.2 2.1 0
v 0.2 2.3 0
v 0.2 2.8 0
v 0.2 3.1 0
v 0.3 0.3 0
v 0.3 0.4 0
v 0.3 2 0
v 0.3 2.3 0
v 0.3 2.8 0
v 0.4 1.9 0
v 0.4 2.3 0
v -0.4 0.3 0.1
v 0.3 0.3 0.1
v -0.4 0.3 0
v 0.3 0.3 0
v 0.1 1.5 0.1
v 0.2 1.5 0.1
v 0.1 1.5 0
v 0.2 1.5 0
v -0.5 1.9 0.1
v -0.1 1.9 0.1
v 0 1.9 0.1
v 0.1 1.9 0.1
v 0.2 1.9 0.1
v 0.4 1.9 0.1
v -0.5 1.9 0
v -0.1 1.9 0
v 0 1.9 0
v 0.1 1.9 0
v 0.2 1.9 0
v 0.4 1.9 0
v -0.4 0.4 0.1
v -0.3 0.4 0.1
v 0.2 0.4 0.1
v 0.3 0.4 0.1
v -0.4 0.4 0
v -0.3 0.4 0
v 0.2 0.4 0
v 0.3 0.4 0
v -0.3 0.5 0.1
v -0.2 0.5 0.1
v 0.1 0.5 0.1
v 0.2 0.5 0.1
v -0.3 0.5 0
v -0.2 0.5 0
v 0.1 0.5 0
v 0.2 0.5 0
v -0.2 0.6 0.1
v -0.1 0.6 0.1
v 0 0.6 0.1
v 0.1 0.6 0.1
v -0.2 0.6 0
v -0.1 0.6 0
v 0 0.6 0
v 0.1 0.6 0
v -0.5 2.3 0.1
v -0.4 2.3 0.1
v 0.3 2.3 0.1
v 0.4 2.3 0.1
v -0.5 2.3 0
v -0.4 2.3 0
v 0.3 2.3 0
v 0.4 2.3 0
v -0.4 2.8 0.1
v -0.3 2.8 0.1
v 0.2 2.8 0.1
v 0.3 2.8 0.1
v -0.4 2.8 0
v -0.3 2.8 0
v 0.2 2.8 0
v 0.3 2.8 0
v -0.3 3.1 0.1
v 0.2 3.1 0.1
v -0.3 3.1 0
v 0.2 3.1 0

# faces
f 3/3/1 2/3/1 1/3/1
f 4/3/1 2/3/1 3/3/1
f 7/4/1 6/4/1 5/4/1
f 8/4/1 6/4/1 7/4/1
f 11/3/1 10/3/1 9/3/1
f 12/3/1 10/3/1 11/3/1
f 15/3/1 14/3/1 13/3/1
f 16/3/1 14/3/1 15/3/1
f 19/3/1 18/3/1 17/3/1
f 20/3/1 18/3/1 19/3/1
f 23/4/1 22/4/1 21/4/1
f 24/4/1 22/4/1 23/4/1
f 27/4/1 26/4/1 25/4/1
f 28/4/1 26/4/1 27/4/1
f 31/3/1 30/3/1 29/3/1
f 32/3/1 30/3/1 31/3/1
f 33/4/1 32/4/1 31/4/1
f 34/4/1 32/4/1 33/4/1
f 35/4/2 36/4/2 37/4/2
f 37/4/2 36/4/2 38/4/2
f 39/4/2 40/4/2 41/4/2
f 41/4/2 40/4/2 42/4/2
f 43/3/2 44/3/2 45/3/2
f 45/3/2 44/3/2 46/3/2
f 47/3/2 48/3/2 49/3/2
f 49/3/2 48/3/2 50/3/2
f 49/4/2 50/4/2 51/4/2
f 51/4/2 50/4/2 52/4/2
f 53/3/2 54/3/2 55/3/2
f 55/3/2 54/3/2 56/3/2
f 57/4/2 58/4/2 59/4/2
f 59/4/2 58/4/2 60/4/2
f 61/3/2 62/3/2 63/3/2
f 63/3/2 62/3/2 64/3/2
f 65/3/2 66/3/2 67/3/2
f 67/3/2 66/3/2 68/3/2
f 73/3/3 70/3/3 69/3/3
f 74/3/3 70/3/3 73/3/3
f 76/4/3 72/4/3 71/4/3
f 78/1/3 74/1/3 73/1/3
f 79/3/3 75/3/3 74/3/3
f 79/1/3 74/1/3 78/1/3
f 80/3/3 75/3/3 79/3/3
f 81/3/3 75/3/3 80/3/3
f 83/3/3 77/3/3 76/3/3
f 85/2/3 79/2/3 78/2/3
f 85/2/3 80/2/3 79/2/3
f 85/1/3 81/1/3 80/1/3
f 86/3/3 82/3/3 81/3/3
f 86/1/3 81/1/3 85/1/3
f 87/3/3 82/3/3 86/3/3
f 88/4/3 84/4/3 83/4/3
f 89/3/3 73/3/3 69/3/3
f 90/1/3 78/1/3 73/1/3
f 90/3/3 73/3/3 89/3/3
f 91/2/3 85/2/3 78/2/3
f 91/1/3 78/1/3 90/1/3
f 91/2/3 86/2/3 85/2/3
f 92/1/3 87/1/3 86/1/3
f 92/2/3 86/2/3 91/2/3
f 93/3/3 82/3/3 87/3/3
f 93/1/3 87/1/3 92/1/3
f 94/4/3 89/4/3 88/4/3
f 94/4/3 88/4/3 83/4/3
f 95/3/3 93/3/3 92/3/3
f 95/4/3 89/4/3 94/4/3
f 95/3/3 90/3/3 89/3/3
f 95/3/3 91/3/3 90/3/3
f 95/3/3 92/3/3 91/3/3
f 96/3/3 93/3/3 95/3/3
f 97/3/3 93/3/3 96/3/3
f 98/3/3 93/3/3 97/3/3
f 99/3/3 82/3/3 93/3/3
f 99/3/3 93/3/3 98/3/3
f 100/4/3 94/4/3 83/4/3
f 100/3/3 83/3/3 76/3/3
f 101/4/3 94/4/3 100/4/3
f 104/3/3 96/3/3 95/3/3
f 105/1/3 97/1/3 96/1/3
f 106/2/3 98/2/3 97/2/3
f 106/1/3 97/1/3 105/1/3
f 107/1/3 99/1/3 98/1/3
f 107/2/3 98/2/3 106/2/3
f 108/1/3 99/1/3 107/1/3
f 109/3/3 82/3/3 99/3/3
f 109/1/3 99/1/3 108/1/3
f 110/4/3 76/4/3 71/4/3
f 110/3/3 100/3/3 76/3/3
f 111/3/3 100/3/3 110/3/3
f 112/3/3 103/3/3 102/3/3
f 113/4/3 104/4/3 103/4/3
f 113/3/3 103/3/3 112/3/3
f 114/3/3 96/3/3 104/3/3
f 114/4/3 104/4/3 113/4/3
f 115/1/3 105/1/3 96/1/3
f 115/2/3 108/2/3 107/2/3
f 115/2/3 106/2/3 105/2/3
f 115/2/3 107/2/3 106/2/3
f 116/2/3 108/2/3 115/2/3
f 117/3/3 109/3/3 108/3/3
f 117/2/3 108/2/3 116/2/3
f 118/3/3 82/3/3 109/3/3
f 118/3/3 109/3/3 117/3/3
f 119/4/3 110/4/3 71/4/3
f 120/4/3 110/4/3 119/4/3
f 121/3/3 96/3/3 114/3/3
f 121/1/3 115/1/3 96/1/3
f 121/1/3 116/1/3 115/1/3
f 122/3/3 117/3/3 116/3/3
f 122/1/3 116/1/3 121/1/3
f 123/3/3 117/3/3 122/3/3
f 124/3/3 121/3/3 114/3/3
f 124/3/3 122/3/3 121/3/3
f 125/3/3 122/3/3 124/3/3
f 126/3/4 127/3/4 130/3/4
f 130/3/4 127/3/4 131/3/4
f 128/4/4 129/4/4 133/4/4
f 130/1/4 131/1/4 135/1/4
f 131/3/4 132/3/4 136/3/4
f 135/1/4 131/1/4 136/1/4
f 136/3/4 132/3/4 137/3/4
f 137/3/4 132/3/4 138/3/4
f 133/3/4 134/3/4 140/3/4
f 135/2/4 136/2/4 142/2/4
f 136/2/4 137/2/4 142/2/4
f 137/1/4 138/1/4 142/1/4
f 138/3/4 139/3/4 143/3/4
f 142/1/4 138/1/4 143/1/4
f 143/3/4 139/3/4 144/3/4
f 140/4/4 141/4/4 145/4/4
f 126/3/4 130/3/4 146/3/4
f 130/1/4 135/1/4 147/1/4
f 146/3/4 130/3/4 147/3/4
f 135/2/4 142/2/4 148/2/4
f 147/1/4 135/1/4 148/1/4
f 142/2/4 143/2/4 148/2/4
f 143/1/4 144/1/4 149/1/4
f 148/2/4 143/2/4 149/2/4
f 144/3/4 139/3/4 150/3/4
f 149/1/4 144/1/4 150/1/4
f 145/4/4 146/4/4 151/4/4
f 140/4/4 145/4/4 151/4/4
f 149/3/4 150/3/4 152/3/4
f 151/4/4 146/4/4 152/4/4
f 146/3/4 147/3/4 152/3/4
f 147/3/4 148/3/4 152/3/4
f 148/3/4 149/3/4 152/3/4
f 152/3/4 150/3/4 153/3/4
f 153/3/4 150/3/4 154/3/4
f 154/3/4 150/3/4 155/3/4
f 150/3/4 139/3/4 156/3/4
f 155/3/4 150/3/4 156/3/4
f 140/4/4 151/4/4 157/4/4
f 133/3/4 140/3/4 157/3/4
f 157/4/4 151/4/4 158/4/4
f 152/3/4 153/3/4 161/3/4
f 153/1/4 154/1/4 162/1/4
f 154/2/4 155/2/4 163/2/4
f 162/1/4 154/1/4 163/1/4
f 155/1/4 156/1/4 164/1/4
f 163/2/4 155/2/4 164/2/4
f 164/1/4 156/1/4 165/1/4
f 156/3/4 139/3/4 166/3/4
f 165/1/4 156/1/4 166/1/4
f 128/4/4 133/4/4 167/4/4
f 133/3/4 157/3/4 167/3/4
f 167/3/4 157/3/4 168/3/4
f 159/3/4 160/3/4 169/3/4
f 160/4/4 161/4/4 170/4/4
f 169/3/4 160/3/4 170/3/4
f 161/3/4 153/3/4 171/3/4
f 170/4/4 161/4/4 171/4/4
f 153/1/4 162/1/4 172/1/4
f 164/2/4 165/2/4 172/2/4
f 162/2/4 163/2/4 172/2/4
f 163/2/4 164/2/4 172/2/4
f 172/2/4 165/2/4 173/2/4
f 165/3/4 166/3/4 174/3/4
f 173/2/4 165/2/4 174/2/4
f 166/3/4 139/3/4 175/3/4
f 174/3/4 166/3/4 175/3/4
f 128/4/4 167/4/4 176/4/4
f 176/4/4 167/4/4 177/4/4
f 171/3/4 153/3/4 178/3/4
f 153/1/4 172/1/4 178/1/4
f 172/1/4 173/1/4 178/1/4
f 173/3/4 174/3/4 179/3/4
f 178/1/4 173/1/4 179/1/4
f 179/3/4 174/3/4 180/3/4
f 171/3/4 178/3/4 181/3/4
f 178/3/4 179/3/4 181/3/4
f 181/3/4 179/3/4 182/3/4
f 185/4/5 184/4/5 183/4/5
f 186/4/5 184/4/5 185/4/5
f 189/3/5 188/3/5 187/3/5
f 190/3/5 188/3/5 189/3/5
f 197/3/5 192/3/5 191/3/5
f 198/3/5 192/3/5 197/3/5
f 199/3/5 194/3/5 193/3/5
f 200/3/5 194/3/5 199/3/5
f 201/3/5 196/3/5 195/3/5
f 202/3/5 196/3/5 201/3/5
f 203/4/6 204/4/6 207/4/6
f 207/4/6 204/4/6 208/4/6
f 205/4/6 206/4/6 209/4/6
f 209/4/6 206/4/6 210/4/6
f 211/3/6 212/3/6 215/3/6
f 215/3/6 212/3/6 216/3/6
f 213/3/6 214/3/6 217/3/6
f 217/3/6 214/3/6 218/3/6
f 219/4/6 220/4/6 223/4/6
f 223/4/6 220/4/6 224/4/6
f 221/4/6 222/4/6 225/4/6
f 225/4/6 222/4/6 226/4/6
f 227/3/6 228/3/6 231/3/6
f 231/3/6 228/3/6 232/3/6
f 229/3/6 230/3/6 233/3/6
f 233/3/6 230/3/6 234/3/6
f 235/3/6 236/3/6 239/3/6
f 239/3/6 236/3/6 240/3/6
f 237/3/6 238/3/6 241/3/6
f 241/3/6 238/3/6 242/3/6
f 243/3/6 244/3/6 245/3/6
f 245/3/6 244/3/6 246/3/6
