# MagicaVoxel @ Ephtracy

# group
o 

# material
mtllib Pictur2.mtl
usemtl palette

# normals
vn -1 0 0
vn 1 0 0
vn 0 0 1
vn 0 0 -1
vn 0 -1 0
vn 0 1 0

# texcoords
vt 0.943359 0.5
vt 0.947266 0.5
vt 0.955078 0.5
vt 0.958984 0.5
vt 0.978516 0.5

# verts
v -1.4 0.7 0.1
v -1.4 0.7 0
v -1.4 2.1 0.1
v -1.4 2.1 0
v 1.1 0.7 0.1
v 1.1 0.7 0
v 1.1 2.1 0.1
v 1.1 2.1 0
v -1.4 0.7 0.1
v -1.4 2.1 0.1
v -1.3 0.8 0.1
v -1.3 1.3 0.1
v -1.3 2 0.1
v -1.2 1.1 0.1
v -1.2 1.2 0.1
v -1.2 1.3 0.1
v -1.2 1.4 0.1
v -1.1 1 0.1
v -1.1 1.1 0.1
v -1.1 1.2 0.1
v -1.1 1.3 0.1
v -1 1 0.1
v -1 1.1 0.1
v -1 1.2 0.1
v -1 1.3 0.1
v -1 1.4 0.1
v -1 1.7 0.1
v -1 1.8 0.1
v -0.9 1.1 0.1
v -0.9 1.2 0.1
v -0.9 1.6 0.1
v -0.9 1.7 0.1
v -0.9 1.8 0.1
v -0.9 1.9 0.1
v -0.8 1.2 0.1
v -0.8 1.3 0.1
v -0.8 1.4 0.1
v -0.7 1.1 0.1
v -0.7 1.2 0.1
v -0.7 1.4 0.1
v -0.7 1.5 0.1
v -0.6 1.1 0.1
v -0.6 1.2 0.1
v -0.6 1.4 0.1
v -0.6 1.5 0.1
v -0.6 1.6 0.1
v -0.6 1.7 0.1
v -0.6 1.8 0.1
v -0.6 1.9 0.1
v -0.5 1 0.1
v -0.5 1.2 0.1
v -0.5 1.4 0.1
v -0.5 1.7 0.1
v -0.5 1.8 0.1
v -0.4 0.9 0.1
v -0.4 1 0.1
v -0.4 1.2 0.1
v -0.4 1.3 0.1
v -0.3 0.9 0.1
v -0.3 1 0.1
v -0.3 1.2 0.1
v -0.3 1.3 0.1
v -0.3 1.6 0.1
v -0.3 1.7 0.1
v -0.2 1 0.1
v -0.2 1.2 0.1
v -0.2 1.3 0.1
v -0.1 1.2 0.1
v -0.1 1.3 0.1
v -0.1 1.6 0.1
v -0.1 1.7 0.1
v 0 1.1 0.1
v 0 1.2 0.1
v 0 1.3 0.1
v 0 1.5 0.1
v 0 1.7 0.1
v 0 1.8 0.1
v 0.1 1 0.1
v 0.1 1.1 0.1
v 0.1 1.5 0.1
v 0.1 1.6 0.1
v 0.2 1 0.1
v 0.2 1.1 0.1
v 0.2 1.5 0.1
v 0.2 1.6 0.1
v 0.2 1.8 0.1
v 0.2 1.9 0.1
v 0.3 1.1 0.1
v 0.3 1.2 0.1
v 0.3 1.3 0.1
v 0.3 1.5 0.1
v 0.4 1.2 0.1
v 0.4 1.3 0.1
v 0.4 1.7 0.1
v 0.4 1.8 0.1
v 0.5 1.1 0.1
v 0.5 1.2 0.1
v 0.5 1.5 0.1
v 0.6 1.1 0.1
v 0.6 1.2 0.1
v 0.6 1.5 0.1
v 0.6 1.7 0.1
v 0.6 1.8 0.1
v 0.6 1.9 0.1
v 0.7 1.1 0.1
v 0.7 1.2 0.1
v 0.7 1.5 0.1
v 0.7 1.7 0.1
v 0.8 1.2 0.1
v 0.8 1.3 0.1
v 0.8 1.5 0.1
v 0.8 1.9 0.1
v 0.8 2 0.1
v 0.9 1.2 0.1
v 0.9 1.3 0.1
v 1 0.8 0.1
v 1 1.2 0.1
v 1 1.9 0.1
v 1 2 0.1
v 1.1 0.7 0.1
v 1.1 2.1 0.1
v -1.4 0.7 0
v -1.4 2.1 0
v -1.3 0.8 0
v -1.3 1.3 0
v -1.3 2 0
v -1.2 1.1 0
v -1.2 1.2 0
v -1.2 1.3 0
v -1.2 1.4 0
v -1.1 1 0
v -1.1 1.1 0
v -1.1 1.2 0
v -1.1 1.3 0
v -1 1 0
v -1 1.1 0
v -1 1.2 0
v -1 1.3 0
v -1 1.4 0
v -1 1.7 0
v -1 1.8 0
v -0.9 1.1 0
v -0.9 1.2 0
v -0.9 1.6 0
v -0.9 1.7 0
v -0.9 1.8 0
v -0.9 1.9 0
v -0.8 1.2 0
v -0.8 1.3 0
v -0.8 1.4 0
v -0.7 1.1 0
v -0.7 1.2 0
v -0.7 1.4 0
v -0.7 1.5 0
v -0.6 1.1 0
v -0.6 1.2 0
v -0.6 1.4 0
v -0.6 1.5 0
v -0.6 1.6 0
v -0.6 1.7 0
v -0.6 1.8 0
v -0.6 1.9 0
v -0.5 1 0
v -0.5 1.2 0
v -0.5 1.4 0
v -0.5 1.7 0
v -0.5 1.8 0
v -0.4 0.9 0
v -0.4 1 0
v -0.4 1.2 0
v -0.4 1.3 0
v -0.3 0.9 0
v -0.3 1 0
v -0.3 1.2 0
v -0.3 1.3 0
v -0.3 1.6 0
v -0.3 1.7 0
v -0.2 1 0
v -0.2 1.2 0
v -0.2 1.3 0
v -0.1 1.2 0
v -0.1 1.3 0
v -0.1 1.6 0
v -0.1 1.7 0
v 0 1.1 0
v 0 1.2 0
v 0 1.3 0
v 0 1.5 0
v 0 1.7 0
v 0 1.8 0
v 0.1 1 0
v 0.1 1.1 0
v 0.1 1.5 0
v 0.1 1.6 0
v 0.2 1 0
v 0.2 1.1 0
v 0.2 1.5 0
v 0.2 1.6 0
v 0.2 1.8 0
v 0.2 1.9 0
v 0.3 1.1 0
v 0.3 1.2 0
v 0.3 1.3 0
v 0.3 1.5 0
v 0.4 1.2 0
v 0.4 1.3 0
v 0.4 1.7 0
v 0.4 1.8 0
v 0.5 1.1 0
v 0.5 1.2 0
v 0.5 1.5 0
v 0.6 1.1 0
v 0.6 1.2 0
v 0.6 1.5 0
v 0.6 1.7 0
v 0.6 1.8 0
v 0.6 1.9 0
v 0.7 1.1 0
v 0.7 1.2 0
v 0.7 1.5 0
v 0.7 1.7 0
v 0.8 1.2 0
v 0.8 1.3 0
v 0.8 1.5 0
v 0.8 1.9 0
v 0.8 2 0
v 0.9 1.2 0
v 0.9 1.3 0
v 1 0.8 0
v 1 1.2 0
v 1 1.9 0
v 1 2 0
v 1.1 0.7 0
v 1.1 2.1 0
v -1.4 0.7 0.1
v 1.1 0.7 0.1
v -1.4 0.7 0
v 1.1 0.7 0
v -1.4 2.1 0.1
v 1.1 2.1 0.1
v -1.4 2.1 0
v 1.1 2.1 0

# faces
f 3/5/1 2/5/1 1/5/1
f 4/5/1 2/5/1 3/5/1
f 5/5/2 6/5/2 7/5/2
f 7/5/2 6/5/2 8/5/2
f 11/5/3 10/5/3 9/5/3
f 12/5/3 10/5/3 11/5/3
f 13/5/3 10/5/3 12/5/3
f 14/2/3 12/2/3 11/2/3
f 15/2/3 12/2/3 14/2/3
f 16/3/3 13/3/3 12/3/3
f 16/2/3 12/2/3 15/2/3
f 17/3/3 13/3/3 16/3/3
f 18/2/3 14/2/3 11/2/3
f 19/1/3 15/1/3 14/1/3
f 19/2/3 14/2/3 18/2/3
f 20/2/3 16/2/3 15/2/3
f 20/1/3 15/1/3 19/1/3
f 20/2/3 17/2/3 16/2/3
f 21/2/3 17/2/3 20/2/3
f 22/2/3 18/2/3 11/2/3
f 22/5/3 19/5/3 18/5/3
f 23/1/3 21/1/3 20/1/3
f 23/5/3 19/5/3 22/5/3
f 23/1/3 20/1/3 19/1/3
f 24/1/3 21/1/3 23/1/3
f 25/2/3 17/2/3 21/2/3
f 25/1/3 21/1/3 24/1/3
f 26/3/3 13/3/3 17/3/3
f 26/2/3 17/2/3 25/2/3
f 27/3/3 13/3/3 26/3/3
f 28/3/3 13/3/3 27/3/3
f 29/1/3 24/1/3 23/1/3
f 29/2/3 23/2/3 22/2/3
f 30/2/3 25/2/3 24/2/3
f 30/1/3 24/1/3 29/1/3
f 31/3/3 26/3/3 25/3/3
f 31/3/3 27/3/3 26/3/3
f 32/4/3 28/4/3 27/4/3
f 32/3/3 27/3/3 31/3/3
f 33/3/3 13/3/3 28/3/3
f 33/4/3 28/4/3 32/4/3
f 34/3/3 13/3/3 33/3/3
f 35/2/3 25/2/3 30/2/3
f 35/2/3 30/2/3 29/2/3
f 36/3/3 31/3/3 25/3/3
f 36/2/3 25/2/3 35/2/3
f 37/3/3 31/3/3 36/3/3
f 38/2/3 29/2/3 22/2/3
f 38/2/3 35/2/3 29/2/3
f 39/1/3 37/1/3 36/1/3
f 39/2/3 35/2/3 38/2/3
f 39/1/3 36/1/3 35/1/3
f 40/3/3 31/3/3 37/3/3
f 40/1/3 37/1/3 39/1/3
f 41/3/3 31/3/3 40/3/3
f 42/5/3 39/5/3 38/5/3
f 42/2/3 38/2/3 22/2/3
f 43/1/3 41/1/3 40/1/3
f 43/5/3 39/5/3 42/5/3
f 43/1/3 40/1/3 39/1/3
f 44/1/3 41/1/3 43/1/3
f 45/3/3 31/3/3 41/3/3
f 45/1/3 41/1/3 44/1/3
f 46/4/3 32/4/3 31/4/3
f 46/3/3 31/3/3 45/3/3
f 46/4/3 34/4/3 33/4/3
f 46/4/3 33/4/3 32/4/3
f 47/4/3 34/4/3 46/4/3
f 48/4/3 34/4/3 47/4/3
f 49/3/3 13/3/3 34/3/3
f 49/4/3 34/4/3 48/4/3
f 50/2/3 22/2/3 11/2/3
f 50/2/3 42/2/3 22/2/3
f 50/2/3 43/2/3 42/2/3
f 51/1/3 44/1/3 43/1/3
f 51/2/3 43/2/3 50/2/3
f 52/3/3 45/3/3 44/3/3
f 52/1/3 44/1/3 51/1/3
f 52/3/3 47/3/3 46/3/3
f 52/3/3 46/3/3 45/3/3
f 53/4/3 48/4/3 47/4/3
f 53/3/3 47/3/3 52/3/3
f 54/3/3 49/3/3 48/3/3
f 54/4/3 48/4/3 53/4/3
f 55/2/3 50/2/3 11/2/3
f 56/1/3 51/1/3 50/1/3
f 56/2/3 50/2/3 55/2/3
f 57/3/3 53/3/3 52/3/3
f 57/1/3 51/1/3 56/1/3
f 57/3/3 52/3/3 51/3/3
f 57/3/3 54/3/3 53/3/3
f 58/3/3 54/3/3 57/3/3
f 59/2/3 55/2/3 11/2/3
f 59/5/3 56/5/3 55/5/3
f 60/1/3 58/1/3 57/1/3
f 60/5/3 56/5/3 59/5/3
f 60/1/3 57/1/3 56/1/3
f 61/1/3 58/1/3 60/1/3
f 62/3/3 54/3/3 58/3/3
f 62/1/3 58/1/3 61/1/3
f 63/3/3 54/3/3 62/3/3
f 64/3/3 54/3/3 63/3/3
f 65/1/3 61/1/3 60/1/3
f 65/2/3 60/2/3 59/2/3
f 66/3/3 62/3/3 61/3/3
f 66/1/3 61/1/3 65/1/3
f 66/3/3 63/3/3 62/3/3
f 67/3/3 63/3/3 66/3/3
f 68/2/3 66/2/3 65/2/3
f 68/2/3 67/2/3 66/2/3
f 69/3/3 63/3/3 67/3/3
f 69/2/3 67/2/3 68/2/3
f 70/4/3 64/4/3 63/4/3
f 70/3/3 63/3/3 69/3/3
f 71/3/3 54/3/3 64/3/3
f 71/4/3 64/4/3 70/4/3
f 72/2/3 68/2/3 65/2/3
f 73/1/3 69/1/3 68/1/3
f 73/2/3 68/2/3 72/2/3
f 74/3/3 70/3/3 69/3/3
f 74/1/3 69/1/3 73/1/3
f 74/3/3 71/3/3 70/3/3
f 75/3/3 71/3/3 74/3/3
f 76/3/3 54/3/3 71/3/3
f 76/3/3 71/3/3 75/3/3
f 77/3/3 49/3/3 54/3/3
f 77/3/3 54/3/3 76/3/3
f 78/2/3 72/2/3 65/2/3
f 78/2/3 65/2/3 59/2/3
f 79/1/3 73/1/3 72/1/3
f 79/2/3 72/2/3 78/2/3
f 79/1/3 75/1/3 74/1/3
f 79/1/3 74/1/3 73/1/3
f 80/3/3 76/3/3 75/3/3
f 80/1/3 75/1/3 79/1/3
f 81/3/3 76/3/3 80/3/3
f 82/2/3 78/2/3 59/2/3
f 82/5/3 79/5/3 78/5/3
f 83/1/3 81/1/3 80/1/3
f 83/5/3 79/5/3 82/5/3
f 83/1/3 80/1/3 79/1/3
f 84/1/3 81/1/3 83/1/3
f 85/3/3 76/3/3 81/3/3
f 85/1/3 81/1/3 84/1/3
f 86/3/3 49/3/3 77/3/3
f 86/4/3 77/4/3 76/4/3
f 87/3/3 13/3/3 49/3/3
f 87/3/3 49/3/3 86/3/3
f 88/1/3 84/1/3 83/1/3
f 88/2/3 83/2/3 82/2/3
f 89/1/3 84/1/3 88/1/3
f 90/1/3 84/1/3 89/1/3
f 91/3/3 85/3/3 84/3/3
f 91/1/3 84/1/3 90/1/3
f 92/1/3 90/1/3 89/1/3
f 92/2/3 89/2/3 88/2/3
f 93/3/3 91/3/3 90/3/3
f 93/1/3 90/1/3 92/1/3
f 94/4/3 86/4/3 76/4/3
f 94/3/3 91/3/3 93/3/3
f 94/3/3 76/3/3 85/3/3
f 94/3/3 85/3/3 91/3/3
f 94/4/3 87/4/3 86/4/3
f 95/4/3 87/4/3 94/4/3
f 96/2/3 92/2/3 88/2/3
f 96/2/3 88/2/3 82/2/3
f 97/3/3 93/3/3 92/3/3
f 97/2/3 92/2/3 96/2/3
f 97/3/3 95/3/3 94/3/3
f 97/3/3 94/3/3 93/3/3
f 98/3/3 95/3/3 97/3/3
f 99/2/3 96/2/3 82/2/3
f 99/3/3 97/3/3 96/3/3
f 100/1/3 98/1/3 97/1/3
f 100/3/3 97/3/3 99/3/3
f 101/3/3 95/3/3 98/3/3
f 101/1/3 98/1/3 100/1/3
f 102/3/3 95/3/3 101/3/3
f 103/4/3 87/4/3 95/4/3
f 103/3/3 95/3/3 102/3/3
f 104/3/3 13/3/3 87/3/3
f 104/4/3 87/4/3 103/4/3
f 105/5/3 100/5/3 99/5/3
f 105/2/3 99/2/3 82/2/3
f 106/1/3 102/1/3 101/1/3
f 106/5/3 100/5/3 105/5/3
f 106/1/3 101/1/3 100/1/3
f 107/1/3 102/1/3 106/1/3
f 108/3/3 103/3/3 102/3/3
f 108/1/3 102/1/3 107/1/3
f 108/3/3 104/3/3 103/3/3
f 109/1/3 107/1/3 106/1/3
f 109/2/3 106/2/3 105/2/3
f 110/1/3 107/1/3 109/1/3
f 111/3/3 108/3/3 107/3/3
f 111/1/3 107/1/3 110/1/3
f 112/3/3 104/3/3 108/3/3
f 112/3/3 108/3/3 111/3/3
f 112/3/3 13/3/3 104/3/3
f 113/5/3 10/5/3 13/5/3
f 113/3/3 13/3/3 112/3/3
f 114/2/3 109/2/3 105/2/3
f 114/2/3 110/2/3 109/2/3
f 115/3/3 112/3/3 111/3/3
f 115/2/3 110/2/3 114/2/3
f 115/3/3 111/3/3 110/3/3
f 116/5/3 11/5/3 9/5/3
f 116/2/3 114/2/3 105/2/3
f 116/2/3 82/2/3 59/2/3
f 116/2/3 105/2/3 82/2/3
f 116/2/3 59/2/3 11/2/3
f 117/3/3 115/3/3 114/3/3
f 117/2/3 114/2/3 116/2/3
f 118/3/3 112/3/3 115/3/3
f 118/3/3 115/3/3 117/3/3
f 118/4/3 113/4/3 112/4/3
f 119/5/3 10/5/3 113/5/3
f 119/4/3 113/4/3 118/4/3
f 120/5/3 117/5/3 116/5/3
f 120/5/3 116/5/3 9/5/3
f 120/5/3 119/5/3 118/5/3
f 120/5/3 118/5/3 117/5/3
f 121/5/3 10/5/3 119/5/3
f 121/5/3 119/5/3 120/5/3
f 122/5/4 123/5/4 124/5/4
f 124/5/4 123/5/4 125/5/4
f 125/5/4 123/5/4 126/5/4
f 124/2/4 125/2/4 127/2/4
f 127/2/4 125/2/4 128/2/4
f 125/3/4 126/3/4 129/3/4
f 128/2/4 125/2/4 129/2/4
f 129/3/4 126/3/4 130/3/4
f 124/2/4 127/2/4 131/2/4
f 127/1/4 128/1/4 132/1/4
f 131/2/4 127/2/4 132/2/4
f 128/2/4 129/2/4 133/2/4
f 132/1/4 128/1/4 133/1/4
f 129/2/4 130/2/4 133/2/4
f 133/2/4 130/2/4 134/2/4
f 124/2/4 131/2/4 135/2/4
f 131/5/4 132/5/4 135/5/4
f 133/1/4 134/1/4 136/1/4
f 135/5/4 132/5/4 136/5/4
f 132/1/4 133/1/4 136/1/4
f 136/1/4 134/1/4 137/1/4
f 134/2/4 130/2/4 138/2/4
f 137/1/4 134/1/4 138/1/4
f 130/3/4 126/3/4 139/3/4
f 138/2/4 130/2/4 139/2/4
f 139/3/4 126/3/4 140/3/4
f 140/3/4 126/3/4 141/3/4
f 136/1/4 137/1/4 142/1/4
f 135/2/4 136/2/4 142/2/4
f 137/2/4 138/2/4 143/2/4
f 142/1/4 137/1/4 143/1/4
f 138/3/4 139/3/4 144/3/4
f 139/3/4 140/3/4 144/3/4
f 140/4/4 141/4/4 145/4/4
f 144/3/4 140/3/4 145/3/4
f 141/3/4 126/3/4 146/3/4
f 145/4/4 141/4/4 146/4/4
f 146/3/4 126/3/4 147/3/4
f 143/2/4 138/2/4 148/2/4
f 142/2/4 143/2/4 148/2/4
f 138/3/4 144/3/4 149/3/4
f 148/2/4 138/2/4 149/2/4
f 149/3/4 144/3/4 150/3/4
f 135/2/4 142/2/4 151/2/4
f 142/2/4 148/2/4 151/2/4
f 149/1/4 150/1/4 152/1/4
f 151/2/4 148/2/4 152/2/4
f 148/1/4 149/1/4 152/1/4
f 150/3/4 144/3/4 153/3/4
f 152/1/4 150/1/4 153/1/4
f 153/3/4 144/3/4 154/3/4
f 151/5/4 152/5/4 155/5/4
f 135/2/4 151/2/4 155/2/4
f 153/1/4 154/1/4 156/1/4
f 155/5/4 152/5/4 156/5/4
f 152/1/4 153/1/4 156/1/4
f 156/1/4 154/1/4 157/1/4
f 154/3/4 144/3/4 158/3/4
f 157/1/4 154/1/4 158/1/4
f 144/4/4 145/4/4 159/4/4
f 158/3/4 144/3/4 159/3/4
f 146/4/4 147/4/4 159/4/4
f 145/4/4 146/4/4 159/4/4
f 159/4/4 147/4/4 160/4/4
f 160/4/4 147/4/4 161/4/4
f 147/3/4 126/3/4 162/3/4
f 161/4/4 147/4/4 162/4/4
f 124/2/4 135/2/4 163/2/4
f 135/2/4 155/2/4 163/2/4
f 155/2/4 156/2/4 163/2/4
f 156/1/4 157/1/4 164/1/4
f 163/2/4 156/2/4 164/2/4
f 157/3/4 158/3/4 165/3/4
f 164/1/4 157/1/4 165/1/4
f 159/3/4 160/3/4 165/3/4
f 158/3/4 159/3/4 165/3/4
f 160/4/4 161/4/4 166/4/4
f 165/3/4 160/3/4 166/3/4
f 161/3/4 162/3/4 167/3/4
f 166/4/4 161/4/4 167/4/4
f 124/2/4 163/2/4 168/2/4
f 163/1/4 164/1/4 169/1/4
f 168/2/4 163/2/4 169/2/4
f 165/3/4 166/3/4 170/3/4
f 169/1/4 164/1/4 170/1/4
f 164/3/4 165/3/4 170/3/4
f 166/3/4 167/3/4 170/3/4
f 170/3/4 167/3/4 171/3/4
f 124/2/4 168/2/4 172/2/4
f 168/5/4 169/5/4 172/5/4
f 170/1/4 171/1/4 173/1/4
f 172/5/4 169/5/4 173/5/4
f 169/1/4 170/1/4 173/1/4
f 173/1/4 171/1/4 174/1/4
f 171/3/4 167/3/4 175/3/4
f 174/1/4 171/1/4 175/1/4
f 175/3/4 167/3/4 176/3/4
f 176/3/4 167/3/4 177/3/4
f 173/1/4 174/1/4 178/1/4
f 172/2/4 173/2/4 178/2/4
f 174/3/4 175/3/4 179/3/4
f 178/1/4 174/1/4 179/1/4
f 175/3/4 176/3/4 179/3/4
f 179/3/4 176/3/4 180/3/4
f 178/2/4 179/2/4 181/2/4
f 179/2/4 180/2/4 181/2/4
f 180/3/4 176/3/4 182/3/4
f 181/2/4 180/2/4 182/2/4
f 176/4/4 177/4/4 183/4/4
f 182/3/4 176/3/4 183/3/4
f 177/3/4 167/3/4 184/3/4
f 183/4/4 177/4/4 184/4/4
f 178/2/4 181/2/4 185/2/4
f 181/1/4 182/1/4 186/1/4
f 185/2/4 181/2/4 186/2/4
f 182/3/4 183/3/4 187/3/4
f 186/1/4 182/1/4 187/1/4
f 183/3/4 184/3/4 187/3/4
f 187/3/4 184/3/4 188/3/4
f 184/3/4 167/3/4 189/3/4
f 188/3/4 184/3/4 189/3/4
f 167/3/4 162/3/4 190/3/4
f 189/3/4 167/3/4 190/3/4
f 178/2/4 185/2/4 191/2/4
f 172/2/4 178/2/4 191/2/4
f 185/1/4 186/1/4 192/1/4
f 191/2/4 185/2/4 192/2/4
f 187/1/4 188/1/4 192/1/4
f 186/1/4 187/1/4 192/1/4
f 188/3/4 189/3/4 193/3/4
f 192/1/4 188/1/4 193/1/4
f 193/3/4 189/3/4 194/3/4
f 172/2/4 191/2/4 195/2/4
f 191/5/4 192/5/4 195/5/4
f 193/1/4 194/1/4 196/1/4
f 195/5/4 192/5/4 196/5/4
f 192/1/4 193/1/4 196/1/4
f 196/1/4 194/1/4 197/1/4
f 194/3/4 189/3/4 198/3/4
f 197/1/4 194/1/4 198/1/4
f 190/3/4 162/3/4 199/3/4
f 189/4/4 190/4/4 199/4/4
f 162/3/4 126/3/4 200/3/4
f 199/3/4 162/3/4 200/3/4
f 196/1/4 197/1/4 201/1/4
f 195/2/4 196/2/4 201/2/4
f 201/1/4 197/1/4 202/1/4
f 202/1/4 197/1/4 203/1/4
f 197/3/4 198/3/4 204/3/4
f 203/1/4 197/1/4 204/1/4
f 202/1/4 203/1/4 205/1/4
f 201/2/4 202/2/4 205/2/4
f 203/3/4 204/3/4 206/3/4
f 205/1/4 203/1/4 206/1/4
f 189/4/4 199/4/4 207/4/4
f 206/3/4 204/3/4 207/3/4
f 198/3/4 189/3/4 207/3/4
f 204/3/4 198/3/4 207/3/4
f 199/4/4 200/4/4 207/4/4
f 207/4/4 200/4/4 208/4/4
f 201/2/4 205/2/4 209/2/4
f 195/2/4 201/2/4 209/2/4
f 205/3/4 206/3/4 210/3/4
f 209/2/4 205/2/4 210/2/4
f 207/3/4 208/3/4 210/3/4
f 206/3/4 207/3/4 210/3/4
f 210/3/4 208/3/4 211/3/4
f 195/2/4 209/2/4 212/2/4
f 209/3/4 210/3/4 212/3/4
f 210/1/4 211/1/4 213/1/4
f 212/3/4 210/3/4 213/3/4
f 211/3/4 208/3/4 214/3/4
f 213/1/4 211/1/4 214/1/4
f 214/3/4 208/3/4 215/3/4
f 208/4/4 200/4/4 216/4/4
f 215/3/4 208/3/4 216/3/4
f 200/3/4 126/3/4 217/3/4
f 216/4/4 200/4/4 217/4/4
f 212/5/4 213/5/4 218/5/4
f 195/2/4 212/2/4 218/2/4
f 214/1/4 215/1/4 219/1/4
f 218/5/4 213/5/4 219/5/4
f 213/1/4 214/1/4 219/1/4
f 219/1/4 215/1/4 220/1/4
f 215/3/4 216/3/4 221/3/4
f 220/1/4 215/1/4 221/1/4
f 216/3/4 217/3/4 221/3/4
f 219/1/4 220/1/4 222/1/4
f 218/2/4 219/2/4 222/2/4
f 222/1/4 220/1/4 223/1/4
f 220/3/4 221/3/4 224/3/4
f 223/1/4 220/1/4 224/1/4
f 221/3/4 217/3/4 225/3/4
f 224/3/4 221/3/4 225/3/4
f 217/3/4 126/3/4 225/3/4
f 126/5/4 123/5/4 226/5/4
f 225/3/4 126/3/4 226/3/4
f 218/2/4 222/2/4 227/2/4
f 222/2/4 223/2/4 227/2/4
f 224/3/4 225/3/4 228/3/4
f 227/2/4 223/2/4 228/2/4
f 223/3/4 224/3/4 228/3/4
f 122/5/4 124/5/4 229/5/4
f 218/2/4 227/2/4 229/2/4
f 172/2/4 195/2/4 229/2/4
f 195/2/4 218/2/4 229/2/4
f 124/2/4 172/2/4 229/2/4
f 227/3/4 228/3/4 230/3/4
f 229/2/4 227/2/4 230/2/4
f 228/3/4 225/3/4 231/3/4
f 230/3/4 228/3/4 231/3/4
f 225/4/4 226/4/4 231/4/4
f 226/5/4 123/5/4 232/5/4
f 231/4/4 226/4/4 232/4/4
f 229/5/4 230/5/4 233/5/4
f 122/5/4 229/5/4 233/5/4
f 231/5/4 232/5/4 233/5/4
f 230/5/4 231/5/4 233/5/4
f 232/5/4 123/5/4 234/5/4
f 233/5/4 232/5/4 234/5/4
f 237/5/5 236/5/5 235/5/5
f 238/5/5 236/5/5 237/5/5
f 239/5/6 240/5/6 241/5/6
f 241/5/6 240/5/6 242/5/6
