# MagicaVoxel @ Ephtracy

# group
o 

# material
mtllib Picture1.mtl
usemtl palette

# normals
vn -1 0 0
vn 1 0 0
vn 0 0 1
vn 0 0 -1
vn 0 -1 0
vn 0 1 0

# texcoords
vt 0.951172 0.5
vt 0.955078 0.5
vt 0.958984 0.5
vt 0.974609 0.5
vt 0.978516 0.5

# verts
v -1.1 1 0.1
v -1.1 1 0
v -1.1 2.3 0.1
v -1.1 2.3 0
v -0.1 1 0.1
v -0.1 1 0
v -0.1 2.3 0.1
v -0.1 2.3 0
v -1.1 1 0.1
v -1.1 2.3 0.1
v -1 1.1 0.1
v -1 1.3 0.1
v -1 2.2 0.1
v -0.9 1.3 0.1
v -0.9 1.4 0.1
v -0.9 1.5 0.1
v -0.9 1.6 0.1
v -0.9 1.7 0.1
v -0.8 1.3 0.1
v -0.8 1.4 0.1
v -0.8 1.5 0.1
v -0.8 1.7 0.1
v -0.8 1.8 0.1
v -0.7 1.4 0.1
v -0.7 1.6 0.1
v -0.7 1.8 0.1
v -0.7 1.9 0.1
v -0.6 1.4 0.1
v -0.6 1.6 0.1
v -0.6 1.9 0.1
v -0.5 1.3 0.1
v -0.5 1.4 0.1
v -0.5 1.5 0.1
v -0.4 1.3 0.1
v -0.4 1.4 0.1
v -0.4 1.5 0.1
v -0.3 1.3 0.1
v -0.3 1.4 0.1
v -0.2 1.1 0.1
v -0.2 1.4 0.1
v -0.2 2.2 0.1
v -0.1 1 0.1
v -0.1 2.3 0.1
v -1.1 1 0
v -1.1 2.3 0
v -1 1.1 0
v -1 1.3 0
v -1 2.2 0
v -0.9 1.3 0
v -0.9 1.4 0
v -0.9 1.5 0
v -0.9 1.6 0
v -0.9 1.7 0
v -0.8 1.3 0
v -0.8 1.4 0
v -0.8 1.5 0
v -0.8 1.7 0
v -0.8 1.8 0
v -0.7 1.4 0
v -0.7 1.6 0
v -0.7 1.8 0
v -0.7 1.9 0
v -0.6 1.4 0
v -0.6 1.6 0
v -0.6 1.9 0
v -0.5 1.3 0
v -0.5 1.4 0
v -0.5 1.5 0
v -0.4 1.3 0
v -0.4 1.4 0
v -0.4 1.5 0
v -0.3 1.3 0
v -0.3 1.4 0
v -0.2 1.1 0
v -0.2 1.4 0
v -0.2 2.2 0
v -0.1 1 0
v -0.1 2.3 0
v -1.1 1 0.1
v -0.1 1 0.1
v -1.1 1 0
v -0.1 1 0
v -1.1 2.3 0.1
v -0.1 2.3 0.1
v -1.1 2.3 0
v -0.1 2.3 0

# faces
f 3/5/1 2/5/1 1/5/1
f 4/5/1 2/5/1 3/5/1
f 5/5/2 6/5/2 7/5/2
f 7/5/2 6/5/2 8/5/2
f 11/5/3 10/5/3 9/5/3
f 12/5/3 10/5/3 11/5/3
f 13/5/3 10/5/3 12/5/3
f 14/1/3 12/1/3 11/1/3
f 14/2/3 13/2/3 12/2/3
f 15/2/3 13/2/3 14/2/3
f 16/2/3 13/2/3 15/2/3
f 17/2/3 13/2/3 16/2/3
f 18/2/3 13/2/3 17/2/3
f 19/1/3 14/1/3 11/1/3
f 19/1/3 15/1/3 14/1/3
f 20/4/3 16/4/3 15/4/3
f 20/1/3 15/1/3 19/1/3
f 21/2/3 17/2/3 16/2/3
f 21/4/3 16/4/3 20/4/3
f 22/2/3 13/2/3 18/2/3
f 22/3/3 18/3/3 17/3/3
f 23/2/3 13/2/3 22/2/3
f 24/2/3 21/2/3 20/2/3
f 24/4/3 20/4/3 19/4/3
f 25/2/3 17/2/3 21/2/3
f 25/2/3 21/2/3 24/2/3
f 25/3/3 23/3/3 22/3/3
f 25/3/3 22/3/3 17/3/3
f 26/2/3 13/2/3 23/2/3
f 26/3/3 23/3/3 25/3/3
f 27/2/3 13/2/3 26/2/3
f 28/4/3 24/4/3 19/4/3
f 28/4/3 25/4/3 24/4/3
f 29/3/3 27/3/3 26/3/3
f 29/4/3 25/4/3 28/4/3
f 29/3/3 26/3/3 25/3/3
f 30/2/3 13/2/3 27/2/3
f 30/3/3 27/3/3 29/3/3
f 31/4/3 28/4/3 19/4/3
f 31/1/3 19/1/3 11/1/3
f 32/2/3 29/2/3 28/2/3
f 32/4/3 28/4/3 31/4/3
f 32/2/3 30/2/3 29/2/3
f 33/2/3 30/2/3 32/2/3
f 34/1/3 31/1/3 11/1/3
f 34/1/3 32/1/3 31/1/3
f 35/4/3 33/4/3 32/4/3
f 35/1/3 32/1/3 34/1/3
f 36/2/3 30/2/3 33/2/3
f 36/4/3 33/4/3 35/4/3
f 37/2/3 35/2/3 34/2/3
f 37/1/3 34/1/3 11/1/3
f 37/2/3 36/2/3 35/2/3
f 38/2/3 36/2/3 37/2/3
f 39/5/3 11/5/3 9/5/3
f 39/1/3 37/1/3 11/1/3
f 39/1/3 38/1/3 37/1/3
f 40/2/3 36/2/3 38/2/3
f 40/1/3 38/1/3 39/1/3
f 41/5/3 10/5/3 13/5/3
f 41/2/3 36/2/3 40/2/3
f 41/2/3 30/2/3 36/2/3
f 41/2/3 13/2/3 30/2/3
f 42/5/3 39/5/3 9/5/3
f 42/5/3 40/5/3 39/5/3
f 42/5/3 41/5/3 40/5/3
f 43/5/3 10/5/3 41/5/3
f 43/5/3 41/5/3 42/5/3
f 44/5/4 45/5/4 46/5/4
f 46/5/4 45/5/4 47/5/4
f 47/5/4 45/5/4 48/5/4
f 46/1/4 47/1/4 49/1/4
f 47/2/4 48/2/4 49/2/4
f 49/2/4 48/2/4 50/2/4
f 50/2/4 48/2/4 51/2/4
f 51/2/4 48/2/4 52/2/4
f 52/2/4 48/2/4 53/2/4
f 46/1/4 49/1/4 54/1/4
f 49/1/4 50/1/4 54/1/4
f 50/4/4 51/4/4 55/4/4
f 54/1/4 50/1/4 55/1/4
f 51/2/4 52/2/4 56/2/4
f 55/4/4 51/4/4 56/4/4
f 53/2/4 48/2/4 57/2/4
f 52/3/4 53/3/4 57/3/4
f 57/2/4 48/2/4 58/2/4
f 55/2/4 56/2/4 59/2/4
f 54/4/4 55/4/4 59/4/4
f 56/2/4 52/2/4 60/2/4
f 59/2/4 56/2/4 60/2/4
f 57/3/4 58/3/4 60/3/4
f 52/3/4 57/3/4 60/3/4
f 58/2/4 48/2/4 61/2/4
f 60/3/4 58/3/4 61/3/4
f 61/2/4 48/2/4 62/2/4
f 54/4/4 59/4/4 63/4/4
f 59/4/4 60/4/4 63/4/4
f 61/3/4 62/3/4 64/3/4
f 63/4/4 60/4/4 64/4/4
f 60/3/4 61/3/4 64/3/4
f 62/2/4 48/2/4 65/2/4
f 64/3/4 62/3/4 65/3/4
f 54/4/4 63/4/4 66/4/4
f 46/1/4 54/1/4 66/1/4
f 63/2/4 64/2/4 67/2/4
f 66/4/4 63/4/4 67/4/4
f 64/2/4 65/2/4 67/2/4
f 67/2/4 65/2/4 68/2/4
f 46/1/4 66/1/4 69/1/4
f 66/1/4 67/1/4 69/1/4
f 67/4/4 68/4/4 70/4/4
f 69/1/4 67/1/4 70/1/4
f 68/2/4 65/2/4 71/2/4
f 70/4/4 68/4/4 71/4/4
f 69/2/4 70/2/4 72/2/4
f 46/1/4 69/1/4 72/1/4
f 70/2/4 71/2/4 72/2/4
f 72/2/4 71/2/4 73/2/4
f 44/5/4 46/5/4 74/5/4
f 46/1/4 72/1/4 74/1/4
f 72/1/4 73/1/4 74/1/4
f 73/2/4 71/2/4 75/2/4
f 74/1/4 73/1/4 75/1/4
f 48/5/4 45/5/4 76/5/4
f 75/2/4 71/2/4 76/2/4
f 71/2/4 65/2/4 76/2/4
f 65/2/4 48/2/4 76/2/4
f 44/5/4 74/5/4 77/5/4
f 74/5/4 75/5/4 77/5/4
f 75/5/4 76/5/4 77/5/4
f 76/5/4 45/5/4 78/5/4
f 77/5/4 76/5/4 78/5/4
f 81/5/5 80/5/5 79/5/5
f 82/5/5 80/5/5 81/5/5
f 83/5/6 84/5/6 85/5/6
f 85/5/6 84/5/6 86/5/6
