# MagicaVoxel @ Ephtracy

# group
o 

# material
mtllib Brick.mtl
usemtl palette

# normals
vn -1 0 0
vn 1 0 0
vn 0 0 1
vn 0 0 -1
vn 0 -1 0
vn 0 1 0

# texcoords
vt 0.982422 0.5
vt 0.990234 0.5
vt 0.994141 0.5

# verts
v -0.3 1.8 0.1
v -0.3 1.8 0
v -0.3 1.9 0.1
v -0.3 1.9 0
v -0.3 2.1 0.1
v -0.3 2.1 0
v 0.3 1.8 0.1
v 0.3 1.8 0
v 0.3 2 0.1
v 0.3 2 0
v 0.3 2.1 0.1
v 0.3 2.1 0
v -0.3 1.8 0.1
v -0.3 1.9 0.1
v -0.3 2.1 0.1
v -0.2 1.9 0.1
v -0.2 2 0.1
v -0.2 2.1 0.1
v -0.1 1.8 0.1
v -0.1 1.9 0.1
v -0.1 2 0.1
v -0.1 2.1 0.1
v 0.1 1.9 0.1
v 0.1 2 0.1
v 0.2 1.8 0.1
v 0.2 1.9 0.1
v 0.3 1.8 0.1
v 0.3 2 0.1
v 0.3 2.1 0.1
v -0.3 1.8 0
v -0.3 1.9 0
v -0.3 2.1 0
v -0.2 1.9 0
v -0.2 2 0
v -0.2 2.1 0
v -0.1 1.8 0
v -0.1 1.9 0
v -0.1 2 0
v -0.1 2.1 0
v 0.1 1.9 0
v 0.1 2 0
v 0.2 1.8 0
v 0.2 1.9 0
v 0.3 1.8 0
v 0.3 2 0
v 0.3 2.1 0
v -0.3 1.8 0.1
v -0.1 1.8 0.1
v 0.2 1.8 0.1
v 0.3 1.8 0.1
v -0.3 1.8 0
v -0.1 1.8 0
v 0.2 1.8 0
v 0.3 1.8 0
v -0.3 2.1 0.1
v -0.2 2.1 0.1
v -0.1 2.1 0.1
v 0.3 2.1 0.1
v -0.3 2.1 0
v -0.2 2.1 0
v -0.1 2.1 0
v 0.3 2.1 0

# faces
f 3/1/1 2/1/1 1/1/1
f 4/1/1 2/1/1 3/1/1
f 5/2/1 4/2/1 3/2/1
f 6/2/1 4/2/1 5/2/1
f 7/3/2 8/3/2 9/3/2
f 9/3/2 8/3/2 10/3/2
f 9/1/2 10/1/2 11/1/2
f 11/1/2 10/1/2 12/1/2
f 16/1/3 14/1/3 13/1/3
f 16/2/3 15/2/3 14/2/3
f 17/2/3 15/2/3 16/2/3
f 18/2/3 15/2/3 17/2/3
f 19/1/3 16/1/3 13/1/3
f 19/1/3 17/1/3 16/1/3
f 20/1/3 17/1/3 19/1/3
f 21/3/3 18/3/3 17/3/3
f 21/1/3 17/1/3 20/1/3
f 22/3/3 18/3/3 21/3/3
f 23/2/3 20/2/3 19/2/3
f 23/1/3 21/1/3 20/1/3
f 23/1/3 22/1/3 21/1/3
f 24/1/3 22/1/3 23/1/3
f 25/2/3 23/2/3 19/2/3
f 26/3/3 24/3/3 23/3/3
f 26/2/3 23/2/3 25/2/3
f 27/3/3 26/3/3 25/3/3
f 28/1/3 22/1/3 24/1/3
f 28/3/3 26/3/3 27/3/3
f 28/3/3 24/3/3 26/3/3
f 29/1/3 22/1/3 28/1/3
f 30/1/4 31/1/4 33/1/4
f 31/2/4 32/2/4 33/2/4
f 33/2/4 32/2/4 34/2/4
f 34/2/4 32/2/4 35/2/4
f 30/1/4 33/1/4 36/1/4
f 33/1/4 34/1/4 36/1/4
f 36/1/4 34/1/4 37/1/4
f 34/3/4 35/3/4 38/3/4
f 37/1/4 34/1/4 38/1/4
f 38/3/4 35/3/4 39/3/4
f 36/2/4 37/2/4 40/2/4
f 37/1/4 38/1/4 40/1/4
f 38/1/4 39/1/4 40/1/4
f 40/1/4 39/1/4 41/1/4
f 36/2/4 40/2/4 42/2/4
f 40/3/4 41/3/4 43/3/4
f 42/2/4 40/2/4 43/2/4
f 42/3/4 43/3/4 44/3/4
f 41/1/4 39/1/4 45/1/4
f 44/3/4 43/3/4 45/3/4
f 43/3/4 41/3/4 45/3/4
f 45/1/4 39/1/4 46/1/4
f 51/1/5 48/1/5 47/1/5
f 52/2/5 49/2/5 48/2/5
f 52/1/5 48/1/5 51/1/5
f 53/3/5 50/3/5 49/3/5
f 53/2/5 49/2/5 52/2/5
f 54/3/5 50/3/5 53/3/5
f 55/2/6 56/2/6 59/2/6
f 56/3/6 57/3/6 60/3/6
f 59/2/6 56/2/6 60/2/6
f 57/1/6 58/1/6 61/1/6
f 60/3/6 57/3/6 61/3/6
f 61/1/6 58/1/6 62/1/6
