# MagicaVoxel @ Ephtracy

# group
o 

# material
mtllib Field.mtl
usemtl palette

# normals
vn -1 0 0
vn 1 0 0
vn 0 0 1
vn 0 0 -1
vn 0 -1 0
vn 0 1 0

# texcoords
vt 0.951172 0.5
vt 0.962891 0.5
vt 0.966797 0.5

# verts
v -2 0 0.5
v -2 0 0.3
v -2 0.1 0.5
v -2 0.1 0.3
v -1.7 0 1
v -1.7 0 0.5
v -1.7 0 0.3
v -1.7 0 -0.6
v -1.7 0 -0.7
v -1.7 0.1 1
v -1.7 0.1 0.5
v -1.7 0.1 0.3
v -1.7 0.1 -0.6
v -1.7 0.1 -0.7
v -1.2 0 1
v -1.2 0 0.5
v -1.2 0 0.3
v -1.2 0 -0.6
v -1.2 0 -0.7
v -1.2 0.1 1
v -1.2 0.1 0.5
v -1.2 0.1 0.3
v -1.2 0.1 -0.6
v -1.2 0.1 -0.7
v -0.7 0 1
v -0.7 0 0.5
v -0.7 0 0.3
v -0.7 0 -0.6
v -0.7 0 -0.7
v -0.7 0.1 1
v -0.7 0.1 0.5
v -0.7 0.1 0.3
v -0.7 0.1 -0.6
v -0.7 0.1 -0.7
v -0.2 0 1
v -0.2 0 0.5
v -0.2 0 0.3
v -0.2 0 -0.6
v -0.2 0 -0.7
v -0.2 0.1 1
v -0.2 0.1 0.5
v -0.2 0.1 0.3
v -0.2 0.1 -0.6
v -0.2 0.1 -0.7
v 0.3 0 1
v 0.3 0 0.5
v 0.3 0 0.3
v 0.3 0 -0.6
v 0.3 0 -0.7
v 0.3 0.1 1
v 0.3 0.1 0.5
v 0.3 0.1 0.3
v 0.3 0.1 -0.6
v 0.3 0.1 -0.7
v 0.8 0 1
v 0.8 0 0.5
v 0.8 0 0.3
v 0.8 0 -0.6
v 0.8 0 -0.7
v 0.8 0.1 1
v 0.8 0.1 0.5
v 0.8 0.1 0.3
v 0.8 0.1 -0.6
v 0.8 0.1 -0.7
v 1.3 0 1
v 1.3 0 0.5
v 1.3 0 0.3
v 1.3 0 -0.6
v 1.3 0 -0.7
v 1.3 0.1 1
v 1.3 0.1 0.5
v 1.3 0.1 0.3
v 1.3 0.1 -0.6
v 1.3 0.1 -0.7
v 1.8 0 1
v 1.8 0 0.5
v 1.8 0 0.3
v 1.8 0 -0.6
v 1.8 0 -0.7
v 1.8 0.1 1
v 1.8 0.1 0.5
v 1.8 0.1 0.3
v 1.8 0.1 -0.6
v 1.8 0.1 -0.7
v -1.5 0 1
v -1.5 0 0.5
v -1.5 0 0.3
v -1.5 0 -0.6
v -1.5 0 -0.7
v -1.5 0.1 1
v -1.5 0.1 0.5
v -1.5 0.1 0.3
v -1.5 0.1 -0.6
v -1.5 0.1 -0.7
v -1 0 1
v -1 0 0.5
v -1 0 0.3
v -1 0 -0.6
v -1 0 -0.7
v -1 0.1 1
v -1 0.1 0.5
v -1 0.1 0.3
v -1 0.1 -0.6
v -1 0.1 -0.7
v -0.5 0 1
v -0.5 0 0.5
v -0.5 0 0.3
v -0.5 0 -0.6
v -0.5 0 -0.7
v -0.5 0.1 1
v -0.5 0.1 0.5
v -0.5 0.1 0.3
v -0.5 0.1 -0.6
v -0.5 0.1 -0.7
v 2.38419e-007 0 1
v 2.38419e-007 0 0.5
v 2.38419e-007 0 0.3
v 2.38419e-007 0 -0.6
v 2.38419e-007 0 -0.7
v 2.38419e-007 0.1 1
v 2.38419e-007 0.1 0.5
v 2.38419e-007 0.1 0.3
v 2.38419e-007 0.1 -0.6
v 2.38419e-007 0.1 -0.7
v 0.5 0 1
v 0.5 0 0.5
v 0.5 0 0.3
v 0.5 0 -0.6
v 0.5 0 -0.7
v 0.5 0.1 1
v 0.5 0.1 0.5
v 0.5 0.1 0.3
v 0.5 0.1 -0.6
v 0.5 0.1 -0.7
v 1 0 1
v 1 0 0.5
v 1 0 0.3
v 1 0 -0.6
v 1 0 -0.7
v 1 0.1 1
v 1 0.1 0.5
v 1 0.1 0.3
v 1 0.1 -0.6
v 1 0.1 -0.7
v 1.5 0 1
v 1.5 0 0.5
v 1.5 0 0.3
v 1.5 0 -0.6
v 1.5 0 -0.7
v 1.5 0.1 1
v 1.5 0.1 0.5
v 1.5 0.1 0.3
v 1.5 0.1 -0.6
v 1.5 0.1 -0.7
v 2 0 1
v 2 0 -0.6
v 2 0 -0.7
v 2 0.1 1
v 2 0.1 -0.6
v 2 0.1 -0.7
v -1.7 0 1
v -1.7 0.1 1
v -1.5 0 1
v -1.5 0.1 1
v -1.2 0 1
v -1.2 0.1 1
v -1 0 1
v -1 0.1 1
v -0.7 0 1
v -0.7 0.1 1
v -0.5 0 1
v -0.5 0.1 1
v -0.2 0 1
v -0.2 0.1 1
v 2.38419e-007 0 1
v 2.38419e-007 0.1 1
v 0.3 0 1
v 0.3 0.1 1
v 0.5 0 1
v 0.5 0.1 1
v 0.8 0 1
v 0.8 0.1 1
v 1 0 1
v 1 0.1 1
v 1.3 0 1
v 1.3 0.1 1
v 1.5 0 1
v 1.5 0.1 1
v 1.8 0 1
v 1.8 0.1 1
v 2 0 1
v 2 0.1 1
v -2 0 0.5
v -2 0.1 0.5
v -1.7 0 0.5
v -1.7 0.1 0.5
v -1.5 0 0.5
v -1.5 0.1 0.5
v -1.2 0 0.5
v -1.2 0.1 0.5
v -1 0 0.5
v -1 0.1 0.5
v -0.7 0 0.5
v -0.7 0.1 0.5
v -0.5 0 0.5
v -0.5 0.1 0.5
v -0.2 0 0.5
v -0.2 0.1 0.5
v 2.38419e-007 0 0.5
v 2.38419e-007 0.1 0.5
v 0.3 0 0.5
v 0.3 0.1 0.5
v 0.5 0 0.5
v 0.5 0.1 0.5
v 0.8 0 0.5
v 0.8 0.1 0.5
v 1 0 0.5
v 1 0.1 0.5
v 1.3 0 0.5
v 1.3 0.1 0.5
v 1.5 0 0.5
v 1.5 0.1 0.5
v 1.8 0 0.5
v 1.8 0.1 0.5
v -2 0 0.3
v -2 0.1 0.3
v -1.7 0 0.3
v -1.7 0.1 0.3
v -1.5 0 0.3
v -1.5 0.1 0.3
v -1.2 0 0.3
v -1.2 0.1 0.3
v -1 0 0.3
v -1 0.1 0.3
v -0.7 0 0.3
v -0.7 0.1 0.3
v -0.5 0 0.3
v -0.5 0.1 0.3
v -0.2 0 0.3
v -0.2 0.1 0.3
v 2.38419e-007 0 0.3
v 2.38419e-007 0.1 0.3
v 0.3 0 0.3
v 0.3 0.1 0.3
v 0.5 0 0.3
v 0.5 0.1 0.3
v 0.8 0 0.3
v 0.8 0.1 0.3
v 1 0 0.3
v 1 0.1 0.3
v 1.3 0 0.3
v 1.3 0.1 0.3
v 1.5 0 0.3
v 1.5 0.1 0.3
v 1.8 0 0.3
v 1.8 0.1 0.3
v -1.7 0 -0.7
v -1.7 0.1 -0.7
v -1.5 0 -0.7
v -1.5 0.1 -0.7
v -1.2 0 -0.7
v -1.2 0.1 -0.7
v -1 0 -0.7
v -1 0.1 -0.7
v -0.7 0 -0.7
v -0.7 0.1 -0.7
v -0.5 0 -0.7
v -0.5 0.1 -0.7
v -0.2 0 -0.7
v -0.2 0.1 -0.7
v 2.38419e-007 0 -0.7
v 2.38419e-007 0.1 -0.7
v 0.3 0 -0.7
v 0.3 0.1 -0.7
v 0.5 0 -0.7
v 0.5 0.1 -0.7
v 0.8 0 -0.7
v 0.8 0.1 -0.7
v 1 0 -0.7
v 1 0.1 -0.7
v 1.3 0 -0.7
v 1.3 0.1 -0.7
v 1.5 0 -0.7
v 1.5 0.1 -0.7
v 1.8 0 -0.7
v 1.8 0.1 -0.7
v 2 0 -0.7
v 2 0.1 -0.7
v -1.7 0 1
v -1.5 0 1
v -1.2 0 1
v -1 0 1
v -0.7 0 1
v -0.5 0 1
v -0.2 0 1
v 2.38419e-007 0 1
v 0.3 0 1
v 0.5 0 1
v 0.8 0 1
v 1 0 1
v 1.3 0 1
v 1.5 0 1
v 1.8 0 1
v 2 0 1
v -2 0 0.5
v -1.7 0 0.5
v -1.5 0 0.5
v -1.2 0 0.5
v -1 0 0.5
v -0.7 0 0.5
v -0.5 0 0.5
v -0.2 0 0.5
v 2.38419e-007 0 0.5
v 0.3 0 0.5
v 0.5 0 0.5
v 0.8 0 0.5
v 1 0 0.5
v 1.3 0 0.5
v 1.5 0 0.5
v 1.8 0 0.5
v -2 0 0.3
v -1.7 0 0.3
v -1.5 0 0.3
v -1.2 0 0.3
v -1 0 0.3
v -0.7 0 0.3
v -0.5 0 0.3
v -0.2 0 0.3
v 2.38419e-007 0 0.3
v 0.3 0 0.3
v 0.5 0 0.3
v 0.8 0 0.3
v 1 0 0.3
v 1.3 0 0.3
v 1.5 0 0.3
v 1.8 0 0.3
v -1.7 0 -0.6
v -1.5 0 -0.6
v -1.2 0 -0.6
v -1 0 -0.6
v -0.7 0 -0.6
v -0.5 0 -0.6
v -0.2 0 -0.6
v 2.38419e-007 0 -0.6
v 0.3 0 -0.6
v 0.5 0 -0.6
v 0.8 0 -0.6
v 1 0 -0.6
v 1.3 0 -0.6
v 1.5 0 -0.6
v 1.8 0 -0.6
v 2 0 -0.6
v -1.7 0 -0.7
v -1.5 0 -0.7
v -1.2 0 -0.7
v -1 0 -0.7
v -0.7 0 -0.7
v -0.5 0 -0.7
v -0.2 0 -0.7
v 2.38419e-007 0 -0.7
v 0.3 0 -0.7
v 0.5 0 -0.7
v 0.8 0 -0.7
v 1 0 -0.7
v 1.3 0 -0.7
v 1.5 0 -0.7
v 1.8 0 -0.7
v 2 0 -0.7
v -1.7 0.1 1
v -1.5 0.1 1
v -1.2 0.1 1
v -1 0.1 1
v -0.7 0.1 1
v -0.5 0.1 1
v -0.2 0.1 1
v 2.38419e-007 0.1 1
v 0.3 0.1 1
v 0.5 0.1 1
v 0.8 0.1 1
v 1 0.1 1
v 1.3 0.1 1
v 1.5 0.1 1
v 1.8 0.1 1
v 2 0.1 1
v -2 0.1 0.5
v -1.7 0.1 0.5
v -1.5 0.1 0.5
v -1.2 0.1 0.5
v -1 0.1 0.5
v -0.7 0.1 0.5
v -0.5 0.1 0.5
v -0.2 0.1 0.5
v 2.38419e-007 0.1 0.5
v 0.3 0.1 0.5
v 0.5 0.1 0.5
v 0.8 0.1 0.5
v 1 0.1 0.5
v 1.3 0.1 0.5
v 1.5 0.1 0.5
v 1.8 0.1 0.5
v -2 0.1 0.3
v -1.7 0.1 0.3
v -1.5 0.1 0.3
v -1.2 0.1 0.3
v -1 0.1 0.3
v -0.7 0.1 0.3
v -0.5 0.1 0.3
v -0.2 0.1 0.3
v 2.38419e-007 0.1 0.3
v 0.3 0.1 0.3
v 0.5 0.1 0.3
v 0.8 0.1 0.3
v 1 0.1 0.3
v 1.3 0.1 0.3
v 1.5 0.1 0.3
v 1.8 0.1 0.3
v -1.7 0.1 -0.6
v -1.5 0.1 -0.6
v -1.2 0.1 -0.6
v -1 0.1 -0.6
v -0.7 0.1 -0.6
v -0.5 0.1 -0.6
v -0.2 0.1 -0.6
v 2.38419e-007 0.1 -0.6
v 0.3 0.1 -0.6
v 0.5 0.1 -0.6
v 0.8 0.1 -0.6
v 1 0.1 -0.6
v 1.3 0.1 -0.6
v 1.5 0.1 -0.6
v 1.8 0.1 -0.6
v 2 0.1 -0.6
v -1.7 0.1 -0.7
v -1.5 0.1 -0.7
v -1.2 0.1 -0.7
v -1 0.1 -0.7
v -0.7 0.1 -0.7
v -0.5 0.1 -0.7
v -0.2 0.1 -0.7
v 2.38419e-007 0.1 -0.7
v 0.3 0.1 -0.7
v 0.5 0.1 -0.7
v 0.8 0.1 -0.7
v 1 0.1 -0.7
v 1.3 0.1 -0.7
v 1.5 0.1 -0.7
v 1.8 0.1 -0.7
v 2 0.1 -0.7

# faces
f 3/1/1 2/1/1 1/1/1
f 4/1/1 2/1/1 3/1/1
f 10/2/1 6/2/1 5/2/1
f 11/2/1 6/2/1 10/2/1
f 12/2/1 8/2/1 7/2/1
f 13/3/1 9/3/1 8/3/1
f 13/2/1 8/2/1 12/2/1
f 14/3/1 9/3/1 13/3/1
f 20/2/1 16/2/1 15/2/1
f 21/2/1 16/2/1 20/2/1
f 22/2/1 18/2/1 17/2/1
f 23/3/1 19/3/1 18/3/1
f 23/2/1 18/2/1 22/2/1
f 24/3/1 19/3/1 23/3/1
f 30/2/1 26/2/1 25/2/1
f 31/2/1 26/2/1 30/2/1
f 32/2/1 28/2/1 27/2/1
f 33/3/1 29/3/1 28/3/1
f 33/2/1 28/2/1 32/2/1
f 34/3/1 29/3/1 33/3/1
f 40/2/1 36/2/1 35/2/1
f 41/2/1 36/2/1 40/2/1
f 42/2/1 38/2/1 37/2/1
f 43/3/1 39/3/1 38/3/1
f 43/2/1 38/2/1 42/2/1
f 44/3/1 39/3/1 43/3/1
f 50/2/1 46/2/1 45/2/1
f 51/2/1 46/2/1 50/2/1
f 52/2/1 48/2/1 47/2/1
f 53/3/1 49/3/1 48/3/1
f 53/2/1 48/2/1 52/2/1
f 54/3/1 49/3/1 53/3/1
f 60/2/1 56/2/1 55/2/1
f 61/2/1 56/2/1 60/2/1
f 62/2/1 58/2/1 57/2/1
f 63/3/1 59/3/1 58/3/1
f 63/2/1 58/2/1 62/2/1
f 64/3/1 59/3/1 63/3/1
f 70/2/1 66/2/1 65/2/1
f 71/2/1 66/2/1 70/2/1
f 72/2/1 68/2/1 67/2/1
f 73/3/1 69/3/1 68/3/1
f 73/2/1 68/2/1 72/2/1
f 74/3/1 69/3/1 73/3/1
f 80/2/1 76/2/1 75/2/1
f 81/2/1 76/2/1 80/2/1
f 82/2/1 78/2/1 77/2/1
f 83/3/1 79/3/1 78/3/1
f 83/2/1 78/2/1 82/2/1
f 84/3/1 79/3/1 83/3/1
f 85/2/2 86/2/2 90/2/2
f 90/2/2 86/2/2 91/2/2
f 87/2/2 88/2/2 92/2/2
f 88/3/2 89/3/2 93/3/2
f 92/2/2 88/2/2 93/2/2
f 93/3/2 89/3/2 94/3/2
f 95/2/2 96/2/2 100/2/2
f 100/2/2 96/2/2 101/2/2
f 97/2/2 98/2/2 102/2/2
f 98/3/2 99/3/2 103/3/2
f 102/2/2 98/2/2 103/2/2
f 103/3/2 99/3/2 104/3/2
f 105/2/2 106/2/2 110/2/2
f 110/2/2 106/2/2 111/2/2
f 107/2/2 108/2/2 112/2/2
f 108/3/2 109/3/2 113/3/2
f 112/2/2 108/2/2 113/2/2
f 113/3/2 109/3/2 114/3/2
f 115/2/2 116/2/2 120/2/2
f 120/2/2 116/2/2 121/2/2
f 117/2/2 118/2/2 122/2/2
f 118/3/2 119/3/2 123/3/2
f 122/2/2 118/2/2 123/2/2
f 123/3/2 119/3/2 124/3/2
f 125/2/2 126/2/2 130/2/2
f 130/2/2 126/2/2 131/2/2
f 127/2/2 128/2/2 132/2/2
f 128/3/2 129/3/2 133/3/2
f 132/2/2 128/2/2 133/2/2
f 133/3/2 129/3/2 134/3/2
f 135/2/2 136/2/2 140/2/2
f 140/2/2 136/2/2 141/2/2
f 137/2/2 138/2/2 142/2/2
f 138/3/2 139/3/2 143/3/2
f 142/2/2 138/2/2 143/2/2
f 143/3/2 139/3/2 144/3/2
f 145/2/2 146/2/2 150/2/2
f 150/2/2 146/2/2 151/2/2
f 147/2/2 148/2/2 152/2/2
f 148/3/2 149/3/2 153/3/2
f 152/2/2 148/2/2 153/2/2
f 153/3/2 149/3/2 154/3/2
f 155/2/2 156/2/2 158/2/2
f 156/3/2 157/3/2 159/3/2
f 158/2/2 156/2/2 159/2/2
f 159/3/2 157/3/2 160/3/2
f 163/2/3 162/2/3 161/2/3
f 164/2/3 162/2/3 163/2/3
f 167/2/3 166/2/3 165/2/3
f 168/2/3 166/2/3 167/2/3
f 171/2/3 170/2/3 169/2/3
f 172/2/3 170/2/3 171/2/3
f 175/2/3 174/2/3 173/2/3
f 176/2/3 174/2/3 175/2/3
f 179/2/3 178/2/3 177/2/3
f 180/2/3 178/2/3 179/2/3
f 183/2/3 182/2/3 181/2/3
f 184/2/3 182/2/3 183/2/3
f 187/2/3 186/2/3 185/2/3
f 188/2/3 186/2/3 187/2/3
f 191/2/3 190/2/3 189/2/3
f 192/2/3 190/2/3 191/2/3
f 195/1/3 194/1/3 193/1/3
f 196/1/3 194/1/3 195/1/3
f 199/1/3 198/1/3 197/1/3
f 200/1/3 198/1/3 199/1/3
f 203/1/3 202/1/3 201/1/3
f 204/1/3 202/1/3 203/1/3
f 207/1/3 206/1/3 205/1/3
f 208/1/3 206/1/3 207/1/3
f 211/1/3 210/1/3 209/1/3
f 212/1/3 210/1/3 211/1/3
f 215/1/3 214/1/3 213/1/3
f 216/1/3 214/1/3 215/1/3
f 219/1/3 218/1/3 217/1/3
f 220/1/3 218/1/3 219/1/3
f 223/1/3 222/1/3 221/1/3
f 224/1/3 222/1/3 223/1/3
f 225/1/4 226/1/4 227/1/4
f 227/1/4 226/1/4 228/1/4
f 229/1/4 230/1/4 231/1/4
f 231/1/4 230/1/4 232/1/4
f 233/1/4 234/1/4 235/1/4
f 235/1/4 234/1/4 236/1/4
f 237/1/4 238/1/4 239/1/4
f 239/1/4 238/1/4 240/1/4
f 241/1/4 242/1/4 243/1/4
f 243/1/4 242/1/4 244/1/4
f 245/1/4 246/1/4 247/1/4
f 247/1/4 246/1/4 248/1/4
f 249/1/4 250/1/4 251/1/4
f 251/1/4 250/1/4 252/1/4
f 253/1/4 254/1/4 255/1/4
f 255/1/4 254/1/4 256/1/4
f 257/3/4 258/3/4 259/3/4
f 259/3/4 258/3/4 260/3/4
f 261/3/4 262/3/4 263/3/4
f 263/3/4 262/3/4 264/3/4
f 265/3/4 266/3/4 267/3/4
f 267/3/4 266/3/4 268/3/4
f 269/3/4 270/3/4 271/3/4
f 271/3/4 270/3/4 272/3/4
f 273/3/4 274/3/4 275/3/4
f 275/3/4 274/3/4 276/3/4
f 277/3/4 278/3/4 279/3/4
f 279/3/4 278/3/4 280/3/4
f 281/3/4 282/3/4 283/3/4
f 283/3/4 282/3/4 284/3/4
f 285/3/4 286/3/4 287/3/4
f 287/3/4 286/3/4 288/3/4
f 306/2/5 290/2/5 289/2/5
f 307/2/5 290/2/5 306/2/5
f 308/2/5 292/2/5 291/2/5
f 309/2/5 292/2/5 308/2/5
f 310/2/5 294/2/5 293/2/5
f 311/2/5 294/2/5 310/2/5
f 312/2/5 296/2/5 295/2/5
f 313/2/5 296/2/5 312/2/5
f 314/2/5 298/2/5 297/2/5
f 315/2/5 298/2/5 314/2/5
f 316/2/5 300/2/5 299/2/5
f 317/2/5 300/2/5 316/2/5
f 318/2/5 302/2/5 301/2/5
f 319/2/5 302/2/5 318/2/5
f 320/2/5 304/2/5 303/2/5
f 321/1/5 306/1/5 305/1/5
f 322/2/5 307/2/5 306/2/5
f 322/1/5 306/1/5 321/1/5
f 323/1/5 308/1/5 307/1/5
f 323/2/5 307/2/5 322/2/5
f 324/2/5 309/2/5 308/2/5
f 324/1/5 308/1/5 323/1/5
f 325/1/5 310/1/5 309/1/5
f 325/2/5 309/2/5 324/2/5
f 326/2/5 311/2/5 310/2/5
f 326/1/5 310/1/5 325/1/5
f 327/1/5 312/1/5 311/1/5
f 327/2/5 311/2/5 326/2/5
f 328/2/5 313/2/5 312/2/5
f 328/1/5 312/1/5 327/1/5
f 329/1/5 314/1/5 313/1/5
f 329/2/5 313/2/5 328/2/5
f 330/2/5 315/2/5 314/2/5
f 330/1/5 314/1/5 329/1/5
f 331/1/5 316/1/5 315/1/5
f 331/2/5 315/2/5 330/2/5
f 332/2/5 317/2/5 316/2/5
f 332/1/5 316/1/5 331/1/5
f 333/1/5 318/1/5 317/1/5
f 333/2/5 317/2/5 332/2/5
f 334/2/5 319/2/5 318/2/5
f 334/1/5 318/1/5 333/1/5
f 335/1/5 320/1/5 319/1/5
f 335/2/5 319/2/5 334/2/5
f 336/2/5 304/2/5 320/2/5
f 336/1/5 320/1/5 335/1/5
f 337/2/5 323/2/5 322/2/5
f 338/2/5 323/2/5 337/2/5
f 339/2/5 325/2/5 324/2/5
f 340/2/5 325/2/5 339/2/5
f 341/2/5 327/2/5 326/2/5
f 342/2/5 327/2/5 341/2/5
f 343/2/5 329/2/5 328/2/5
f 344/2/5 329/2/5 343/2/5
f 345/2/5 331/2/5 330/2/5
f 346/2/5 331/2/5 345/2/5
f 347/2/5 333/2/5 332/2/5
f 348/2/5 333/2/5 347/2/5
f 349/2/5 335/2/5 334/2/5
f 350/2/5 335/2/5 349/2/5
f 351/2/5 304/2/5 336/2/5
f 352/2/5 304/2/5 351/2/5
f 353/3/5 338/3/5 337/3/5
f 354/3/5 338/3/5 353/3/5
f 355/3/5 340/3/5 339/3/5
f 356/3/5 340/3/5 355/3/5
f 357/3/5 342/3/5 341/3/5
f 358/3/5 342/3/5 357/3/5
f 359/3/5 344/3/5 343/3/5
f 360/3/5 344/3/5 359/3/5
f 361/3/5 346/3/5 345/3/5
f 362/3/5 346/3/5 361/3/5
f 363/3/5 348/3/5 347/3/5
f 364/3/5 348/3/5 363/3/5
f 365/3/5 350/3/5 349/3/5
f 366/3/5 350/3/5 365/3/5
f 367/3/5 352/3/5 351/3/5
f 368/3/5 352/3/5 367/3/5
f 369/2/6 370/2/6 386/2/6
f 386/2/6 370/2/6 387/2/6
f 371/2/6 372/2/6 388/2/6
f 388/2/6 372/2/6 389/2/6
f 373/2/6 374/2/6 390/2/6
f 390/2/6 374/2/6 391/2/6
f 375/2/6 376/2/6 392/2/6
f 392/2/6 376/2/6 393/2/6
f 377/2/6 378/2/6 394/2/6
f 394/2/6 378/2/6 395/2/6
f 379/2/6 380/2/6 396/2/6
f 396/2/6 380/2/6 397/2/6
f 381/2/6 382/2/6 398/2/6
f 398/2/6 382/2/6 399/2/6
f 383/2/6 384/2/6 400/2/6
f 385/1/6 386/1/6 401/1/6
f 386/2/6 387/2/6 402/2/6
f 401/1/6 386/1/6 402/1/6
f 387/1/6 388/1/6 403/1/6
f 402/2/6 387/2/6 403/2/6
f 388/2/6 389/2/6 404/2/6
f 403/1/6 388/1/6 404/1/6
f 389/1/6 390/1/6 405/1/6
f 404/2/6 389/2/6 405/2/6
f 390/2/6 391/2/6 406/2/6
f 405/1/6 390/1/6 406/1/6
f 391/1/6 392/1/6 407/1/6
f 406/2/6 391/2/6 407/2/6
f 392/2/6 393/2/6 408/2/6
f 407/1/6 392/1/6 408/1/6
f 393/1/6 394/1/6 409/1/6
f 408/2/6 393/2/6 409/2/6
f 394/2/6 395/2/6 410/2/6
f 409/1/6 394/1/6 410/1/6
f 395/1/6 396/1/6 411/1/6
f 410/2/6 395/2/6 411/2/6
f 396/2/6 397/2/6 412/2/6
f 411/1/6 396/1/6 412/1/6
f 397/1/6 398/1/6 413/1/6
f 412/2/6 397/2/6 413/2/6
f 398/2/6 399/2/6 414/2/6
f 413/1/6 398/1/6 414/1/6
f 399/1/6 400/1/6 415/1/6
f 414/2/6 399/2/6 415/2/6
f 400/2/6 384/2/6 416/2/6
f 415/1/6 400/1/6 416/1/6
f 402/2/6 403/2/6 417/2/6
f 417/2/6 403/2/6 418/2/6
f 404/2/6 405/2/6 419/2/6
f 419/2/6 405/2/6 420/2/6
f 406/2/6 407/2/6 421/2/6
f 421/2/6 407/2/6 422/2/6
f 408/2/6 409/2/6 423/2/6
f 423/2/6 409/2/6 424/2/6
f 410/2/6 411/2/6 425/2/6
f 425/2/6 411/2/6 426/2/6
f 412/2/6 413/2/6 427/2/6
f 427/2/6 413/2/6 428/2/6
f 414/2/6 415/2/6 429/2/6
f 429/2/6 415/2/6 430/2/6
f 416/2/6 384/2/6 431/2/6
f 431/2/6 384/2/6 432/2/6
f 417/3/6 418/3/6 433/3/6
f 433/3/6 418/3/6 434/3/6
f 419/3/6 420/3/6 435/3/6
f 435/3/6 420/3/6 436/3/6
f 421/3/6 422/3/6 437/3/6
f 437/3/6 422/3/6 438/3/6
f 423/3/6 424/3/6 439/3/6
f 439/3/6 424/3/6 440/3/6
f 425/3/6 426/3/6 441/3/6
f 441/3/6 426/3/6 442/3/6
f 427/3/6 428/3/6 443/3/6
f 443/3/6 428/3/6 444/3/6
f 429/3/6 430/3/6 445/3/6
f 445/3/6 430/3/6 446/3/6
f 431/3/6 432/3/6 447/3/6
f 447/3/6 432/3/6 448/3/6
