# MagicaVoxel @ Ephtracy

# group
o 

# material
mtllib Flowers.mtl
usemtl palette

# normals
vn -1 0 0
vn 1 0 0
vn 0 0 1
vn 0 0 -1
vn 0 -1 0
vn 0 1 0

# texcoords
vt 0.951172 0.5
vt 0.955078 0.5
vt 0.962891 0.5
vt 0.970703 0.5
vt 0.978516 0.5
vt 0.990234 0.5

# verts
v 0.9 0 0.1
v 0.9 0 -5.96046e-008
v 0.9 0.1 0.1
v 0.9 0.1 -5.96046e-008
v 1 0 0.2
v 1 0 0.1
v 1 0 -5.96046e-008
v 1 0 -0.1
v 1 0.1 0.2
v 1 0.1 0.1
v 1 0.1 -5.96046e-008
v 1 0.1 -0.1
v 1.1 0 0.4
v 1.1 0 0.3
v 1.1 0 -0.5
v 1.1 0 -0.7
v 1.1 0 -0.8
v 1.1 0.1 0.4
v 1.1 0.1 0.3
v 1.1 0.1 -0.5
v 1.1 0.1 -0.7
v 1.1 0.1 -0.8
v 1.2 0 0.6
v 1.2 0 0.5
v 1.2 0 0.4
v 1.2 0 0.3
v 1.2 0 0.2
v 1.2 0 -0.4
v 1.2 0 -0.5
v 1.2 0 -0.8
v 1.2 0 -0.9
v 1.2 0.1 0.6
v 1.2 0.1 0.5
v 1.2 0.1 0.4
v 1.2 0.1 0.3
v 1.2 0.1 0.2
v 1.2 0.1 -0.4
v 1.2 0.1 -0.5
v 1.2 0.1 -0.8
v 1.2 0.1 -0.9
v 1.3 0 0.7
v 1.3 0 0.6
v 1.3 0.1 0.7
v 1.3 0.1 0.6
v 1.4 0 -0.1
v 1.4 0 -0.2
v 1.4 0 -0.3
v 1.4 0 -0.4
v 1.4 0.1 -0.1
v 1.4 0.1 -0.2
v 1.4 0.1 -0.3
v 1.4 0.1 -0.4
v 1.5 0 0.2
v 1.5 0 0.1
v 1.5 0.1 0.2
v 1.5 0.1 0.1
v 1.7 0 0.5
v 1.7 0 0.4
v 1.7 0 0.2
v 1.7 0 0.1
v 1.7 0 -0.1
v 1.7 0 -0.2
v 1.7 0 -0.3
v 1.7 0 -0.4
v 1.7 0 -0.5
v 1.7 0 -0.6
v 1.7 0 -0.7
v 1.7 0.1 0.5
v 1.7 0.1 0.4
v 1.7 0.1 0.2
v 1.7 0.1 0.1
v 1.7 0.1 -0.1
v 1.7 0.1 -0.2
v 1.7 0.1 -0.3
v 1.7 0.1 -0.4
v 1.7 0.1 -0.5
v 1.7 0.1 -0.6
v 1.7 0.1 -0.7
v 1.8 0 0.6
v 1.8 0 0.5
v 1.8 0 -0.7
v 1.8 0 -0.8
v 1.8 0.1 0.6
v 1.8 0.1 0.5
v 1.8 0.1 -0.7
v 1.8 0.1 -0.8
v 1.1 0 0.2
v 1.1 0 0.1
v 1.1 0.1 0.2
v 1.1 0.1 0.1
v 1.2 0 0.4
v 1.2 0 0.3
v 1.2 0 0.1
v 1.2 0 -5.96046e-008
v 1.2 0 -0.5
v 1.2 0 -0.6
v 1.2 0.1 0.4
v 1.2 0.1 0.3
v 1.2 0.1 0.1
v 1.2 0.1 -5.96046e-008
v 1.2 0.1 -0.5
v 1.2 0.1 -0.6
v 1.3 0 -0.6
v 1.3 0 -0.7
v 1.3 0 -0.8
v 1.3 0 -0.9
v 1.3 0.1 -0.6
v 1.3 0.1 -0.7
v 1.3 0.1 -0.8
v 1.3 0.1 -0.9
v 1.4 0 0.7
v 1.4 0 0.6
v 1.4 0 0.5
v 1.4 0 0.4
v 1.4 0 -5.96046e-008
v 1.4 0 -0.1
v 1.4 0 -0.4
v 1.4 0 -0.5
v 1.4 0 -0.7
v 1.4 0 -0.8
v 1.4 0.1 0.7
v 1.4 0.1 0.6
v 1.4 0.1 0.5
v 1.4 0.1 0.4
v 1.4 0.1 -5.96046e-008
v 1.4 0.1 -0.1
v 1.4 0.1 -0.4
v 1.4 0.1 -0.5
v 1.4 0.1 -0.7
v 1.4 0.1 -0.8
v 1.5 0 0.6
v 1.5 0 0.5
v 1.5 0 0.3
v 1.5 0 0.2
v 1.5 0.1 0.6
v 1.5 0.1 0.5
v 1.5 0.1 0.3
v 1.5 0.1 0.2
v 1.9 0 0.6
v 1.9 0 -0.8
v 1.9 0.1 0.6
v 1.9 0.1 -0.8
v 1.3 0 0.7
v 1.3 0.1 0.7
v 1.4 0 0.7
v 1.4 0.1 0.7
v 1.2 0 0.6
v 1.2 0.1 0.6
v 1.3 0 0.6
v 1.3 0.1 0.6
v 1.4 0 0.6
v 1.4 0.1 0.6
v 1.5 0 0.6
v 1.5 0.1 0.6
v 1.8 0 0.6
v 1.8 0.1 0.6
v 1.9 0 0.6
v 1.9 0.1 0.6
v 1.7 0 0.5
v 1.7 0.1 0.5
v 1.8 0 0.5
v 1.8 0.1 0.5
v 1.1 0 0.4
v 1.1 0.1 0.4
v 1.2 0 0.4
v 1.2 0.1 0.4
v 1.2 0 0.3
v 1.2 0.1 0.3
v 1.5 0 0.3
v 1.5 0.1 0.3
v 1 0 0.2
v 1 0.1 0.2
v 1.1 0 0.2
v 1.1 0.1 0.2
v 1.5 0 0.2
v 1.5 0.1 0.2
v 1.7 0 0.2
v 1.7 0.1 0.2
v 0.9 0 0.1
v 0.9 0.1 0.1
v 1 0 0.1
v 1 0.1 0.1
v 1.1 0 0.1
v 1.1 0.1 0.1
v 1.2 0 0.1
v 1.2 0.1 0.1
v 1.2 0 -5.96046e-008
v 1.2 0.1 -5.96046e-008
v 1.4 0 -5.96046e-008
v 1.4 0.1 -5.96046e-008
v 1.4 0 -0.1
v 1.4 0.1 -0.1
v 1.7 0 -0.1
v 1.7 0.1 -0.1
v 1.4 0 -0.3
v 1.4 0.1 -0.3
v 1.7 0 -0.3
v 1.7 0.1 -0.3
v 1.2 0 -0.4
v 1.2 0.1 -0.4
v 1.4 0 -0.4
v 1.4 0.1 -0.4
v 1.1 0 -0.5
v 1.1 0.1 -0.5
v 1.2 0 -0.5
v 1.2 0.1 -0.5
v 1.2 0 -0.6
v 1.2 0.1 -0.6
v 1.3 0 -0.6
v 1.3 0.1 -0.6
v 1.3 0 -0.7
v 1.3 0.1 -0.7
v 1.4 0 -0.7
v 1.4 0.1 -0.7
v 1.4 0 0.5
v 1.4 0.1 0.5
v 1.5 0 0.5
v 1.5 0.1 0.5
v 1.2 0 0.4
v 1.2 0.1 0.4
v 1.3 0 0.4
v 1.3 0.1 0.4
v 1.4 0 0.4
v 1.4 0.1 0.4
v 1.1 0 0.3
v 1.1 0.1 0.3
v 1.2 0 0.3
v 1.2 0.1 0.3
v 1.2 0 0.2
v 1.2 0.1 0.2
v 1.5 0 0.2
v 1.5 0.1 0.2
v 1.5 0 0.1
v 1.5 0.1 0.1
v 1.7 0 0.1
v 1.7 0.1 0.1
v 0.9 0 -5.96046e-008
v 0.9 0.1 -5.96046e-008
v 1 0 -5.96046e-008
v 1 0.1 -5.96046e-008
v 1 0 -0.1
v 1 0.1 -0.1
v 1.1 0 -0.1
v 1.1 0.1 -0.1
v 1.4 0 -0.1
v 1.4 0.1 -0.1
v 1.4 0 -0.2
v 1.4 0.1 -0.2
v 1.7 0 -0.2
v 1.7 0.1 -0.2
v 1.4 0 -0.4
v 1.4 0.1 -0.4
v 1.7 0 -0.4
v 1.7 0.1 -0.4
v 1.2 0 -0.5
v 1.2 0.1 -0.5
v 1.4 0 -0.5
v 1.4 0.1 -0.5
v 1.7 0 -0.7
v 1.7 0.1 -0.7
v 1.8 0 -0.7
v 1.8 0.1 -0.7
v 1.1 0 -0.8
v 1.1 0.1 -0.8
v 1.2 0 -0.8
v 1.2 0.1 -0.8
v 1.3 0 -0.8
v 1.3 0.1 -0.8
v 1.4 0 -0.8
v 1.4 0.1 -0.8
v 1.8 0 -0.8
v 1.8 0.1 -0.8
v 1.9 0 -0.8
v 1.9 0.1 -0.8
v 1.2 0 -0.9
v 1.2 0.1 -0.9
v 1.3 0 -0.9
v 1.3 0.1 -0.9
v 1.3 0 0.7
v 1.4 0 0.7
v 1.2 0 0.6
v 1.3 0 0.6
v 1.4 0 0.6
v 1.5 0 0.6
v 1.8 0 0.6
v 1.9 0 0.6
v 1.2 0 0.5
v 1.3 0 0.5
v 1.4 0 0.5
v 1.5 0 0.5
v 1.7 0 0.5
v 1.8 0 0.5
v 1.1 0 0.4
v 1.2 0 0.4
v 1.3 0 0.4
v 1.4 0 0.4
v 1.7 0 0.4
v 1.8 0 0.4
v 1.1 0 0.3
v 1.2 0 0.3
v 1.5 0 0.3
v 1 0 0.2
v 1.1 0 0.2
v 1.2 0 0.2
v 1.5 0 0.2
v 1.7 0 0.2
v 1.8 0 0.2
v 0.9 0 0.1
v 1 0 0.1
v 1.1 0 0.1
v 1.2 0 0.1
v 1.5 0 0.1
v 1.7 0 0.1
v 0.9 0 -5.96046e-008
v 1 0 -5.96046e-008
v 1.1 0 -5.96046e-008
v 1.2 0 -5.96046e-008
v 1.4 0 -5.96046e-008
v 1 0 -0.1
v 1.1 0 -0.1
v 1.4 0 -0.1
v 1.7 0 -0.1
v 1.8 0 -0.1
v 1.4 0 -0.2
v 1.7 0 -0.2
v 1.8 0 -0.2
v 1.4 0 -0.3
v 1.7 0 -0.3
v 1.2 0 -0.4
v 1.4 0 -0.4
v 1.7 0 -0.4
v 1.8 0 -0.4
v 1.1 0 -0.5
v 1.2 0 -0.5
v 1.4 0 -0.5
v 1.7 0 -0.5
v 1.8 0 -0.5
v 1.2 0 -0.6
v 1.3 0 -0.6
v 1.7 0 -0.6
v 1.8 0 -0.6
v 1.1 0 -0.7
v 1.2 0 -0.7
v 1.3 0 -0.7
v 1.4 0 -0.7
v 1.7 0 -0.7
v 1.8 0 -0.7
v 1.1 0 -0.8
v 1.2 0 -0.8
v 1.3 0 -0.8
v 1.4 0 -0.8
v 1.8 0 -0.8
v 1.9 0 -0.8
v 1.2 0 -0.9
v 1.3 0 -0.9
v 1.3 0.1 0.7
v 1.4 0.1 0.7
v 1.2 0.1 0.6
v 1.3 0.1 0.6
v 1.4 0.1 0.6
v 1.5 0.1 0.6
v 1.8 0.1 0.6
v 1.9 0.1 0.6
v 1.2 0.1 0.5
v 1.3 0.1 0.5
v 1.4 0.1 0.5
v 1.5 0.1 0.5
v 1.7 0.1 0.5
v 1.8 0.1 0.5
v 1.1 0.1 0.4
v 1.2 0.1 0.4
v 1.3 0.1 0.4
v 1.4 0.1 0.4
v 1.7 0.1 0.4
v 1.8 0.1 0.4
v 1.1 0.1 0.3
v 1.2 0.1 0.3
v 1.5 0.1 0.3
v 1 0.1 0.2
v 1.1 0.1 0.2
v 1.2 0.1 0.2
v 1.5 0.1 0.2
v 1.7 0.1 0.2
v 1.8 0.1 0.2
v 0.9 0.1 0.1
v 1 0.1 0.1
v 1.1 0.1 0.1
v 1.2 0.1 0.1
v 1.5 0.1 0.1
v 1.7 0.1 0.1
v 0.9 0.1 -5.96046e-008
v 1 0.1 -5.96046e-008
v 1.1 0.1 -5.96046e-008
v 1.2 0.1 -5.96046e-008
v 1.4 0.1 -5.96046e-008
v 1 0.1 -0.1
v 1.1 0.1 -0.1
v 1.4 0.1 -0.1
v 1.7 0.1 -0.1
v 1.8 0.1 -0.1
v 1.4 0.1 -0.2
v 1.7 0.1 -0.2
v 1.8 0.1 -0.2
v 1.4 0.1 -0.3
v 1.7 0.1 -0.3
v 1.2 0.1 -0.4
v 1.4 0.1 -0.4
v 1.7 0.1 -0.4
v 1.8 0.1 -0.4
v 1.1 0.1 -0.5
v 1.2 0.1 -0.5
v 1.4 0.1 -0.5
v 1.7 0.1 -0.5
v 1.8 0.1 -0.5
v 1.2 0.1 -0.6
v 1.3 0.1 -0.6
v 1.7 0.1 -0.6
v 1.8 0.1 -0.6
v 1.1 0.1 -0.7
v 1.2 0.1 -0.7
v 1.3 0.1 -0.7
v 1.4 0.1 -0.7
v 1.7 0.1 -0.7
v 1.8 0.1 -0.7
v 1.1 0.1 -0.8
v 1.2 0.1 -0.8
v 1.3 0.1 -0.8
v 1.4 0.1 -0.8
v 1.8 0.1 -0.8
v 1.9 0.1 -0.8
v 1.2 0.1 -0.9
v 1.3 0.1 -0.9

# faces
f 3/2/1 2/2/1 1/2/1
f 4/2/1 2/2/1 3/2/1
f 9/2/1 6/2/1 5/2/1
f 10/2/1 6/2/1 9/2/1
f 11/2/1 8/2/1 7/2/1
f 12/2/1 8/2/1 11/2/1
f 18/1/1 14/1/1 13/1/1
f 19/1/1 14/1/1 18/1/1
f 20/1/1 16/1/1 15/1/1
f 21/2/1 17/2/1 16/2/1
f 21/1/1 16/1/1 20/1/1
f 22/2/1 17/2/1 21/2/1
f 32/2/1 24/2/1 23/2/1
f 33/1/1 25/1/1 24/1/1
f 33/2/1 24/2/1 32/2/1
f 34/1/1 25/1/1 33/1/1
f 35/1/1 27/1/1 26/1/1
f 36/1/1 27/1/1 35/1/1
f 37/1/1 29/1/1 28/1/1
f 38/1/1 29/1/1 37/1/1
f 39/2/1 31/2/1 30/2/1
f 40/2/1 31/2/1 39/2/1
f 43/2/1 42/2/1 41/2/1
f 44/2/1 42/2/1 43/2/1
f 49/1/1 46/1/1 45/1/1
f 50/1/1 46/1/1 49/1/1
f 51/1/1 48/1/1 47/1/1
f 52/1/1 48/1/1 51/1/1
f 55/1/1 54/1/1 53/1/1
f 56/1/1 54/1/1 55/1/1
f 68/6/1 58/6/1 57/6/1
f 69/4/1 59/4/1 58/4/1
f 69/6/1 58/6/1 68/6/1
f 70/4/1 59/4/1 69/4/1
f 71/6/1 61/6/1 60/6/1
f 72/6/1 61/6/1 71/6/1
f 73/6/1 63/6/1 62/6/1
f 74/6/1 63/6/1 73/6/1
f 75/4/1 65/4/1 64/4/1
f 76/6/1 66/6/1 65/6/1
f 76/4/1 65/4/1 75/4/1
f 77/4/1 67/4/1 66/4/1
f 77/6/1 66/6/1 76/6/1
f 78/4/1 67/4/1 77/4/1
f 83/3/1 80/3/1 79/3/1
f 84/3/1 80/3/1 83/3/1
f 85/3/1 82/3/1 81/3/1
f 86/3/1 82/3/1 85/3/1
f 87/2/2 88/2/2 89/2/2
f 89/2/2 88/2/2 90/2/2
f 91/1/2 92/1/2 97/1/2
f 97/1/2 92/1/2 98/1/2
f 93/2/2 94/2/2 99/2/2
f 99/2/2 94/2/2 100/2/2
f 95/1/2 96/1/2 101/1/2
f 101/1/2 96/1/2 102/1/2
f 103/2/2 104/2/2 107/2/2
f 107/2/2 104/2/2 108/2/2
f 105/2/2 106/2/2 109/2/2
f 109/2/2 106/2/2 110/2/2
f 111/2/2 112/2/2 121/2/2
f 121/2/2 112/2/2 122/2/2
f 113/2/2 114/2/2 123/2/2
f 123/2/2 114/2/2 124/2/2
f 115/1/2 116/1/2 125/1/2
f 125/1/2 116/1/2 126/1/2
f 117/1/2 118/1/2 127/1/2
f 127/1/2 118/1/2 128/1/2
f 119/2/2 120/2/2 129/2/2
f 129/2/2 120/2/2 130/2/2
f 131/2/2 132/2/2 135/2/2
f 135/2/2 132/2/2 136/2/2
f 133/1/2 134/1/2 137/1/2
f 137/1/2 134/1/2 138/1/2
f 139/3/2 140/3/2 141/3/2
f 141/3/2 140/3/2 142/3/2
f 145/2/3 144/2/3 143/2/3
f 146/2/3 144/2/3 145/2/3
f 149/2/3 148/2/3 147/2/3
f 150/2/3 148/2/3 149/2/3
f 153/2/3 152/2/3 151/2/3
f 154/2/3 152/2/3 153/2/3
f 157/3/3 156/3/3 155/3/3
f 158/3/3 156/3/3 157/3/3
f 161/6/3 160/6/3 159/6/3
f 162/6/3 160/6/3 161/6/3
f 165/1/3 164/1/3 163/1/3
f 166/1/3 164/1/3 165/1/3
f 169/1/3 168/1/3 167/1/3
f 170/1/3 168/1/3 169/1/3
f 173/2/3 172/2/3 171/2/3
f 174/2/3 172/2/3 173/2/3
f 177/1/3 176/1/3 175/1/3
f 178/1/3 176/1/3 177/1/3
f 181/2/3 180/2/3 179/2/3
f 182/2/3 180/2/3 181/2/3
f 185/2/3 184/2/3 183/2/3
f 186/2/3 184/2/3 185/2/3
f 189/1/3 188/1/3 187/1/3
f 190/1/3 188/1/3 189/1/3
f 193/1/3 192/1/3 191/1/3
f 194/1/3 192/1/3 193/1/3
f 197/1/3 196/1/3 195/1/3
f 198/1/3 196/1/3 197/1/3
f 201/1/3 200/1/3 199/1/3
f 202/1/3 200/1/3 201/1/3
f 205/1/3 204/1/3 203/1/3
f 206/1/3 204/1/3 205/1/3
f 209/2/3 208/2/3 207/2/3
f 210/2/3 208/2/3 209/2/3
f 213/2/3 212/2/3 211/2/3
f 214/2/3 212/2/3 213/2/3
f 215/2/4 216/2/4 217/2/4
f 217/2/4 216/2/4 218/2/4
f 219/1/4 220/1/4 221/1/4
f 221/1/4 220/1/4 222/1/4
f 221/2/4 222/2/4 223/2/4
f 223/2/4 222/2/4 224/2/4
f 225/1/4 226/1/4 227/1/4
f 227/1/4 226/1/4 228/1/4
f 229/1/4 230/1/4 231/1/4
f 231/1/4 230/1/4 232/1/4
f 233/1/4 234/1/4 235/1/4
f 235/1/4 234/1/4 236/1/4
f 237/2/4 238/2/4 239/2/4
f 239/2/4 238/2/4 240/2/4
f 241/2/4 242/2/4 243/2/4
f 243/2/4 242/2/4 244/2/4
f 243/1/4 244/1/4 245/1/4
f 245/1/4 244/1/4 246/1/4
f 247/1/4 248/1/4 249/1/4
f 249/1/4 248/1/4 250/1/4
f 251/1/4 252/1/4 253/1/4
f 253/1/4 252/1/4 254/1/4
f 255/1/4 256/1/4 257/1/4
f 257/1/4 256/1/4 258/1/4
f 259/4/4 260/4/4 261/4/4
f 261/4/4 260/4/4 262/4/4
f 263/2/4 264/2/4 265/2/4
f 265/2/4 264/2/4 266/2/4
f 267/2/4 268/2/4 269/2/4
f 269/2/4 268/2/4 270/2/4
f 271/3/4 272/3/4 273/3/4
f 273/3/4 272/3/4 274/3/4
f 275/2/4 276/2/4 277/2/4
f 277/2/4 276/2/4 278/2/4
f 282/2/5 280/2/5 279/2/5
f 283/2/5 280/2/5 282/2/5
f 287/2/5 282/2/5 281/2/5
f 288/5/5 283/5/5 282/5/5
f 288/2/5 282/2/5 287/2/5
f 289/2/5 284/2/5 283/2/5
f 289/5/5 283/5/5 288/5/5
f 290/2/5 284/2/5 289/2/5
f 292/3/5 286/3/5 285/3/5
f 294/1/5 288/1/5 287/1/5
f 295/2/5 289/2/5 288/2/5
f 295/1/5 288/1/5 294/1/5
f 296/2/5 289/2/5 295/2/5
f 297/6/5 292/6/5 291/6/5
f 298/3/5 286/3/5 292/3/5
f 298/6/5 292/6/5 297/6/5
f 299/1/5 294/1/5 293/1/5
f 300/1/5 294/1/5 299/1/5
f 304/1/5 301/1/5 300/1/5
f 305/1/5 301/1/5 304/1/5
f 306/4/5 298/4/5 297/4/5
f 307/3/5 286/3/5 298/3/5
f 307/4/5 298/4/5 306/4/5
f 309/2/5 303/2/5 302/2/5
f 310/2/5 303/2/5 309/2/5
f 312/1/5 306/1/5 305/1/5
f 313/6/5 307/6/5 306/6/5
f 313/1/5 306/1/5 312/1/5
f 314/2/5 309/2/5 308/2/5
f 315/5/5 310/5/5 309/5/5
f 315/2/5 309/2/5 314/2/5
f 316/2/5 311/2/5 310/2/5
f 316/5/5 310/5/5 315/5/5
f 317/2/5 311/2/5 316/2/5
f 319/2/5 316/2/5 315/2/5
f 320/1/5 318/1/5 317/1/5
f 320/2/5 316/2/5 319/2/5
f 320/1/5 317/1/5 316/1/5
f 321/1/5 318/1/5 320/1/5
f 322/6/5 307/6/5 313/6/5
f 323/3/5 286/3/5 307/3/5
f 323/6/5 307/6/5 322/6/5
f 324/1/5 322/1/5 321/1/5
f 325/4/5 323/4/5 322/4/5
f 325/1/5 322/1/5 324/1/5
f 326/3/5 286/3/5 323/3/5
f 326/4/5 323/4/5 325/4/5
f 328/6/5 326/6/5 325/6/5
f 330/1/5 328/1/5 327/1/5
f 331/6/5 326/6/5 328/6/5
f 331/1/5 328/1/5 330/1/5
f 332/3/5 286/3/5 326/3/5
f 332/6/5 326/6/5 331/6/5
f 334/1/5 330/1/5 329/1/5
f 335/1/5 330/1/5 334/1/5
f 336/4/5 332/4/5 331/4/5
f 337/3/5 286/3/5 332/3/5
f 337/4/5 332/4/5 336/4/5
f 338/1/5 334/1/5 333/1/5
f 340/6/5 337/6/5 336/6/5
f 341/3/5 286/3/5 337/3/5
f 341/6/5 337/6/5 340/6/5
f 342/1/5 338/1/5 333/1/5
f 343/2/5 339/2/5 338/2/5
f 343/1/5 338/1/5 342/1/5
f 344/2/5 339/2/5 343/2/5
f 346/4/5 341/4/5 340/4/5
f 347/3/5 286/3/5 341/3/5
f 347/4/5 341/4/5 346/4/5
f 348/2/5 343/2/5 342/2/5
f 349/5/5 344/5/5 343/5/5
f 349/2/5 343/2/5 348/2/5
f 350/2/5 345/2/5 344/2/5
f 350/5/5 344/5/5 349/5/5
f 351/2/5 345/2/5 350/2/5
f 352/3/5 286/3/5 347/3/5
f 353/3/5 286/3/5 352/3/5
f 354/2/5 350/2/5 349/2/5
f 355/2/5 350/2/5 354/2/5
f 356/2/6 357/2/6 359/2/6
f 359/2/6 357/2/6 360/2/6
f 358/2/6 359/2/6 364/2/6
f 359/5/6 360/5/6 365/5/6
f 364/2/6 359/2/6 365/2/6
f 360/2/6 361/2/6 366/2/6
f 365/5/6 360/5/6 366/5/6
f 366/2/6 361/2/6 367/2/6
f 362/3/6 363/3/6 369/3/6
f 364/1/6 365/1/6 371/1/6
f 365/2/6 366/2/6 372/2/6
f 371/1/6 365/1/6 372/1/6
f 372/2/6 366/2/6 373/2/6
f 368/6/6 369/6/6 374/6/6
f 369/3/6 363/3/6 375/3/6
f 374/6/6 369/6/6 375/6/6
f 370/1/6 371/1/6 376/1/6
f 376/1/6 371/1/6 377/1/6
f 377/1/6 378/1/6 381/1/6
f 381/1/6 378/1/6 382/1/6
f 374/4/6 375/4/6 383/4/6
f 375/3/6 363/3/6 384/3/6
f 383/4/6 375/4/6 384/4/6
f 379/2/6 380/2/6 386/2/6
f 386/2/6 380/2/6 387/2/6
f 382/1/6 383/1/6 389/1/6
f 383/6/6 384/6/6 390/6/6
f 389/1/6 383/1/6 390/1/6
f 385/2/6 386/2/6 391/2/6
f 386/5/6 387/5/6 392/5/6
f 391/2/6 386/2/6 392/2/6
f 387/2/6 388/2/6 393/2/6
f 392/5/6 387/5/6 393/5/6
f 393/2/6 388/2/6 394/2/6
f 392/2/6 393/2/6 396/2/6
f 394/1/6 395/1/6 397/1/6
f 396/2/6 393/2/6 397/2/6
f 393/1/6 394/1/6 397/1/6
f 397/1/6 395/1/6 398/1/6
f 390/6/6 384/6/6 399/6/6
f 384/3/6 363/3/6 400/3/6
f 399/6/6 384/6/6 400/6/6
f 398/1/6 399/1/6 401/1/6
f 399/4/6 400/4/6 402/4/6
f 401/1/6 399/1/6 402/1/6
f 400/3/6 363/3/6 403/3/6
f 402/4/6 400/4/6 403/4/6
f 402/6/6 403/6/6 405/6/6
f 404/1/6 405/1/6 407/1/6
f 405/6/6 403/6/6 408/6/6
f 407/1/6 405/1/6 408/1/6
f 403/3/6 363/3/6 409/3/6
f 408/6/6 403/6/6 409/6/6
f 406/1/6 407/1/6 411/1/6
f 411/1/6 407/1/6 412/1/6
f 408/4/6 409/4/6 413/4/6
f 409/3/6 363/3/6 414/3/6
f 413/4/6 409/4/6 414/4/6
f 410/1/6 411/1/6 415/1/6
f 413/6/6 414/6/6 417/6/6
f 414/3/6 363/3/6 418/3/6
f 417/6/6 414/6/6 418/6/6
f 410/1/6 415/1/6 419/1/6
f 415/2/6 416/2/6 420/2/6
f 419/1/6 415/1/6 420/1/6
f 420/2/6 416/2/6 421/2/6
f 417/4/6 418/4/6 423/4/6
f 418/3/6 363/3/6 424/3/6
f 423/4/6 418/4/6 424/4/6
f 419/2/6 420/2/6 425/2/6
f 420/5/6 421/5/6 426/5/6
f 425/2/6 420/2/6 426/2/6
f 421/2/6 422/2/6 427/2/6
f 426/5/6 421/5/6 427/5/6
f 427/2/6 422/2/6 428/2/6
f 424/3/6 363/3/6 429/3/6
f 429/3/6 363/3/6 430/3/6
f 426/2/6 427/2/6 431/2/6
f 431/2/6 427/2/6 432/2/6
