# MagicaVoxel @ Ephtracy

# group
o 

# material
mtllib Rock2.mtl
usemtl palette

# normals
vn -1 0 0
vn 1 0 0
vn 0 0 1
vn 0 0 -1
vn 0 -1 0
vn 0 1 0

# texcoords
vt 0.962891 0.5
vt 0.966797 0.5

# verts
v -0.6 0 0.9
v -0.6 0 0.6
v -0.6 0.1 0.9
v -0.6 0.1 0.6
v -0.5 0 0.6
v -0.5 0 0.5
v -0.5 0.1 0.6
v -0.5 0.1 0.5
v -0.3 0 0.5
v -0.3 0 0.3
v -0.3 0.1 0.5
v -0.3 0.1 0.3
v -0.2 0 0.3
v -0.2 0 0.1
v -0.2 0.1 0.3
v -0.2 0.1 0.1
v -0.0999999 0 0.1
v -0.0999999 0 0
v -0.0999999 0.1 0.1
v -0.0999999 0.1 0
v 0.2 0 0.1
v 0.2 0 0
v 0.2 0.1 0.1
v 0.2 0.1 0
v 0.4 0 0.3
v 0.4 0 0.1
v 0.4 0.1 0.3
v 0.4 0.1 0.1
v 0.5 0 0.5
v 0.5 0 0.3
v 0.5 0.1 0.5
v 0.5 0.1 0.3
v 0.6 0 0.6
v 0.6 0 0.5
v 0.6 0.1 0.6
v 0.6 0.1 0.5
v 0.7 0 0.9
v 0.7 0 0.6
v 0.7 0.1 0.9
v 0.7 0.1 0.6
v -0.6 0 0.9
v -0.6 0.1 0.9
v 0.7 0 0.9
v 0.7 0.1 0.9
v -0.6 0 0.6
v -0.6 0.1 0.6
v -0.5 0 0.6
v -0.5 0.1 0.6
v 0.6 0 0.6
v 0.6 0.1 0.6
v 0.7 0 0.6
v 0.7 0.1 0.6
v -0.5 0 0.5
v -0.5 0.1 0.5
v -0.3 0 0.5
v -0.3 0.1 0.5
v 0.5 0 0.5
v 0.5 0.1 0.5
v 0.6 0 0.5
v 0.6 0.1 0.5
v -0.3 0 0.3
v -0.3 0.1 0.3
v -0.2 0 0.3
v -0.2 0.1 0.3
v 0.4 0 0.3
v 0.4 0.1 0.3
v 0.5 0 0.3
v 0.5 0.1 0.3
v -0.2 0 0.1
v -0.2 0.1 0.1
v -0.0999999 0 0.1
v -0.0999999 0.1 0.1
v 0.2 0 0.1
v 0.2 0.1 0.1
v 0.4 0 0.1
v 0.4 0.1 0.1
v -0.0999999 0 0
v -0.0999999 0.1 0
v 0.2 0 0
v 0.2 0.1 0
v -0.6 0 0.9
v 0.7 0 0.9
v -0.5 0 0.8
v -0.2 0 0.8
v 5.96046e-008 0 0.8
v 0.2 0 0.8
v 0.3 0 0.8
v 0.6 0 0.8
v -0.5 0 0.7
v -0.4 0 0.7
v -0.0999999 0 0.7
v 5.96046e-008 0 0.7
v 0.2 0 0.7
v 0.3 0 0.7
v -0.6 0 0.6
v -0.5 0 0.6
v -0.4 0 0.6
v -0.2 0 0.6
v 5.96046e-008 0 0.6
v 0.1 0 0.6
v 0.2 0 0.6
v 0.6 0 0.6
v 0.7 0 0.6
v -0.5 0 0.5
v -0.3 0 0.5
v -0.2 0 0.5
v -0.0999999 0 0.5
v 0.1 0 0.5
v 0.4 0 0.5
v 0.5 0 0.5
v 0.6 0 0.5
v -0.2 0 0.4
v -0.0999999 0 0.4
v 0.3 0 0.4
v 0.4 0 0.4
v -0.3 0 0.3
v -0.2 0 0.3
v 0.4 0 0.3
v 0.5 0 0.3
v -0.0999999 0 0.2
v 5.96046e-008 0 0.2
v 0.1 0 0.2
v 0.3 0 0.2
v -0.2 0 0.1
v -0.0999999 0 0.1
v 5.96046e-008 0 0.1
v 0.1 0 0.1
v 0.2 0 0.1
v 0.4 0 0.1
v -0.0999999 0 0
v 0.2 0 0
v -0.6 0.1 0.9
v 0.7 0.1 0.9
v -0.5 0.1 0.8
v -0.2 0.1 0.8
v 5.96046e-008 0.1 0.8
v 0.2 0.1 0.8
v 0.3 0.1 0.8
v 0.6 0.1 0.8
v -0.5 0.1 0.7
v -0.4 0.1 0.7
v -0.0999999 0.1 0.7
v 5.96046e-008 0.1 0.7
v 0.2 0.1 0.7
v 0.3 0.1 0.7
v -0.6 0.1 0.6
v -0.5 0.1 0.6
v -0.4 0.1 0.6
v -0.2 0.1 0.6
v 5.96046e-008 0.1 0.6
v 0.1 0.1 0.6
v 0.2 0.1 0.6
v 0.6 0.1 0.6
v 0.7 0.1 0.6
v -0.5 0.1 0.5
v -0.3 0.1 0.5
v -0.2 0.1 0.5
v -0.0999999 0.1 0.5
v 0.1 0.1 0.5
v 0.4 0.1 0.5
v 0.5 0.1 0.5
v 0.6 0.1 0.5
v -0.2 0.1 0.4
v -0.0999999 0.1 0.4
v 0.3 0.1 0.4
v 0.4 0.1 0.4
v -0.3 0.1 0.3
v -0.2 0.1 0.3
v 0.4 0.1 0.3
v 0.5 0.1 0.3
v -0.0999999 0.1 0.2
v 5.96046e-008 0.1 0.2
v 0.1 0.1 0.2
v 0.3 0.1 0.2
v -0.2 0.1 0.1
v -0.0999999 0.1 0.1
v 5.96046e-008 0.1 0.1
v 0.1 0.1 0.1
v 0.2 0.1 0.1
v 0.4 0.1 0.1
v -0.0999999 0.1 0
v 0.2 0.1 0

# faces
f 3/2/1 2/2/1 1/2/1
f 4/2/1 2/2/1 3/2/1
f 7/2/1 6/2/1 5/2/1
f 8/2/1 6/2/1 7/2/1
f 11/2/1 10/2/1 9/2/1
f 12/2/1 10/2/1 11/2/1
f 15/2/1 14/2/1 13/2/1
f 16/2/1 14/2/1 15/2/1
f 19/2/1 18/2/1 17/2/1
f 20/2/1 18/2/1 19/2/1
f 21/2/2 22/2/2 23/2/2
f 23/2/2 22/2/2 24/2/2
f 25/2/2 26/2/2 27/2/2
f 27/2/2 26/2/2 28/2/2
f 29/2/2 30/2/2 31/2/2
f 31/2/2 30/2/2 32/2/2
f 33/2/2 34/2/2 35/2/2
f 35/2/2 34/2/2 36/2/2
f 37/2/2 38/2/2 39/2/2
f 39/2/2 38/2/2 40/2/2
f 43/2/3 42/2/3 41/2/3
f 44/2/3 42/2/3 43/2/3
f 45/2/4 46/2/4 47/2/4
f 47/2/4 46/2/4 48/2/4
f 49/2/4 50/2/4 51/2/4
f 51/2/4 50/2/4 52/2/4
f 53/2/4 54/2/4 55/2/4
f 55/2/4 54/2/4 56/2/4
f 57/2/4 58/2/4 59/2/4
f 59/2/4 58/2/4 60/2/4
f 61/2/4 62/2/4 63/2/4
f 63/2/4 62/2/4 64/2/4
f 65/2/4 66/2/4 67/2/4
f 67/2/4 66/2/4 68/2/4
f 69/2/4 70/2/4 71/2/4
f 71/2/4 70/2/4 72/2/4
f 73/2/4 74/2/4 75/2/4
f 75/2/4 74/2/4 76/2/4
f 77/2/4 78/2/4 79/2/4
f 79/2/4 78/2/4 80/2/4
f 83/2/5 82/2/5 81/2/5
f 84/2/5 82/2/5 83/2/5
f 85/2/5 82/2/5 84/2/5
f 86/2/5 82/2/5 85/2/5
f 87/2/5 82/2/5 86/2/5
f 88/2/5 82/2/5 87/2/5
f 89/2/5 83/2/5 81/2/5
f 89/1/5 84/1/5 83/1/5
f 90/1/5 84/1/5 89/1/5
f 91/2/5 85/2/5 84/2/5
f 92/1/5 86/1/5 85/1/5
f 92/2/5 85/2/5 91/2/5
f 93/2/5 87/2/5 86/2/5
f 93/1/5 86/1/5 92/1/5
f 94/1/5 88/1/5 87/1/5
f 94/2/5 87/2/5 93/2/5
f 95/2/5 89/2/5 81/2/5
f 95/2/5 90/2/5 89/2/5
f 96/2/5 90/2/5 95/2/5
f 97/1/5 84/1/5 90/1/5
f 97/2/5 90/2/5 96/2/5
f 98/2/5 91/2/5 84/2/5
f 98/1/5 84/1/5 97/1/5
f 99/2/5 93/2/5 92/2/5
f 99/1/5 92/1/5 91/1/5
f 100/2/5 93/2/5 99/2/5
f 101/1/5 94/1/5 93/1/5
f 101/2/5 93/2/5 100/2/5
f 102/2/5 82/2/5 88/2/5
f 102/1/5 94/1/5 101/1/5
f 102/1/5 88/1/5 94/1/5
f 103/2/5 82/2/5 102/2/5
f 104/2/5 97/2/5 96/2/5
f 104/2/5 98/2/5 97/2/5
f 105/2/5 98/2/5 104/2/5
f 106/2/5 91/2/5 98/2/5
f 106/2/5 98/2/5 105/2/5
f 107/1/5 99/1/5 91/1/5
f 107/2/5 91/2/5 106/2/5
f 107/1/5 100/1/5 99/1/5
f 108/2/5 101/2/5 100/2/5
f 108/1/5 100/1/5 107/1/5
f 108/2/5 102/2/5 101/2/5
f 109/2/5 102/2/5 108/2/5
f 110/2/5 102/2/5 109/2/5
f 111/2/5 102/2/5 110/2/5
f 112/1/5 107/1/5 106/1/5
f 112/2/5 106/2/5 105/2/5
f 112/1/5 109/1/5 108/1/5
f 112/1/5 108/1/5 107/1/5
f 113/1/5 109/1/5 112/1/5
f 114/1/5 109/1/5 113/1/5
f 115/2/5 110/2/5 109/2/5
f 115/1/5 109/1/5 114/1/5
f 116/2/5 112/2/5 105/2/5
f 116/2/5 113/2/5 112/2/5
f 117/2/5 113/2/5 116/2/5
f 118/2/5 110/2/5 115/2/5
f 118/2/5 115/2/5 114/2/5
f 119/2/5 110/2/5 118/2/5
f 120/1/5 114/1/5 113/1/5
f 120/2/5 113/2/5 117/2/5
f 121/1/5 114/1/5 120/1/5
f 122/1/5 114/1/5 121/1/5
f 123/2/5 118/2/5 114/2/5
f 123/1/5 114/1/5 122/1/5
f 124/2/5 120/2/5 117/2/5
f 124/2/5 121/2/5 120/2/5
f 125/2/5 121/2/5 124/2/5
f 126/1/5 122/1/5 121/1/5
f 126/2/5 121/2/5 125/2/5
f 127/2/5 123/2/5 122/2/5
f 127/1/5 122/1/5 126/1/5
f 128/2/5 123/2/5 127/2/5
f 129/2/5 118/2/5 123/2/5
f 129/2/5 123/2/5 128/2/5
f 130/2/5 128/2/5 127/2/5
f 130/2/5 127/2/5 126/2/5
f 130/2/5 126/2/5 125/2/5
f 131/2/5 128/2/5 130/2/5
f 132/2/6 133/2/6 134/2/6
f 134/2/6 133/2/6 135/2/6
f 135/2/6 133/2/6 136/2/6
f 136/2/6 133/2/6 137/2/6
f 137/2/6 133/2/6 138/2/6
f 138/2/6 133/2/6 139/2/6
f 132/2/6 134/2/6 140/2/6
f 134/1/6 135/1/6 140/1/6
f 140/1/6 135/1/6 141/1/6
f 135/2/6 136/2/6 142/2/6
f 136/1/6 137/1/6 143/1/6
f 142/2/6 136/2/6 143/2/6
f 137/2/6 138/2/6 144/2/6
f 143/1/6 137/1/6 144/1/6
f 138/1/6 139/1/6 145/1/6
f 144/2/6 138/2/6 145/2/6
f 132/2/6 140/2/6 146/2/6
f 140/2/6 141/2/6 146/2/6
f 146/2/6 141/2/6 147/2/6
f 141/1/6 135/1/6 148/1/6
f 147/2/6 141/2/6 148/2/6
f 135/2/6 142/2/6 149/2/6
f 148/1/6 135/1/6 149/1/6
f 143/2/6 144/2/6 150/2/6
f 142/1/6 143/1/6 150/1/6
f 150/2/6 144/2/6 151/2/6
f 144/1/6 145/1/6 152/1/6
f 151/2/6 144/2/6 152/2/6
f 139/2/6 133/2/6 153/2/6
f 152/1/6 145/1/6 153/1/6
f 145/1/6 139/1/6 153/1/6
f 153/2/6 133/2/6 154/2/6
f 147/2/6 148/2/6 155/2/6
f 148/2/6 149/2/6 155/2/6
f 155/2/6 149/2/6 156/2/6
f 149/2/6 142/2/6 157/2/6
f 156/2/6 149/2/6 157/2/6
f 142/1/6 150/1/6 158/1/6
f 157/2/6 142/2/6 158/2/6
f 150/1/6 151/1/6 158/1/6
f 151/2/6 152/2/6 159/2/6
f 158/1/6 151/1/6 159/1/6
f 152/2/6 153/2/6 159/2/6
f 159/2/6 153/2/6 160/2/6
f 160/2/6 153/2/6 161/2/6
f 161/2/6 153/2/6 162/2/6
f 157/1/6 158/1/6 163/1/6
f 156/2/6 157/2/6 163/2/6
f 159/1/6 160/1/6 163/1/6
f 158/1/6 159/1/6 163/1/6
f 163/1/6 160/1/6 164/1/6
f 164/1/6 160/1/6 165/1/6
f 160/2/6 161/2/6 166/2/6
f 165/1/6 160/1/6 166/1/6
f 156/2/6 163/2/6 167/2/6
f 163/2/6 164/2/6 167/2/6
f 167/2/6 164/2/6 168/2/6
f 166/2/6 161/2/6 169/2/6
f 165/2/6 166/2/6 169/2/6
f 169/2/6 161/2/6 170/2/6
f 164/1/6 165/1/6 171/1/6
f 168/2/6 164/2/6 171/2/6
f 171/1/6 165/1/6 172/1/6
f 172/1/6 165/1/6 173/1/6
f 165/2/6 169/2/6 174/2/6
f 173/1/6 165/1/6 174/1/6
f 168/2/6 171/2/6 175/2/6
f 171/2/6 172/2/6 175/2/6
f 175/2/6 172/2/6 176/2/6
f 172/1/6 173/1/6 177/1/6
f 176/2/6 172/2/6 177/2/6
f 173/2/6 174/2/6 178/2/6
f 177/1/6 173/1/6 178/1/6
f 178/2/6 174/2/6 179/2/6
f 174/2/6 169/2/6 180/2/6
f 179/2/6 174/2/6 180/2/6
f 178/2/6 179/2/6 181/2/6
f 177/2/6 178/2/6 181/2/6
f 176/2/6 177/2/6 181/2/6
f 181/2/6 179/2/6 182/2/6
