# MagicaVoxel @ Ephtracy

# group
o 

# material
mtllib StreetLight.mtl
usemtl palette

# normals
vn -1 0 0
vn 1 0 0
vn 0 0 1
vn 0 0 -1
vn 0 -1 0
vn 0 1 0

# texcoords
vt 0.974609 0.5
vt 0.978516 0.5
vt 0.982422 0.5
vt 0.986328 0.5

# verts
v -0.6 0 -1.2
v -0.6 0 -1.3
v -0.6 0.1 -1.2
v -0.6 0.1 -1.3
v -0.5 0 -0.8
v -0.5 0 -1.1
v -0.5 0 -1.3
v -0.5 0 -1.4
v -0.5 0.1 -0.8
v -0.5 0.1 -1.1
v -0.5 0.1 -1.3
v -0.5 0.1 -1.4
v -0.4 0 1.2
v -0.4 0 1
v -0.4 0 -0.6
v -0.4 0 -0.8
v -0.4 0 -1.1
v -0.4 0 -1.2
v -0.4 0.1 1.2
v -0.4 0.1 1
v -0.4 0.1 -0.6
v -0.4 0.1 -0.8
v -0.4 0.1 -1.1
v -0.4 0.1 -1.2
v -0.3 0 1
v -0.3 0 0.9
v -0.3 0 -0.5
v -0.3 0 -0.6
v -0.3 0.1 1
v -0.3 0.1 0.9
v -0.3 0.1 -0.5
v -0.3 0.1 -0.6
v -0.2 0 0.9
v -0.2 0 -0.0999999
v -0.2 0 -0.4
v -0.2 0 -0.5
v -0.2 0.1 0.9
v -0.2 0.1 -0.0999999
v -0.2 0.1 -0.4
v -0.2 0.1 -0.5
v -0.1 0 0.9
v -0.1 0 -0.0999999
v -0.1 0 -0.4
v -0.1 0 -0.5
v -0.1 0.1 0.9
v -0.1 0.1 -0.0999999
v -0.1 0.1 -0.4
v -0.1 0.1 -0.5
v -5.96046e-008 0 1
v -5.96046e-008 0 0.9
v -5.96046e-008 0 -0.5
v -5.96046e-008 0 -0.6
v -5.96046e-008 0.1 1
v -5.96046e-008 0.1 0.9
v -5.96046e-008 0.1 -0.5
v -5.96046e-008 0.1 -0.6
v 0.1 0 1.2
v 0.1 0 1
v 0.1 0 -0.6
v 0.1 0 -0.8
v 0.1 0 -1.1
v 0.1 0 -1.2
v 0.1 0.1 1.2
v 0.1 0.1 1
v 0.1 0.1 -0.6
v 0.1 0.1 -0.8
v 0.1 0.1 -1.1
v 0.1 0.1 -1.2
v 0.2 0 -0.8
v 0.2 0 -1.1
v 0.2 0 -1.3
v 0.2 0 -1.4
v 0.2 0.1 -0.8
v 0.2 0.1 -1.1
v 0.2 0.1 -1.3
v 0.2 0.1 -1.4
v 0.3 0 -1.2
v 0.3 0 -1.3
v 0.3 0.1 -1.2
v 0.3 0.1 -1.3
v -0.4 0 1.2
v -0.4 0.1 1.2
v 0.1 0 1.2
v 0.1 0.1 1.2
v -0.3 0 -0.5
v -0.3 0.1 -0.5
v -0.2 0 -0.5
v -0.2 0.1 -0.5
v -0.1 0 -0.5
v -0.1 0.1 -0.5
v -5.96046e-008 0 -0.5
v -5.96046e-008 0.1 -0.5
v -0.4 0 -0.6
v -0.4 0.1 -0.6
v -0.3 0 -0.6
v -0.3 0.1 -0.6
v -5.96046e-008 0 -0.6
v -5.96046e-008 0.1 -0.6
v 0.1 0 -0.6
v 0.1 0.1 -0.6
v -0.5 0 -0.8
v -0.5 0.1 -0.8
v -0.4 0 -0.8
v -0.4 0.1 -0.8
v 0.1 0 -0.8
v 0.1 0.1 -0.8
v 0.2 0 -0.8
v 0.2 0.1 -0.8
v -0.6 0 -1.2
v -0.6 0.1 -1.2
v -0.4 0 -1.2
v -0.4 0.1 -1.2
v 0.1 0 -1.2
v 0.1 0.1 -1.2
v 0.3 0 -1.2
v 0.3 0.1 -1.2
v -0.4 0 1
v -0.4 0.1 1
v -0.3 0 1
v -0.3 0.1 1
v -5.96046e-008 0 1
v -5.96046e-008 0.1 1
v 0.1 0 1
v 0.1 0.1 1
v -0.3 0 0.9
v -0.3 0.1 0.9
v -0.2 0 0.9
v -0.2 0.1 0.9
v -0.1 0 0.9
v -0.1 0.1 0.9
v -5.96046e-008 0 0.9
v -5.96046e-008 0.1 0.9
v -0.5 0 -1.1
v -0.5 0.1 -1.1
v -0.4 0 -1.1
v -0.4 0.1 -1.1
v 0.1 0 -1.1
v 0.1 0.1 -1.1
v 0.2 0 -1.1
v 0.2 0.1 -1.1
v -0.6 0 -1.3
v -0.6 0.1 -1.3
v -0.5 0 -1.3
v -0.5 0.1 -1.3
v 0.2 0 -1.3
v 0.2 0.1 -1.3
v 0.3 0 -1.3
v 0.3 0.1 -1.3
v -0.5 0 -1.4
v -0.5 0.1 -1.4
v 0.2 0 -1.4
v 0.2 0.1 -1.4
v -0.4 0 1.2
v 0.1 0 1.2
v -0.3 0 1.1
v -0.2 0 1.1
v -0.1 0 1.1
v -5.96046e-008 0 1.1
v -0.4 0 1
v -0.3 0 1
v -5.96046e-008 0 1
v 0.1 0 1
v -0.3 0 0.9
v -0.2 0 0.9
v -0.1 0 0.9
v -5.96046e-008 0 0.9
v -0.2 0 -0.0999999
v -0.1 0 -0.0999999
v -0.2 0 -0.4
v -0.1 0 -0.4
v -0.3 0 -0.5
v -0.2 0 -0.5
v -0.1 0 -0.5
v -5.96046e-008 0 -0.5
v -0.4 0 -0.6
v -0.3 0 -0.6
v -0.2 0 -0.6
v -0.1 0 -0.6
v -5.96046e-008 0 -0.6
v 0.1 0 -0.6
v -0.3 0 -0.7
v -0.2 0 -0.7
v -0.1 0 -0.7
v -5.96046e-008 0 -0.7
v -0.5 0 -0.8
v -0.4 0 -0.8
v -0.3 0 -0.8
v -5.96046e-008 0 -0.8
v 0.1 0 -0.8
v 0.2 0 -0.8
v -0.4 0 -0.9
v -0.3 0 -0.9
v -0.2 0 -0.9
v -5.96046e-008 0 -0.9
v 0.1 0 -0.9
v -0.3 0 -1
v -0.2 0 -1
v -5.96046e-008 0 -1
v 0.1 0 -1
v -0.5 0 -1.1
v -0.4 0 -1.1
v -0.2 0 -1.1
v -0.1 0 -1.1
v -5.96046e-008 0 -1.1
v 0.1 0 -1.1
v 0.2 0 -1.1
v -0.6 0 -1.2
v -0.4 0 -1.2
v 0.1 0 -1.2
v 0.3 0 -1.2
v -0.6 0 -1.3
v -0.5 0 -1.3
v 0.2 0 -1.3
v 0.3 0 -1.3
v -0.5 0 -1.4
v 0.2 0 -1.4
v -0.4 0.1 1.2
v 0.1 0.1 1.2
v -0.3 0.1 1.1
v -0.2 0.1 1.1
v -0.1 0.1 1.1
v -5.96046e-008 0.1 1.1
v -0.4 0.1 1
v -0.3 0.1 1
v -5.96046e-008 0.1 1
v 0.1 0.1 1
v -0.3 0.1 0.9
v -0.2 0.1 0.9
v -0.1 0.1 0.9
v -5.96046e-008 0.1 0.9
v -0.2 0.1 -0.0999999
v -0.1 0.1 -0.0999999
v -0.2 0.1 -0.4
v -0.1 0.1 -0.4
v -0.3 0.1 -0.5
v -0.2 0.1 -0.5
v -0.1 0.1 -0.5
v -5.96046e-008 0.1 -0.5
v -0.4 0.1 -0.6
v -0.3 0.1 -0.6
v -0.2 0.1 -0.6
v -0.1 0.1 -0.6
v -5.96046e-008 0.1 -0.6
v 0.1 0.1 -0.6
v -0.3 0.1 -0.7
v -0.2 0.1 -0.7
v -0.1 0.1 -0.7
v -5.96046e-008 0.1 -0.7
v -0.5 0.1 -0.8
v -0.4 0.1 -0.8
v -0.3 0.1 -0.8
v -5.96046e-008 0.1 -0.8
v 0.1 0.1 -0.8
v 0.2 0.1 -0.8
v -0.4 0.1 -0.9
v -0.3 0.1 -0.9
v -0.2 0.1 -0.9
v -5.96046e-008 0.1 -0.9
v 0.1 0.1 -0.9
v -0.3 0.1 -1
v -0.2 0.1 -1
v -5.96046e-008 0.1 -1
v 0.1 0.1 -1
v -0.5 0.1 -1.1
v -0.4 0.1 -1.1
v -0.2 0.1 -1.1
v -0.1 0.1 -1.1
v -5.96046e-008 0.1 -1.1
v 0.1 0.1 -1.1
v 0.2 0.1 -1.1
v -0.6 0.1 -1.2
v -0.4 0.1 -1.2
v 0.1 0.1 -1.2
v 0.3 0.1 -1.2
v -0.6 0.1 -1.3
v -0.5 0.1 -1.3
v 0.2 0.1 -1.3
v 0.3 0.1 -1.3
v -0.5 0.1 -1.4
v 0.2 0.1 -1.4

# faces
f 3/2/1 2/2/1 1/2/1
f 4/2/1 2/2/1 3/2/1
f 9/1/1 6/1/1 5/1/1
f 10/1/1 6/1/1 9/1/1
f 11/2/1 8/2/1 7/2/1
f 12/2/1 8/2/1 11/2/1
f 19/2/1 14/2/1 13/2/1
f 20/2/1 14/2/1 19/2/1
f 21/1/1 16/1/1 15/1/1
f 22/1/1 16/1/1 21/1/1
f 23/1/1 18/1/1 17/1/1
f 24/1/1 18/1/1 23/1/1
f 29/1/1 26/1/1 25/1/1
f 30/1/1 26/1/1 29/1/1
f 31/2/1 28/2/1 27/2/1
f 32/2/1 28/2/1 31/2/1
f 37/1/1 34/1/1 33/1/1
f 38/2/1 35/2/1 34/2/1
f 38/1/1 34/1/1 37/1/1
f 39/1/1 36/1/1 35/1/1
f 39/2/1 35/2/1 38/2/1
f 40/1/1 36/1/1 39/1/1
f 41/1/2 42/1/2 45/1/2
f 42/2/2 43/2/2 46/2/2
f 45/1/2 42/1/2 46/1/2
f 43/1/2 44/1/2 47/1/2
f 46/2/2 43/2/2 47/2/2
f 47/1/2 44/1/2 48/1/2
f 49/1/2 50/1/2 53/1/2
f 53/1/2 50/1/2 54/1/2
f 51/2/2 52/2/2 55/2/2
f 55/2/2 52/2/2 56/2/2
f 57/2/2 58/2/2 63/2/2
f 63/2/2 58/2/2 64/2/2
f 59/1/2 60/1/2 65/1/2
f 65/1/2 60/1/2 66/1/2
f 61/1/2 62/1/2 67/1/2
f 67/1/2 62/1/2 68/1/2
f 69/1/2 70/1/2 73/1/2
f 73/1/2 70/1/2 74/1/2
f 71/2/2 72/2/2 75/2/2
f 75/2/2 72/2/2 76/2/2
f 77/2/2 78/2/2 79/2/2
f 79/2/2 78/2/2 80/2/2
f 83/2/3 82/2/3 81/2/3
f 84/2/3 82/2/3 83/2/3
f 87/2/3 86/2/3 85/2/3
f 88/2/3 86/2/3 87/2/3
f 91/2/3 90/2/3 89/2/3
f 92/2/3 90/2/3 91/2/3
f 95/1/3 94/1/3 93/1/3
f 96/1/3 94/1/3 95/1/3
f 99/1/3 98/1/3 97/1/3
f 100/1/3 98/1/3 99/1/3
f 103/1/3 102/1/3 101/1/3
f 104/1/3 102/1/3 103/1/3
f 107/1/3 106/1/3 105/1/3
f 108/1/3 106/1/3 107/1/3
f 111/2/3 110/2/3 109/2/3
f 112/2/3 110/2/3 111/2/3
f 115/2/3 114/2/3 113/2/3
f 116/2/3 114/2/3 115/2/3
f 117/2/4 118/2/4 119/2/4
f 119/2/4 118/2/4 120/2/4
f 121/2/4 122/2/4 123/2/4
f 123/2/4 122/2/4 124/2/4
f 125/1/4 126/1/4 127/1/4
f 127/1/4 126/1/4 128/1/4
f 129/1/4 130/1/4 131/1/4
f 131/1/4 130/1/4 132/1/4
f 133/1/4 134/1/4 135/1/4
f 135/1/4 134/1/4 136/1/4
f 137/1/4 138/1/4 139/1/4
f 139/1/4 138/1/4 140/1/4
f 141/2/4 142/2/4 143/2/4
f 143/2/4 142/2/4 144/2/4
f 145/2/4 146/2/4 147/2/4
f 147/2/4 146/2/4 148/2/4
f 149/2/4 150/2/4 151/2/4
f 151/2/4 150/2/4 152/2/4
f 155/2/5 154/2/5 153/2/5
f 156/2/5 154/2/5 155/2/5
f 157/2/5 154/2/5 156/2/5
f 158/2/5 154/2/5 157/2/5
f 159/2/5 155/2/5 153/2/5
f 160/1/5 156/1/5 155/1/5
f 160/2/5 155/2/5 159/2/5
f 161/2/5 154/2/5 158/2/5
f 161/1/5 158/1/5 157/1/5
f 162/2/5 154/2/5 161/2/5
f 163/1/5 156/1/5 160/1/5
f 164/2/5 157/2/5 156/2/5
f 164/1/5 156/1/5 163/1/5
f 165/1/5 161/1/5 157/1/5
f 165/2/5 157/2/5 164/2/5
f 166/1/5 161/1/5 165/1/5
f 167/1/5 165/1/5 164/1/5
f 168/1/5 165/1/5 167/1/5
f 169/2/5 168/2/5 167/2/5
f 170/2/5 168/2/5 169/2/5
f 172/1/5 170/1/5 169/1/5
f 173/1/5 170/1/5 172/1/5
f 176/2/5 173/2/5 172/2/5
f 176/2/5 174/2/5 173/2/5
f 176/2/5 172/2/5 171/2/5
f 177/2/5 174/2/5 176/2/5
f 178/2/5 174/2/5 177/2/5
f 179/2/5 174/2/5 178/2/5
f 181/1/5 176/1/5 175/1/5
f 181/4/5 177/4/5 176/4/5
f 182/1/5 178/1/5 177/1/5
f 182/4/5 177/4/5 181/4/5
f 183/3/5 179/3/5 178/3/5
f 183/1/5 178/1/5 182/1/5
f 184/1/5 180/1/5 179/1/5
f 184/3/5 179/3/5 183/3/5
f 186/1/5 181/1/5 175/1/5
f 187/3/5 182/3/5 181/3/5
f 187/1/5 181/1/5 186/1/5
f 188/1/5 180/1/5 184/1/5
f 188/4/5 184/4/5 183/4/5
f 189/1/5 180/1/5 188/1/5
f 191/1/5 186/1/5 185/1/5
f 191/4/5 187/4/5 186/4/5
f 192/3/5 182/3/5 187/3/5
f 192/4/5 187/4/5 191/4/5
f 193/1/5 183/1/5 182/1/5
f 193/3/5 182/3/5 192/3/5
f 194/3/5 189/3/5 188/3/5
f 194/4/5 188/4/5 183/4/5
f 195/1/5 190/1/5 189/1/5
f 195/3/5 189/3/5 194/3/5
f 196/3/5 192/3/5 191/3/5
f 196/4/5 193/4/5 192/4/5
f 197/1/5 183/1/5 193/1/5
f 197/4/5 193/4/5 196/4/5
f 198/4/5 194/4/5 183/4/5
f 198/4/5 195/4/5 194/4/5
f 199/1/5 190/1/5 195/1/5
f 199/4/5 195/4/5 198/4/5
f 200/1/5 191/1/5 185/1/5
f 201/3/5 196/3/5 191/3/5
f 201/1/5 191/1/5 200/1/5
f 201/3/5 197/3/5 196/3/5
f 202/1/5 183/1/5 197/1/5
f 202/3/5 197/3/5 201/3/5
f 203/4/5 198/4/5 183/4/5
f 203/1/5 183/1/5 202/1/5
f 204/3/5 199/3/5 198/3/5
f 204/4/5 198/4/5 203/4/5
f 205/1/5 190/1/5 199/1/5
f 205/3/5 199/3/5 204/3/5
f 206/1/5 190/1/5 205/1/5
f 208/1/5 202/1/5 201/1/5
f 208/1/5 205/1/5 204/1/5
f 208/1/5 204/1/5 203/1/5
f 208/1/5 203/1/5 202/1/5
f 209/1/5 205/1/5 208/1/5
f 211/2/5 209/2/5 208/2/5
f 211/2/5 210/2/5 209/2/5
f 211/2/5 208/2/5 207/2/5
f 212/2/5 210/2/5 211/2/5
f 213/2/5 210/2/5 212/2/5
f 214/2/5 210/2/5 213/2/5
f 215/2/5 213/2/5 212/2/5
f 216/2/5 213/2/5 215/2/5
f 217/2/6 218/2/6 219/2/6
f 219/2/6 218/2/6 220/2/6
f 220/2/6 218/2/6 221/2/6
f 221/2/6 218/2/6 222/2/6
f 217/2/6 219/2/6 223/2/6
f 219/1/6 220/1/6 224/1/6
f 223/2/6 219/2/6 224/2/6
f 222/2/6 218/2/6 225/2/6
f 221/1/6 222/1/6 225/1/6
f 225/2/6 218/2/6 226/2/6
f 224/1/6 220/1/6 227/1/6
f 220/2/6 221/2/6 228/2/6
f 227/1/6 220/1/6 228/1/6
f 221/1/6 225/1/6 229/1/6
f 228/2/6 221/2/6 229/2/6
f 229/1/6 225/1/6 230/1/6
f 228/1/6 229/1/6 231/1/6
f 231/1/6 229/1/6 232/1/6
f 231/2/6 232/2/6 233/2/6
f 233/2/6 232/2/6 234/2/6
f 233/1/6 234/1/6 236/1/6
f 236/1/6 234/1/6 237/1/6
f 236/2/6 237/2/6 240/2/6
f 237/2/6 238/2/6 240/2/6
f 235/2/6 236/2/6 240/2/6
f 240/2/6 238/2/6 241/2/6
f 241/2/6 238/2/6 242/2/6
f 242/2/6 238/2/6 243/2/6
f 239/1/6 240/1/6 245/1/6
f 240/4/6 241/4/6 245/4/6
f 241/1/6 242/1/6 246/1/6
f 245/4/6 241/4/6 246/4/6
f 242/3/6 243/3/6 247/3/6
f 246/1/6 242/1/6 247/1/6
f 243/1/6 244/1/6 248/1/6
f 247/3/6 243/3/6 248/3/6
f 239/1/6 245/1/6 250/1/6
f 245/3/6 246/3/6 251/3/6
f 250/1/6 245/1/6 251/1/6
f 248/1/6 244/1/6 252/1/6
f 247/4/6 248/4/6 252/4/6
f 252/1/6 244/1/6 253/1/6
f 249/1/6 250/1/6 255/1/6
f 250/4/6 251/4/6 255/4/6
f 251/3/6 246/3/6 256/3/6
f 255/4/6 251/4/6 256/4/6
f 246/1/6 247/1/6 257/1/6
f 256/3/6 246/3/6 257/3/6
f 252/3/6 253/3/6 258/3/6
f 247/4/6 252/4/6 258/4/6
f 253/1/6 254/1/6 259/1/6
f 258/3/6 253/3/6 259/3/6
f 255/3/6 256/3/6 260/3/6
f 256/4/6 257/4/6 260/4/6
f 257/1/6 247/1/6 261/1/6
f 260/4/6 257/4/6 261/4/6
f 247/4/6 258/4/6 262/4/6
f 258/4/6 259/4/6 262/4/6
f 259/1/6 254/1/6 263/1/6
f 262/4/6 259/4/6 263/4/6
f 249/1/6 255/1/6 264/1/6
f 255/3/6 260/3/6 265/3/6
f 264/1/6 255/1/6 265/1/6
f 260/3/6 261/3/6 265/3/6
f 261/1/6 247/1/6 266/1/6
f 265/3/6 261/3/6 266/3/6
f 247/4/6 262/4/6 267/4/6
f 266/1/6 247/1/6 267/1/6
f 262/3/6 263/3/6 268/3/6
f 267/4/6 262/4/6 268/4/6
f 263/1/6 254/1/6 269/1/6
f 268/3/6 263/3/6 269/3/6
f 269/1/6 254/1/6 270/1/6
f 265/1/6 266/1/6 272/1/6
f 268/1/6 269/1/6 272/1/6
f 267/1/6 268/1/6 272/1/6
f 266/1/6 267/1/6 272/1/6
f 272/1/6 269/1/6 273/1/6
f 272/2/6 273/2/6 275/2/6
f 273/2/6 274/2/6 275/2/6
f 271/2/6 272/2/6 275/2/6
f 275/2/6 274/2/6 276/2/6
f 276/2/6 274/2/6 277/2/6
f 277/2/6 274/2/6 278/2/6
f 276/2/6 277/2/6 279/2/6
f 279/2/6 277/2/6 280/2/6
