# MagicaVoxel @ Ephtracy

# group
o 

# material
mtllib tree3.mtl
usemtl palette

# normals
vn -1 0 0
vn 1 0 0
vn 0 0 1
vn 0 0 -1
vn 0 -1 0
vn 0 1 0

# texcoords
vt 0.947266 0.5
vt 0.951172 0.5
vt 0.982422 0.5
vt 0.990234 0.5

# verts
v -1.2 0 -0.4
v -1.2 0 -0.9
v -1.2 0.1 -0.4
v -1.2 0.1 -0.9
v -1.1 0 -0.2
v -1.1 0 -0.3
v -1.1 0 -0.4
v -1.1 0 -0.9
v -1.1 0 -1.1
v -1.1 0.1 -0.2
v -1.1 0.1 -0.3
v -1.1 0.1 -0.4
v -1.1 0.1 -0.9
v -1.1 0.1 -1.1
v -1 0 -0.1
v -1 0 -0.2
v -1 0 -1.1
v -1 0 -1.2
v -1 0.1 -0.1
v -1 0.1 -0.2
v -1 0.1 -1.1
v -1 0.1 -1.2
v -0.9 0 0
v -0.9 0 -0.1
v -0.9 0 -1.2
v -0.9 0 -1.3
v -0.9 0.1 0
v -0.9 0.1 -0.1
v -0.9 0.1 -1.2
v -0.9 0.1 -1.3
v -0.8 0 1.3
v -0.8 0 1.2
v -0.8 0.1 1.3
v -0.8 0.1 1.2
v -0.7 0 1.2
v -0.7 0 1.1
v -0.7 0 0.0999999
v -0.7 0 0
v -0.7 0 -1.3
v -0.7 0 -1.4
v -0.7 0.1 1.2
v -0.7 0.1 1.1
v -0.7 0.1 0.0999999
v -0.7 0.1 0
v -0.7 0.1 -1.3
v -0.7 0.1 -1.4
v -0.5 0 1.1
v -0.5 0 1
v -0.5 0.1 1.1
v -0.5 0.1 1
v -0.4 0 1
v -0.4 0 0.8
v -0.4 0.1 1
v -0.4 0.1 0.8
v -0.3 0 0.8
v -0.3 0 0.7
v -0.3 0.1 0.8
v -0.3 0.1 0.7
v -0.2 0 0.7
v -0.2 0 0.6
v -0.2 0.1 0.7
v -0.2 0.1 0.6
v -0.0999999 0 0.6
v -0.0999999 0 0.4
v -0.0999999 0 -1.4
v -0.0999999 0 -1.5
v -0.0999999 0.1 0.6
v -0.0999999 0.1 0.4
v -0.0999999 0.1 -1.4
v -0.0999999 0.1 -1.5
v 1.19209e-007 0 0.4
v 1.19209e-007 0 0.0999999
v 1.19209e-007 0 0
v 1.19209e-007 0 -1.5
v 1.19209e-007 0 -1.6
v 1.19209e-007 0.1 0.4
v 1.19209e-007 0.1 0.0999999
v 1.19209e-007 0.1 0
v 1.19209e-007 0.1 -1.5
v 1.19209e-007 0.1 -1.6
v 0.1 0 -1.6
v 0.1 0 -1.7
v 0.1 0.1 -1.6
v 0.1 0.1 -1.7
v -0.2 0 0.0999999
v -0.2 0 0
v -0.2 0.1 0.0999999
v -0.2 0.1 0
v 0.1 0 1.1
v 0.1 0 0.8
v 0.1 0.1 1.1
v 0.1 0.1 0.8
v 0.2 0 1.2
v 0.2 0 1.1
v 0.2 0 0.8
v 0.2 0 0.6
v 0.2 0.1 1.2
v 0.2 0.1 1.1
v 0.2 0.1 0.8
v 0.2 0.1 0.6
v 0.3 0 0.6
v 0.3 0 0.4
v 0.3 0.1 0.6
v 0.3 0.1 0.4
v 0.4 0 1.3
v 0.4 0 1.2
v 0.4 0.1 1.3
v 0.4 0.1 1.2
v 0.6 0 -1.6
v 0.6 0 -1.7
v 0.6 0.1 -1.6
v 0.6 0.1 -1.7
v 0.7 0 -1.5
v 0.7 0 -1.6
v 0.7 0.1 -1.5
v 0.7 0.1 -1.6
v 0.8 0 0.4
v 0.8 0 0.3
v 0.8 0 -0.8
v 0.8 0 -0.9
v 0.8 0 -1.4
v 0.8 0 -1.5
v 0.8 0.1 0.4
v 0.8 0.1 0.3
v 0.8 0.1 -0.8
v 0.8 0.1 -0.9
v 0.8 0.1 -1.4
v 0.8 0.1 -1.5
v 0.9 0 -0.9
v 0.9 0 -1.4
v 0.9 0.1 -0.9
v 0.9 0.1 -1.4
v 1 0 0.3
v 1 0 0.2
v 1 0 -0.7
v 1 0 -0.8
v 1 0.1 0.3
v 1 0.1 0.2
v 1 0.1 -0.7
v 1 0.1 -0.8
v 1.1 0 0.2
v 1.1 0 0.0999999
v 1.1 0 0
v 1.1 0 -0.5
v 1.1 0 -0.6
v 1.1 0 -0.7
v 1.1 0.1 0.2
v 1.1 0.1 0.0999999
v 1.1 0.1 0
v 1.1 0.1 -0.5
v 1.1 0.1 -0.6
v 1.1 0.1 -0.7
v 1.2 0 0
v 1.2 0 -0.5
v 1.2 0.1 0
v 1.2 0.1 -0.5
v -0.8 0 1.3
v -0.8 0.1 1.3
v -0.2 0 1.3
v -0.2 0.1 1.3
v 0.3 0 1.3
v 0.3 0.1 1.3
v 0.4 0 1.3
v 0.4 0.1 1.3
v 0.1 0 0.8
v 0.1 0.1 0.8
v 0.2 0 0.8
v 0.2 0.1 0.8
v 0.2 0 0.6
v 0.2 0.1 0.6
v 0.3 0 0.6
v 0.3 0.1 0.6
v 0.3 0 0.4
v 0.3 0.1 0.4
v 0.8 0 0.4
v 0.8 0.1 0.4
v 0.8 0 0.3
v 0.8 0.1 0.3
v 1 0 0.3
v 1 0.1 0.3
v 1 0 0.2
v 1 0.1 0.2
v 1.1 0 0.2
v 1.1 0.1 0.2
v -0.7 0 0.0999999
v -0.7 0.1 0.0999999
v -0.2 0 0.0999999
v -0.2 0.1 0.0999999
v -0.9 0 0
v -0.9 0.1 0
v -0.8 0 0
v -0.8 0.1 0
v -0.7 0 0
v -0.7 0.1 0
v -0.2 0 0
v -0.2 0.1 0
v 1.19209e-007 0 0
v 1.19209e-007 0.1 0
v 1.1 0 0
v 1.1 0.1 0
v 1.2 0 0
v 1.2 0.1 0
v -1 0 -0.1
v -1 0.1 -0.1
v -0.9 0 -0.1
v -0.9 0.1 -0.1
v -1.1 0 -0.2
v -1.1 0.1 -0.2
v -1 0 -0.2
v -1 0.1 -0.2
v -1.2 0 -0.4
v -1.2 0.1 -0.4
v -1.1 0 -0.4
v -1.1 0.1 -0.4
v 0.8 0 -0.9
v 0.8 0.1 -0.9
v 0.9 0 -0.9
v 0.9 0.1 -0.9
v -0.8 0 1.2
v -0.8 0.1 1.2
v -0.7 0 1.2
v -0.7 0.1 1.2
v 0.2 0 1.2
v 0.2 0.1 1.2
v 0.3 0 1.2
v 0.3 0.1 1.2
v 0.4 0 1.2
v 0.4 0.1 1.2
v -0.7 0 1.1
v -0.7 0.1 1.1
v -0.5 0 1.1
v -0.5 0.1 1.1
v 0.1 0 1.1
v 0.1 0.1 1.1
v 0.2 0 1.1
v 0.2 0.1 1.1
v -0.5 0 1
v -0.5 0.1 1
v -0.4 0 1
v -0.4 0.1 1
v -0.4 0 0.8
v -0.4 0.1 0.8
v -0.3 0 0.8
v -0.3 0.1 0.8
v -0.3 0 0.7
v -0.3 0.1 0.7
v -0.2 0 0.7
v -0.2 0.1 0.7
v -0.2 0 0.6
v -0.2 0.1 0.6
v -0.0999999 0 0.6
v -0.0999999 0.1 0.6
v -0.0999999 0 0.4
v -0.0999999 0.1 0.4
v 1.19209e-007 0 0.4
v 1.19209e-007 0.1 0.4
v 1.1 0 -0.5
v 1.1 0.1 -0.5
v 1.2 0 -0.5
v 1.2 0.1 -0.5
v 1 0 -0.7
v 1 0.1 -0.7
v 1.1 0 -0.7
v 1.1 0.1 -0.7
v 0.8 0 -0.8
v 0.8 0.1 -0.8
v 1 0 -0.8
v 1 0.1 -0.8
v -1.2 0 -0.9
v -1.2 0.1 -0.9
v -1.1 0 -0.9
v -1.1 0.1 -0.9
v -1.1 0 -1.1
v -1.1 0.1 -1.1
v -1 0 -1.1
v -1 0.1 -1.1
v -1 0 -1.2
v -1 0.1 -1.2
v -0.9 0 -1.2
v -0.9 0.1 -1.2
v -0.9 0 -1.3
v -0.9 0.1 -1.3
v -0.8 0 -1.3
v -0.8 0.1 -1.3
v -0.7 0 -1.3
v -0.7 0.1 -1.3
v -0.7 0 -1.4
v -0.7 0.1 -1.4
v -0.0999999 0 -1.4
v -0.0999999 0.1 -1.4
v 0.8 0 -1.4
v 0.8 0.1 -1.4
v 0.9 0 -1.4
v 0.9 0.1 -1.4
v -0.0999999 0 -1.5
v -0.0999999 0.1 -1.5
v 1.19209e-007 0 -1.5
v 1.19209e-007 0.1 -1.5
v 0.7 0 -1.5
v 0.7 0.1 -1.5
v 0.8 0 -1.5
v 0.8 0.1 -1.5
v 1.19209e-007 0 -1.6
v 1.19209e-007 0.1 -1.6
v 0.1 0 -1.6
v 0.1 0.1 -1.6
v 0.6 0 -1.6
v 0.6 0.1 -1.6
v 0.7 0 -1.6
v 0.7 0.1 -1.6
v 0.1 0 -1.7
v 0.1 0.1 -1.7
v 0.6 0 -1.7
v 0.6 0.1 -1.7
v -0.8 0 1.3
v -0.2 0 1.3
v 0.3 0 1.3
v 0.4 0 1.3
v -0.8 0 1.2
v -0.7 0 1.2
v -0.4 0 1.2
v -0.2 0 1.2
v 0.1 0 1.2
v 0.2 0 1.2
v 0.3 0 1.2
v 0.4 0 1.2
v -0.7 0 1.1
v -0.5 0 1.1
v 0.1 0 1.1
v 0.2 0 1.1
v -0.5 0 1
v -0.4 0 1
v -0.4 0 0.8
v -0.3 0 0.8
v 1.19209e-007 0 0.8
v 0.1 0 0.8
v 0.2 0 0.8
v -0.3 0 0.7
v -0.2 0 0.7
v -0.2 0 0.6
v -0.0999999 0 0.6
v 0.2 0 0.6
v 0.3 0 0.6
v -0.0999999 0 0.4
v 1.19209e-007 0 0.4
v 0.1 0 0.4
v 0.2 0 0.4
v 0.3 0 0.4
v 0.8 0 0.4
v 0.1 0 0.3
v 0.2 0 0.3
v 0.3 0 0.3
v 0.4 0 0.3
v 0.8 0 0.3
v 1 0 0.3
v 0.8 0 0.2
v 1 0 0.2
v 1.1 0 0.2
v -0.7 0 0.0999999
v -0.2 0 0.0999999
v 1.19209e-007 0 0.0999999
v 0.1 0 0.0999999
v 1 0 0.0999999
v 1.1 0 0.0999999
v -0.9 0 0
v -0.8 0 0
v -0.7 0 0
v -0.3 0 0
v -0.2 0 0
v 1.19209e-007 0 0
v 0.1 0 0
v 0.6 0 0
v 0.8 0 0
v 1.1 0 0
v 1.2 0 0
v -1 0 -0.1
v -0.9 0 -0.1
v -0.8 0 -0.1
v -0.3 0 -0.1
v 1.19209e-007 0 -0.1
v 0.1 0 -0.1
v 0.2 0 -0.1
v 0.6 0 -0.1
v 0.8 0 -0.1
v 0.9 0 -0.1
v -1.1 0 -0.2
v -1 0 -0.2
v -0.9 0 -0.2
v 0.2 0 -0.2
v 0.3 0 -0.2
v -1.1 0 -0.3
v -1 0 -0.3
v -1.2 0 -0.4
v -1.1 0 -0.4
v -0.3 0 -0.4
v -0.2 0 -0.4
v 0.3 0 -0.4
v 0.4 0 -0.4
v 0.8 0 -0.4
v 0.9 0 -0.4
v -0.3 0 -0.5
v -0.2 0 -0.5
v -0.0999999 0 -0.5
v 0.1 0 -0.5
v 0.3 0 -0.5
v 1.1 0 -0.5
v 1.2 0 -0.5
v -0.2 0 -0.6
v -0.0999999 0 -0.6
v 1.19209e-007 0 -0.6
v 1 0 -0.6
v 1.1 0 -0.6
v 0.8 0 -0.7
v 1 0 -0.7
v 1.1 0 -0.7
v 0.7 0 -0.8
v 0.8 0 -0.8
v 1 0 -0.8
v -1.2 0 -0.9
v -1.1 0 -0.9
v -1 0 -0.9
v -0.0999999 0 -0.9
v 1.19209e-007 0 -0.9
v 0.7 0 -0.9
v 0.8 0 -0.9
v 0.9 0 -0.9
v -1.1 0 -1.1
v -1 0 -1.1
v -0.8 0 -1.1
v -1 0 -1.2
v -0.9 0 -1.2
v 0.5 0 -1.2
v 0.6 0 -1.2
v -0.9 0 -1.3
v -0.8 0 -1.3
v -0.7 0 -1.3
v -0.0999999 0 -1.3
v 0.2 0 -1.3
v 0.5 0 -1.3
v 0.6 0 -1.3
v -0.7 0 -1.4
v -0.0999999 0 -1.4
v 1.19209e-007 0 -1.4
v 0.2 0 -1.4
v 0.5 0 -1.4
v 0.7 0 -1.4
v 0.8 0 -1.4
v 0.9 0 -1.4
v -0.0999999 0 -1.5
v 1.19209e-007 0 -1.5
v 0.1 0 -1.5
v 0.6 0 -1.5
v 0.7 0 -1.5
v 0.8 0 -1.5
v 1.19209e-007 0 -1.6
v 0.1 0 -1.6
v 0.6 0 -1.6
v 0.7 0 -1.6
v 0.1 0 -1.7
v 0.6 0 -1.7
v -0.8 0.1 1.3
v -0.2 0.1 1.3
v 0.3 0.1 1.3
v 0.4 0.1 1.3
v -0.8 0.1 1.2
v -0.7 0.1 1.2
v -0.4 0.1 1.2
v -0.2 0.1 1.2
v 0.1 0.1 1.2
v 0.2 0.1 1.2
v 0.3 0.1 1.2
v 0.4 0.1 1.2
v -0.7 0.1 1.1
v -0.5 0.1 1.1
v 0.1 0.1 1.1
v 0.2 0.1 1.1
v -0.5 0.1 1
v -0.4 0.1 1
v -0.4 0.1 0.8
v -0.3 0.1 0.8
v 1.19209e-007 0.1 0.8
v 0.1 0.1 0.8
v 0.2 0.1 0.8
v -0.3 0.1 0.7
v -0.2 0.1 0.7
v -0.2 0.1 0.6
v -0.0999999 0.1 0.6
v 0.2 0.1 0.6
v 0.3 0.1 0.6
v -0.0999999 0.1 0.4
v 1.19209e-007 0.1 0.4
v 0.1 0.1 0.4
v 0.2 0.1 0.4
v 0.3 0.1 0.4
v 0.8 0.1 0.4
v 0.1 0.1 0.3
v 0.2 0.1 0.3
v 0.3 0.1 0.3
v 0.4 0.1 0.3
v 0.8 0.1 0.3
v 1 0.1 0.3
v 0.8 0.1 0.2
v 1 0.1 0.2
v 1.1 0.1 0.2
v -0.7 0.1 0.0999999
v -0.2 0.1 0.0999999
v 1.19209e-007 0.1 0.0999999
v 0.1 0.1 0.0999999
v 1 0.1 0.0999999
v 1.1 0.1 0.0999999
v -0.9 0.1 0
v -0.8 0.1 0
v -0.7 0.1 0
v -0.3 0.1 0
v -0.2 0.1 0
v 1.19209e-007 0.1 0
v 0.1 0.1 0
v 0.6 0.1 0
v 0.8 0.1 0
v 1.1 0.1 0
v 1.2 0.1 0
v -1 0.1 -0.1
v -0.9 0.1 -0.1
v -0.8 0.1 -0.1
v -0.3 0.1 -0.1
v 1.19209e-007 0.1 -0.1
v 0.1 0.1 -0.1
v 0.2 0.1 -0.1
v 0.6 0.1 -0.1
v 0.8 0.1 -0.1
v 0.9 0.1 -0.1
v -1.1 0.1 -0.2
v -1 0.1 -0.2
v -0.9 0.1 -0.2
v 0.2 0.1 -0.2
v 0.3 0.1 -0.2
v -1.1 0.1 -0.3
v -1 0.1 -0.3
v -1.2 0.1 -0.4
v -1.1 0.1 -0.4
v -0.3 0.1 -0.4
v -0.2 0.1 -0.4
v 0.3 0.1 -0.4
v 0.4 0.1 -0.4
v 0.8 0.1 -0.4
v 0.9 0.1 -0.4
v -0.3 0.1 -0.5
v -0.2 0.1 -0.5
v -0.0999999 0.1 -0.5
v 0.1 0.1 -0.5
v 0.3 0.1 -0.5
v 1.1 0.1 -0.5
v 1.2 0.1 -0.5
v -0.2 0.1 -0.6
v -0.0999999 0.1 -0.6
v 1.19209e-007 0.1 -0.6
v 1 0.1 -0.6
v 1.1 0.1 -0.6
v 0.8 0.1 -0.7
v 1 0.1 -0.7
v 1.1 0.1 -0.7
v 0.7 0.1 -0.8
v 0.8 0.1 -0.8
v 1 0.1 -0.8
v -1.2 0.1 -0.9
v -1.1 0.1 -0.9
v -1 0.1 -0.9
v -0.0999999 0.1 -0.9
v 1.19209e-007 0.1 -0.9
v 0.7 0.1 -0.9
v 0.8 0.1 -0.9
v 0.9 0.1 -0.9
v -1.1 0.1 -1.1
v -1 0.1 -1.1
v -0.8 0.1 -1.1
v -1 0.1 -1.2
v -0.9 0.1 -1.2
v 0.5 0.1 -1.2
v 0.6 0.1 -1.2
v -0.9 0.1 -1.3
v -0.8 0.1 -1.3
v -0.7 0.1 -1.3
v -0.0999999 0.1 -1.3
v 0.2 0.1 -1.3
v 0.5 0.1 -1.3
v 0.6 0.1 -1.3
v -0.7 0.1 -1.4
v -0.0999999 0.1 -1.4
v 1.19209e-007 0.1 -1.4
v 0.2 0.1 -1.4
v 0.5 0.1 -1.4
v 0.7 0.1 -1.4
v 0.8 0.1 -1.4
v 0.9 0.1 -1.4
v -0.0999999 0.1 -1.5
v 1.19209e-007 0.1 -1.5
v 0.1 0.1 -1.5
v 0.6 0.1 -1.5
v 0.7 0.1 -1.5
v 0.8 0.1 -1.5
v 1.19209e-007 0.1 -1.6
v 0.1 0.1 -1.6
v 0.6 0.1 -1.6
v 0.7 0.1 -1.6
v 0.1 0.1 -1.7
v 0.6 0.1 -1.7

# faces
f 3/1/1 2/1/1 1/1/1
f 4/1/1 2/1/1 3/1/1
f 10/1/1 6/1/1 5/1/1
f 11/2/1 7/2/1 6/2/1
f 11/1/1 6/1/1 10/1/1
f 12/2/1 7/2/1 11/2/1
f 13/1/1 9/1/1 8/1/1
f 14/1/1 9/1/1 13/1/1
f 19/1/1 16/1/1 15/1/1
f 20/1/1 16/1/1 19/1/1
f 21/1/1 18/1/1 17/1/1
f 22/1/1 18/1/1 21/1/1
f 27/1/1 24/1/1 23/1/1
f 28/1/1 24/1/1 27/1/1
f 29/1/1 26/1/1 25/1/1
f 30/1/1 26/1/1 29/1/1
f 33/3/1 32/3/1 31/3/1
f 34/3/1 32/3/1 33/3/1
f 41/3/1 36/3/1 35/3/1
f 42/3/1 36/3/1 41/3/1
f 43/1/1 38/1/1 37/1/1
f 44/1/1 38/1/1 43/1/1
f 45/1/1 40/1/1 39/1/1
f 46/1/1 40/1/1 45/1/1
f 49/3/1 48/3/1 47/3/1
f 50/3/1 48/3/1 49/3/1
f 53/4/1 52/4/1 51/4/1
f 54/4/1 52/4/1 53/4/1
f 57/4/1 56/4/1 55/4/1
f 58/4/1 56/4/1 57/4/1
f 61/4/1 60/4/1 59/4/1
f 62/4/1 60/4/1 61/4/1
f 67/4/1 64/4/1 63/4/1
f 68/4/1 64/4/1 67/4/1
f 69/1/1 66/1/1 65/1/1
f 70/1/1 66/1/1 69/1/1
f 76/4/1 72/4/1 71/4/1
f 77/1/1 73/1/1 72/1/1
f 77/4/1 72/4/1 76/4/1
f 78/1/1 73/1/1 77/1/1
f 79/1/1 75/1/1 74/1/1
f 80/1/1 75/1/1 79/1/1
f 83/1/1 82/1/1 81/1/1
f 84/1/1 82/1/1 83/1/1
f 85/1/2 86/1/2 87/1/2
f 87/1/2 86/1/2 88/1/2
f 89/4/2 90/4/2 91/4/2
f 91/4/2 90/4/2 92/4/2
f 93/3/2 94/3/2 97/3/2
f 97/3/2 94/3/2 98/3/2
f 95/3/2 96/3/2 99/3/2
f 99/3/2 96/3/2 100/3/2
f 101/3/2 102/3/2 103/3/2
f 103/3/2 102/3/2 104/3/2
f 105/3/2 106/3/2 107/3/2
f 107/3/2 106/3/2 108/3/2
f 109/1/2 110/1/2 111/1/2
f 111/1/2 110/1/2 112/1/2
f 113/1/2 114/1/2 115/1/2
f 115/1/2 114/1/2 116/1/2
f 117/1/2 118/1/2 123/1/2
f 123/1/2 118/1/2 124/1/2
f 119/1/2 120/1/2 125/1/2
f 125/1/2 120/1/2 126/1/2
f 121/1/2 122/1/2 127/1/2
f 127/1/2 122/1/2 128/1/2
f 129/1/2 130/1/2 131/1/2
f 131/1/2 130/1/2 132/1/2
f 133/1/2 134/1/2 137/1/2
f 137/1/2 134/1/2 138/1/2
f 135/1/2 136/1/2 139/1/2
f 139/1/2 136/1/2 140/1/2
f 141/1/2 142/1/2 147/1/2
f 142/2/2 143/2/2 148/2/2
f 147/1/2 142/1/2 148/1/2
f 148/2/2 143/2/2 149/2/2
f 144/2/2 145/2/2 150/2/2
f 145/1/2 146/1/2 151/1/2
f 150/2/2 145/2/2 151/2/2
f 151/1/2 146/1/2 152/1/2
f 153/1/2 154/1/2 155/1/2
f 155/1/2 154/1/2 156/1/2
f 159/3/3 158/3/3 157/3/3
f 160/3/3 158/3/3 159/3/3
f 161/4/3 160/4/3 159/4/3
f 162/4/3 160/4/3 161/4/3
f 163/3/3 162/3/3 161/3/3
f 164/3/3 162/3/3 163/3/3
f 167/3/3 166/3/3 165/3/3
f 168/3/3 166/3/3 167/3/3
f 171/3/3 170/3/3 169/3/3
f 172/3/3 170/3/3 171/3/3
f 175/1/3 174/1/3 173/1/3
f 176/1/3 174/1/3 175/1/3
f 179/1/3 178/1/3 177/1/3
f 180/1/3 178/1/3 179/1/3
f 183/1/3 182/1/3 181/1/3
f 184/1/3 182/1/3 183/1/3
f 187/1/3 186/1/3 185/1/3
f 188/1/3 186/1/3 187/1/3
f 191/1/3 190/1/3 189/1/3
f 192/1/3 190/1/3 191/1/3
f 193/2/3 192/2/3 191/2/3
f 194/2/3 192/2/3 193/2/3
f 197/1/3 196/1/3 195/1/3
f 198/1/3 196/1/3 197/1/3
f 201/1/3 200/1/3 199/1/3
f 202/1/3 200/1/3 201/1/3
f 205/1/3 204/1/3 203/1/3
f 206/1/3 204/1/3 205/1/3
f 209/1/3 208/1/3 207/1/3
f 210/1/3 208/1/3 209/1/3
f 213/1/3 212/1/3 211/1/3
f 214/1/3 212/1/3 213/1/3
f 217/1/3 216/1/3 215/1/3
f 218/1/3 216/1/3 217/1/3
f 219/3/4 220/3/4 221/3/4
f 221/3/4 220/3/4 222/3/4
f 223/4/4 224/4/4 225/4/4
f 225/4/4 224/4/4 226/4/4
f 225/3/4 226/3/4 227/3/4
f 227/3/4 226/3/4 228/3/4
f 229/3/4 230/3/4 231/3/4
f 231/3/4 230/3/4 232/3/4
f 233/3/4 234/3/4 235/3/4
f 235/3/4 234/3/4 236/3/4
f 237/3/4 238/3/4 239/3/4
f 239/3/4 238/3/4 240/3/4
f 241/4/4 242/4/4 243/4/4
f 243/4/4 242/4/4 244/4/4
f 245/4/4 246/4/4 247/4/4
f 247/4/4 246/4/4 248/4/4
f 249/4/4 250/4/4 251/4/4
f 251/4/4 250/4/4 252/4/4
f 253/4/4 254/4/4 255/4/4
f 255/4/4 254/4/4 256/4/4
f 257/1/4 258/1/4 259/1/4
f 259/1/4 258/1/4 260/1/4
f 261/1/4 262/1/4 263/1/4
f 263/1/4 262/1/4 264/1/4
f 265/1/4 266/1/4 267/1/4
f 267/1/4 266/1/4 268/1/4
f 269/1/4 270/1/4 271/1/4
f 271/1/4 270/1/4 272/1/4
f 273/1/4 274/1/4 275/1/4
f 275/1/4 274/1/4 276/1/4
f 277/1/4 278/1/4 279/1/4
f 279/1/4 278/1/4 280/1/4
f 281/1/4 282/1/4 283/1/4
f 283/1/4 282/1/4 284/1/4
f 283/2/4 284/2/4 285/2/4
f 285/2/4 284/2/4 286/2/4
f 287/1/4 288/1/4 289/1/4
f 289/1/4 288/1/4 290/1/4
f 291/1/4 292/1/4 293/1/4
f 293/1/4 292/1/4 294/1/4
f 295/1/4 296/1/4 297/1/4
f 297/1/4 296/1/4 298/1/4
f 299/1/4 300/1/4 301/1/4
f 301/1/4 300/1/4 302/1/4
f 303/1/4 304/1/4 305/1/4
f 305/1/4 304/1/4 306/1/4
f 307/1/4 308/1/4 309/1/4
f 309/1/4 308/1/4 310/1/4
f 311/1/4 312/1/4 313/1/4
f 313/1/4 312/1/4 314/1/4
f 319/3/5 316/3/5 315/3/5
f 320/3/5 316/3/5 319/3/5
f 321/3/5 316/3/5 320/3/5
f 322/4/5 317/4/5 316/4/5
f 322/3/5 316/3/5 321/3/5
f 323/4/5 317/4/5 322/4/5
f 324/4/5 317/4/5 323/4/5
f 325/3/5 318/3/5 317/3/5
f 325/4/5 317/4/5 324/4/5
f 326/3/5 318/3/5 325/3/5
f 327/3/5 321/3/5 320/3/5
f 328/3/5 321/3/5 327/3/5
f 329/3/5 324/3/5 323/3/5
f 329/4/5 323/4/5 322/4/5
f 329/4/5 322/4/5 321/4/5
f 330/3/5 324/3/5 329/3/5
f 331/3/5 321/3/5 328/3/5
f 332/4/5 329/4/5 321/4/5
f 332/3/5 321/3/5 331/3/5
f 333/4/5 329/4/5 332/4/5
f 334/4/5 329/4/5 333/4/5
f 335/4/5 329/4/5 334/4/5
f 336/4/5 329/4/5 335/4/5
f 338/4/5 335/4/5 334/4/5
f 339/4/5 335/4/5 338/4/5
f 340/4/5 335/4/5 339/4/5
f 341/4/5 335/4/5 340/4/5
f 342/3/5 337/3/5 336/3/5
f 342/3/5 336/3/5 335/3/5
f 344/4/5 335/4/5 341/4/5
f 345/3/5 342/3/5 335/3/5
f 345/4/5 335/4/5 344/4/5
f 345/3/5 343/3/5 342/3/5
f 346/3/5 343/3/5 345/3/5
f 347/3/5 343/3/5 346/3/5
f 348/3/5 343/3/5 347/3/5
f 350/4/5 346/4/5 345/4/5
f 350/3/5 347/3/5 346/3/5
f 351/4/5 348/4/5 347/4/5
f 351/3/5 347/3/5 350/3/5
f 352/1/5 349/1/5 348/1/5
f 352/4/5 348/4/5 351/4/5
f 353/1/5 349/1/5 352/1/5
f 354/1/5 349/1/5 353/1/5
f 356/2/5 354/2/5 353/2/5
f 356/1/5 355/1/5 354/1/5
f 357/1/5 355/1/5 356/1/5
f 361/4/5 350/4/5 345/4/5
f 361/4/5 351/4/5 350/4/5
f 361/4/5 352/4/5 351/4/5
f 361/4/5 353/4/5 352/4/5
f 362/4/5 353/4/5 361/4/5
f 363/1/5 358/1/5 357/1/5
f 363/2/5 357/2/5 356/2/5
f 364/1/5 358/1/5 363/1/5
f 367/1/5 360/1/5 359/1/5
f 368/1/5 360/1/5 367/1/5
f 369/1/5 360/1/5 368/1/5
f 370/1/5 362/1/5 361/1/5
f 371/4/5 353/4/5 362/4/5
f 371/1/5 362/1/5 370/1/5
f 372/2/5 356/2/5 353/2/5
f 372/2/5 363/2/5 356/2/5
f 372/2/5 364/2/5 363/2/5
f 373/2/5 364/2/5 372/2/5
f 374/2/5 364/2/5 373/2/5
f 377/1/5 366/1/5 365/1/5
f 378/2/5 367/2/5 366/2/5
f 378/2/5 368/2/5 367/2/5
f 378/1/5 366/1/5 377/1/5
f 379/1/5 370/1/5 369/1/5
f 379/2/5 368/2/5 378/2/5
f 379/1/5 369/1/5 368/1/5
f 380/2/5 371/2/5 370/2/5
f 380/1/5 370/1/5 379/1/5
f 381/4/5 353/4/5 371/4/5
f 381/2/5 371/2/5 380/2/5
f 382/4/5 353/4/5 381/4/5
f 383/1/5 373/1/5 372/1/5
f 383/2/5 372/2/5 353/2/5
f 384/2/5 374/2/5 373/2/5
f 384/1/5 373/1/5 383/1/5
f 385/2/5 374/2/5 384/2/5
f 387/1/5 377/1/5 376/1/5
f 388/2/5 378/2/5 377/2/5
f 388/2/5 380/2/5 379/2/5
f 388/1/5 377/1/5 387/1/5
f 388/2/5 379/2/5 378/2/5
f 388/2/5 381/2/5 380/2/5
f 389/4/5 353/4/5 382/4/5
f 389/3/5 382/3/5 381/3/5
f 390/4/5 353/4/5 389/4/5
f 391/1/5 387/1/5 386/1/5
f 392/2/5 388/2/5 387/2/5
f 392/1/5 387/1/5 391/1/5
f 394/2/5 392/2/5 391/2/5
f 395/2/5 381/2/5 388/2/5
f 395/2/5 388/2/5 392/2/5
f 395/2/5 392/2/5 394/2/5
f 396/2/5 381/2/5 395/2/5
f 397/4/5 353/4/5 390/4/5
f 397/3/5 390/3/5 389/3/5
f 398/2/5 383/2/5 353/2/5
f 398/4/5 353/4/5 397/4/5
f 398/2/5 384/2/5 383/2/5
f 399/1/5 385/1/5 384/1/5
f 399/2/5 384/2/5 398/2/5
f 400/2/5 374/2/5 385/2/5
f 400/1/5 385/1/5 399/1/5
f 401/2/5 395/2/5 394/2/5
f 401/1/5 396/1/5 395/1/5
f 402/2/5 381/2/5 396/2/5
f 402/1/5 396/1/5 401/1/5
f 403/2/5 381/2/5 402/2/5
f 404/3/5 397/3/5 389/3/5
f 404/2/5 381/2/5 403/2/5
f 404/3/5 389/3/5 381/3/5
f 405/2/5 398/2/5 397/2/5
f 405/3/5 397/3/5 404/3/5
f 405/2/5 399/2/5 398/2/5
f 405/2/5 400/2/5 399/2/5
f 406/1/5 375/1/5 374/1/5
f 406/2/5 400/2/5 405/2/5
f 406/2/5 374/2/5 400/2/5
f 407/1/5 375/1/5 406/1/5
f 408/1/5 403/1/5 402/1/5
f 408/2/5 402/2/5 401/2/5
f 409/2/5 405/2/5 404/2/5
f 409/1/5 403/1/5 408/1/5
f 409/2/5 404/2/5 403/2/5
f 409/2/5 406/2/5 405/2/5
f 410/2/5 406/2/5 409/2/5
f 411/2/5 406/2/5 410/2/5
f 412/2/5 406/2/5 411/2/5
f 413/2/5 411/2/5 410/2/5
f 414/1/5 412/1/5 411/1/5
f 414/2/5 411/2/5 413/2/5
f 415/1/5 412/1/5 414/1/5
f 416/2/5 413/2/5 410/2/5
f 417/1/5 414/1/5 413/1/5
f 417/2/5 413/2/5 416/2/5
f 418/1/5 414/1/5 417/1/5
f 419/1/5 394/1/5 393/1/5
f 420/2/5 408/2/5 401/2/5
f 420/1/5 394/1/5 419/1/5
f 420/2/5 401/2/5 394/2/5
f 420/2/5 409/2/5 408/2/5
f 421/2/5 409/2/5 420/2/5
f 422/1/5 410/1/5 409/1/5
f 422/2/5 409/2/5 421/2/5
f 423/2/5 416/2/5 410/2/5
f 423/1/5 410/1/5 422/1/5
f 424/1/5 417/1/5 416/1/5
f 424/2/5 416/2/5 423/2/5
f 425/1/5 417/1/5 424/1/5
f 427/1/5 421/1/5 420/1/5
f 428/2/5 423/2/5 422/2/5
f 428/1/5 421/1/5 427/1/5
f 428/2/5 422/2/5 421/2/5
f 428/2/5 424/2/5 423/2/5
f 428/2/5 425/2/5 424/2/5
f 429/2/5 425/2/5 428/2/5
f 430/1/5 429/1/5 428/1/5
f 431/1/5 429/1/5 430/1/5
f 432/2/5 425/2/5 429/2/5
f 433/2/5 425/2/5 432/2/5
f 434/1/5 429/1/5 431/1/5
f 435/2/5 432/2/5 429/2/5
f 435/1/5 429/1/5 434/1/5
f 436/2/5 432/2/5 435/2/5
f 437/2/5 432/2/5 436/2/5
f 438/2/5 432/2/5 437/2/5
f 439/1/5 433/1/5 432/1/5
f 439/2/5 432/2/5 438/2/5
f 440/2/5 425/2/5 433/2/5
f 440/1/5 433/1/5 439/1/5
f 441/1/5 437/1/5 436/1/5
f 442/2/5 438/2/5 437/2/5
f 442/1/5 437/1/5 441/1/5
f 443/2/5 438/2/5 442/2/5
f 444/1/5 439/1/5 438/1/5
f 444/2/5 438/2/5 443/2/5
f 445/2/5 440/2/5 439/2/5
f 445/1/5 439/1/5 444/1/5
f 446/2/5 425/2/5 440/2/5
f 446/2/5 440/2/5 445/2/5
f 447/1/5 426/1/5 425/1/5
f 447/2/5 425/2/5 446/2/5
f 448/1/5 426/1/5 447/1/5
f 449/1/5 443/1/5 442/1/5
f 450/2/5 446/2/5 445/2/5
f 450/1/5 443/1/5 449/1/5
f 450/2/5 445/2/5 444/2/5
f 450/2/5 444/2/5 443/2/5
f 451/2/5 446/2/5 450/2/5
f 452/2/5 446/2/5 451/2/5
f 453/1/5 447/1/5 446/1/5
f 453/2/5 446/2/5 452/2/5
f 454/1/5 447/1/5 453/1/5
f 455/1/5 451/1/5 450/1/5
f 456/2/5 452/2/5 451/2/5
f 456/1/5 451/1/5 455/1/5
f 457/1/5 453/1/5 452/1/5
f 457/2/5 452/2/5 456/2/5
f 458/1/5 453/1/5 457/1/5
f 459/1/5 457/1/5 456/1/5
f 460/1/5 457/1/5 459/1/5
f 461/3/6 462/3/6 465/3/6
f 465/3/6 462/3/6 466/3/6
f 466/3/6 462/3/6 467/3/6
f 462/4/6 463/4/6 468/4/6
f 467/3/6 462/3/6 468/3/6
f 468/4/6 463/4/6 469/4/6
f 469/4/6 463/4/6 470/4/6
f 463/3/6 464/3/6 471/3/6
f 470/4/6 463/4/6 471/4/6
f 471/3/6 464/3/6 472/3/6
f 466/3/6 467/3/6 473/3/6
f 473/3/6 467/3/6 474/3/6
f 469/3/6 470/3/6 475/3/6
f 468/4/6 469/4/6 475/4/6
f 467/4/6 468/4/6 475/4/6
f 475/3/6 470/3/6 476/3/6
f 474/3/6 467/3/6 477/3/6
f 467/4/6 475/4/6 478/4/6
f 477/3/6 467/3/6 478/3/6
f 478/4/6 475/4/6 479/4/6
f 479/4/6 475/4/6 480/4/6
f 480/4/6 475/4/6 481/4/6
f 481/4/6 475/4/6 482/4/6
f 480/4/6 481/4/6 484/4/6
f 484/4/6 481/4/6 485/4/6
f 485/4/6 481/4/6 486/4/6
f 486/4/6 481/4/6 487/4/6
f 482/3/6 483/3/6 488/3/6
f 481/3/6 482/3/6 488/3/6
f 487/4/6 481/4/6 490/4/6
f 481/3/6 488/3/6 491/3/6
f 490/4/6 481/4/6 491/4/6
f 488/3/6 489/3/6 491/3/6
f 491/3/6 489/3/6 492/3/6
f 492/3/6 489/3/6 493/3/6
f 493/3/6 489/3/6 494/3/6
f 491/4/6 492/4/6 496/4/6
f 492/3/6 493/3/6 496/3/6
f 493/4/6 494/4/6 497/4/6
f 496/3/6 493/3/6 497/3/6
f 494/1/6 495/1/6 498/1/6
f 497/4/6 494/4/6 498/4/6
f 498/1/6 495/1/6 499/1/6
f 499/1/6 495/1/6 500/1/6
f 499/2/6 500/2/6 502/2/6
f 500/1/6 501/1/6 502/1/6
f 502/1/6 501/1/6 503/1/6
f 491/4/6 496/4/6 507/4/6
f 496/4/6 497/4/6 507/4/6
f 497/4/6 498/4/6 507/4/6
f 498/4/6 499/4/6 507/4/6
f 507/4/6 499/4/6 508/4/6
f 503/1/6 504/1/6 509/1/6
f 502/2/6 503/2/6 509/2/6
f 509/1/6 504/1/6 510/1/6
f 505/1/6 506/1/6 513/1/6
f 513/1/6 506/1/6 514/1/6
f 514/1/6 506/1/6 515/1/6
f 507/1/6 508/1/6 516/1/6
f 508/4/6 499/4/6 517/4/6
f 516/1/6 508/1/6 517/1/6
f 499/2/6 502/2/6 518/2/6
f 502/2/6 509/2/6 518/2/6
f 509/2/6 510/2/6 518/2/6
f 518/2/6 510/2/6 519/2/6
f 519/2/6 510/2/6 520/2/6
f 511/1/6 512/1/6 523/1/6
f 512/2/6 513/2/6 524/2/6
f 513/2/6 514/2/6 524/2/6
f 523/1/6 512/1/6 524/1/6
f 515/1/6 516/1/6 525/1/6
f 524/2/6 514/2/6 525/2/6
f 514/1/6 515/1/6 525/1/6
f 516/2/6 517/2/6 526/2/6
f 525/1/6 516/1/6 526/1/6
f 517/4/6 499/4/6 527/4/6
f 526/2/6 517/2/6 527/2/6
f 527/4/6 499/4/6 528/4/6
f 518/1/6 519/1/6 529/1/6
f 499/2/6 518/2/6 529/2/6
f 519/2/6 520/2/6 530/2/6
f 529/1/6 519/1/6 530/1/6
f 530/2/6 520/2/6 531/2/6
f 522/1/6 523/1/6 533/1/6
f 523/2/6 524/2/6 534/2/6
f 525/2/6 526/2/6 534/2/6
f 533/1/6 523/1/6 534/1/6
f 524/2/6 525/2/6 534/2/6
f 526/2/6 527/2/6 534/2/6
f 528/4/6 499/4/6 535/4/6
f 527/3/6 528/3/6 535/3/6
f 535/4/6 499/4/6 536/4/6
f 532/1/6 533/1/6 537/1/6
f 533/2/6 534/2/6 538/2/6
f 537/1/6 533/1/6 538/1/6
f 537/2/6 538/2/6 540/2/6
f 534/2/6 527/2/6 541/2/6
f 538/2/6 534/2/6 541/2/6
f 540/2/6 538/2/6 541/2/6
f 541/2/6 527/2/6 542/2/6
f 536/4/6 499/4/6 543/4/6
f 535/3/6 536/3/6 543/3/6
f 499/2/6 529/2/6 544/2/6
f 543/4/6 499/4/6 544/4/6
f 529/2/6 530/2/6 544/2/6
f 530/1/6 531/1/6 545/1/6
f 544/2/6 530/2/6 545/2/6
f 531/2/6 520/2/6 546/2/6
f 545/1/6 531/1/6 546/1/6
f 540/2/6 541/2/6 547/2/6
f 541/1/6 542/1/6 547/1/6
f 542/2/6 527/2/6 548/2/6
f 547/1/6 542/1/6 548/1/6
f 548/2/6 527/2/6 549/2/6
f 535/3/6 543/3/6 550/3/6
f 549/2/6 527/2/6 550/2/6
f 527/3/6 535/3/6 550/3/6
f 543/2/6 544/2/6 551/2/6
f 550/3/6 543/3/6 551/3/6
f 544/2/6 545/2/6 551/2/6
f 545/2/6 546/2/6 551/2/6
f 520/1/6 521/1/6 552/1/6
f 551/2/6 546/2/6 552/2/6
f 546/2/6 520/2/6 552/2/6
f 552/1/6 521/1/6 553/1/6
f 548/1/6 549/1/6 554/1/6
f 547/2/6 548/2/6 554/2/6
f 550/2/6 551/2/6 555/2/6
f 554/1/6 549/1/6 555/1/6
f 549/2/6 550/2/6 555/2/6
f 551/2/6 552/2/6 555/2/6
f 555/2/6 552/2/6 556/2/6
f 556/2/6 552/2/6 557/2/6
f 557/2/6 552/2/6 558/2/6
f 556/2/6 557/2/6 559/2/6
f 557/1/6 558/1/6 560/1/6
f 559/2/6 557/2/6 560/2/6
f 560/1/6 558/1/6 561/1/6
f 556/2/6 559/2/6 562/2/6
f 559/1/6 560/1/6 563/1/6
f 562/2/6 559/2/6 563/2/6
f 563/1/6 560/1/6 564/1/6
f 539/1/6 540/1/6 565/1/6
f 547/2/6 554/2/6 566/2/6
f 565/1/6 540/1/6 566/1/6
f 540/2/6 547/2/6 566/2/6
f 554/2/6 555/2/6 566/2/6
f 566/2/6 555/2/6 567/2/6
f 555/1/6 556/1/6 568/1/6
f 567/2/6 555/2/6 568/2/6
f 556/2/6 562/2/6 569/2/6
f 568/1/6 556/1/6 569/1/6
f 562/1/6 563/1/6 570/1/6
f 569/2/6 562/2/6 570/2/6
f 570/1/6 563/1/6 571/1/6
f 566/1/6 567/1/6 573/1/6
f 568/2/6 569/2/6 574/2/6
f 573/1/6 567/1/6 574/1/6
f 567/2/6 568/2/6 574/2/6
f 569/2/6 570/2/6 574/2/6
f 570/2/6 571/2/6 574/2/6
f 574/2/6 571/2/6 575/2/6
f 574/1/6 575/1/6 576/1/6
f 576/1/6 575/1/6 577/1/6
f 575/2/6 571/2/6 578/2/6
f 578/2/6 571/2/6 579/2/6
f 577/1/6 575/1/6 580/1/6
f 575/2/6 578/2/6 581/2/6
f 580/1/6 575/1/6 581/1/6
f 581/2/6 578/2/6 582/2/6
f 582/2/6 578/2/6 583/2/6
f 583/2/6 578/2/6 584/2/6
f 578/1/6 579/1/6 585/1/6
f 584/2/6 578/2/6 585/2/6
f 579/2/6 571/2/6 586/2/6
f 585/1/6 579/1/6 586/1/6
f 582/1/6 583/1/6 587/1/6
f 583/2/6 584/2/6 588/2/6
f 587/1/6 583/1/6 588/1/6
f 588/2/6 584/2/6 589/2/6
f 584/1/6 585/1/6 590/1/6
f 589/2/6 584/2/6 590/2/6
f 585/2/6 586/2/6 591/2/6
f 590/1/6 585/1/6 591/1/6
f 586/2/6 571/2/6 592/2/6
f 591/2/6 586/2/6 592/2/6
f 571/1/6 572/1/6 593/1/6
f 592/2/6 571/2/6 593/2/6
f 593/1/6 572/1/6 594/1/6
f 588/1/6 589/1/6 595/1/6
f 591/2/6 592/2/6 596/2/6
f 595/1/6 589/1/6 596/1/6
f 590/2/6 591/2/6 596/2/6
f 589/2/6 590/2/6 596/2/6
f 596/2/6 592/2/6 597/2/6
f 597/2/6 592/2/6 598/2/6
f 592/1/6 593/1/6 599/1/6
f 598/2/6 592/2/6 599/2/6
f 599/1/6 593/1/6 600/1/6
f 596/1/6 597/1/6 601/1/6
f 597/2/6 598/2/6 602/2/6
f 601/1/6 597/1/6 602/1/6
f 598/1/6 599/1/6 603/1/6
f 602/2/6 598/2/6 603/2/6
f 603/1/6 599/1/6 604/1/6
f 602/1/6 603/1/6 605/1/6
f 605/1/6 603/1/6 606/1/6
